<?xml version="1.0" encoding="UTF-8"?>
<svg id="_レイヤー_3" data-name="レイヤー 3" xmlns="http://www.w3.org/2000/svg" xmlns:xlink="http://www.w3.org/1999/xlink" viewBox="0 0 1434.93 456.34">
  <defs>
    <style>
      .cls-1 {
        fill: url(#linear-gradient-4);
      }

      .cls-2 {
        fill: url(#linear-gradient-3);
      }

      .cls-3 {
        fill: url(#linear-gradient-2);
      }

      .cls-4 {
        fill: #ff9100;
      }

      .cls-5 {
        fill: url(#linear-gradient);
      }

      .cls-6 {
        fill: #5c5c5c;
      }

      .cls-7 {
        fill: #5c5c5c;
      }

      .cls-8 {
        fill: url(#_名称未設定グラデーション_3);
      }

      .cls-9 {
        fill: #ffb5e0;
      }

      .cls-10 {
        fill: #f8f0bf;
      }

      .cls-11 {
        fill: #8cc63f;
      }

      .cls-12 {
        fill: #fff;
      }

      .cls-13 {
        fill: url(#_名称未設定グラデーション_228);
      }

      .cls-14 {
        fill: url(#_新規スウォッチ_3);
      }

      .cls-15 {
        fill: url(#_新規スウォッチ_3-2);
      }

      .cls-16 {
        fill: #29abe2;
      }

      .cls-17 {
        fill: #693e29;
      }

      .cls-18 {
        fill: #edc987;
      }

      .cls-19 {
        fill: #693e29;
      }

      .cls-20 {
        fill: #b3e2a8;
      }

      .cls-21 {
        fill: url(#_名称未設定グラデーション_19);
      }
    </style>
    <linearGradient id="linear-gradient" x1="-2030.57" y1="2529.57" x2="-2065.63" y2="2471.79" gradientTransform="translate(-2464.48 2062.29) rotate(95.28) scale(1 -1)" gradientUnits="userSpaceOnUse">
      <stop offset="0" stop-color="#fff"/>
      <stop offset=".62" stop-color="#fdfdfd"/>
      <stop offset=".85" stop-color="#f6f8f7"/>
      <stop offset="1" stop-color="#ebf0ee"/>
    </linearGradient>
    <linearGradient id="linear-gradient-2" x1="-3667.65" y1="-765.55" x2="-3599.89" y2="-765.55" gradientTransform="translate(-3218.49 -988.64) rotate(-148.61) scale(1 -1)" gradientUnits="userSpaceOnUse">
      <stop offset="0" stop-color="#fff"/>
      <stop offset=".42" stop-color="#faf9f9"/>
      <stop offset=".95" stop-color="#eceaea"/>
      <stop offset="1" stop-color="#ebe8e8"/>
    </linearGradient>
    <linearGradient id="linear-gradient-3" x1="-3969.11" y1="326.46" x2="-3924.29" y2="281.64" gradientTransform="translate(-3679.03) rotate(-180) scale(1 -1)" gradientUnits="userSpaceOnUse">
      <stop offset="0" stop-color="#fff"/>
      <stop offset="1" stop-color="#ebe8e8"/>
    </linearGradient>
    <linearGradient id="linear-gradient-4" x1="-3899.97" y1="314.78" x2="-3904.63" y2="216.61" gradientTransform="translate(-3679.03) rotate(-180) scale(1 -1)" gradientUnits="userSpaceOnUse">
      <stop offset="0" stop-color="#fff"/>
      <stop offset=".55" stop-color="#fdfdfd"/>
      <stop offset=".74" stop-color="#f6f6f6"/>
      <stop offset=".88" stop-color="#ebeaea"/>
      <stop offset="1" stop-color="#dbd9d9"/>
      <stop offset="1" stop-color="#dbd9d9"/>
    </linearGradient>
    <linearGradient id="_名称未設定グラデーション_3" data-name="名称未設定グラデーション 3" x1="4589.11" y1="113.78" x2="4618.75" y2="113.78" gradientTransform="translate(-4332.42)" gradientUnits="userSpaceOnUse">
      <stop offset="0" stop-color="#e6afcf"/>
      <stop offset=".32" stop-color="#e6afcc"/>
      <stop offset=".53" stop-color="#e7b3c3"/>
      <stop offset=".71" stop-color="#e8b8b4"/>
      <stop offset=".86" stop-color="#eabfa0"/>
      <stop offset="1" stop-color="#edc987"/>
    </linearGradient>
    <linearGradient id="_名称未設定グラデーション_19" data-name="名称未設定グラデーション 19" x1="-3868.22" y1="111.51" x2="-3838.61" y2="111.51" gradientTransform="translate(-3679.03) rotate(-180) scale(1 -1)" gradientUnits="userSpaceOnUse">
      <stop offset="0" stop-color="#e6afcf"/>
      <stop offset=".26" stop-color="#e3adcc"/>
      <stop offset=".43" stop-color="#daa8c5"/>
      <stop offset=".57" stop-color="#cb9fb9"/>
      <stop offset=".69" stop-color="#b692a7"/>
      <stop offset=".81" stop-color="#9b8291"/>
      <stop offset=".92" stop-color="#7a6e75"/>
      <stop offset="1" stop-color="#5c5c5c"/>
    </linearGradient>
    <linearGradient id="_新規スウォッチ_3" data-name="新規スウォッチ 3" x1="-3942.4" y1="160.15" x2="-3942.4" y2="180.6" gradientTransform="translate(-3679.03) rotate(-180) scale(1 -1)" gradientUnits="userSpaceOnUse">
      <stop offset="0" stop-color="#946f44"/>
      <stop offset=".24" stop-color="#7f5a36"/>
      <stop offset=".74" stop-color="#5a351d"/>
      <stop offset="1" stop-color="#4d2814"/>
    </linearGradient>
    <linearGradient id="_新規スウォッチ_3-2" data-name="新規スウォッチ 3" x1="-3879.18" y1="159.98" x2="-3879.18" y2="180.41" xlink:href="#_新規スウォッチ_3"/>
    <linearGradient id="_名称未設定グラデーション_228" data-name="名称未設定グラデーション 228" x1="-3912.25" y1="205.35" x2="-3913.12" y2="188" gradientTransform="translate(-3679.03) rotate(-180) scale(1 -1)" gradientUnits="userSpaceOnUse">
      <stop offset="0" stop-color="#e38181"/>
      <stop offset=".2" stop-color="#de7c7b"/>
      <stop offset=".44" stop-color="#d16f6c"/>
      <stop offset=".71" stop-color="#bc5954"/>
      <stop offset=".98" stop-color="#9f3a32"/>
      <stop offset="1" stop-color="#9e3930"/>
    </linearGradient>
  </defs>
  <g>
    <polygon class="cls-5" points="243.65 269.97 244.53 267.46 245.93 265.18 245.94 262.49 246.51 259.92 245.84 257.37 244.21 255.33 242.6 253.24 240.26 252.01 238.18 250.36 235.58 249.7 233.5 248 230.84 247.5 228.83 245.67 226.45 244.58 224.28 243.13 221.83 242.04 220.15 239.87 217.73 238.69 215.61 237.1 213.49 235.5 211.28 234.03 208.75 233.13 206.47 231.78 204.17 230.42 201.61 229.7 198.98 229.28 196.49 228.24 193.83 228.38 191.39 229.26 189.07 230.4 187.17 232.44 185.68 234.79 184.07 237.08 183.3 239.82 183.56 242.65 184.84 245.16 186.56 247.34 187.95 249.76 189.8 251.83 192.06 253.52 193.92 255.55 195.37 258 197.53 259.76 199.2 262.01 201.39 263.65 203.53 265.31 205.44 267.23 207.52 268.95 209.58 270.72 212.13 271.75 214.49 273.04 216.67 274.7 219.29 275.43 221.79 276.48 224.41 277.19 227.1 277.65 229.83 277.58 232.57 277.4 235.16 276.51 237.6 275.33 239.78 273.76 241.98 272.15 243.65 269.97"/>
    <g>
      <path class="cls-16" d="M347.19,350.18c.68-.87,1.4-1.71,2.16-2.51-17.08-17.42-37.7-31.36-60.68-40.64-.39,3.55-.09,7.16,1.64,10.23,1.17,2.08,2.93,3.78,4.13,5.84,1.2,2.06,1.77,4.79.44,6.77-1.74-1.19-3.54-2.4-5.6-2.86s-4.47.02-5.74,1.7c-1.03,1.36-1.13,3.2-1.92,4.72-.78,1.51-3.01,2.6-4.13,1.31-.5-.58-.56-1.4-.59-2.16-.42-9.87-.8-19.96.16-29.77-7.84-2.54-15.91-4.56-24.18-6-16.22,28.5-39.01,53.25-66.16,71.65-5.56,3.77-8.03,5.18-14.67,6.19s-13.53-1.2-19.56-4.14c-4.88-2.38-23.26,9.49-24.13,17.35-.82,7.34-10.82,17.71-17.68,19.82-5.09,1.57-11.67,1.62-14.05,6.39-1.54,3.08,5.26,5.63,7.45,8.28,2.19,2.65,5.13,1.55,6.83,4.55,5.16,9.1,10.78,19.97,11.64,29.46h82.79c2.28-2.97,4.94-6.2,6.13-9.28.8-2.06-1.95-4-.55-6.29,1.54-2.53,5.7-4.39,7.49-4.08,1.56.28,2.83,2.91,2.32,4.09-.56,1.29-2.33,2.07-3.22,2.92-.35.33-.34,1.03-.37,1.51-.06.86,0,2.2.65,2.06,7.09-1.5,14.18-5.87,18.67-12.15,1.57-2.2,6.47-2.59,7.97-4.55,1.96-2.55-.33-3.09.52-5.95.85-2.86,5.93-6.96,6.55-10.12,1.83-3.61-.17-6.59-1.25-10.49l5.88-1.12.13-5.6c3.77-2.35,6.42.18,6.42.18l-.04-4.67c2.21-1.59,7.33-2.79,9.65-1.37l-1.89,9.84c2.4,2.34,4.45,4.47,5.82,7.04,1.37,2.57,1.98,5.68.99,8.41-.89,2.44-2.91,4.26-4.45,6.35-1.32,1.79-2.28,4.16-1.73,6.23.21.29.35.63.4,1.02-.18-.33-.31-.67-.4-1.02-.88-1.22-2.97-1.58-4.32-.68-1.66,1.11-2.21,3.36-2.01,5.35s.99,3.87,1.43,5.83.47,4.16-.69,5.79c-3.24,2.69-4.11,6.67-4.86,10.78h139.03c-3.61-40.5-20.83-77.14-47.04-105.31-1.87.29-3.72.1-5.38-.86ZM290.21,386.22c-15.57-15.57-22.66-6.1-23.57-7.15-6.53-7.54-6.63.06-3.72,2.92,1.86.49,2.7,2.94,4.33,4.17-5.65-.56-7.52,1.96-13.3,4.61,2.26-10.49-8.08-11.48-3.64-15.47,1.21-1.02,3.32-1.31,3.56-2.87.23-1.45-1.47-2.46-1.87-3.87-.37-5.04,6.11-3.76,9.01-2.03,3.46,1.9,6-3.42,5.08-4.5,5.04-5.11,8.88-13.05,4.85-18.99,1.89-.55,3.14-2.34,5.03-2.89,15.56,17.11,27.65,16.36,43.25,12.07-1.61,2.91-4.54,7.68-7.15,9.91.01,1.41,7.93,4.16,11.26,3.98-13.32,7.89-31.79,4.22-33.1,20.11ZM326.73,356.76c-.29-3.05,1.53-8.24,4.45-10,2.92-1.76,9.02.85,10.04,4.1-5.21,2.5-10.42,5.01-14.49,5.9Z"/>
      <path class="cls-16" d="M82.25,446.81c.54-2.08,6.57-2.96,6.69-.81,1.78-5.96-2.14-11.87-8.34-12.36-4.66-.37-5.72,2.38-10.35,1.76-3.18-.43-6.24-2.84-5.48-6.05.4-1.69,3.12-3.66,4.56-6.13,1.53-2.63,1.59-4.75,2.12-6.92-4.41-2.19-8.57-7.72-13.37-6.67-.91.2-1.87.39-2.85.59-5.43,14.57-9,30.04-10.44,46.11h41.24c-1-2.51-4.45-6.93-3.77-9.53Z"/>
      <path class="cls-11" d="M104.07,422.33c-2.19-2.65-8.99-5.2-7.45-8.28,2.38-4.76,8.96-4.82,14.05-6.39,6.86-2.12,16.86-12.48,17.68-19.82.87-7.85,19.25-19.73,24.13-17.35,6.04,2.94,12.92,5.15,19.56,4.14s9.11-2.42,14.67-6.19c27.15-18.39,49.94-43.15,66.16-71.65-9.97-1.74-20.22-2.65-30.67-2.65-76.41,0-141.72,48.36-166.97,116.08.98-.19,1.94-.39,2.85-.59,4.79-1.05,8.96,4.48,13.37,6.67-.53,2.17-.59,4.29-2.12,6.92-1.44,2.47-4.16,4.44-4.56,6.13-.76,3.21,2.3,5.62,5.48,6.05,4.63.62,5.7-2.13,10.35-1.76,6.2.49,10.13,6.39,8.34,12.36-.12-2.15-6.14-1.27-6.69.81-.68,2.61,2.78,7.02,3.77,9.53h36.51c-.86-9.49-6.48-20.36-11.64-29.46-1.7-2.99-4.64-1.9-6.83-4.55Z"/>
      <path class="cls-11" d="M312.05,362.13c2.61-2.23,5.54-7,7.15-9.91-15.6,4.29-27.69,5.03-43.25-12.07-1.89.55-3.14,2.34-5.03,2.89,4.03,5.94.19,13.88-4.85,18.99.92,1.08-1.61,6.4-5.08,4.5-2.9-1.73-9.38-3.01-9.01,2.03.4,1.41,2.1,2.42,1.87,3.87-.24,1.56-2.35,1.85-3.56,2.87-4.44,3.99,5.9,4.98,3.64,15.47,5.78-2.64,7.65-5.17,13.3-4.61-1.64-1.23-2.47-3.68-4.33-4.17-2.91-2.86-2.8-10.46,3.72-2.92.91,1.05,8-8.42,23.57,7.15,1.31-15.89,19.78-12.22,33.1-20.11-3.33.18-11.24-2.57-11.26-3.98Z"/>
      <path class="cls-11" d="M276.89,332.57c.03.76.09,1.59.59,2.16,1.12,1.29,3.34.2,4.13-1.31.78-1.51.89-3.36,1.92-4.72,1.27-1.68,3.68-2.16,5.74-1.7s3.86,1.67,5.6,2.86c1.33-1.98.77-4.71-.44-6.77-1.2-2.06-2.96-3.76-4.13-5.84-1.73-3.07-2.03-6.68-1.64-10.23-3.81-1.54-7.68-2.94-11.62-4.22-.96,9.81-.58,19.9-.16,29.77Z"/>
      <path class="cls-11" d="M331.19,346.76c-2.92,1.76-4.74,6.95-4.45,10,4.08-.89,9.28-3.4,14.49-5.9-1.02-3.25-7.12-5.86-10.04-4.1Z"/>
      <path class="cls-11" d="M352.56,351.03c-1.06-1.14-2.13-2.26-3.22-3.37-.76.8-1.48,1.64-2.16,2.51,1.66.96,3.51,1.15,5.38.86Z"/>
      <path class="cls-11" d="M271.02,429.27c.09.35.22.69.4,1.02-.05-.38-.19-.72-.4-1.02Z"/>
      <path class="cls-11" d="M265.43,445.56c1.17-1.63,1.13-3.83.69-5.79s-1.23-3.84-1.43-5.83.34-4.24,2.01-5.35c1.34-.9,3.43-.53,4.32.68-.55-2.07.41-4.44,1.73-6.23,1.54-2.09,3.56-3.91,4.45-6.35,1-2.73.38-5.85-.99-8.41-1.37-2.57-3.42-4.7-5.82-7.04l1.89-9.84c-2.32-1.42-7.44-.22-9.65,1.37l.04,4.67s-2.66-2.53-6.42-.18l-.13,5.6-5.88,1.12c1.08,3.9,3.07,6.88,1.25,10.49-.61,3.16-5.69,7.26-6.55,10.12-.85,2.86,1.43,3.4-.52,5.95-1.5,1.96-6.4,2.35-7.97,4.55-4.49,6.28-11.58,10.65-18.67,12.15-.64.14-.71-1.2-.65-2.06.03-.48.03-1.18.37-1.51.89-.84,2.65-1.63,3.22-2.92.51-1.18-.75-3.81-2.32-4.09-1.78-.32-5.94,1.55-7.49,4.08-1.4,2.3,1.35,4.24.55,6.29-1.19,3.08-3.84,6.31-6.13,9.28h55.25c.74-4.11,1.62-8.1,4.86-10.78Z"/>
      <path class="cls-19" d="M222.19,285c-97.9,0-178.48,75.51-186.6,171.34h9.19c1.43-16.08,5-31.54,10.44-46.11,25.25-67.72,90.57-116.08,166.97-116.08,10.46,0,20.7.91,30.67,2.65,8.27,1.44,16.34,3.46,24.18,6,3.93,1.28,7.81,2.68,11.62,4.22,22.98,9.28,43.6,23.22,60.68,40.64,1.09,1.11,2.16,2.23,3.22,3.37,26.22,28.17,43.43,64.81,47.04,105.31h9.19c-8.12-95.83-88.7-171.34-186.6-171.34Z"/>
    </g>
    <g id="_尻尾" data-name="尻尾">
      <polygon class="cls-12" points="192.16 290.87 192.94 288.17 193.17 285.42 192.06 282.91 190.55 280.59 188.14 279.2 185.63 277.91 182.79 277.8 180.1 276.86 177.28 276.89 174.5 276.47 171.89 275.49 169.17 274.99 166.64 273.87 164.21 272.57 161.52 271.73 159.13 270.27 157.11 268.34 155.4 266.14 153.67 264 152.27 261.63 150.71 259.34 149.77 256.74 148.27 254.37 147.91 251.56 146.91 248.98 145.9 246.41 145.39 243.67 144.42 241.07 143.28 238.64 142.45 236.07 140.81 233.92 138.98 231.95 136.52 230.9 134.08 229.69 131.35 229.96 128.78 230.9 126.59 232.52 125 234.71 123.49 236.93 122.34 239.39 121.72 242.03 121.89 244.75 121.73 247.43 122.17 250.1 123.06 252.66 123.35 255.36 124.08 257.97 125.4 260.35 126.24 262.94 127.6 265.28 129.06 267.56 131.07 269.44 132.23 271.93 134.18 273.82 136.15 275.66 137.62 277.98 139.71 279.7 141.89 281.29 143.85 283.14 145.79 285.03 147.97 286.63 150.52 287.66 152.71 289.23 155.16 290.35 157.26 292.15 159.94 292.77 162.31 294.07 164.95 294.68 167.51 295.47 170.04 296.36 172.68 296.82 175.32 297.45 178.02 297.56 180.7 297.21 183.37 296.88 185.98 296.11 188.18 294.52 190.33 292.9 192.16 290.87"/>
      <polygon class="cls-7" points="125.77 257.65 128.3 258.49 130.91 259.08 133.59 259.1 136.22 258.69 138.78 258.14 141.27 257.32 143.68 256.26 145.8 254.71 147.97 253.18 148.1 253.05 147.91 251.56 146.87 248.99 145.97 246.39 145.14 243.75 144.02 241.19 143.38 238.6 142.24 236.18 140.68 234.02 138.76 232.22 136.48 231 134.08 229.76 131.46 230.45 128.97 231.23 127 232.97 124.85 234.6 123.56 236.96 122.46 239.42 121.95 242.07 121.64 244.74 122.14 247.39 121.96 250.13 122.64 252.76 123.44 255.34 123.88 256.44 125.77 257.65"/>
      <polygon class="cls-18" points="129.29 267.57 132.27 266.41 135.34 265.91 138.43 265.65 141.16 266.16 143.85 266.65 146.55 267.26 148.95 268.62 151.24 270.13 153.24 272.01 155.41 273.84 156.61 276.4 156.91 279.19 157.53 281.88 157.28 284.94 156.38 287.88 154.7 290.63 152.44 288.94 150.17 287.61 148.03 286.07 145.99 284.4 143.79 282.94 141.73 281.29 139.54 279.78 137.53 278.05 136.01 275.83 134.18 273.93 132.52 271.88 130.92 269.78 129.29 267.57"/>
      <path class="cls-19" d="M178.02,300.01s-.04,0-.06,0l-2.71-.07c-.22,0-.44-.04-.64-.11l-2.34-.74-2.42-.15c-.18-.01-.35-.04-.52-.09l-2.59-.77c-.12-.04-.24-.08-.35-.14l-2.34-1.14-2.27-.84-2.51-.6c-.13-.03-.27-.08-.39-.13l-2.47-1.08c-.16-.07-.32-.16-.46-.27l-1.92-1.43-2.24-.83c-.27-.1-.51-.25-.73-.43l-1.81-1.58-2.16-1.02c-.13-.06-.26-.14-.38-.23l-2.13-1.56-2.21-1.47c-.22-.14-.41-.32-.56-.53l-1.4-1.84-1.96-1.18c-.14-.09-.27-.19-.4-.3l-1.96-1.85c-.14-.13-.26-.27-.36-.43l-1.33-2.07-3.71-3.52c-.21-.19-.38-.42-.5-.68l-1.09-2.26-3.1-4.11c-.13-.17-.23-.35-.31-.55l-.96-2.41-1.17-2.29s-.05-.1-.07-.15l-1.04-2.47-1.97-5.08c-.09-.22-.14-.45-.16-.69l-.18-2.52-.57-2.46c-.05-.22-.07-.44-.06-.66l.15-2.57-.07-2.59c0-.19.01-.37.05-.55l.57-2.64c.05-.25.15-.49.28-.71l1.32-2.2,1.05-2.3c.09-.19.2-.37.33-.53l1.72-2.06c.11-.14.25-.26.39-.37l2.16-1.62c.18-.14.38-.24.59-.32l2.54-.94c.33-.12.68-.17,1.03-.13l2.65.25,2.69.35c.22.03.44.09.65.18l2.5,1.12c.42.19.78.5,1.02.89l1.39,2.22,1.57,1.99c.17.21.29.45.38.7l.75,2.24,1.35,2.04c.19.29.31.61.36.95l.36,2.5.93,2.32s.03.07.04.11l.89,2.61c.05.15.08.29.1.45l.32,2.39,2.37,4.6c.04.08.08.16.11.25l.9,2.45,2.38,4.58,1.44,1.67,2.07,1.42c.17.11.32.25.45.4l1.49,1.74,2.07.98c.16.08.31.17.45.28l1.83,1.45,2.24.65c.18.05.35.13.51.22l2.14,1.24,2.21.54,2.6.26c.12.01.24.03.35.06l2.5.65,2.58.16,2.88.27c.18.02.36.06.54.12l2.67.91c.05.02.11.04.16.06l2.56,1.09s.06.03.1.04l2.54,1.22c.34.16.63.4.85.71l1.7,2.27c.12.15.21.32.29.5l1.09,2.64c.14.33.2.7.17,1.06l-.2,2.86c-.02.24-.07.47-.16.69l-1.04,2.65c-.09.24-.22.45-.39.65l-1.77,2.1c-.07.09-.15.17-.24.25l-2.05,1.81c-.13.11-.27.21-.42.3l-2.39,1.31c-.2.11-.41.19-.63.23l-2.58.56-2.53.72c-.14.04-.27.06-.41.08l-2.71.26c-.07,0-.15,0-.22,0ZM175.69,295.3l2.25.06,2.36-.22,2.4-.68s.09-.03.14-.04l2.33-.5,1.87-1.02,1.72-1.52,1.41-1.68.77-1.97.14-1.96-.77-1.86-1.18-1.58-1.98-.95-2.43-1.04-2.33-.8-2.53-.24-2.73-.17c-.15,0-.3-.03-.44-.07l-2.54-.66-2.59-.25c-.11-.01-.22-.03-.32-.05l-2.7-.66c-.22-.05-.42-.14-.62-.25l-2.19-1.26-2.4-.7c-.29-.08-.56-.22-.79-.41l-1.98-1.57-2.28-1.08c-.3-.14-.56-.34-.77-.59l-1.61-1.89-2.06-1.42c-.16-.11-.31-.25-.44-.4l-1.82-2.11c-.12-.14-.23-.3-.31-.47l-2.54-4.89c-.05-.09-.09-.19-.13-.29l-.91-2.47-2.47-4.79c-.13-.24-.21-.5-.25-.78l-.34-2.57-.8-2.33-1.01-2.52c-.07-.17-.12-.35-.14-.53l-.33-2.26-1.23-1.86c-.11-.17-.2-.35-.27-.55l-.72-2.15-1.39-1.77c-.05-.07-.1-.13-.14-.2l-1.08-1.73-1.54-.69-2.27-.3-2.04-.19-1.72.63-1.67,1.25-1.35,1.61-.97,2.14c-.04.08-.08.16-.12.24l-1.19,1.98-.43,1.98.07,2.41c0,.07,0,.13,0,.2l-.14,2.34.54,2.31c.03.12.05.24.05.36l.17,2.35,1.83,4.72.98,2.31,1.18,2.31c.03.07.06.13.09.2l.88,2.22,3.05,4.04c.09.12.17.25.24.39l1.01,2.08,3.62,3.43c.13.13.25.27.35.43l1.33,2.07,1.57,1.49,2.13,1.28c.25.15.47.35.65.58l1.44,1.89,1.93,1.28s.06.04.09.06l1.99,1.46,2.25,1.07c.19.09.38.21.54.35l1.73,1.51,2.15.79c.21.08.41.18.59.32l1.97,1.47,2.04.89,2.45.58c.09.02.19.05.27.08l2.51.93c.07.03.14.05.2.09l2.27,1.1,2.15.64,2.44.15c.19.01.38.05.56.1l2.3.73ZM192.2,290.89h0,0Z"/>
    </g>
    <g id="_カバン" data-name="カバン">
      <polyline class="cls-4" points="177.01 271.38 177.45 273.8 176.06 276.22 175.22 278.87 173.74 281.21 172.55 283.71 170.78 285.86 169.31 288.19 167.82 290.54 165.62 292.53 163.01 291.45 160.46 290.69 157.92 289.92 155.36 289.15 152.97 287.95 150.67 286.55 148.95 284.48 147.11 282.55 146.13 280.07 144.82 277.69 144.38 275 144.58 272.3 145.21 269.68 145.53 267 146.77 264.59 147.67 262.09 148.85 259.7 149.61 257.08 150.97 254.76 152.66 252.66 154.41 250.62 155.87 248.39 157.54 246.31 159.2 244.22 160.68 241.99 162.44 239.98 164.17 237.93 166.04 236.02 167.84 234.06 169.76 232.2 171.21 229.87 173.26 228.13 175.46 226.57 177.09 224.39 179.27 222.82 181.18 220.86 183.98 221.53 186.64 222.43 188.81 224.27 190.09 226.79 190.53 229.56 191.25 232.36 190.23 235.09 190.25 238 188.73 240.44 186.93 241.06 186.41 244 185.62 246.72 185.87 249.59 185.18 252.32 185 255.13 184.55 257.91 183.65 260.59 183.19 263.35 182.37 266.03 181.29 268.59 179.56 270.64 177.06 271.17"/>
      <path class="cls-19" d="M166.22,296.03l-4.21-1.75-7.99-2.45-2.61-1.32-2.73-1.66-1.98-2.38-2.17-2.28-1.13-2.85-1.47-2.68-.57-3.54.3-3.54.59-2.44.36-3.03,1.39-2.72.97-2.64,1.06-2.15.79-2.72,1.79-3,1.69-2.1,1.68-1.97,1.53-2.31,3.24-4.05,1.65-2.45,3.6-4.17,1.87-1.91,1.86-2.02,1.65-1.6,1.5-2.42,2.61-2.2,1.82-1.29,1.62-2.17,2.34-1.68,2.92-2.99,4.72,1.14,3.2,1.08,3.07,2.59,1.76,3.49.5,3.09.91,3.58-1.15,3.1.02,3.22-2.54,4.08-1.14.39-.29,1.52-.63,2.18.25,2.82-.75,2.95-.19,2.83-.57,3.25-.83,2.45-.51,2.91-.92,2.97-1.26,2.98-2.69,3.19-.74.16.15.83-1.78,3.09-.86,2.71-1.59,2.52-1.27,2.67-1.88,2.29-3.09,4.87-3.91,3.54ZM156.47,286.35l7.69,2.33.85.36.49-.44,2.96-4.63,1.53-1.87,1.21-2.48,1.27-2.01.82-2.59,1.01-1.76-.24-1.34c-.08-.42-.06-.84.03-1.23.19-1.19,1.09-2.19,2.34-2.45l1.5-.32.77-.92.84-2,.71-2.34.54-3.04.83-2.45.39-2.38.18-2.94.63-2.51-.25-2.93.9-3.1.81-4.52,2.45-.84.5-.8-.02-2.59.88-2.37-.54-2.15-.37-2.31-.79-1.57-1.27-1.07-1.99-.67-1.01-.24-1.12,1.08-1.81,1.3-1.63,2.18-2.48,1.76-1.59,1.35-1.4,2.24-2.12,2.06-1.75,1.9-1.86,1.9-3.32,3.86-1.52,2.28-3.25,4.06-1.61,2.42-1.75,2.04-1.49,1.86-1.06,1.81-.85,2.75-1.1,2.23-1,2.7-.99,1.93-.32,2.49-.58,2.38-.15,2.11.3,1.83,1.22,2.27.77,1.93,1.58,1.66,1.4,1.69,1.76,1.07,2.05,1.03Z"/>
    </g>
    <g id="_右手" data-name="右手">
      <polygon class="cls-3" points="313.2 264.76 313.8 262.17 314.38 259.62 315.5 257.15 314.92 254.54 314.15 252.08 312.68 249.92 310.56 248.39 308.44 246.8 305.91 246.03 303.54 244.92 301.04 244.13 298.75 242.82 296.07 242.44 293.98 240.7 291.58 239.67 289.39 238.26 287.01 236.84 284.59 235.47 282.27 233.96 279.89 232.55 277.45 231.24 275.35 229.36 272.73 228.41 270.2 227.34 267.74 226.08 265.01 225.76 262.34 225.86 259.81 226.67 257.62 228.18 255.71 230.11 254.01 232.33 252.28 234.52 250.84 236.91 250.49 239.66 251.01 242.37 252.28 244.87 254.39 246.75 256.08 248.98 258.27 250.71 260.24 252.69 261.89 255.02 264.25 256.57 266.48 258.27 268.53 260.18 270.48 262.05 272.8 263.46 274.62 265.56 276.88 267.08 279.32 268.29 281.87 269.24 284.29 270.42 286.77 271.47 289.33 272.31 292.01 272.66 294.64 273.15 297.32 273.47 300.01 273.32 302.69 272.88 305.27 272.03 307.6 270.62 309.95 269.2 311.6 267 313.2 264.76"/>
      <path class="cls-19" d="M297.32,276.47c-.12,0-.24,0-.36-.02l-2.68-.32c-.06,0-.13-.02-.19-.03l-2.55-.48-2.6-.34c-.19-.02-.37-.07-.55-.12l-2.56-.84c-.08-.03-.15-.05-.23-.09l-2.48-1.05s-.1-.04-.15-.07l-2.29-1.11-2.42-.9c-.1-.04-.2-.08-.29-.13l-2.44-1.22c-.11-.06-.22-.12-.33-.19l-2.26-1.51c-.22-.15-.42-.33-.6-.53l-1.51-1.74-1.92-1.17c-.19-.12-.37-.25-.53-.41l-1.95-1.88-1.91-1.77-2.02-1.55-2.27-1.49c-.32-.21-.59-.47-.81-.78l-1.5-2.13-1.67-1.67-2.06-1.63c-.2-.16-.38-.34-.53-.54l-1.51-1.99-1.89-1.69c-.28-.25-.5-.54-.67-.87l-1.28-2.5c-.13-.25-.22-.53-.28-.81l-.51-2.71c-.06-.31-.07-.62-.03-.93l.35-2.75c.05-.41.19-.81.4-1.17l1.44-2.4c.06-.11.14-.21.21-.31l3.41-4.38c.07-.1.15-.19.24-.27l1.9-1.93c.13-.14.28-.26.44-.37l2.2-1.51c.24-.16.5-.29.78-.38l2.52-.81c.26-.08.53-.13.81-.14l2.67-.1c.15,0,.3,0,.45.02l2.73.31c.36.04.7.15,1.02.31l2.36,1.21,2.35,1,2.55.92c.36.13.69.33.98.58l1.84,1.64,2.13,1.14s.07.04.11.06l2.38,1.41s.07.04.1.06l2.24,1.46,2.34,1.32,2.45,1.47,2.06,1.32,2.17.92c.27.12.52.27.75.46l1.43,1.2,1.83.26c.37.05.73.18,1.06.37l2.01,1.15,2.19.69c.13.04.25.09.37.14l2.18,1.02,2.33.71c.33.1.64.26.92.47l4.2,3.09c.28.2.52.45.72.73l1.48,2.15c.17.25.3.52.39.81l.76,2.46c.02.08.04.16.06.24l.58,2.62c.14.63.07,1.3-.2,1.89l-.99,2.19-1.12,4.86c-.09.38-.25.74-.48,1.06l-1.6,2.24-1.68,2.25c-.23.31-.52.57-.85.77l-4.67,2.83c-.2.12-.4.21-.62.29l-2.58.85c-.14.05-.29.08-.44.11l-2.68.45c-.11.02-.22.03-.33.04l-2.7.15c-.05,0-.11,0-.16,0ZM295.09,270.18l2.32.28,2.27-.12,2.29-.38,2.04-.67,3.89-2.35,2.51-3.43,1.04-4.54c.04-.2.11-.39.2-.58l.71-1.56-.34-1.52-.59-1.91-.93-1.35-3.44-2.53-2.03-.62c-.13-.04-.27-.09-.39-.15l-2.19-1.03-2.31-.72c-.21-.06-.4-.15-.59-.26l-1.8-1.03-2.11-.3c-.55-.08-1.07-.31-1.5-.67l-1.75-1.46-2-.85c-.16-.07-.31-.15-.45-.24l-2.19-1.41-2.3-1.38-2.35-1.32c-.05-.03-.11-.06-.16-.1l-2.27-1.48-2.27-1.35-2.38-1.28c-.21-.11-.4-.25-.58-.4l-1.67-1.49-2.08-.75c-.05-.02-.1-.04-.15-.06l-2.53-1.07c-.07-.03-.13-.06-.2-.09l-1.98-1.01-1.96-.23-2.04.07-1.71.55-1.6,1.1-1.57,1.6-3.22,4.14-1.02,1.69-.21,1.65.34,1.82.83,1.62,1.69,1.51c.14.13.28.27.39.43l1.46,1.92,1.9,1.5c.09.07.18.15.26.23l1.97,1.97c.12.12.23.25.33.39l1.32,1.87,1.89,1.23c.06.04.12.08.18.13l2.22,1.7c.08.06.15.12.22.18l3.8,3.59,2.04,1.24c.27.16.51.36.71.6l1.55,1.8,1.77,1.18,2.12,1.06,2.4.9c.09.03.18.07.26.11l2.35,1.14,2.29.97,2.18.71,2.4.31c.05,0,.11.02.16.03l2.54.47ZM313.2,264.76h0,0Z"/>
    </g>
    <g>
      <polygon class="cls-2" points="284.07 301.24 285.27 301.94 287.7 300.76 290.06 299.33 292.8 299.07 295.52 299.14 298.06 300.04 300.77 300.66 303.01 302.28 304.63 304.52 305.96 306.87 306.97 309.35 308.07 311.92 307.94 314.69 307.46 317.4 306.66 320.03 305.31 322.43 303.45 324.43 301.65 326.51 299.12 327.65 297.11 329.55 294.46 330.34 292.03 331.53 289.54 332.59 286.97 333.46 284.61 334.9 281.94 335.49 279.38 336.38 279.22 336.17 276.52 336.74 273.8 337.24 271.05 336.99 268.31 336.77 265.56 336.21 263.11 334.82 260.88 333.11 259.05 330.99 257.21 328.91 255.59 326.65 254.41 324.09 252.46 322.07 252.66 321.73 250.76 319.91 248.54 318.5 246.29 317.17 243.95 316.01 242.05 314.14 239.59 313.09 237.74 311.14 236.24 308.94 234.34 307.08 233.04 304.76 232.25 302.22 231.6 299.61 231.69 296.92 232.23 294.29 233.14 291.75 234.93 289.71 236.34 287.5 238.22 285.66 239.82 283.52 242.01 281.94 244.41 280.69 247.06 280.15 249.69 279.65 252.38 279.79 255.04 280.01 257.63 280.65 260.36 280.75 262.78 281.97 265.17 283.16 267.77 283.93 270.22 285.09 272.07 287.14 274.49 288.38 276.46 290.22 278.24 292.23 280.04 294.23 281.27 296.62 282.84 298.81 284.07 301.24"/>
      <path class="cls-19" d="M273.8,340.23c-.09,0-.18,0-.26-.01l-5.46-.46c-.12,0-.24-.03-.36-.05l-2.75-.56c-.31-.06-.61-.17-.88-.33l-2.45-1.39c-.12-.07-.24-.15-.35-.23l-2.23-1.71c-.16-.12-.3-.26-.44-.41l-3.66-4.18c-.07-.08-.13-.15-.19-.23l-1.62-2.26c-.11-.16-.21-.32-.29-.5l-.96-2.09-1.6-1.65c-.34-.35-.58-.77-.71-1.21l-.7-.67-1.92-1.23-2.11-1.25-2.25-1.12c-.28-.14-.54-.33-.77-.55l-1.5-1.47-1.94-.83c-.38-.16-.71-.4-1-.69l-1.85-1.94c-.11-.12-.21-.25-.31-.38l-1.33-1.96-1.69-1.66c-.2-.2-.37-.42-.51-.67l-1.31-2.32c-.1-.18-.19-.38-.25-.58l-.79-2.54c-.02-.05-.03-.11-.05-.16l-.65-2.6c-.07-.27-.1-.55-.09-.83l.1-2.69c0-.17.03-.33.06-.49l.54-2.63c.03-.14.07-.27.11-.4l.9-2.53c.13-.36.32-.68.57-.97l1.64-1.88,1.29-2.02c.12-.19.27-.37.43-.53l1.71-1.67,1.46-1.95c.18-.24.4-.46.65-.64l2.19-1.58c.12-.08.24-.16.37-.23l2.4-1.25c.25-.13.51-.22.79-.28l5.32-1.05c.24-.05.48-.06.72-.05l2.68.14,2.75.22c.16.01.32.04.47.08l2.29.57,2.43.1c.43.02.84.12,1.22.32l4.57,2.29,2.35.7c.14.04.29.1.42.16l2.45,1.15c.36.17.69.41.95.71l1.48,1.65,1.93.99c.25.13.48.29.68.48l1.96,1.84c.07.06.13.13.19.2l3.56,3.97c.18.19.33.41.44.64l1.13,2.2,1.44,2.01c.09.13.17.26.24.4l.41.82.33-.16,2.25-1.36c.39-.23.82-.38,1.27-.42l2.74-.26c.12-.01.24-.02.36-.01l2.72.07c.31,0,.62.07.92.17l2.38.84,2.54.58c.39.09.76.26,1.08.49l2.25,1.62c.26.19.49.42.68.68l1.61,2.24c.06.09.12.18.18.28l1.33,2.35c.06.11.12.23.17.35l2.09,5c.18.41.26.86.24,1.31l-.12,2.77c0,.13-.02.26-.04.39l-.48,2.71c-.02.12-.05.23-.08.35l-.8,2.64c-.06.21-.15.41-.25.59l-1.34,2.4c-.12.21-.26.4-.42.58l-1.83,1.96-1.76,2.04c-.29.33-.64.59-1.04.77l-2.07.93-1.65,1.56c-.34.32-.75.56-1.2.69l-2.41.72-2.21,1.08s-.09.04-.13.06l-2.49,1.07c-.07.03-.15.06-.23.09l-2.25.76-2.07,1.27c-.28.17-.59.3-.92.37l-2.5.55-2.39.83c-.52.18-1.06.21-1.57.11l-1.66.35-2.8.51c-.18.03-.36.05-.54.05ZM268.73,333.8l4.93.41,2.33-.42,2.61-.55c.29-.06.57-.08.85-.06l1.5-.52c.11-.04.23-.07.34-.1l2.18-.48,1.93-1.18c.19-.12.39-.21.61-.28l2.45-.83,2.31-.99,2.37-1.16c.15-.07.3-.13.46-.18l1.97-.59,1.5-1.41c.24-.23.52-.42.83-.55l1.92-.87,1.36-1.58s.05-.06.08-.08l1.62-1.74,1.01-1.8.66-2.15.42-2.34.08-1.89-1.79-4.29-1.15-2.04-1.23-1.71-1.36-.98-2.11-.48c-.11-.03-.22-.06-.33-.1l-2.1-.74-2.06-.05-1.87.18-1.78,1.08c-.08.05-.16.09-.24.13l-2.43,1.18c-.9.44-1.96.4-2.82-.11l-1.2-.7c-.5-.29-.91-.72-1.17-1.24l-1.11-2.22-1.44-2c-.09-.12-.16-.25-.23-.38l-1.05-2.04-3.25-3.63-1.55-1.46-2.04-1.05c-.33-.17-.62-.39-.86-.66l-1.45-1.61-1.7-.8-2.38-.71c-.17-.05-.33-.11-.48-.19l-4.24-2.12-2.09-.08c-.2,0-.4-.04-.6-.09l-2.36-.58-2.42-.2-2.23-.11-4.49.88-1.83.95-1.64,1.18-1.33,1.77c-.09.12-.2.24-.31.35l-1.63,1.6-1.23,1.92c-.08.13-.17.25-.27.36l-1.41,1.61-.64,1.8-.45,2.18-.07,2.02.53,2.11.67,2.15.94,1.67,1.6,1.57c.14.14.27.29.38.45l1.36,2,1.25,1.32,1.89.81c.34.15.66.36.93.62l1.56,1.54,1.92.95c.06.03.13.07.19.1l2.25,1.33s.06.04.09.06l2.21,1.41c.16.1.32.22.46.36l1.91,1.82c.41.39.69.88.83,1.4l1.01,1.04c.24.24.43.53.57.83l1.06,2.3,1.36,1.9,3.39,3.88,1.83,1.4,1.85,1.05,2.11.43Z"/>
    </g>
    <g>
      <polygon class="cls-1" points="265.77 251.35 264.85 248.81 263.89 246.28 262.96 243.75 262.11 241.19 260.98 238.74 260.05 236.2 258.99 233.72 257.63 231.39 256.48 228.94 255.05 226.66 253.48 224.47 252.02 222.22 250.6 219.9 248.75 217.93 246.92 215.94 244.6 214.51 242.84 212.36 240.34 211.26 238.16 209.59 235.61 208.61 233.03 207.77 230.29 207.63 227.63 207.37 224.97 207.02 222.25 207.11 219.52 207.11 216.81 207.48 214.05 207.55 211.42 208.35 208.71 208.87 206.23 210.07 203.79 211.32 201.55 212.89 199.26 214.35 196.98 215.85 195.12 217.86 192.81 219.42 191.37 221.79 189.55 223.84 188.01 226.1 186.34 228.3 184.99 230.7 183.93 233.24 183.11 235.87 181.95 238.36 181.66 241.15 180.38 243.63 179.73 246.3 179.16 248.99 178.98 251.75 178.45 254.37 178.31 257.04 177.72 259.66 177.36 262.31 177.02 264.96 176.78 267.62 176.49 270.29 176.44 272.96 176.68 275.63 176.81 278.3 177.25 280.94 177.41 283.59 177.82 286.21 177.78 288.93 178.91 291.4 179.88 293.86 180.57 296.45 182.2 298.58 183.62 300.79 185.17 302.95 186.81 305.1 189.17 306.42 191.35 307.96 193.68 309.27 196.29 309.93 198.8 310.78 201.25 311.85 203.82 312.56 206.46 312.92 209.12 313.14 211.75 313.5 214.39 313.75 217.04 314.07 219.7 314.36 222.42 314.47 225.16 314.77 227.9 314.7 230.58 314.06 233.24 313.46 236.02 313.55 238.55 312.38 241.3 312.11 243.77 310.91 246.32 309.97 248.86 308.95 251.1 307.37 253.27 305.74 255.5 304.2 257.44 302.3 259.51 300.52 261.35 298.48 262.91 296.23 264.13 293.78 265.01 291.19 266.47 288.86 267.51 286.32 267.7 283.55 268.46 280.93 268.84 278.24 269.37 275.54 268.88 272.8 268.82 270.09 269 267.35 268.85 264.63 268.46 261.93 267.41 259.35 267 256.66 266.37 254.01 265.77 251.35"/>
      <path class="cls-19" d="M225.16,317.76c-.11,0-.22,0-.33-.02l-2.63-.29-2.62-.1c-.07,0-.14,0-.21-.02l-7.9-.85s-.09,0-.14-.02l-2.55-.35-2.57-.21c-.06,0-.11,0-.17-.02l-2.65-.36c-.14-.02-.27-.05-.4-.08l-2.57-.72c-.13-.04-.26-.08-.39-.14l-2.34-1.02-2.27-.77-2.5-.63c-.25-.06-.5-.16-.73-.29l-2.33-1.3c-.09-.05-.18-.11-.27-.17l-2.05-1.45-2.22-1.25c-.36-.2-.67-.47-.91-.79l-1.65-2.15-1.6-2.22s-.06-.09-.09-.13l-1.36-2.11-1.55-2.03c-.24-.31-.42-.67-.52-1.06l-.64-2.42-.88-2.23-1.09-2.4c-.18-.41-.28-.85-.27-1.29l.04-2.46-.38-2.36c-.02-.1-.03-.2-.03-.29l-.15-2.49-.41-2.48c-.02-.11-.03-.23-.04-.34l-.13-2.61-.23-2.62c0-.11-.01-.21-.01-.32l.05-2.68c0-.09,0-.18.02-.28l.3-2.66.23-2.6s0-.08.01-.12l.71-5.32c.01-.08.03-.17.04-.25l.53-2.37.13-2.43c0-.15.03-.3.06-.44l.49-2.42.16-2.55c0-.15.03-.29.06-.43l.57-2.69.67-2.76c.06-.23.14-.45.24-.66l1.02-1.99.23-2.22c.03-.33.12-.66.27-.96l1.08-2.31.75-2.44c.03-.09.06-.18.1-.27l1.07-2.54c.04-.1.09-.21.15-.31l1.35-2.4c.07-.12.14-.23.23-.34l1.62-2.14,1.5-2.2c.07-.11.15-.21.24-.3l1.64-1.84,1.29-2.14c.23-.37.53-.69.89-.94l2.02-1.37,1.62-1.75c.17-.18.35-.34.56-.47l4.55-2.95,2.19-1.54c.11-.08.24-.15.36-.22l2.44-1.25,2.54-1.23c.24-.12.49-.2.75-.25l2.56-.49,2.47-.75c.26-.08.52-.12.79-.13l2.6-.07,2.54-.35c.13-.02.27-.03.4-.03h2.73s2.64-.09,2.64-.09c.16,0,.33,0,.49.02l2.6.34,2.54.24,2.67.14c.26.01.52.06.77.14l2.58.84s.1.03.15.05l2.54.98c.27.1.52.24.75.42l1.89,1.45,2.18.96c.43.19.82.48,1.12.85l1.43,1.76,1.89,1.17c.24.15.45.32.64.53l3.66,3.93c.14.15.27.32.38.5l1.41,2.32,1.38,2.12,1.53,2.14s.06.09.09.14l1.44,2.28c.07.11.13.22.18.33l1.08,2.32,1.29,2.21c.06.11.12.22.17.33l1.06,2.48c.02.05.04.1.06.16l.88,2.42,1.08,2.34c.05.1.09.21.12.31l.85,2.56,2.78,7.51c.04.12.08.25.11.37l1.22,5.27c.02.08.04.17.05.25l.36,2.34.91,2.25c.09.22.15.45.19.69l.4,2.7c.01.09.02.18.03.28l.15,2.73c0,.12,0,.24,0,.36l-.17,2.6.05,2.35.45,2.51c.07.36.06.74,0,1.1l-.51,2.62-.37,2.62c-.02.14-.05.27-.09.41l-.67,2.32-.18,2.45c-.02.32-.1.63-.21.92l-1.04,2.54c-.06.16-.14.31-.23.45l-1.27,2.04-.76,2.26c-.04.13-.1.26-.16.39l-1.23,2.45c-.06.13-.13.25-.21.36l-1.56,2.25c-.07.11-.15.21-.24.3l-1.83,2.03c-.08.09-.18.18-.27.26l-2,1.72-1.87,1.83c-.12.12-.26.23-.4.33l-2.19,1.51-2.12,1.59-2.31,1.63c-.19.13-.39.24-.61.33l-2.54,1.02-2.5.92-2.33,1.13c-.32.15-.66.25-1.01.29l-2.25.22-2.07.96c-.42.2-.88.3-1.35.27l-2.4-.08-4.94,1.15c-.2.05-.41.08-.62.08l-2.74.06s-.05,0-.07,0ZM219.92,311.37l2.62.1c.07,0,.14,0,.21.02l2.54.28,2.22-.05,5.07-1.17c.25-.06.5-.08.76-.07l2.07.07,1.88-.87c.3-.14.63-.23.96-.26l2.22-.22,1.99-.96c.09-.04.18-.08.28-.12l2.55-.94,2.13-.86,1.96-1.38,2.09-1.58s.07-.05.1-.07l2.02-1.39,1.75-1.72s.1-.09.15-.13l1.93-1.66,1.58-1.75,1.33-1.92,1.04-2.07.81-2.39c.07-.22.17-.43.3-.63l1.32-2.12.76-1.86.17-2.29c.01-.21.05-.41.11-.61l.7-2.42.36-2.49s.02-.1.03-.15l.42-2.15-.39-2.19c-.03-.15-.04-.3-.05-.46l-.06-2.71c0-.09,0-.18,0-.27l.17-2.56-.13-2.41-.33-2.21-.91-2.24c-.09-.22-.15-.44-.19-.67l-.39-2.56-1.17-5.05-2.74-7.4-.83-2.49-1.06-2.3c-.04-.08-.07-.15-.1-.23l-.9-2.46-.96-2.23-1.27-2.17c-.05-.08-.09-.16-.13-.25l-1.06-2.27-1.29-2.05-1.51-2.12s-.05-.07-.07-.11l-1.47-2.25-1.3-2.13-3.21-3.45-1.97-1.21c-.29-.18-.54-.4-.75-.66l-1.3-1.59-1.85-.81c-.22-.1-.43-.22-.62-.37l-1.83-1.41-2.06-.79-2.13-.69-2.34-.12s-.09,0-.13,0l-2.66-.26s-.07,0-.11-.01l-2.41-.32-2.48.08h-2.62s-2.51.34-2.51.34c-.11.01-.21.02-.32.03l-2.36.06-2.24.68c-.1.03-.21.06-.31.08l-2.32.44-2.12,1.03-2.2,1.12-2.07,1.45s-.07.05-.11.07l-4.23,2.74-1.61,1.74c-.16.17-.33.32-.52.45l-1.76,1.19-1.09,1.81c-.1.16-.2.31-.33.44l-1.69,1.9-1.43,2.1s-.06.08-.09.12l-1.54,2.04-1.16,2.07-.94,2.25-.77,2.49c-.04.13-.09.26-.15.38l-.95,2.04-.24,2.28c-.04.37-.15.73-.31,1.06l-1.12,2.17-.57,2.32-.51,2.39-.16,2.54c0,.14-.03.27-.05.41l-.49,2.4-.13,2.45c0,.17-.03.33-.07.5l-.56,2.49-.68,5.1-.23,2.6-.29,2.59-.04,2.38.23,2.51s0,.08,0,.12l.13,2.49.41,2.47c.02.11.03.21.04.32l.15,2.5.39,2.47c.03.17.04.34.04.52l-.03,2.04.85,1.85s.04.09.06.14l.97,2.46c.04.11.08.22.11.34l.53,2.01,1.26,1.65c.05.06.1.13.14.2l1.38,2.15,1.5,2.09,1.22,1.59,1.82,1.02c.09.05.18.11.26.17l2.05,1.45,1.85,1.04,2.23.56c.08.02.15.04.22.07l2.5.85c.08.03.16.06.24.09l2.26.99,2.17.61,2.36.32,2.57.21c.06,0,.12.01.17.02l2.56.36,2.57.24,5.25.61Z"/>
    </g>
    <g>
      <polygon class="cls-12" points="179.63 323.16 179.16 324.15 180.22 326.71 180.57 329.46 181 332.2 180.18 334.86 179.36 337.47 177.65 339.6 175.75 341.5 173.53 342.99 171.17 344.28 168.53 344.85 165.84 345.43 163.12 345.05 160.43 344.4 158.29 342.62 155.7 341.55 153.81 339.54 152.74 336.97 151.26 334.71 150.18 332.23 149.6 329.58 148.65 327.04 147.53 324.54 147.45 321.77 146.78 319.15 145.68 316.6 145.21 313.93 145.39 313.78 144.93 311.02 145.58 308.26 145.81 305.52 146.82 302.97 148.03 300.56 149.22 298.02 151.33 296.19 153.61 294.62 156.02 293.26 158.53 292.09 160.84 290.55 163.47 289.61 163.49 289.3 165.5 287.62 167.14 285.59 168.83 283.61 170.78 281.83 172.3 279.7 173.93 277.65 176.24 276.27 178.12 274.34 180.67 273.51 183 272.25 185.63 271.92 188.27 271.62 190.95 271.84 193.23 273.34 195.66 274.35 197.87 275.82 199.89 277.55 201.68 279.53 203.14 281.76 204.52 284.09 205.21 286.71 205.54 289.38 205.76 292.07 205.32 294.74 204.84 297.38 204.17 300 203.07 302.47 201.6 304.73 200.34 307.1 198.76 309.26 197.49 311.67 195.23 313.25 193.63 315.44 191.31 316.84 189.23 318.5 186.97 319.9 184.78 321.53 182.29 322.61 179.63 323.16"/>
      <path class="cls-19" d="M168.61,348.34c-.14,0-.28,0-.43-.03l-2.43-.35-2.43.19c-.58.04-1.16-.08-1.67-.36l-2.37-1.29-2.34-1.13-2.46-1.12c-.44-.2-.83-.5-1.12-.88l-3.37-4.26c-.15-.18-.27-.38-.37-.59l-1.17-2.46c-.08-.16-.14-.32-.18-.49l-.64-2.33-1.11-2.14c-.11-.21-.19-.43-.25-.66l-.65-2.64-.71-2.51c-.04-.15-.07-.3-.09-.45l-.26-2.18-1.03-2.02c-.18-.35-.29-.74-.32-1.14l-.18-2.39-.72-2.28c-.21-.67-.17-1.37.07-1.98l-.18-1.48c-.03-.24-.03-.47,0-.71l.3-2.5-.15-2.57c-.04-.61.12-1.21.43-1.73l1.28-2.11.67-2.29c.08-.27.2-.53.35-.77l1.51-2.38c.27-.42.64-.78,1.08-1.02l2.04-1.13,1.51-1.73c.32-.36.71-.64,1.16-.82l2.46-.97,2.17-1.15,2.21-1.45c.08-.05.16-.1.24-.14l2.45-1.3c.07-.04.15-.08.23-.11l1.35-.92,1.2-1.72c.18-.26.4-.48.65-.67l1.65-1.26,1.02-1.77c.1-.17.21-.33.34-.47l1.72-1.96c.08-.09.16-.17.25-.25l1.89-1.71,1.81-1.77c1.18-1.16,3.08-1.13,4.24.05,1.16,1.19,1.13,3.08-.05,4.24l-1.86,1.81s-.06.05-.08.08l-1.8,1.62-1.41,1.61-1.18,2.03c-.2.34-.46.64-.78.88l-1.75,1.33-1.24,1.78c-.21.3-.47.56-.77.76l-2.17,1.48c-.23.16-.48.28-.74.37l-2.01,1.07-2.21,1.45c-.08.05-.16.1-.24.14l-2.44,1.29c-.1.05-.2.1-.31.14l-1.94.76-1.38,1.58c-.23.26-.5.48-.81.65l-1.83,1.01-.87,1.37-.66,2.27c-.07.25-.18.5-.32.72l-1,1.65.11,1.9c.01.18,0,.35-.02.53l-.29,2.41.29,2.4c.04.32.02.64-.04.94l.41,1.29c.07.22.11.44.13.67l.16,2.13,1,1.96c.16.31.26.65.31,1l.3,2.48.67,2.38.59,2.38,1.09,2.1c.1.19.17.38.23.58l.66,2.37.91,1.9,2.76,3.48,1.85.84,2.47,1.19s.09.04.13.07l1.65.9,1.87-.14c.22-.02.44-.01.66.02l2.01.29,1.83-.66,1.96-.81,1.6-1.5c.08-.08.17-.15.26-.22l1.52-1.13.69-1.77c.08-.22.19-.42.33-.61l1.06-1.53v-1.84c0-.08,0-.15,0-.23l.16-2.19-.59-1.95-1-2.36c-.4-.95-.29-2.04.3-2.88l.76-1.09c.34-.49.82-.87,1.37-1.08l4.95-1.92,2.14-1.29c.11-.07.23-.13.35-.18l2.14-.93,1.75-1.52c.06-.05.12-.1.19-.15l1.97-1.45,1.45-1.68,1.37-2.16c.07-.11.15-.22.23-.32l3.17-3.85.81-2.15c.58-1.55,2.31-2.34,3.86-1.75,1.55.58,2.33,2.31,1.75,3.86l-.98,2.61c-.11.3-.27.58-.47.83l-3.41,4.15-1.38,2.18c-.08.13-.17.25-.27.36l-1.82,2.1c-.15.17-.31.32-.49.46l-2.14,1.58-2.01,1.74c-.23.2-.49.36-.77.48l-2.38,1.03-2.19,1.32c-.15.09-.31.17-.47.23l-3.34,1.29.15.35c.04.1.08.2.11.31l.79,2.64c.1.35.15.71.12,1.08l-.19,2.63v2.67c.02.61-.17,1.21-.52,1.72l-1.4,2.02-.88,2.25c-.21.53-.55.98-1.01,1.32l-2.08,1.54-1.87,1.75c-.26.25-.57.44-.9.58l-2.53,1.05s-.09.03-.13.05l-2.6.94c-.33.12-.67.18-1.02.18Z"/>
    </g>
    <g>
      <polygon class="cls-4" points="222.97 228.24 220.17 228.36 217.44 227.94 214.7 227.71 211.93 228.14 209.1 227.5 207.89 230.27 206.4 232.6 205.08 235.04 203.59 237.37 201.93 239.59 200.46 241.93 199.23 244.46 197.43 246.57 195.73 248.77 193.9 250.86 192.13 253 190.35 255.14 188.28 257.02 185.91 258.51 183.97 260.54 181.59 262.01 179.05 263.21 176.16 263.5 174.51 265.83 173.39 268.37 172.03 270.78 171.21 273.44 171.59 276.08 173.88 277.52 176.58 277.34 179.19 276.96 181.68 276.07 184.32 275.66 186.84 274.82 189.23 273.66 191.38 272.06 193.86 271.07 196.09 269.64 198.23 268.08 200.55 266.75 202.34 264.74 204.36 263.04 206.22 261.17 208.19 259.38 209.98 257.42 211.74 255.39 212.84 252.9 214.55 250.81 215.49 248.27 216.58 245.84 217.83 243.49 219.31 241.2 220.11 238.64 220.83 236.05 221.61 233.5 222.56 231 222.97 228.24"/>
      <path class="cls-19" d="M173.11,280.58l-4.29-2.7-.67-4.67,1.1-3.61,1.45-2.57,1.19-2.68,2.61-3.69,3.74-.38,1.91-.9,1.91-1.18,1.93-2.02,2.47-1.55,1.71-1.56,3.41-4.12,1.82-2.08,1.73-2.23,1.56-1.83,1.22-2.46,1.61-2.55,1.6-2.12,1.37-2.15,1.38-2.53,1.37-2.14,2.12-4.82,4.68,1.06,2.56-.4,3.3.29,2.44.38,6.13-.26-.99,6.67-1.03,2.72-.76,2.46-.71,2.6-.92,2.95-1.63,2.52-1.14,2.15-1.01,2.25-1.08,2.91-1.76,2.16-1.12,2.52-2.05,2.38-2.05,2.22-1.91,1.73-2,1.99-1.86,1.57-1.97,2.22-2.6,1.49-2.15,1.56-2.47,1.59-2.38.96-2.06,1.54-3.02,1.44-3,.95-2.37.38-2.5.89-3.14.46-3.66.24ZM174.36,274.28l.29.18,1.6-.11,2.2-.33,2.48-.88,2.67-.42,2.11-.69,1.96-.95,2.24-1.66,2.57-1.03,1.92-1.23,2.35-1.69,1.89-1.08,1.76-1.93,1.92-1.63,1.88-1.88,1.86-1.69,1.7-1.86,1.41-1.63,1.08-2.45,1.65-2.02.85-2.25,1.18-2.61,1.38-2.58,1.26-1.94.66-2.12.7-2.54.87-2.82.45-1.19-2.17-.33-2.28-.19-2.98.46-.97-.22-.44.91-1.43,2.24-1.37,2.52-1.62,2.52-1.59,2.12-1.32,2.1-1.32,2.72-2.01,2.35-1.77,2.28-1.83,2.09-3.79,4.53-2.49,2.2-2.06,1.29-1.95,2.04-3,1.83-3,1.42-2.05.21-.69.97-1.13,2.53-1.2,2.13-.52,1.71.09.6Z"/>
    </g>
    <g>
      <g id="_右耳" data-name="右耳">
        <g id="_右耳-2" data-name="右耳">
          <polygon class="cls-18" points="296.11 142.92 296.42 140.22 296.32 137.5 296.47 134.8 296.44 132.09 297.17 129.42 296.93 126.71 297.03 124.01 297.15 121.3 296.68 118.6 297.09 115.89 296.76 113.19 296.81 110.48 296.72 107.77 296.36 105.08 296.46 102.35 295.7 99.7 295.33 97.02 295.32 94.29 294.78 91.63 293.74 89.11 292.84 86.6 291.75 84.18 290.07 82.17 287.37 81.8 284.63 81.8 281.93 82.35 279.18 82.33 276.53 83.03 273.8 83.34 271.12 83.96 268.7 85.33 265.95 85.8 263.58 87.23 261.06 88.3 258.72 89.71 256.36 91.08 253.96 92.43 251.81 94.12 249.97 96.18 247.82 97.86 245.91 99.8 244.05 101.8 242.48 104.02 241.17 106.41 239.86 108.77 238.46 111.16 238.19 113.91 237.82 116.59 238.27 119.14 239.08 121.75 240.64 124.01 242.72 125.79 244.63 127.73 246.81 129.34 249.04 130.88 251.1 132.69 253.57 133.86 255.91 135.2 258.4 136.3 260.59 137.94 262.95 139.29 265.44 140.38 268.1 141.06 270.47 142.39 273.04 143.29 275.64 144.05 278.17 145.08 280.91 145.26 283.57 145.72 286.25 145.84 288.83 145.77 291.42 145.35 293.99 144.74 296.11 142.92"/>
          <path class="cls-19" d="M286.22,148.84l-3.18-.16-2.49-.44-3.07-.19-2.84-1.17-2.6-.76-3.04-1.11-2.03-1.14-2.74-.74-2.77-1.23-2.67-1.55-1.91-1.44-2.45-1.1-2.25-1.29-2.75-1.3-2.23-1.97-2.09-1.44-2.62-1.98-1.81-1.85-2.28-1.95-2.05-2.96-1.03-3.42-.53-3.01.43-3.08.32-3.35,1.73-2.96,2.76-4.96,1.82-2.53,1.85-2,2.27-2.27,1.94-1.51,2.05-2.23,2.54-1.94,4.71-2.7,2.68-1.57,2.32-.99,2.67-1.62,2.8-.47,2.35-1.32,3.44-.78,2.51-.28,2.82-.76,2.85.02,2.68-.54h3.24s4.06.55,4.06.55l2.68,3.22,1.34,3.01.88,2.45,1.13,2.72.65,3.23.02,2.83.31,2.27.83,2.9-.11,2.95.35,2.74.09,2.78-.04,2.58.35,2.9-.39,2.63.44,2.55-.22,5.51.27,3.07-.77,2.79.03,2.39-.15,2.66.1,2.81-.47,4.08-3.55,3.07-3.5.82-2.98.45-2.69.07ZM283.89,142.74l2.38.1,2.28-.06,2.28-.37,1.75-.41.68-.58.15-1.31-.09-2.63.15-2.73-.04-3.03.7-2.56-.21-2.36.21-5.3-.49-2.86.42-2.79-.3-2.5.05-2.84-.08-2.48-.38-2.8.09-2.51-.71-2.6-.4-3.07-.02-2.44-.42-2.09-.98-2.38-.86-2.4-.87-1.94-.67-.8-1.34-.18h-2.23s-2.71.55-2.71.55l-2.66-.02-2.7.69-2.56.29-2.09.48-2.51,1.42-2.7.46-2.25,1.33-2.33,1-4.56,2.69-2.23,1.26-1.77,1.38-2.05,2.23-2,1.56-1.77,1.8-1.66,1.79-1.36,1.92-2.55,4.62-1.1,1.87-.21,2.22-.31,2.21.33,1.9.61,1.99,1.08,1.56,1.98,1.71,1.74,1.77,2,1.47,2.43,1.7,1.74,1.53,2.29,1.1,2.21,1.26,2.66,1.17,2.32,1.74,2.06,1.18,2.11.93,2.81.71,2.5,1.4,2.24.78,2.83.84,2.07.85,2.59.18,2.46.44Z"/>
        </g>
        <g id="_耳中" data-name="耳中">
          <polygon class="cls-8" points="281.4 92.66 278.76 93.79 276.32 95.2 273.71 96.26 271.12 97.42 268.91 99.19 266.8 101.07 264.35 102.51 262.54 104.69 260.26 106.37 258.27 108.37 256.69 110.64 258.98 112.03 261.26 113.62 263.02 115.79 265.04 117.68 267.4 119.24 269.31 121.25 270.93 123.53 272.85 125.53 274.89 127.42 276.97 129.26 278.66 131.49 280.52 133.57 282.65 134.9 283.09 132.43 283.78 129.8 284.56 127.18 285.17 124.52 285.44 121.8 285.27 119.04 285.96 116.36 285.57 113.62 286.33 110.91 285.73 108.2 285.66 105.48 285.22 102.8 284.35 100.23 284.21 97.42 282.67 95.12 281.4 92.66"/>
        </g>
      </g>
      <g id="_左耳" data-name="左耳">
        <g id="_左耳-2" data-name="左耳">
          <polygon class="cls-6" points="154.38 142.12 153.13 139.65 152.74 136.9 151.61 134.34 151.73 131.52 151.13 128.84 150.43 126.16 150.22 123.42 150.32 120.66 150.3 117.91 149.8 115.17 150.3 112.42 149.95 109.67 150.16 106.92 150.62 104.19 150.28 101.41 151.13 98.73 151.11 95.95 151.26 93.18 152.43 90.61 152.93 87.91 153.59 85.25 154.49 82.65 155.96 80.34 157.74 78.15 160.52 78.22 163.24 78.51 165.98 78.37 168.7 78.58 171.43 78.9 174.01 79.89 176.78 80.15 179.28 81.31 181.74 82.52 184.33 83.41 186.79 84.6 189.14 85.99 191.69 87.06 193.77 88.88 195.9 90.59 198.08 92.22 200.08 94.07 201.86 96.14 204.04 97.86 205.8 99.98 207.22 102.34 208.38 104.84 209.1 107.49 209.83 110.11 210.51 112.78 209.95 115.5 208.87 118.02 207.56 120.46 205.77 122.55 203.57 124.24 201.59 126.1 199.75 128.14 197.85 130.14 195.51 131.58 193.24 133.1 190.89 134.51 188.64 136.04 186.4 137.62 184.13 139.16 181.47 139.99 179.14 141.43 176.62 142.48 174.03 143.33 171.49 144.31 169 145.59 166.23 145.67 163.53 146.23 161.12 145.27 158.61 144.77 156.31 143.68 154.38 142.12"/>
          <path class="cls-19" d="M163.26,149.34l-3-1.19-2.6-.52-2.95-1.4-2.72-2.19-1.76-3.48-.41-2.83-1.25-2.82.13-3.13-.5-2.23-.78-3.16-.22-2.91.11-2.87-.02-2.42-.55-3.02.52-2.83-.33-2.6.27-3.31.38-2.3-.36-3,.9-2.85-.02-2.4.19-3.42,1.25-2.75.47-2.51.74-2.91,1.01-2.94,1.86-2.89,2.7-3.33,4.5.12,2.49.26,2.69-.13,3.03.24,3.1.36,2.55.98,2.87.27,2.97,1.37,2.36,1.16,2.73.97,2.69,1.31,2.18,1.29,2.81,1.18,2.4,2.1,2.03,1.64,2.38,1.8,2.24,2.1,1.58,1.85,2.2,1.73,2.23,2.73,1.58,2.65,1.32,2.96,2.32,8.66-.77,3.69-1.31,3.03-1.46,2.73-2.21,2.57-2.32,1.79-1.79,1.68-1.75,1.94-2.22,2.34-2.63,1.62-2.35,1.57-2.27,1.37-7.06,4.86-2.73.84-2.43,1.46-2.73,1.13-2.52.83-2.32.9-2.95,1.52-3.19.09-3.32.69ZM159.56,141.9l2.66.58,1.58.63,2.35-.44,2.09-.06,2.17-1.1,2.67-1.03,2.48-.82,2.2-.92,2.45-1.52,2.59-.8,6.54-4.49,2.28-1.37,2.31-1.54,2.01-1.24,1.63-1.72,1.96-2.16,2.2-2.05,1.95-1.51,1.38-1.61,1.09-2.03.91-2.12.36-1.74-.51-2-1.38-4.98-.98-2.13-1.22-2.02-1.42-1.7-2.17-1.71-1.85-2.16-1.76-1.63-2.15-1.6-2.22-1.79-1.72-1.5-2.46-1.07-2.24-1.33-2.19-1.06-2.76-.98-2.46-1.21-1.98-.91-2.67-.25-2.61-1-2.29-.27-2.48-.19-2.78.13-2.83-.3-1.19-.03-.74.91-1.19,1.87-.74,2.14-.61,2.45-.55,2.97-1.09,2.39-.12,2.11.02,3.15-.79,2.51.31,2.57-.5,3.02-.18,2.31.37,2.91-.49,2.67.45,2.72.02,2.81-.1,2.66.17,2.3.66,2.53.68,3.06-.11,2.52,1.02,2.29.38,2.68.73,1.45,1.16.93,1.64.78Z"/>
        </g>
        <g id="_耳中-2" data-name="耳中">
          <polygon class="cls-21" points="164.19 90.29 166.8 91.49 169.4 92.56 171.72 94.2 174.14 95.59 176.62 96.92 178.89 98.58 181.32 100.04 183.33 102.03 185.39 103.96 187.48 105.87 189.2 108.31 186.78 109.92 184.6 111.57 182.18 113.02 180.58 115.35 178.67 117.34 176.54 119.13 174.37 120.89 172.93 123.35 170.92 125.27 168.66 126.95 166.97 129.17 164.71 130.82 162.83 132.73 162.32 130.11 161.35 127.53 160.92 124.84 161.08 122.05 160.46 119.4 160.26 116.68 159.74 114 160.04 111.26 159.91 108.55 159.58 105.83 160.09 103.14 160.01 100.38 160.79 97.75 161.86 95.24 163 92.81 164.19 90.29"/>
        </g>
      </g>
      <polygon class="cls-12" points="301.28 173.33 301.15 170.64 301.35 167.93 301.39 165.22 300.71 162.58 300.14 159.94 300.23 157.19 299.61 154.55 298.82 151.97 298.44 149.27 297.1 146.86 296.56 144.19 295.5 141.7 294.59 139.14 293.25 136.78 291.8 134.5 290.23 132.29 289.14 129.78 287.09 127.93 285.76 125.55 284.04 123.46 281.83 121.84 280.21 119.66 277.91 118.19 276.13 116.1 273.94 114.51 271.59 113.17 269.47 111.46 266.88 110.56 264.72 108.84 262.02 108.24 259.69 106.84 257.03 106.25 254.51 105.31 252 104.28 249.35 103.74 246.73 103.07 244.13 102.29 241.38 102.34 238.75 101.69 236.07 101.29 233.35 101.4 230.65 101.42 227.96 100.82 225.25 100.78 222.55 101.41 219.86 101.53 217.15 101.61 214.44 101.66 211.7 101.53 209.06 102.24 206.4 102.8 203.78 103.47 201.03 103.6 198.4 104.3 195.99 105.68 193.2 105.89 190.88 107.4 188.38 108.43 186 109.71 183.42 110.6 181.2 112.15 178.9 113.56 176.45 114.77 174.48 116.66 172.21 118.16 170.47 120.27 168.1 121.7 166.63 124.04 164.31 125.6 162.79 127.87 161.15 130.03 159.92 132.46 158.26 134.6 156.73 136.85 155.51 139.27 154.76 141.91 153.63 144.36 152.26 146.73 151.52 149.34 150.77 151.94 149.77 154.48 149.24 157.15 149.2 159.9 148.38 162.51 148 165.2 147.93 167.91 148.13 170.63 147.56 173.33 148.22 176.01 147.82 178.75 148.78 181.34 148.82 184.07 149.44 186.7 150.54 189.19 151.67 191.63 152.3 194.3 153.55 196.71 155 198.99 156.76 201.06 158.6 203.03 160.41 205 161.75 207.45 164.11 208.86 166.08 210.7 167.96 212.67 170.51 213.72 172.72 215.23 174.97 216.69 177.29 218.05 179.58 219.51 181.98 220.75 184.48 221.78 187 222.74 189.62 223.43 192.13 224.43 194.79 224.94 197.33 225.88 200.08 225.95 202.59 227.09 205.27 227.45 207.95 227.81 210.67 227.8 213.33 228.21 215.99 228.69 218.71 228.4 221.36 229.19 224.07 228.85 226.76 229.35 229.44 228.81 232.14 229.06 234.83 229.1 237.47 228.41 240.17 228.41 242.81 227.88 245.46 227.5 248.17 227.46 250.72 226.51 253.34 225.96 256.02 225.62 258.5 224.52 261.04 223.71 263.66 223.08 266.2 222.21 268.53 220.84 271.19 220.19 273.44 218.69 275.87 217.55 278.02 215.92 280.19 214.35 282.28 212.69 284.72 211.44 286.38 209.27 288.22 207.34 290.39 205.69 292 203.52 293.16 201.06 294.97 199.04 296.14 196.62 297.51 194.3 298.61 191.83 299.48 189.28 299.89 186.6 300.65 184.02 300.56 181.29 301.6 178.72 301.31 176 301.28 173.33"/>
      <polygon class="cls-6" points="148.94 159.21 151.19 160.65 153.76 161.48 156.32 162.29 159.04 162.37 161.62 163.17 164.31 163.33 166.99 163.23 169.69 163.31 172.29 162.5 174.98 162.34 177.54 161.53 180.1 160.74 182.67 159.98 185.03 158.67 187.62 157.9 189.89 156.46 192.04 154.84 194.52 153.78 196.67 152.17 198.63 150.35 200.98 148.99 202.74 146.94 204.72 145.16 206.56 143.11 208.67 141.29 210.49 139.21 211.7 136.67 213.48 134.57 214.95 132.23 216.15 129.75 217.25 127.23 219.02 125 219.42 122.2 220.57 119.68 221.44 117.06 221.88 114.34 222.34 111.62 222.51 108.87 222.75 106.13 222.36 103.39 222.41 100.61 219.71 101.05 217.01 101.15 214.3 101.2 211.66 101.87 208.9 101.71 206.31 102.57 203.56 102.66 200.99 103.56 198.36 104.2 195.73 104.85 193.19 105.8 190.59 106.57 188.27 108.03 185.8 109.12 183.33 110.24 181.02 111.64 178.7 113.03 176.51 114.62 174.1 115.89 172.12 117.75 169.88 119.29 168.1 121.36 166.29 123.37 164.18 125.1 162.79 127.45 160.98 129.47 159.63 131.82 157.91 133.92 156.84 136.42 155.21 138.62 153.96 141.02 153 143.56 152.14 146.13 151.07 148.62 150.39 151.25 150.19 153.99 149.05 156.5 148.94 159.21"/>
      <polygon class="cls-18" points="299.67 152.96 298.66 150.43 298.3 147.72 297.08 145.28 296.64 142.56 295.08 140.28 294 137.82 292.97 135.32 291.81 132.87 290.13 130.72 288.94 128.27 287.17 126.21 285.87 123.79 283.91 121.9 282.11 119.87 280.12 118.02 277.84 116.52 275.73 114.84 273.8 112.92 271.5 111.48 269.3 109.9 266.98 108.48 264.54 107.31 262.1 106.12 259.57 105.15 256.94 104.47 254.32 103.8 251.91 102.41 249.27 101.74 246.59 101.31 243.96 100.62 241.28 100.2 238.54 100.21 235.83 100.15 233.16 99.49 230.44 99.59 227.72 99.58 224.86 99.6 222.2 100.02 222.15 102.6 222.97 105.23 224.18 107.7 225.27 110.19 225.95 112.91 227.39 115.26 229.31 117.27 230.54 119.76 232.46 121.74 234.41 123.65 235.87 126.03 238.2 127.56 240.11 129.52 242.19 131.3 244.28 133.06 246.29 134.93 248.57 136.46 250.8 138.06 253.34 139.15 255.63 140.65 258.11 141.82 260.51 143.13 262.76 144.72 265.43 145.43 267.91 146.55 270.42 147.57 272.9 148.75 275.53 149.48 278.21 149.98 280.79 150.89 283.46 151.42 286.12 152.01 288.85 152.14 291.49 152.94 294.21 153.2 296.94 153.36 299.67 152.96"/>
      <path class="cls-19" d="M221.32,232.25l-2.83-.25-2.98-.11-2.74-.76-2.55-.27-2.81-.41-2.32-.45-3,.07-2.78-1.03-2.74-.36-2.49-1.02-2.82-.33-2.56-1.28-2.58-.53-2.76-1.2-2.43-.97-2.99-1.1-1.95-1.73-2.7-.65-2.38-2.08-2.36-1.33-2.42-1.72-1.98-2.05-1.69-1.45-2.94-1.62-1.56-2.87-1.57-1.64-2.08-2.34-1.56-2.2-1.81-2.43-1.15-2.88-.99-2.3-1.41-2.7-.54-2.8-1.11-2.69-.23-3.41v-2.56s-.24-2.52-.24-2.52l-.67-5.85.59-2.89.02-2.76.6-2.78.25-3,.6-2.54.45-3.03,1.17-2.49.37-2.81,1.39-2.64.66-2.33.83-3.18,1.92-2.63,1.2-1.87.82-2.77,2.18-2.99,1.68-1.73,1.22-2.06c.85-1.42,2.69-1.89,4.11-1.05,1.42.85,1.89,2.69,1.05,4.11l-1.59,2.67-2.02,2.08-1.17,1.65-.78,2.62-1.81,2.81-1.31,1.79-.56,2.13-.85,3-1.19,2.25-.35,2.67-1.19,2.53-.38,2.52-.57,2.43-.24,2.91-.51,2.38-.02,2.73-.52,2.54.84,7.81v2.75s.14,2.12.14,2.12l.97,2.35.49,2.53,1.15,2.22,1.06,2.47.89,2.23,1.39,1.87,1.49,2.11,1.69,1.87,2.07,2.16,1.1,2.04,1.93,1.06,2.47,2.13,1.69,1.75,1.83,1.3,2.49,1.38,1.75,1.53,2.72.66,2.22,1.97,2.01.74,2.59,1.04,2.27.98,2.74.57,2.32,1.16,2.6.3,2.53,1.04,2.63.34,2.34.86,2.5-.06,2.89.56,2.53.37,3.11.36,2.3.64,2.51.09,2.47.22,2.49-.15,5.72-.47,2.51.5,2.46-.52,2.56.16,2.71-.85,2.8.35,2.38-.64,2.48-.09,2.45-1.07,2.85-.25,2.19-.7,2.78-.99,2.55-.34,2.34-1.1,2.74-.56,1.92-.79,2.34-1.61,2.39-1.2,2.19-1.19,2.19-1.37,2.09-1.38,2.21-1.67,2.11-1.39,1.86-1.56,1.76-1.69,3.24-3.84,1.41-2.26,1.32-1.86.88-2.5,1.37-2.14.64-2.55.93-2.36.76-2.6.77-2.18.26-2.79.57-2.28v-2.12s-.41-2.96-.41-2.96l.49-2.58-.42-2.07-.53-3.1.22-2.57-.62-2.41-.09-2.47-1.03-2.5-.1-2.67-.95-2.14-1-2.78-.37-2.47-1.18-2.25-.58-2.34-1.52-1.89-1.18-2.51-1.37-1.99-1.67-2.62-1.09-2.25-1.37-2.07c-.91-1.38-.53-3.24.85-4.15,1.38-.91,3.24-.53,4.15.85l1.67,2.58,1.1,2.26,1.34,2.07,1.7,2.54.98,2.08,1.9,2.37.72,2.92,1.31,2.5.44,2.88.76,2.12,1.29,2.89.11,2.75,1.04,2.51.11,2.9.71,2.78-.24,2.83.38,2.25.63,3.13-.52,2.76.34,2.42-.02,3.28-.69,2.74-.22,2.83-1,2.84-.81,2.75-.9,2.29-.7,2.92-1.54,2.41-.93,2.64-1.75,2.47-1.63,2.57-3.7,4.36-2.09,2-2.34,1.94-2.17,1.44-2.21,1.67-2.23,1.48-2.5,1.55-2.35,1.28-2.28,1.14-2.33,1.64-3.07,1.25-2.59.53-2.54,1.19-2.84.38-2.33.83-2.88.91-2.53.22-2.59,1.13-2.94.11-2.85.77-2.68-.33-2.52.79-2.85-.17-2.86.6-2.89-.58-4.96.4-2.99.17Z"/>
      <path class="cls-19" d="M200.36,106.85c-1.2,0-2.34-.73-2.8-1.92-.6-1.54.17-3.28,1.72-3.88l3.03-1.12,2.3-.46,2.7-1.3,3.26-.15,2.5-.28,2.56-.46,3.07-.44,2.51-.11,2.98-.52,2.87.43,2.61-.17,3.32.28,2.3.5,2.91-.09,2.97.95,2.8.64,5.15,1.66c1.58.5,2.45,2.19,1.95,3.77-.5,1.58-2.19,2.45-3.77,1.95l-5.07-1.63-2.76-.63-2.11-.67-2.62.08-2.82-.61-2.28-.18-2.82.19-2.55-.38-2.59.43-2.55.12-2.53.37-2.76.49-2.89.32-2.15.1-2.29,1.1-2.79.56-2.3.89c-.35.14-.72.2-1.08.2Z"/>
      <g id="_表情" data-name="表情">
        <g id="_右目" data-name="右目">
          <polygon class="cls-14" points="271.06 170.21 271.17 167.3 270.36 164.46 268.69 162 266.1 160.6 263.36 159.77 260.72 160.79 258.13 162.09 256.97 164.76 255.62 167.32 255.58 170.21 256.07 173.01 256.53 175.88 258.02 178.44 260.69 179.7 263.36 180.42 266.13 179.91 268.25 178.03 269.74 175.66 270.86 173.06 271.06 170.21"/>
        </g>
        <g id="_左目" data-name="左目">
          <polygon class="cls-15" points="208.24 170.21 207.97 167.34 207.15 164.55 205.47 162.17 203.27 160.2 200.33 159.98 197.47 160.33 195.12 162.1 193.66 164.62 192.83 167.37 192.06 170.21 192.47 173.13 193.8 175.74 195.43 178.04 197.54 179.96 200.33 180.41 203.04 179.76 205.55 178.33 207.31 175.95 207.72 173.03 208.24 170.21"/>
        </g>
        <g id="_鼻" data-name="鼻">
          <polygon class="cls-9" points="240.03 175.53 238.39 173.38 235.43 172.13 232.33 173.07 230.71 175.53 231.6 177.53 233.26 179.07 235.43 180.03 237.76 179.34 239.56 177.75 240.03 175.53"/>
        </g>
        <g id="_口" data-name="口">
          <g>
            <polygon class="cls-13" points="247.08 190.83 246.66 193.36 245.76 195.88 245.11 198.52 243.79 200.89 241.71 202.65 239.68 204.32 237.57 206.07 234.84 206.22 232.23 206.19 229.63 205.74 227.39 204.37 225.36 202.72 223.5 200.81 222.15 198.47 221.21 195.93 220.7 193.26 221.02 190.79 223.2 191.48 225.73 191.79 228.27 191.55 230.63 190.6 233.2 190.1 235.22 188.47 236.68 186.52 237.93 188.53 239.98 189.98 242.29 190.93 244.76 190.99 247.08 190.83"/>
            <path class="cls-19" d="M234.84,207.91h-.02l-2.61-.03c-.09,0-.18,0-.27-.02l-2.59-.45c-.21-.04-.41-.11-.6-.23l-2.24-1.38c-.06-.04-.12-.08-.18-.13l-2.03-1.64c-.05-.04-.1-.09-.15-.14l-1.86-1.91c-.1-.1-.18-.21-.25-.33l-1.35-2.33c-.05-.08-.09-.17-.12-.26l-.94-2.55c-.03-.09-.06-.17-.07-.27l-.51-2.67c-.03-.18-.04-.36-.02-.53l.32-2.47c.06-.5.34-.94.77-1.21.42-.27.94-.34,1.42-.18l2.03.64,2.19.27,2.12-.2,2.13-.86c.1-.04.2-.07.31-.09l2.15-.42,1.53-1.24,1.34-1.78c.33-.45.86-.71,1.42-.67.56.02,1.07.32,1.36.8l1.06,1.72,1.61,1.14,1.84.76,2.09.05,2.24-.16c.51-.04,1.02.17,1.37.55.35.38.5.9.42,1.41l-.42,2.53c-.02.1-.04.19-.07.29l-.87,2.44-.63,2.55c-.04.14-.09.28-.16.41l-1.32,2.38c-.1.18-.23.34-.39.47l-6.24,5.18c-.28.23-.62.36-.98.38l-2.73.16s-.06,0-.1,0ZM232.38,204.51l2.42.03,2.12-.12,5.55-4.61,1.06-1.91.6-2.42c.01-.05.03-.11.05-.16l.89-2.66h-.18c-.05.02-.11.02-.16.02l-2.48-.06c-.21,0-.41-.05-.6-.13l-2.31-.95c-.12-.05-.23-.11-.33-.18l-2.05-1.45c-.16-.11-.29-.25-.4-.4-.08.1-.17.2-.27.28l-2.02,1.63c-.21.17-.47.29-.74.34l-2.4.47-2.21.9c-.15.06-.31.1-.48.12l-2.54.24c-.12.01-.24,0-.36,0l-2.53-.31c-.1-.01-.21-.04-.31-.07l-.25-.08-.03.2.43,2.27.84,2.28,1.17,2.03,1.64,1.69,1.87,1.51,1.87,1.15,2.14.37Z"/>
          </g>
          <path class="cls-19" d="M224.8,193.9c-.1,0-.19,0-.29-.02l-2.82-.4c-.36-.05-.7-.2-.99-.43l-2.13-1.69-2.31-1.39c-.36-.21-.64-.53-.81-.91l-1.17-2.58c-.47-1.04-.02-2.26,1.02-2.73,1.03-.47,2.26-.02,2.73,1.02l.91,2,1.87,1.13c.08.05.15.1.22.15l1.8,1.43,1.97.28,2.47-.35,2.45-.26,1.87-.9,1.56-1.5,1.44-2.31c.35-.56.95-.92,1.6-.97.67-.05,1.3.23,1.72.73l1.82,2.17,1.63,1.57,1.89.86,2.16.2,2.05-.35,1.53-1.04,1.01-1.89,1.01-2.41c.44-1.05,1.65-1.54,2.7-1.1,1.05.44,1.54,1.65,1.1,2.7l-1.05,2.5c-.02.06-.05.12-.08.17l-1.29,2.42c-.16.29-.38.54-.65.73l-2.32,1.59c-.25.17-.53.28-.82.33l-2.77.47c-.18.03-.36.04-.54.02l-2.78-.26c-.23-.02-.45-.08-.66-.18l-2.53-1.15c-.21-.1-.41-.23-.58-.39l-1.96-1.89c-.05-.05-.1-.1-.15-.16l-.07-.08-.07.12c-.09.14-.2.28-.32.4l-1.98,1.9c-.16.15-.34.28-.54.37l-2.49,1.2c-.21.1-.44.17-.68.19l-2.73.29-2.68.39c-.1.01-.2.02-.29.02Z"/>
        </g>
        <g id="_ヒゲ" data-name="ヒゲ">
          <path class="cls-19" d="M180.95,182.83c-.11,0-.22,0-.33-.02l-2.8-.41c-.23-.03-.46-.1-.67-.21l-2.31-1.14-2.46-.72-2.6-.66-2.39-.67-2.48.05c-.23,0-.46-.03-.68-.09l-2.37-.7-2.46-.02c-.1,0-.2,0-.29-.02l-2.73-.39-2.6-.27-2.7-.12-2.62-.03-2.44.14-2.45.7c-.06.02-.12.03-.17.04l-2.64.53-2.53.65-2.56.86c-1.18.39-2.45-.24-2.85-1.42-.4-1.18.24-2.45,1.42-2.85l2.63-.88c.05-.02.1-.03.16-.05l2.67-.69s.08-.02.12-.03l2.61-.52,2.61-.74c.16-.05.32-.07.49-.08l2.77-.16c.05,0,.1,0,.16,0l2.77.04,2.83.12s.09,0,.13.01l2.75.29,2.67.38,2.63.03c.21,0,.41.03.61.09l2.34.69,2.46-.05c.22,0,.44.02.65.08l2.66.74,2.62.67,2.72.79c.13.04.25.08.37.14l2.17,1.07,2.45.36c1.23.18,2.08,1.32,1.9,2.55-.17,1.12-1.13,1.92-2.22,1.92Z"/>
          <path class="cls-19" d="M131.84,203.06c-.62,0-1.24-.26-1.68-.76-.82-.93-.74-2.35.19-3.17l2.09-1.85c.13-.11.27-.21.42-.29l2.45-1.33c.17-.09.34-.16.53-.21l2.58-.65,5.02-1.96c.08-.03.17-.06.25-.08l2.68-.69c.05-.01.11-.03.16-.04l2.72-.48c.07-.01.15-.02.22-.03l2.58-.2,2.52-.61c.22-.05.45-.07.67-.06l2.55.16,2.49-.38s.09-.01.14-.02l2.75-.25c.12,0,.23-.01.35,0l2.75.18,8.19.31c.11,0,.21.02.32.04l2.7.51c1.22.23,2.02,1.4,1.8,2.62-.23,1.22-1.41,2.03-2.62,1.8l-2.55-.48-8.06-.31-2.66-.17-2.5.23-2.66.4c-.16.02-.32.03-.48.02l-2.44-.15-2.36.58c-.12.03-.24.05-.36.06l-2.65.21-2.53.45-2.47.63-4.99,1.96c-.09.04-.19.07-.28.09l-2.44.61-1.97,1.07-1.89,1.68c-.43.38-.96.57-1.49.57Z"/>
          <path class="cls-19" d="M318.2,194.05c-.26,0-.52-.06-.76-.18l-2.45-1.23-2.16-.99-2.48-.12c-.23-.01-.45-.07-.65-.17l-2.21-1.07h-2.4c-.12.01-.25,0-.38-.03l-2.58-.58-2.54-.17-2.6.08-2.67.34c-.2.03-.39.02-.58-.03l-2.32-.52-2.28.7c-.15.04-.3.07-.45.07l-2.74.07-2.55.22-2.61.49c-.92.17-1.8-.43-1.97-1.35-.17-.92.43-1.8,1.35-1.97l2.69-.51c.06-.01.11-.02.17-.02l2.73-.23,2.61-.07,2.49-.76c.28-.09.58-.1.87-.03l2.47.56,2.45-.31c.05,0,.11-.01.16-.01l2.76-.08c.05,0,.11,0,.17,0l2.75.19c.09,0,.17.02.26.04l2.52.57h2.6c.29-.02.51.05.74.16l2.25,1.09,2.46.12c.22.01.43.06.62.15l2.52,1.15,2.51,1.26c.83.42,1.17,1.44.75,2.27-.3.59-.89.93-1.51.93Z"/>
          <path class="cls-19" d="M280.3,179.34c-.91,0-1.74-.62-1.98-1.54-.28-1.09.38-2.2,1.48-2.48l2.6-.66,2.35-1.01,2.48-1.23c.22-.11.46-.18.7-.2l2.68-.28,2.58-.61c.09-.02.18-.04.28-.05l2.78-.26,2.55-.32,2.61-.69c.2-.05.41-.08.63-.06l5.48.27,2.73-.13c.2,0,.4.01.6.06l2.73.7c.16.04.32.1.47.18l2.28,1.24,2.49.7c1.08.31,1.72,1.43,1.41,2.52-.31,1.09-1.43,1.72-2.52,1.41l-2.71-.76c-.15-.04-.29-.1-.42-.17l-2.26-1.23-2.19-.56-2.53.12c-.06,0-.13,0-.19,0l-5.27-.26-2.43.64c-.09.02-.18.04-.27.05l-2.75.34-2.7.25-2.57.6c-.08.02-.17.03-.26.04l-2.44.25-2.2,1.09s-.07.03-.11.05l-2.55,1.09c-.1.04-.2.08-.3.1l-2.75.7c-.17.04-.34.06-.5.06Z"/>
        </g>
      </g>
      <circle id="_目の光" data-name="目の光" class="cls-12" cx="263.36" cy="165.03" r="2.92"/>
      <circle id="_目の光-2" data-name="目の光" class="cls-12" cx="200.33" cy="165.03" r="2.92"/>
    </g>
    <g id="_地図" data-name="地図">
      <polygon class="cls-20" points="312.22 227.02 309.3 227.7 306.63 227.62 303.98 227.92 301.3 227.53 298.65 227.89 295.97 227.58 293.33 228.26 290.65 228.01 288.01 227.99 285.24 227.71 282.46 227.39 279.82 226.36 277.11 225.71 274.33 225.37 271.57 224.91 268.88 224.17 266.15 223.57 263.4 223.07 260.72 222.24 257.94 221.87 255.19 222.49 252.34 222.37 249.53 222.57 246.73 222.89 243.94 223.23 241.18 223.86 238.37 224.11 235.58 224.44 232.75 224.54 230.12 225.27 229.8 227.85 228.84 230.45 228.22 233.11 228.12 235.87 227.74 238.58 226.76 241.17 226.13 243.83 225.73 246.54 225.14 249.2 225.3 252.01 224.19 254.59 223.63 257.26 223.72 260.06 222.66 262.64 222.35 265.37 222.3 268.13 221.67 270.8 220.72 273.4 220.72 276.19 220.28 278.89 219.73 281.58 218.91 284.28 221.57 284.05 224.04 283.07 226.69 283.25 229.24 282.76 231.72 281.89 234.27 281.45 236.89 281.43 239.41 280.75 241.99 280.44 244.6 280.29 247.1 279.73 249.75 279.95 252.27 280.74 254.87 281.27 257.33 282.31 259.84 283.17 262.48 283.51 265.08 284.04 267.52 285.2 270.2 285.42 272.69 286.37 275.24 287.11 275.34 286.8 275.23 287.4 275.44 287.04 275.51 287.27 278.11 286.68 280.77 286.44 283.35 285.66 285.95 285.08 288.65 285.13 291.28 284.62 293.94 284.39 296.5 283.5 299.17 283.27 302.09 283.3 302.63 280.44 302.76 277.73 303.18 275.06 303.93 272.46 304.5 269.82 304.74 267.13 305.45 264.51 305.9 261.85 306.4 259.2 306.89 256.54 307 253.82 307.65 251.19 308.4 248.59 308.81 245.92 309.2 243.25 309.65 240.58 310.36 237.97 310.32 235.21 310.96 232.58 311.27 229.88 312.22 227.02"/>
      <path class="cls-10" d="M283.31,280.85c-1.81,0-3.4-1.31-3.7-3.16-.33-2.04,1.06-3.97,3.11-4.29l1.79-.29,3.18-2.08,1.22-1.56c.13-.17.28-.32.43-.46l1.64-1.49.81-1.21.37-1.91c.07-.38.21-.75.39-1.09l.79-1.43-.04-.71-.59-.11-2.49-.36c-.53-.08-1.04-.27-1.49-.56l-2.12-1.36c-.58-.37-1.04-.89-1.34-1.5l-1.1-2.25c-.26-.52-.39-1.1-.38-1.69l.03-2.62c0-.25.03-.5.08-.74l.54-2.55c.06-.3.17-.59.3-.87l.96-1.96.48-2.11c.46-2.02,2.47-3.28,4.49-2.82,2.02.46,3.28,2.47,2.82,4.49l-.58,2.54c-.06.28-.16.56-.29.82l-.95,1.93-.37,1.73v1.35s.24.51.24.51l.55.36,1.76.25c.05,0,.1.02.15.03l2.41.45c1.09.2,2.04.88,2.58,1.85l1.26,2.24c.28.5.44,1.05.47,1.62l.16,2.69c.04.7-.12,1.41-.46,2.03l-1.02,1.86-.4,2.08c-.1.49-.29.96-.57,1.37l-1.48,2.21c-.17.25-.37.49-.6.69l-1.75,1.58-1.42,1.8c-.26.33-.57.61-.92.84l-4.3,2.81c-.45.3-.95.5-1.48.58l-2.59.42c-.2.03-.4.05-.6.05Z"/>
      <path class="cls-10" d="M246.4,275.4c-1.88,0-3.51-1.42-3.72-3.33-.23-2.06,1.25-3.91,3.31-4.14l4.93-.55,4.48-2,2.12-1.02,1.64-1.26,1.33-1.47,1.08-2.05c.03-.06.06-.11.09-.16l1.12-1.89,1.15-4.55.29-2.43c.25-2.06,2.1-3.53,4.17-3.27,2.05.25,3.52,2.11,3.27,4.17l-.32,2.67c-.02.16-.05.32-.09.48l-1.33,5.27c-.09.36-.23.7-.42,1.01l-1.36,2.28-1.26,2.39c-.15.28-.33.53-.54.77l-1.88,2.07c-.15.17-.32.32-.5.46l-2.22,1.7c-.2.16-.42.29-.66.4l-2.51,1.21s-.06.03-.09.04l-5.07,2.26c-.35.16-.73.26-1.11.3l-5.51.61c-.14.02-.28.02-.42.02Z"/>
      <path class="cls-10" d="M268.25,254.88c-.27,0-.55-.03-.82-.09l-2.64-.59c-.25-.06-.5-.14-.73-.25l-4.89-2.26c-.13-.06-.27-.14-.39-.22l-2.26-1.42c-.07-.05-.14-.09-.21-.14l-2.2-1.6c-.31-.22-.58-.49-.8-.8l-1.62-2.18c-.12-.17-.23-.34-.32-.52l-1.24-2.41c-.19-.37-.32-.76-.38-1.17l-.34-2.3-.8-2.18c-.2-.54-.27-1.11-.21-1.68l.28-2.69c.22-2.06,2.06-3.55,4.12-3.34,2.06.22,3.55,2.06,3.34,4.12l-.19,1.82.63,1.72c.09.24.15.49.19.75l.3,2.07.81,1.58,1.1,1.48,1.63,1.19,1.96,1.23,4.23,1.96,1.68.38,2.54-.23c.12-.01.25-.01.36-.02h2.59c.08,0,.16.01.24.02l2.18.14,1.64-.29,1.86-.89,2.2-1.14,2.02-1.12,1.57-1.13,1.13-1.33,1.02-1.94c.04-.07.08-.14.12-.21l1.11-1.83.65-2.04c.62-1.97,2.73-3.07,4.7-2.44,1.97.62,3.07,2.73,2.44,4.7l-.78,2.48c-.09.29-.21.56-.37.82l-1.29,2.12-1.16,2.2c-.13.25-.29.48-.47.69l-1.7,1.99c-.2.23-.42.43-.66.61l-2.12,1.52c-.12.09-.25.17-.37.24l-2.26,1.25s-.06.03-.09.05l-2.29,1.19s-.07.04-.1.05l-2.38,1.14c-.31.15-.64.25-.97.31l-2.59.46c-.3.05-.6.07-.9.05l-2.52-.17h-2.29s-2.95.26-2.95.26c-.11.01-.23.02-.34.02Z"/>
      <path class="cls-19" d="M276.45,278.85c-.13,0-.26-.02-.4-.05-.8-.22-1.27-1.04-1.05-1.84l.7-2.55.36-2.61c.01-.1.04-.2.07-.3l.83-2.35-.04-2.51c0-.19.03-.37.09-.55l.9-2.42.28-2.53c0-.08.02-.15.04-.23l1.4-5.26.49-2.58.44-2.65.38-2.66.55-2.64.12-2.63c0-.05,0-.1.01-.15l.4-2.69.55-2.74c.16-.81.96-1.34,1.76-1.18.81.16,1.34.95,1.18,1.76l-.53,2.67-.38,2.54-.12,2.67c0,.08-.01.16-.03.24l-.56,2.67-.37,2.6-.45,2.72-.52,2.71-1.4,5.27-.28,2.6c-.01.12-.04.24-.08.36l-.87,2.33.04,2.5c0,.18-.03.36-.09.53l-.87,2.46-.35,2.56c0,.07-.02.13-.04.19l-.72,2.64c-.18.67-.79,1.1-1.44,1.1Z"/>
      <path class="cls-19" d="M250.23,274.79c-.06,0-.13,0-.19-.01-.82-.11-1.4-.86-1.3-1.68l.35-2.71.24-2.68c.01-.15.05-.3.11-.45l1.02-2.43.47-2.35-.11-2.61c0-.18.02-.36.07-.52l.84-2.61.65-2.46.3-2.61c0-.06.02-.12.03-.17l.61-2.59.38-2.63.58-5.37s0-.09.02-.13l.51-2.68c.02-.11.05-.22.1-.33l.98-2.24-.11-2.44c-.04-.83.6-1.53,1.43-1.57.86-.07,1.53.6,1.57,1.43l.13,2.8c.01.23-.03.46-.12.67l-1.06,2.4-.46,2.44-.59,5.39-.4,2.74s-.01.09-.02.13l-.6,2.57-.3,2.63c0,.07-.02.14-.04.21l-.7,2.64-.78,2.43.11,2.53c0,.12,0,.24-.03.36l-.54,2.67c-.02.1-.05.19-.09.28l-.99,2.36-.22,2.5-.35,2.77c-.1.76-.74,1.31-1.49,1.31Z"/>
      <path class="cls-19" d="M275.23,290.4c-.35,0-.71-.06-1.06-.19-.35-.13-.65-.32-.92-.55l-1.4-.41c-.08-.02-.15-.05-.23-.08l-2.09-.8-2.26-.18c-.36-.03-.71-.12-1.04-.28l-2.1-1-2.13-.44-2.54-.32c-.2-.03-.4-.07-.6-.14l-2.5-.86c-.06-.02-.13-.05-.19-.07l-2.19-.92-2.31-.47c-.1-.02-.19-.04-.28-.07l-2.21-.69-1.87-.16-2.06.46c-.15.03-.31.06-.47.07l-2.52.15-2.27.27-2.3.63c-.25.07-.51.1-.77.1h-2.38s-2.06.37-2.06.37l-2.24.78c-.14.05-.28.09-.42.11l-2.55.49c-.25.05-.51.06-.77.05l-1.97-.13-1.83.73c-.27.11-.56.18-.85.2l-2.66.23c-.99.09-1.96-.32-2.58-1.09-.63-.77-.83-1.8-.55-2.75l.77-2.58.52-2.49.39-2.4v-2.54c0-.35.06-.69.18-1.02l.89-2.44.51-2.18.05-2.45c0-.09,0-.18.02-.28l.31-2.73c.03-.27.1-.54.2-.8l.82-1.99-.07-2.16c0-.23.01-.47.06-.7l.55-2.68c.04-.2.1-.4.18-.58l.83-1.92-.12-2.1c-.02-.27,0-.55.07-.82l.57-2.57.39-2.6c.01-.08.03-.16.05-.24l.63-2.66c.03-.13.07-.25.11-.37l.86-2.28.31-2.23.09-2.6c0-.19.03-.38.08-.57l.62-2.66c.03-.12.07-.25.11-.37l.84-2.27.27-2.24c.15-1.2,1.01-2.2,2.18-2.52l2.63-.73c.23-.06.46-.1.69-.11l2.7-.09,2.67-.32,2.69-.24,2.56-.59c.1-.02.21-.04.31-.05l5.61-.66s.08,0,.12-.01l2.81-.2c.11,0,.22,0,.34,0l2.45.1,2.37-.53c.35-.08.7-.09,1.05-.05l2.78.37c.17.02.34.06.5.11l2.5.78,2.56.46s.08.02.12.02l2.73.6s.1.02.15.04l2.55.7,2.53.42,2.72.33c.11.01.22.03.33.06l2.72.65c.13.03.27.07.4.12l2.27.89,4.99.53,2.51.03c.08,0,.16,0,.24.01l2.17.2,2.14-.55c.36-.09.73-.12,1.09-.07l2.3.27,2.28-.31c.28-.04.56-.04.84,0l2.29.34,2.26-.26c.14-.02.28-.02.42-.02l2.28.07,2.54-.59c1.06-.24,2.16.1,2.89.9.73.8.97,1.93.63,2.96l-.85,2.56-.28,2.4c-.01.12-.04.25-.07.37l-.55,2.26.04,2.37c0,.28-.03.56-.11.83l-.67,2.47-.42,2.51-.8,5.31c-.02.12-.05.24-.08.36l-.73,2.56-.57,2.28-.1,2.42c0,.14-.02.29-.05.43l-1.43,7.92c-.02.1-.04.19-.06.29l-.64,2.36-.22,2.43c-.01.12-.03.24-.06.36l-.57,2.64c-.01.07-.03.14-.05.21l-.7,2.42-.36,2.32-.12,2.55c0,.14-.02.28-.05.41l-.54,2.86c-.27,1.42-1.51,2.44-2.95,2.44h-.02l-2.78-.02-2.16.18-2.21.77c-.23.08-.48.13-.72.16l-2.51.22-2.47.48c-.21.04-.41.05-.63.05l-2.34-.04-2.15.48-2.48.74c-.19.06-.39.1-.59.12l-2.46.22-2.11.48c-.39.18-.82.27-1.25.27ZM275.34,283.81c.25,0,.5.03.75.1.1.03.2.06.29.09l1.06-.24c.13-.03.27-.05.4-.06l2.36-.21,2.29-.69c.07-.02.14-.04.21-.05l2.6-.58c.23-.05.46-.07.71-.07l2.39.04,2.31-.45c.1-.02.21-.03.31-.04l2.29-.2,2.21-.77c.24-.08.48-.13.73-.16l2.67-.23c.09,0,.18-.01.28-.01h.41s.04-.19.04-.19l.12-2.5c0-.11.02-.21.03-.32l.42-2.67c.02-.13.05-.25.08-.38l.73-2.5.51-2.35.23-2.51c.02-.17.05-.35.09-.52l.67-2.47,1.38-7.66.1-2.51c0-.2.04-.41.09-.6l.65-2.62s.02-.07.03-.1l.69-2.43,1.23-7.85c.02-.1.04-.2.06-.29l.6-2.21-.04-2.33c0-.25.02-.51.08-.75l.6-2.45.16-1.39-1.41-.04-2.44.28c-.26.03-.51.02-.77-.01l-2.26-.33-2.23.3c-.25.04-.5.04-.75,0l-2.12-.25-2.1.54c-.33.08-.68.11-1.02.08l-2.56-.23-2.52-.03c-.09,0-.18,0-.27-.01l-5.59-.6c-.26-.03-.51-.09-.75-.19l-2.44-.95-2.35-.56-2.61-.32s-.09-.01-.13-.02l-2.75-.46c-.1-.02-.2-.04-.3-.07l-2.62-.72-2.59-.57-2.69-.48c-.12-.02-.25-.05-.37-.09l-2.44-.76-2-.26-2.23.5c-.25.06-.51.08-.78.07l-2.68-.11-2.58.19-5.35.63-2.61.6c-.13.03-.27.05-.4.06l-2.81.25-2.71.32c-.08,0-.17.02-.25.02l-2.48.09-.35.1-.07.6c-.03.23-.08.46-.17.68l-.9,2.42-.51,2.19-.09,2.47c0,.1-.01.21-.03.31l-.38,2.71c-.03.22-.08.43-.16.64l-.91,2.41-.55,2.35-.39,2.58c0,.07-.02.14-.04.21l-.5,2.26.13,2.4c.03.47-.06.93-.24,1.36l-.99,2.29-.42,2.03.07,2.44c.01.42-.06.84-.22,1.23l-.9,2.2-.25,2.18-.05,2.63c0,.21-.03.42-.08.62l-.63,2.66c-.03.11-.06.23-.1.34l-.77,2.11v2.26c0,.16-.01.32-.04.48l-.44,2.7s-.01.08-.02.13l-.15.73c.38-.13.78-.18,1.17-.15l2.27.15,1.95-.38,2.27-.79c.16-.05.32-.1.48-.12l2.55-.44c.16-.03.33-.04.49-.04h2.24s2.14-.59,2.14-.59c.14-.04.28-.07.43-.08l2.58-.31c.06,0,.12-.01.18-.02l2.37-.14,2.27-.5c.3-.06.6-.08.9-.06l2.64.22c.22.02.43.06.64.12l2.39.74,2.45.5c.19.04.38.1.56.17l2.37,1,2.12.73,2.34.3c.07,0,.15.02.22.04l2.6.53c.24.05.47.12.68.23l1.94.92,2.14.17c.28.02.56.09.82.19l2.38.91,1.15.33c.18-.03.36-.05.54-.05Z"/>
    </g>
    <path class="cls-19" d="M227.2,279.88c-.08,0-.16,0-.24,0l-2.68-.22c-.09,0-.18-.02-.26-.03l-2.67-.46c-.35-.06-.68-.18-.99-.35l-2.29-1.31-2.02-.98-2.35-.59c-.38-.1-.75-.27-1.06-.5l-1.96-1.46-2.17-1.1c-.25-.13-.48-.29-.69-.48l-1.79-1.67-2.03-1.32s-.09-.06-.13-.09l-2.17-1.58c-.07-.05-.14-.1-.2-.16l-1.9-1.65-2.09-1.45c-.31-.21-.58-.49-.78-.8l-1.33-1.99-1.82-1.45c-.07-.05-.13-.11-.19-.17l-4.06-3.87c-.08-.07-.15-.15-.22-.23l-1.79-2.14c-.05-.06-.1-.12-.14-.19l-1.59-2.22-1.67-2.15-1.71-2.33c-.23-.32-.4-.67-.49-1.05l-.61-2.48-1.03-2.33c-.15-.33-.23-.69-.25-1.05l-.16-2.85c-.02-.33.02-.66.11-.98l.77-2.74c.45-1.59,2.1-2.52,3.7-2.07,1.59.45,2.52,2.1,2.07,3.7l-.64,2.26.1,1.8.92,2.07c.07.16.13.33.17.5l.53,2.16,1.3,1.78,1.66,2.13s.05.06.07.1l1.55,2.17,1.62,1.92,3.81,3.62,2.09,1.66c.24.19.46.42.63.68l1.27,1.91,1.75,1.22c.09.06.17.13.26.2l1.93,1.67,2,1.46,2.18,1.42c.15.09.28.2.41.32l1.67,1.56,2.02,1.02c.15.08.3.17.44.27l1.69,1.26,2.07.52c.2.05.4.12.58.21l2.4,1.16c.06.03.12.06.18.1l1.91,1.1,2.01.34,2.41.2,2.37-.02,2.36-.28,2.13-.4,2.01-.92,2.08-1.05,1.39-1.04,2.01-4.01.92-2.3c.04-.09.08-.18.12-.27l.76-1.46-.31-1.61c-.02-.12-.04-.24-.05-.36l-.14-1.93-.76-1.31-1.27-1.14-1.99-.87c-.17-.07-.32-.16-.47-.26l-1.91-1.29-2.14-.88c-.18-.07-.34-.16-.5-.26l-1.87-1.22-2.14-.69c-.25-.08-.49-.19-.71-.33l-2.17-1.4-2.21-1.31c-.11-.06-.21-.13-.31-.21l-2.07-1.61-2.02-1.47c-.08-.06-.17-.13-.24-.2l-1.94-1.76-2.24-1.48c-.28-.19-.53-.42-.74-.69l-1.5-1.99-1.98-1.52c-.13-.1-.26-.22-.38-.34l-1.73-1.87-2.08-1.44c-1.36-.94-1.7-2.81-.76-4.17.94-1.36,2.81-1.7,4.17-.76l2.35,1.62c.18.12.35.27.49.43l1.78,1.92,2.1,1.61c.21.16.41.36.57.57l1.44,1.9,2,1.33c.13.08.24.18.36.28l1.99,1.8,1.97,1.44,2,1.56,2.09,1.25s.06.04.09.06l1.89,1.22,2.14.69c.25.08.5.2.72.34l1.97,1.28,2.16.88c.19.08.37.17.54.29l1.94,1.31,2.19.96c.29.13.57.3.81.52l1.98,1.78c.23.21.43.45.58.72l1.34,2.31c.23.39.37.83.4,1.29l.18,2.44.48,2.47c.13.67.03,1.36-.29,1.96l-1.18,2.26-.91,2.27c-.03.07-.06.15-.1.22l-2.39,4.76c-.21.42-.51.78-.88,1.05l-2.17,1.62c-.14.1-.29.2-.45.28l-2.37,1.19s-.06.03-.1.05l-2.39,1.1c-.22.1-.46.18-.7.22l-2.59.49c-.07.01-.13.02-.2.03l-2.63.31c-.11.01-.22.02-.33.02l-2.67.02h-.03Z"/>
  </g>
  <g>
    <path class="cls-17" d="M480.46,159.31c2.77,0,5.19,1.03,7.24,3.08,2.05,2.05,3.08,4.47,3.08,7.24v71.13c0,18.95-3.95,32.43-11.86,40.45-7.91,8.03-20.85,12.04-38.83,12.04-11.22,0-21.24-1.15-30.05-3.44-2.9-.72-5.25-2.32-7.06-4.8-1.81-2.47-2.71-5.28-2.71-8.42v-10.5c0-2.29,1-4.13,2.99-5.52,1.99-1.39,4.13-1.66,6.43-.81,8.44,3.02,16.47,4.52,24.07,4.52,6.88,0,11.92-2.05,15.11-6.15,3.2-4.1,4.8-11.1,4.8-21v-67.51c0-2.77,1.02-5.19,3.08-7.24,2.05-2.05,4.46-3.08,7.24-3.08h16.47Z"/>
    <path class="cls-17" d="M543.09,155.69c2.77,0,5.19,1.03,7.24,3.08,2.05,2.05,3.08,4.47,3.08,7.24v4.71c0,2.78-1.03,5.19-3.08,7.24s-4.47,3.08-7.24,3.08h-15.57c-2.78,0-5.19-1.02-7.24-3.08-2.05-2.05-3.08-4.46-3.08-7.24v-4.71c0-2.77,1.02-5.19,3.08-7.24s4.46-3.08,7.24-3.08h15.57ZM543.09,197.32c2.77,0,5.19,1.03,7.24,3.08,2.05,2.05,3.08,4.47,3.08,7.24v73.49c0,2.78-1.03,5.19-3.08,7.24s-4.47,3.08-7.24,3.08h-15.57c-2.78,0-5.19-1.02-7.24-3.08-2.05-2.05-3.08-4.46-3.08-7.24v-73.49c0-2.77,1.02-5.19,3.08-7.24s4.46-3.08,7.24-3.08h15.57Z"/>
    <path class="cls-17" d="M687.52,195.51c10.38,0,17.95,2.81,22.72,8.42,4.77,5.61,7.15,14.87,7.15,27.78v49.41c0,2.78-1.03,5.19-3.08,7.24-2.05,2.05-4.47,3.08-7.24,3.08h-12.85c-2.78,0-5.16-1.02-7.15-3.08-1.99-2.05-2.99-4.46-2.99-7.24v-49.41c0-4.1-.61-6.88-1.81-8.33-1.21-1.45-3.38-2.17-6.52-2.17-2.42,0-4.68.79-6.79,2.35-2.11,1.57-3.17,3.08-3.17,4.53v53.03c0,2.78-1.03,5.19-3.08,7.24-2.05,2.05-4.47,3.08-7.24,3.08h-12.85c-2.78,0-5.16-1.02-7.15-3.08-1.99-2.05-2.99-4.46-2.99-7.24v-49.41c0-4.1-.61-6.88-1.81-8.33-1.21-1.45-3.38-2.17-6.52-2.17-2.42,0-4.68.79-6.79,2.35-2.11,1.57-3.17,3.08-3.17,4.53v53.03c0,2.78-1.03,5.19-3.08,7.24-2.05,2.05-4.47,3.08-7.24,3.08h-13.76c-2.78,0-5.19-1.02-7.24-3.08-2.05-2.05-3.08-4.46-3.08-7.24v-73.49c0-2.77,1.02-5.19,3.08-7.24,2.05-2.05,4.46-3.08,7.24-3.08h11.04c2.9,0,5.37,1,7.42,2.99,2.05,1.99,3.2,4.43,3.44,7.33l.18,2.17c0,.12.06.18.18.18.24,0,.36-.06.36-.18,3.26-4.46,7.15-7.96,11.67-10.5s8.96-3.8,13.3-3.8c5.55,0,9.98.97,13.3,2.9,3.32,1.93,6.48,5.43,9.5,10.5,0,.12.06.18.18.18.24,0,.42-.06.54-.18,8.93-8.93,17.68-13.39,26.25-13.39Z"/>
    <path class="cls-17" d="M745.8,208.45c8.57-8.63,20.57-12.94,36.02-12.94s27.45,4.32,36.02,12.94c8.57,8.63,12.85,20.61,12.85,35.93s-4.28,27.3-12.85,35.93c-8.57,8.63-20.57,12.94-36.02,12.94s-27.45-4.31-36.02-12.94c-8.57-8.62-12.85-20.6-12.85-35.93s4.28-27.3,12.85-35.93ZM770.78,264.02c2.29,3.8,5.97,5.7,11.04,5.7s8.75-1.9,11.04-5.7c2.29-3.8,3.44-10.34,3.44-19.64s-1.15-15.84-3.44-19.64c-2.29-3.8-5.97-5.7-11.04-5.7s-8.75,1.9-11.04,5.7c-2.29,3.8-3.44,10.35-3.44,19.64s1.15,15.84,3.44,19.64Z"/>
    <path class="cls-17" d="M913.77,200.94c2.77,0,5.19,1.03,7.24,3.08,2.05,2.05,3.08,4.47,3.08,7.24v2.9c0,2.78-1.03,5.19-3.08,7.24s-4.47,3.08-7.24,3.08h-16.11c-1.09,0-1.63.54-1.63,1.63v25.52c0,7.24.6,11.77,1.81,13.58,1.21,1.81,3.92,2.71,8.14,2.71,1.69,0,3.74-.18,6.15-.54,2.53-.36,4.86.27,6.97,1.9,2.11,1.63,3.17,3.71,3.17,6.25v4.71c0,3.02-.94,5.7-2.8,8.05-1.87,2.35-4.25,3.71-7.15,4.07-4.23.6-9.35.9-15.39.9-12.91,0-22.02-2.77-27.33-8.33-5.31-5.55-7.96-15.44-7.96-29.68v-29.14c0-1.09-.54-1.63-1.63-1.63h-7.06c-2.78,0-5.19-1.02-7.24-3.08-2.05-2.05-3.08-4.46-3.08-7.24v-2.9c0-2.77,1.02-5.19,3.08-7.24,2.05-2.05,4.46-3.08,7.24-3.08h7.06c1.09,0,1.63-.54,1.63-1.63v-22.44c0-2.77,1.02-5.19,3.08-7.24,2.05-2.05,4.46-3.08,7.24-3.08h13.76c2.77,0,5.19,1.03,7.24,3.08,2.05,2.05,3.08,4.47,3.08,7.24v22.44c0,1.09.54,1.63,1.63,1.63h16.11Z"/>
    <path class="cls-17" d="M1012.6,197.68c2.77-.36,5.19.48,7.24,2.53,2.05,2.05,3.08,4.52,3.08,7.42v4.71c0,2.78-.97,5.16-2.9,7.15-1.93,1.99-4.34,3.17-7.24,3.53-9.29,1.21-16.71,4.68-22.26,10.41-5.55,5.73-8.33,12.7-8.33,20.91v26.79c0,2.78-1.03,5.19-3.08,7.24-2.05,2.05-4.47,3.08-7.24,3.08h-14.66c-2.78,0-5.19-1.02-7.24-3.08-2.05-2.05-3.08-4.46-3.08-7.24v-73.49c0-2.77,1.02-5.19,3.08-7.24,2.05-2.05,4.46-3.08,7.24-3.08h13.76c2.77,0,5.19,1.03,7.24,3.08,2.05,2.05,3.08,4.47,3.08,7.24v7.6c0,.12.06.18.18.18s.24-.06.36-.18c7.6-10.01,17.86-15.87,30.77-17.56Z"/>
    <path class="cls-17" d="M1082.82,195.51c15.93,0,27.45,2.9,34.57,8.69,7.12,5.79,10.68,14.96,10.68,27.51v49.41c0,2.78-1.03,5.19-3.08,7.24-2.05,2.05-4.47,3.08-7.24,3.08h-11.4c-2.9,0-5.37-1-7.42-2.99-2.05-1.99-3.14-4.43-3.26-7.33v-1.45c0-.12-.06-.18-.18-.18s-.24.06-.36.18c-7.72,9.05-17.26,13.57-28.6,13.57-8.45,0-15.38-2.68-20.81-8.05-5.43-5.37-8.15-12.34-8.15-20.91,0-21.72,16.29-32.58,48.87-32.58h5.61c1.09,0,1.63-.54,1.63-1.63v-.18c0-7.24-4.23-10.86-12.67-10.86-7.24,0-16.59,1.09-28.06,3.26-2.53.48-4.83-.09-6.88-1.72-2.05-1.63-3.08-3.77-3.08-6.43v-2.9c0-3.02.93-5.73,2.81-8.15,1.87-2.41,4.25-3.86,7.15-4.34,11.95-2.17,21.9-3.26,29.87-3.26ZM1093.68,253.43v-1.09c0-1.09-.54-1.63-1.63-1.63h-5.61c-12.07,0-18.1,3.62-18.1,10.86,0,5.43,3.01,8.15,9.05,8.15,4.71,0,8.6-1.48,11.67-4.43,3.08-2.96,4.62-6.91,4.62-11.86Z"/>
    <path class="cls-17" d="M1231.24,197.32c2.53,0,4.58,1.03,6.15,3.08,1.57,2.05,1.99,4.28,1.27,6.7l-22.26,74.57c-.97,2.9-2.66,5.25-5.07,7.06-2.42,1.81-5.13,2.71-8.14,2.71h-24.62c-3.14,0-5.91-.91-8.33-2.71-2.42-1.81-4.04-4.16-4.89-7.06l-22.26-74.57c-.72-2.41-.3-4.64,1.27-6.7,1.57-2.05,3.62-3.08,6.15-3.08h15.93c2.9,0,5.52.97,7.87,2.9,2.35,1.93,3.83,4.34,4.43,7.24l12.31,63.89c0,.12.06.18.18.18s.18-.06.18-.18l12.31-63.89c.48-2.9,1.9-5.31,4.25-7.24,2.35-1.93,5.04-2.9,8.05-2.9h15.2Z"/>
    <path class="cls-17" d="M1296.04,195.51c30.65,0,46.03,16.17,46.16,48.51,0,2.9-1.09,5.34-3.26,7.33-2.17,1.99-4.77,2.99-7.78,2.99h-47.42c-1.09,0-1.51.54-1.27,1.63,1.09,5.07,3.47,8.63,7.15,10.68,3.68,2.05,9.44,3.08,17.29,3.08,4.95,0,10.98-.72,18.1-2.17,2.53-.6,4.82-.09,6.88,1.54,2.05,1.63,3.08,3.77,3.08,6.43v2.9c0,3.02-.94,5.76-2.81,8.24-1.87,2.47-4.25,3.95-7.15,4.43-7.36,1.45-15.2,2.17-23.53,2.17-17.14,0-30.32-4.19-39.55-12.58-9.23-8.39-13.85-20.48-13.85-36.29s4.1-27.75,12.31-36.2c8.2-8.45,20.09-12.67,35.66-12.67ZM1308.89,235.33c1.09,0,1.63-.54,1.63-1.63-.12-5.55-1.3-9.53-3.53-11.95-2.23-2.41-5.58-3.62-10.04-3.62-4.71,0-8.24,1.18-10.59,3.53-2.35,2.35-3.83,6.43-4.43,12.22,0,.97.48,1.45,1.45,1.45h25.52Z"/>
    <path class="cls-17" d="M1389.07,155.69c2.77,0,5.19,1.03,7.24,3.08,2.05,2.05,3.08,4.47,3.08,7.24v115.12c0,2.78-1.03,5.19-3.08,7.24s-4.47,3.08-7.24,3.08h-15.57c-2.78,0-5.19-1.02-7.24-3.08-2.05-2.05-3.08-4.46-3.08-7.24v-115.12c0-2.77,1.02-5.19,3.08-7.24s4.46-3.08,7.24-3.08h15.57Z"/>
  </g>
</svg>