<svg width="272" height="100" viewBox="0 0 272 100" fill="none" xmlns="http://www.w3.org/2000/svg"><g clip-path="url(#clip0_1_203)"><path d="M248.188 0H23.825c-.916 0-1.821 0-2.735.005-.765.005-1.524.02-2.296.032-1.678.02-3.352.167-5.008.441a16.67 16.67 0 00-4.75 1.567A16.087 16.087 0 004.992 4.99a15.639 15.639 0 00-2.945 4.051 16.495 16.495 0 00-1.561 4.756A32.466 32.466 0 00.038 18.8c-.023.766-.026 1.535-.038 2.3v57.76c.012.775.015 1.527.038 2.303.02 1.676.17 3.349.448 5.002a16.462 16.462 0 001.561 4.759 15.512 15.512 0 002.945 4.033 15.68 15.68 0 004.044 2.946 16.745 16.745 0 004.75 1.576c1.656.272 3.33.42 5.008.442.772.017 1.53.027 2.296.027.914.005 1.82.005 2.735.005h224.363c.898 0 1.811 0 2.709-.005.761 0 1.542-.01 2.303-.027a33.171 33.171 0 004.998-.442 16.992 16.992 0 004.768-1.576 15.668 15.668 0 004.041-2.946 15.987 15.987 0 002.953-4.033 16.495 16.495 0 001.547-4.759 33.69 33.69 0 00.464-5.002c.009-.776.009-1.528.009-2.304.02-.908.02-1.81.02-2.733V23.829c0-.915 0-1.823-.02-2.728 0-.766 0-1.535-.009-2.301a33.693 33.693 0 00-.464-5.003 16.545 16.545 0 00-1.547-4.756 16.153 16.153 0 00-6.994-6.996 16.898 16.898 0 00-4.768-1.567A32.596 32.596 0 00253.2.036c-.761-.012-1.542-.026-2.303-.031C249.999 0 249.086 0 248.188 0z" fill="#A6A6A6"/><path d="M21.102 97.766c-.761 0-1.504-.01-2.26-.026a31.697 31.697 0 01-4.67-.408 14.702 14.702 0 01-4.14-1.37 13.506 13.506 0 01-3.49-2.54 13.295 13.295 0 01-2.551-3.49 14.297 14.297 0 01-1.357-4.14 31.02 31.02 0 01-.416-4.685c-.016-.527-.036-2.282-.036-2.282V21.101s.022-1.728.036-2.235a30.91 30.91 0 01.414-4.678 14.381 14.381 0 011.358-4.154 13.427 13.427 0 012.537-3.493 13.907 13.907 0 013.504-2.555 14.55 14.55 0 014.131-1.359c1.55-.253 3.116-.39 4.687-.41l2.254-.03h229.781l2.282.031a31.02 31.02 0 014.644.407c1.452.246 2.859.708 4.175 1.369a13.98 13.98 0 016.035 6.046 14.384 14.384 0 011.337 4.12c.26 1.56.405 3.136.435 4.717.007.707.007 1.467.007 2.224.02.937.02 1.829.02 2.728v52.297c0 .908 0 1.794-.02 2.687 0 .812 0 1.557-.01 2.323a31.814 31.814 0 01-.427 4.631 14.337 14.337 0 01-1.349 4.173 13.696 13.696 0 01-2.538 3.463 13.533 13.533 0 01-3.497 2.555 14.635 14.635 0 01-4.168 1.374 31.328 31.328 0 01-4.671.408 97.76 97.76 0 01-2.242.026l-2.709.005-227.086-.005z" fill="#000"/><path d="M102.87 41.367H92.746l-2.432 7.179h-4.288l9.59-26.56h4.455l9.589 26.56h-4.361l-2.429-7.18zm-9.076-3.313h8.025l-3.956-11.651h-.11l-3.959 11.651zm36.576.81c0 6.018-3.221 9.885-8.081 9.885a6.563 6.563 0 01-6.093-3.389h-.092v9.592h-3.975v-25.77h3.848v3.22h.073a6.866 6.866 0 016.166-3.423c4.915 0 8.154 3.885 8.154 9.886zm-4.085 0c0-3.92-2.026-6.497-5.118-6.497-3.037 0-5.08 2.631-5.08 6.498 0 3.901 2.043 6.514 5.08 6.514 3.092 0 5.118-2.558 5.118-6.514zm25.4 0c0 6.018-3.222 9.885-8.083 9.885a6.565 6.565 0 01-6.092-3.389h-.092v9.592h-3.975v-25.77h3.847v3.22h.073a6.87 6.87 0 016.166-3.423c4.915 0 8.156 3.885 8.156 9.886zm-4.087 0c0-3.92-2.026-6.497-5.117-6.497-3.037 0-5.08 2.631-5.08 6.498 0 3.901 2.043 6.514 5.08 6.514 3.091 0 5.117-2.558 5.117-6.514zm18.171 2.281c.295 2.634 2.853 4.364 6.35 4.364 3.35 0 5.761-1.73 5.761-4.105 0-2.061-1.454-3.296-4.896-4.142l-3.443-.829c-4.877-1.178-7.141-3.459-7.141-7.16 0-4.583 3.994-7.73 9.663-7.73 5.614 0 9.462 3.147 9.591 7.73h-4.012c-.241-2.65-2.432-4.25-5.634-4.25-3.202 0-5.393 1.618-5.393 3.974 0 1.878 1.399 2.983 4.823 3.829l2.926.718c5.45 1.29 7.712 3.478 7.712 7.363 0 4.97-3.956 8.082-10.252 8.082-5.89 0-9.867-3.04-10.124-7.844h4.069zm24.89-16.547v4.583h3.682v3.148h-3.682v10.675c0 1.659.737 2.432 2.356 2.432.437-.008.873-.038 1.307-.092v3.129a10.96 10.96 0 01-2.207.184c-3.921 0-5.45-1.473-5.45-5.228v-11.1h-2.816V29.18h2.816v-4.583h3.994zm5.813 14.266c0-6.092 3.588-9.921 9.184-9.921 5.614 0 9.186 3.829 9.186 9.921 0 6.11-3.553 9.922-9.186 9.922-5.631 0-9.184-3.812-9.184-9.922zm14.32 0c0-4.18-1.915-6.646-5.136-6.646s-5.136 2.486-5.136 6.646c0 4.197 1.915 6.645 5.136 6.645s5.136-2.448 5.136-6.645zm7.327-9.683h3.791v3.296h.092a4.623 4.623 0 014.658-3.498 6.13 6.13 0 011.362.148v3.718a5.559 5.559 0 00-1.786-.24 4.003 4.003 0 00-3.967 2.75 4.005 4.005 0 00-.175 1.705v11.486h-3.975V29.18zm28.23 13.677a7.774 7.774 0 01-8.339 5.928c-5.633 0-9.129-3.774-9.129-9.83 0-6.074 3.515-10.013 8.962-10.013 5.358 0 8.727 3.68 8.727 9.552v1.361h-13.677v.24a5.04 5.04 0 003.12 5.116c.662.27 1.374.396 2.089.37a4.381 4.381 0 004.472-2.724h3.775zm-13.437-5.78h9.681a4.65 4.65 0 00-1.301-3.495 4.652 4.652 0 00-3.449-1.42 4.903 4.903 0 00-4.931 4.916zM91.048 76.992l.165-2.047a7.825 7.825 0 002.376.378c.73 0 1.011-.071 1.365-.566a11.4 11.4 0 001.08-5.786c0-2.118-.657-2.73-2.327-2.73-.377 0-.8.024-1.271.048a34.302 34.302 0 01-4.422 10.303l-1.954-1.06a27.666 27.666 0 004.117-9.033c-1.289.14-2.569.352-3.834.637l-.423-2.072a55.507 55.507 0 014.751-.635c.329-1.562.573-3.14.73-4.729l2.306.259a52.98 52.98 0 01-.8 4.282h.917c2.988 0 4.423 1.482 4.423 4.635.13 2.405-.34 4.806-1.364 6.986a2.89 2.89 0 01-2.823 1.506 12.941 12.941 0 01-3.012-.376zm7.575-12.68l1.718-1.154a13.236 13.236 0 014.022 8.707l-2.258.351a11 11 0 00-3.482-7.904zm13.541 13.01l-.47-2.118c.588.048 1.364.07 1.835.07 4.657 0 6.421-1.315 6.421-3.27 0-1.552-1.011-2.445-3.269-2.445a10.089 10.089 0 00-6.446 3.153l-1.812-.8a13.801 13.801 0 012-8.822l2.093.68a9.216 9.216 0 00-1.787 6.119 12.036 12.036 0 016.423-2.19c3.152 0 5.105 1.623 5.105 4.259 0 3.34-2.636 5.388-8.963 5.388-.307 0-.753-.024-1.13-.024zm-2.188-15.62l.588-2.072a64.67 64.67 0 019.246 2.118l-.565 2.047a52.823 52.823 0 00-9.269-2.093zm19.094 13.997a14.858 14.858 0 006.327-4.095 26.694 26.694 0 00-4.398-2.962l1.293-1.623c1.574.8 3.07 1.745 4.469 2.82a14.86 14.86 0 002.306-5.434h-5.999a24.225 24.225 0 01-5.128 5.906l-1.718-1.481a22.301 22.301 0 006.541-8.988l2.259.542c-.259.659-.518 1.34-.824 1.977h5.835l1.67.776a17.85 17.85 0 01-11.269 14.397l-1.364-1.835zm9.927-16.42l1.317-.638c.669.896 1.23 1.867 1.671 2.895l-1.483.683a12.846 12.846 0 00-1.505-2.94zm2.94-.237l1.341-.635a15.878 15.878 0 011.718 2.965l-1.482.635a12.958 12.958 0 00-1.577-2.965zm10.294 18.397l-1.199-1.906a9.857 9.857 0 008.281-10.374h-9.881v4.73h-2.376v-6.73h5.905V59.7h2.376v3.457h4.399l2.165.613c-.283 6.681-2.517 11.786-9.67 13.668zm14.247-14.115l1.317-1.93c2.058.94 4 2.117 5.786 3.507l-1.506 2.023a27.62 27.62 0 00-5.597-3.6zm.446 11.599a18.282 18.282 0 0013.575-9.788l1.552 1.742A19.89 19.89 0 01167.82 77.11l-.896-2.186zm34.408 1.129h-14.798v-14h14.798v14zm-12.468-11.835v9.671h10.115v-9.67h-10.115zm33.654 5.552h-16.633V67.37h16.633v2.399zm5.659-9.998h2.328v6.023a72.494 72.494 0 018.987 4.495l-1.317 2.069a56.837 56.837 0 00-7.67-4.117v9.08h-2.328v-17.55zm5.527 1.272l1.389-.66a15.45 15.45 0 011.671 3.2l-1.53.683a13.755 13.755 0 00-1.53-3.223zm2.682-1.013l1.413-.659a15.266 15.266 0 011.764 3.2l-1.53.682a15.353 15.353 0 00-1.647-3.223zM61.893 50.728a12.365 12.365 0 015.888-10.376 12.657 12.657 0 00-9.973-5.391c-4.196-.44-8.264 2.51-10.402 2.51-2.18 0-5.472-2.466-9.017-2.393a13.282 13.282 0 00-11.177 6.816c-4.833 8.367-1.228 20.664 3.401 27.427 2.316 3.312 5.023 7.011 8.565 6.88 3.466-.144 4.76-2.21 8.945-2.21 4.145 0 5.36 2.21 8.973 2.127 3.72-.06 6.062-3.327 8.297-6.67a27.392 27.392 0 003.794-7.728 11.95 11.95 0 01-7.294-10.992zm-6.826-20.215a12.175 12.175 0 002.785-8.723 12.388 12.388 0 00-8.015 4.148 11.585 11.585 0 00-2.858 8.4 10.244 10.244 0 008.088-3.825z" fill="#fff"/></g><defs><clipPath id="clip0_1_203"><path fill="#fff" d="M0 0h272v99.953H0z"/></clipPath></defs></svg>