<svg width="1071" height="674" viewBox="0 0 1071 674" fill="none" xmlns="http://www.w3.org/2000/svg"><g clip-path="url(#clip0_11_277)"><mask id="mask0_11_277" style="mask-type:alpha" maskUnits="userSpaceOnUse" x="0" y="0" width="1070" height="677"><path d="M1070 0H0v677h1070V0z" fill="#D9D9D9"/></mask><g mask="url(#mask0_11_277)"><path d="M377.962 439.252l.865-.356c43.561-17.762 93.363-1.474 117.932 39.016C561.215 584.13 706.115 739.833 972.25 643.926c219.2-79 335.46-322.431 249.89-540.858-83.88-214.143-324.966-318.649-536.264-233.32-24.593 9.929-47.686 21.99-69.16 35.89-70.646 45.73-159.455 55.64-237.266 22.923-67.464-28.376-146.016-29.929-218.48 2.731C32.054-10.601-31.651 139.262 15.537 273.578c52.597 149.718 217.924 224.028 362.425 165.675z" fill="#FFFFC7"/></g></g><defs><clipPath id="clip0_11_277"><path fill="#fff" d="M0 0h1071v674H0z"/></clipPath></defs></svg>