<svg width="376" height="193" viewBox="0 0 376 193" fill="none" xmlns="http://www.w3.org/2000/svg"><mask id="path-1-outside-1_2540_853" maskUnits="userSpaceOnUse" x="-.872" y="-.02" width="376" height="193" fill="#000"><path fill="#fff" d="M-.872-.02h376v193h-376z"/><path d="M56.4 6h13.608v79.128H56.4V6zm-29.316 5.208c4.032 0 7.644 1.176 10.836 3.528 3.192 2.296 5.684 5.572 7.476 9.828 1.848 4.256 2.772 9.296 2.772 15.12 0 5.88-.924 10.976-2.772 15.288-1.792 4.256-4.284 7.56-7.476 9.912-3.192 2.296-6.804 3.444-10.836 3.444s-7.644-1.148-10.836-3.444c-3.192-2.352-5.712-5.656-7.56-9.912C6.896 50.66 6 45.564 6 39.684c0-5.824.896-10.864 2.688-15.12 1.848-4.256 4.368-7.532 7.56-9.828 3.192-2.352 6.804-3.528 10.836-3.528zm0 12.348c-1.624 0-3.052.588-4.284 1.764-1.176 1.12-2.1 2.884-2.772 5.292-.672 2.352-1.008 5.376-1.008 9.072 0 3.696.336 6.748 1.008 9.156.672 2.408 1.596 4.2 2.772 5.376 1.232 1.176 2.66 1.764 4.284 1.764 1.624 0 3.024-.588 4.2-1.764 1.232-1.176 2.184-2.968 2.856-5.376.672-2.408 1.008-5.46 1.008-9.156 0-3.696-.336-6.72-1.008-9.072-.672-2.408-1.624-4.172-2.856-5.292-1.176-1.176-2.576-1.764-4.2-1.764zm117.749-2.184h20.16v10.836h-20.16V21.372zm0 24.192h20.16V56.4h-20.16V45.564zm-13.188-34.356c3.976 0 7.532 1.176 10.668 3.528 3.136 2.296 5.6 5.572 7.392 9.828 1.792 4.256 2.688 9.296 2.688 15.12 0 5.88-.896 10.976-2.688 15.288-1.792 4.256-4.256 7.56-7.392 9.912-3.136 2.296-6.692 3.444-10.668 3.444-3.976 0-7.532-1.148-10.668-3.444-3.136-2.352-5.6-5.656-7.392-9.912-1.792-4.312-2.688-9.408-2.688-15.288 0-5.824.896-10.864 2.688-15.12 1.792-4.256 4.256-7.532 7.392-9.828 3.136-2.352 6.692-3.528 10.668-3.528zm0 12.348c-1.568 0-2.94.588-4.116 1.764-1.176 1.12-2.1 2.884-2.772 5.292-.672 2.352-1.008 5.376-1.008 9.072 0 3.696.336 6.748 1.008 9.156.672 2.408 1.596 4.2 2.772 5.376 1.176 1.176 2.548 1.764 4.116 1.764 1.624 0 3.024-.588 4.2-1.764 1.176-1.176 2.072-2.968 2.688-5.376.672-2.408 1.008-5.46 1.008-9.156 0-3.696-.336-6.72-1.008-9.072-.616-2.408-1.512-4.172-2.688-5.292-1.176-1.176-2.576-1.764-4.2-1.764zM163.061 6h13.524v79.128h-13.524V6zm80.381.168h12.852v49.056h-12.852V6.168zM235.63 24.48h11.256V35.4H235.63V24.48zm-8.232-16.884h12.6v45.192h-12.6V7.596zm-39.06 5.88h37.38v10.332h-37.38V13.476zm18.816 12.012c3.304 0 6.244.616 8.82 1.848 2.576 1.176 4.592 2.8 6.048 4.872 1.512 2.072 2.268 4.452 2.268 7.14 0 2.744-.756 5.18-2.268 7.308-1.456 2.072-3.472 3.696-6.048 4.872-2.576 1.176-5.516 1.764-8.82 1.764-3.248 0-6.188-.588-8.82-1.764-2.576-1.176-4.62-2.8-6.132-4.872-1.456-2.128-2.184-4.564-2.184-7.308 0-2.688.728-5.068 2.184-7.14 1.512-2.072 3.556-3.696 6.132-4.872 2.632-1.232 5.572-1.848 8.82-1.848zm0 9.576c-1.512 0-2.744.364-3.696 1.092-.952.672-1.428 1.764-1.428 3.276 0 1.456.476 2.548 1.428 3.276.952.728 2.184 1.092 3.696 1.092s2.744-.364 3.696-1.092c.952-.728 1.428-1.82 1.428-3.276 0-1.512-.476-2.604-1.428-3.276-.952-.728-2.184-1.092-3.696-1.092zM200.35 7.008h13.356v13.944H200.35V7.008zm28.812 48.72c8.568 0 15.288 1.288 20.16 3.864 4.928 2.52 7.392 6.132 7.392 10.836 0 4.648-2.464 8.232-7.392 10.752-4.872 2.576-11.592 3.864-20.16 3.864s-15.316-1.288-20.244-3.864c-4.872-2.52-7.308-6.104-7.308-10.752 0-4.704 2.436-8.316 7.308-10.836 4.928-2.576 11.676-3.864 20.244-3.864zm0 9.996c-4.816 0-8.372.364-10.668 1.092-2.24.672-3.36 1.876-3.36 3.612 0 1.68 1.12 2.884 3.36 3.612 2.296.672 5.852 1.008 10.668 1.008 4.816 0 8.344-.336 10.584-1.008 2.24-.728 3.36-1.932 3.36-3.612 0-1.736-1.12-2.94-3.36-3.612-2.24-.728-5.768-1.092-10.584-1.092zm74.25-58.632c9.128 0 16.212 1.148 21.252 3.444 5.096 2.296 7.644 5.6 7.644 9.912 0 4.312-2.548 7.616-7.644 9.912-5.04 2.296-12.124 3.444-21.252 3.444-9.184 0-16.324-1.148-21.42-3.444-5.096-2.296-7.644-5.6-7.644-9.912 0-4.312 2.548-7.616 7.644-9.912 5.096-2.296 12.236-3.444 21.42-3.444zm-.084 9.828c-3.528 0-6.384.112-8.568.336-2.184.224-3.78.588-4.788 1.092-1.008.504-1.512 1.204-1.512 2.1 0 .896.504 1.624 1.512 2.184 1.008.504 2.604.868 4.788 1.092 2.184.168 5.04.252 8.568.252 3.528 0 6.384-.084 8.568-.252 2.184-.224 3.78-.588 4.788-1.092 1.008-.56 1.512-1.288 1.512-2.184 0-.896-.504-1.596-1.512-2.1s-2.604-.868-4.788-1.092c-2.184-.224-5.04-.336-8.568-.336zm-35.7 19.656h71.316V47.16h-71.316V36.576zm7.896 13.776h55.02V71.94h-41.58v5.544h-13.356V62.7h41.58v-2.436h-41.664v-9.912zm.084 24.192h56.868v10.08h-56.868v-10.08zM7.764 156.392h6.552c4.536 0 8.624-.056 12.264-.168 3.64-.112 7.084-.308 10.332-.588a145.38 145.38 0 009.744-1.344l1.26 10.92a130.35 130.35 0 01-10.164 1.428c-3.36.28-6.944.476-10.752.588-3.752.112-7.98.168-12.684.168H7.764v-11.004zm0-42.588h35.532v10.668H21.288v36.12H7.764v-46.788zm49.644-6.72h13.524v79.128H57.408v-79.128zm-17.472 26.46h23.268v10.92H39.936v-10.92zm69.785 4.704h71.316v10.5h-71.316v-10.5zm7.896 13.188h55.02v21.504h-41.58v5.628h-13.356v-14.784h41.58v-2.52h-41.664v-9.828zm.084 24.192h56.868v9.996h-56.868v-9.996zm19.488-61.992h11.844v1.764c0 2.128-.392 4.2-1.176 6.216-.728 2.016-1.904 3.892-3.528 5.628-1.624 1.736-3.724 3.304-6.3 4.704-2.52 1.344-5.572 2.464-9.156 3.36-3.528.84-7.616 1.4-12.264 1.68l-4.116-10.08c3.976-.224 7.364-.616 10.164-1.176 2.856-.616 5.208-1.344 7.056-2.184 1.904-.84 3.388-1.736 4.452-2.688 1.12-.952 1.904-1.876 2.352-2.772.448-.952.672-1.848.672-2.688v-1.764zm4.536 0h11.844v1.764c0 .84.224 1.736.672 2.688.448.952 1.204 1.904 2.268 2.856 1.12.952 2.604 1.848 4.452 2.688 1.904.784 4.256 1.484 7.056 2.1 2.856.56 6.272.952 10.248 1.176l-4.116 10.08c-4.648-.28-8.764-.84-12.348-1.68-3.528-.896-6.58-2.016-9.156-3.36-2.52-1.344-4.592-2.884-6.216-4.62-1.624-1.736-2.828-3.612-3.612-5.628a18.407 18.407 0 01-1.092-6.3v-1.764zm-25.536-4.368h58.464v10.416h-58.464v-10.416zm125.489-2.184h13.608v42.756h-13.608v-42.756zm-11.844 17.136h13.44v10.836h-13.44V124.22zm-14.448-12.936h14.364c0 7.224-1.288 13.524-3.864 18.9-2.52 5.376-6.412 9.884-11.676 13.524-5.208 3.584-11.844 6.384-19.908 8.4l-5.124-10.5c6.552-1.512 11.732-3.444 15.54-5.796 3.808-2.352 6.524-5.012 8.148-7.98 1.68-3.024 2.52-6.216 2.52-9.576v-6.972zm-21.924 0h31.5v10.668h-31.5v-10.668zm8.736 41.748h13.44v6.132h26.208v-6.132h13.44v32.256h-53.088v-32.256zm13.44 16.464v5.04h26.208v-5.04h-26.208zm107.514-62.412h12.852v78.792h-12.852v-78.792zm-29.568 29.148h15.12V146.9h-15.12v-10.668zm12.852-27.636h12.6v74.088h-12.6v-74.088zm-17.304 7.392h13.02c0 7.784-.812 14.952-2.436 21.504-1.624 6.552-4.508 12.516-8.652 17.892-4.088 5.376-9.884 10.22-17.388 14.532l-7.56-9.408c5.88-3.528 10.472-7.28 13.776-11.256 3.36-3.976 5.74-8.428 7.14-13.356 1.4-4.928 2.1-10.612 2.1-17.052v-2.856zm-18.144 0h22.092v10.752h-22.092v-10.752zm93.317 44.352c1.288 0 2.408.476 3.36 1.428s1.428 2.072 1.428 3.36v8.064c0 1.288-.476 2.408-1.428 3.36s-2.072 1.428-3.36 1.428h-8.904c-1.288 0-2.408-.476-3.36-1.428s-1.428-2.072-1.428-3.36v-8.064c0-1.288.476-2.408 1.428-3.36s2.072-1.428 3.36-1.428h8.904z"/></mask><path d="M56.4 6h13.608v79.128H56.4V6zm-29.316 5.208c4.032 0 7.644 1.176 10.836 3.528 3.192 2.296 5.684 5.572 7.476 9.828 1.848 4.256 2.772 9.296 2.772 15.12 0 5.88-.924 10.976-2.772 15.288-1.792 4.256-4.284 7.56-7.476 9.912-3.192 2.296-6.804 3.444-10.836 3.444s-7.644-1.148-10.836-3.444c-3.192-2.352-5.712-5.656-7.56-9.912C6.896 50.66 6 45.564 6 39.684c0-5.824.896-10.864 2.688-15.12 1.848-4.256 4.368-7.532 7.56-9.828 3.192-2.352 6.804-3.528 10.836-3.528zm0 12.348c-1.624 0-3.052.588-4.284 1.764-1.176 1.12-2.1 2.884-2.772 5.292-.672 2.352-1.008 5.376-1.008 9.072 0 3.696.336 6.748 1.008 9.156.672 2.408 1.596 4.2 2.772 5.376 1.232 1.176 2.66 1.764 4.284 1.764 1.624 0 3.024-.588 4.2-1.764 1.232-1.176 2.184-2.968 2.856-5.376.672-2.408 1.008-5.46 1.008-9.156 0-3.696-.336-6.72-1.008-9.072-.672-2.408-1.624-4.172-2.856-5.292-1.176-1.176-2.576-1.764-4.2-1.764zm117.749-2.184h20.16v10.836h-20.16V21.372zm0 24.192h20.16V56.4h-20.16V45.564zm-13.188-34.356c3.976 0 7.532 1.176 10.668 3.528 3.136 2.296 5.6 5.572 7.392 9.828 1.792 4.256 2.688 9.296 2.688 15.12 0 5.88-.896 10.976-2.688 15.288-1.792 4.256-4.256 7.56-7.392 9.912-3.136 2.296-6.692 3.444-10.668 3.444-3.976 0-7.532-1.148-10.668-3.444-3.136-2.352-5.6-5.656-7.392-9.912-1.792-4.312-2.688-9.408-2.688-15.288 0-5.824.896-10.864 2.688-15.12 1.792-4.256 4.256-7.532 7.392-9.828 3.136-2.352 6.692-3.528 10.668-3.528zm0 12.348c-1.568 0-2.94.588-4.116 1.764-1.176 1.12-2.1 2.884-2.772 5.292-.672 2.352-1.008 5.376-1.008 9.072 0 3.696.336 6.748 1.008 9.156.672 2.408 1.596 4.2 2.772 5.376 1.176 1.176 2.548 1.764 4.116 1.764 1.624 0 3.024-.588 4.2-1.764 1.176-1.176 2.072-2.968 2.688-5.376.672-2.408 1.008-5.46 1.008-9.156 0-3.696-.336-6.72-1.008-9.072-.616-2.408-1.512-4.172-2.688-5.292-1.176-1.176-2.576-1.764-4.2-1.764zM163.061 6h13.524v79.128h-13.524V6zm80.381.168h12.852v49.056h-12.852V6.168zM235.63 24.48h11.256V35.4H235.63V24.48zm-8.232-16.884h12.6v45.192h-12.6V7.596zm-39.06 5.88h37.38v10.332h-37.38V13.476zm18.816 12.012c3.304 0 6.244.616 8.82 1.848 2.576 1.176 4.592 2.8 6.048 4.872 1.512 2.072 2.268 4.452 2.268 7.14 0 2.744-.756 5.18-2.268 7.308-1.456 2.072-3.472 3.696-6.048 4.872-2.576 1.176-5.516 1.764-8.82 1.764-3.248 0-6.188-.588-8.82-1.764-2.576-1.176-4.62-2.8-6.132-4.872-1.456-2.128-2.184-4.564-2.184-7.308 0-2.688.728-5.068 2.184-7.14 1.512-2.072 3.556-3.696 6.132-4.872 2.632-1.232 5.572-1.848 8.82-1.848zm0 9.576c-1.512 0-2.744.364-3.696 1.092-.952.672-1.428 1.764-1.428 3.276 0 1.456.476 2.548 1.428 3.276.952.728 2.184 1.092 3.696 1.092s2.744-.364 3.696-1.092c.952-.728 1.428-1.82 1.428-3.276 0-1.512-.476-2.604-1.428-3.276-.952-.728-2.184-1.092-3.696-1.092zM200.35 7.008h13.356v13.944H200.35V7.008zm28.812 48.72c8.568 0 15.288 1.288 20.16 3.864 4.928 2.52 7.392 6.132 7.392 10.836 0 4.648-2.464 8.232-7.392 10.752-4.872 2.576-11.592 3.864-20.16 3.864s-15.316-1.288-20.244-3.864c-4.872-2.52-7.308-6.104-7.308-10.752 0-4.704 2.436-8.316 7.308-10.836 4.928-2.576 11.676-3.864 20.244-3.864zm0 9.996c-4.816 0-8.372.364-10.668 1.092-2.24.672-3.36 1.876-3.36 3.612 0 1.68 1.12 2.884 3.36 3.612 2.296.672 5.852 1.008 10.668 1.008 4.816 0 8.344-.336 10.584-1.008 2.24-.728 3.36-1.932 3.36-3.612 0-1.736-1.12-2.94-3.36-3.612-2.24-.728-5.768-1.092-10.584-1.092zm74.25-58.632c9.128 0 16.212 1.148 21.252 3.444 5.096 2.296 7.644 5.6 7.644 9.912 0 4.312-2.548 7.616-7.644 9.912-5.04 2.296-12.124 3.444-21.252 3.444-9.184 0-16.324-1.148-21.42-3.444-5.096-2.296-7.644-5.6-7.644-9.912 0-4.312 2.548-7.616 7.644-9.912 5.096-2.296 12.236-3.444 21.42-3.444zm-.084 9.828c-3.528 0-6.384.112-8.568.336-2.184.224-3.78.588-4.788 1.092-1.008.504-1.512 1.204-1.512 2.1 0 .896.504 1.624 1.512 2.184 1.008.504 2.604.868 4.788 1.092 2.184.168 5.04.252 8.568.252 3.528 0 6.384-.084 8.568-.252 2.184-.224 3.78-.588 4.788-1.092 1.008-.56 1.512-1.288 1.512-2.184 0-.896-.504-1.596-1.512-2.1s-2.604-.868-4.788-1.092c-2.184-.224-5.04-.336-8.568-.336zm-35.7 19.656h71.316V47.16h-71.316V36.576zm7.896 13.776h55.02V71.94h-41.58v5.544h-13.356V62.7h41.58v-2.436h-41.664v-9.912zm.084 24.192h56.868v10.08h-56.868v-10.08zM7.764 156.392h6.552c4.536 0 8.624-.056 12.264-.168 3.64-.112 7.084-.308 10.332-.588a145.38 145.38 0 009.744-1.344l1.26 10.92a130.35 130.35 0 01-10.164 1.428c-3.36.28-6.944.476-10.752.588-3.752.112-7.98.168-12.684.168H7.764v-11.004zm0-42.588h35.532v10.668H21.288v36.12H7.764v-46.788zm49.644-6.72h13.524v79.128H57.408v-79.128zm-17.472 26.46h23.268v10.92H39.936v-10.92zm69.785 4.704h71.316v10.5h-71.316v-10.5zm7.896 13.188h55.02v21.504h-41.58v5.628h-13.356v-14.784h41.58v-2.52h-41.664v-9.828zm.084 24.192h56.868v9.996h-56.868v-9.996zm19.488-61.992h11.844v1.764c0 2.128-.392 4.2-1.176 6.216-.728 2.016-1.904 3.892-3.528 5.628-1.624 1.736-3.724 3.304-6.3 4.704-2.52 1.344-5.572 2.464-9.156 3.36-3.528.84-7.616 1.4-12.264 1.68l-4.116-10.08c3.976-.224 7.364-.616 10.164-1.176 2.856-.616 5.208-1.344 7.056-2.184 1.904-.84 3.388-1.736 4.452-2.688 1.12-.952 1.904-1.876 2.352-2.772.448-.952.672-1.848.672-2.688v-1.764zm4.536 0h11.844v1.764c0 .84.224 1.736.672 2.688.448.952 1.204 1.904 2.268 2.856 1.12.952 2.604 1.848 4.452 2.688 1.904.784 4.256 1.484 7.056 2.1 2.856.56 6.272.952 10.248 1.176l-4.116 10.08c-4.648-.28-8.764-.84-12.348-1.68-3.528-.896-6.58-2.016-9.156-3.36-2.52-1.344-4.592-2.884-6.216-4.62-1.624-1.736-2.828-3.612-3.612-5.628a18.407 18.407 0 01-1.092-6.3v-1.764zm-25.536-4.368h58.464v10.416h-58.464v-10.416zm125.489-2.184h13.608v42.756h-13.608v-42.756zm-11.844 17.136h13.44v10.836h-13.44V124.22zm-14.448-12.936h14.364c0 7.224-1.288 13.524-3.864 18.9-2.52 5.376-6.412 9.884-11.676 13.524-5.208 3.584-11.844 6.384-19.908 8.4l-5.124-10.5c6.552-1.512 11.732-3.444 15.54-5.796 3.808-2.352 6.524-5.012 8.148-7.98 1.68-3.024 2.52-6.216 2.52-9.576v-6.972zm-21.924 0h31.5v10.668h-31.5v-10.668zm8.736 41.748h13.44v6.132h26.208v-6.132h13.44v32.256h-53.088v-32.256zm13.44 16.464v5.04h26.208v-5.04h-26.208zm107.514-62.412h12.852v78.792h-12.852v-78.792zm-29.568 29.148h15.12V146.9h-15.12v-10.668zm12.852-27.636h12.6v74.088h-12.6v-74.088zm-17.304 7.392h13.02c0 7.784-.812 14.952-2.436 21.504-1.624 6.552-4.508 12.516-8.652 17.892-4.088 5.376-9.884 10.22-17.388 14.532l-7.56-9.408c5.88-3.528 10.472-7.28 13.776-11.256 3.36-3.976 5.74-8.428 7.14-13.356 1.4-4.928 2.1-10.612 2.1-17.052v-2.856zm-18.144 0h22.092v10.752h-22.092v-10.752zm93.317 44.352c1.288 0 2.408.476 3.36 1.428s1.428 2.072 1.428 3.36v8.064c0 1.288-.476 2.408-1.428 3.36s-2.072 1.428-3.36 1.428h-8.904c-1.288 0-2.408-.476-3.36-1.428s-1.428-2.072-1.428-3.36v-8.064c0-1.288.476-2.408 1.428-3.36s2.072-1.428 3.36-1.428h8.904z" fill="#209D8C"/><path d="M56.4 6V0a6 6 0 00-6 6h6zm13.608 0h6a6 6 0 00-6-6v6zm0 79.128v6a6 6 0 006-6h-6zm-13.608 0h-6a6 6 0 006 6v-6zM37.92 14.736l-3.56 4.83.056.04 3.504-4.87zm7.476 9.828l-5.53 2.328.026.062 5.504-2.39zm0 30.408l-5.515-2.364-.015.036 5.53 2.328zm-7.476 9.912l3.503 4.87a.8.8 0 00.056-.04l-3.56-4.83zm-21.672 0l-3.56 4.83.056.04 3.504-4.87zm-7.56-9.912l-5.54 2.303.036.087 5.504-2.39zm0-30.408l-5.504-2.39-.026.062 5.53 2.328zm7.56-9.828l3.503 4.87a.8.8 0 00.056-.04l-3.56-4.83zM22.8 25.32l4.138 4.345.005-.005-4.143-4.34zm-2.772 5.292l5.77 1.648.01-.035-5.78-1.613zm0 18.228l-5.78 1.613 5.78-1.613zm2.772 5.376l-4.243 4.243.1.097 4.143-4.34zm8.484 0l-4.143-4.34a5.736 5.736 0 00-.1.097l4.243 4.243zm2.856-5.376l-5.78-1.613 5.78 1.613zm0-18.228l-5.78 1.613.01.035 5.77-1.648zm-2.856-5.292l-4.243 4.243c.068.067.136.133.207.197l4.036-4.44zM56.4 6v6h13.608V0H56.4v6zm13.608 0h-6v79.128h12V6h-6zm0 79.128v-6H56.4v12h13.608v-6zm-13.608 0h6V6h-12v79.128h6zm-29.316-73.92v6c2.774 0 5.134.78 7.277 2.358l3.559-4.83 3.56-4.83c-4.243-3.126-9.106-4.698-14.396-4.698v6zm10.836 3.528l-3.504 4.87c2.15 1.547 4.011 3.868 5.45 7.286l5.53-2.328 5.53-2.328c-2.145-5.094-5.268-9.325-9.503-12.37l-3.503 4.87zm7.476 9.828l-5.504 2.39c1.449 3.335 2.276 7.525 2.276 12.73h12c0-6.443-1.02-12.333-3.268-17.51l-5.504 2.39zm2.772 15.12h-6c0 5.267-.83 9.523-2.287 12.925l5.515 2.363 5.515 2.364c2.238-5.223 3.257-11.158 3.257-17.652h-6zm-2.772 15.288l-5.53-2.328c-1.442 3.426-3.318 5.798-5.505 7.41l3.559 4.83 3.56 4.83c4.196-3.092 7.304-7.328 9.446-12.414l-5.53-2.328zm-7.476 9.912l-3.504-4.87c-2.143 1.541-4.523 2.314-7.332 2.314v12c5.255 0 10.1-1.523 14.34-4.573l-3.504-4.871zm-10.836 3.444v-6c-2.809 0-5.189-.773-7.332-2.315l-3.504 4.871-3.504 4.87c4.24 3.05 9.085 4.574 14.34 4.574v-6zm-10.836-3.444l3.56-4.83c-2.206-1.625-4.118-4.02-5.617-7.472l-5.503 2.39-5.504 2.39c2.197 5.06 5.325 9.273 9.505 12.352l3.559-4.83zm-7.56-9.912l5.54-2.303C12.809 49.25 12 44.971 12 39.684H0c0 6.473.985 12.386 3.147 17.59l5.54-2.302zM6 39.684h6c0-5.226.806-9.438 2.218-12.792l-5.53-2.328-5.53-2.328C.986 27.394 0 33.262 0 39.684h6zm2.688-15.12l5.503 2.39c1.496-3.444 3.393-5.788 5.56-7.347l-3.503-4.871-3.504-4.87c-4.217 3.033-7.36 7.24-9.56 12.308l5.504 2.39zm7.56-9.828l3.56 4.83c2.141-1.578 4.502-2.358 7.276-2.358v-12c-5.29 0-10.154 1.572-14.395 4.698l3.559 4.83zm10.836 8.82v-6c-3.248 0-6.139 1.24-8.427 3.424l4.143 4.34 4.143 4.34c.07-.066.115-.099.134-.111.018-.012.018-.01.002-.004a.238.238 0 01-.041.013c-.01.002.004-.002.046-.002v-6zM22.8 25.32l-4.138-4.345c-2.273 2.165-3.595 5.09-4.413 8.024l5.779 1.613 5.78 1.613c.524-1.883 1.051-2.485 1.13-2.56L22.8 25.32zm-2.772 5.292l-5.77-1.648c-.881 3.087-1.238 6.72-1.238 10.72h12c0-3.392.315-5.806.777-7.424l-5.77-1.648zm-1.008 9.072h-6c0 4.007.358 7.65 1.229 10.769l5.779-1.613 5.78-1.613c-.475-1.697-.788-4.158-.788-7.543h-6zm1.008 9.156l-5.78 1.613c.821 2.94 2.126 5.823 4.31 8.006l4.242-4.243 4.243-4.243c-.17-.169-.712-.87-1.236-2.746l-5.78 1.613zm2.772 5.376l-4.143 4.34c2.288 2.184 5.179 3.424 8.427 3.424v-12c-.042 0-.055-.004-.046-.002.01.002.025.006.041.013.016.006.016.008-.002-.004a1.022 1.022 0 01-.134-.111l-4.143 4.34zm4.284 1.764v6c3.258 0 6.172-1.25 8.443-3.521l-4.243-4.243-4.243-4.243c-.049.05-.074.066-.071.064l.018-.01a.461.461 0 01.127-.047l.007-.001a.42.42 0 01-.038.001v6zm4.2-1.764l4.143 4.34c2.295-2.191 3.657-5.11 4.492-8.103l-5.78-1.613-5.778-1.613c-.51 1.824-1.052 2.488-1.22 2.649l4.143 4.34zm2.856-5.376l5.78 1.613c.87-3.119 1.228-6.762 1.228-10.769h-12c0 3.385-.314 5.846-.787 7.543l5.779 1.613zm1.008-9.156h6c0-4-.357-7.633-1.239-10.72l-5.77 1.648-5.768 1.648c.462 1.617.777 4.032.777 7.424h6zm-1.008-9.072l5.78-1.613c-.834-2.987-2.213-5.949-4.6-8.119l-4.036 4.44-4.036 4.44c.077.07.602.636 1.113 2.465l5.779-1.613zm-2.856-5.292l4.243-4.243c-2.271-2.27-5.185-3.521-8.443-3.521v12a.42.42 0 01.038.001l-.007-.001a.41.41 0 01-.086-.027.435.435 0 01-.041-.02l-.018-.01c-.003-.002.022.015.071.064l4.243-4.243zm113.549-3.948v-6a6 6 0 00-6 6h6zm20.16 0h6a6 6 0 00-6-6v6zm0 10.836v6a6 6 0 006-6h-6zm-20.16 0h-6a6 6 0 006 6v-6zm0 13.356v-6a6 6 0 00-6 6h6zm20.16 0h6a6 6 0 00-6-6v6zm0 10.836v6a6 6 0 006-6h-6zm-20.16 0h-6a6 6 0 006 6v-6zm-2.52-41.664l-3.6 4.8.055.041 3.545-4.841zm7.392 9.828l-5.53 2.328 5.53-2.328zm0 30.408l5.53 2.328.01-.025-5.54-2.303zm-7.392 9.912l3.544 4.841.056-.041-3.6-4.8zm-21.336 0l-3.6 4.8.055.041 3.545-4.841zm-7.392-9.912l-5.541 2.303.011.025 5.53-2.328zm0-30.408l5.53 2.328-5.53-2.328zm7.392-9.828l3.544 4.841.056-.041-3.6-4.8zm6.552 10.584l4.138 4.345.105-.102-4.243-4.243zm-2.772 5.292l5.769 1.648.01-.035-5.779-1.613zm0 18.228l5.779-1.613-5.779 1.613zm2.772 5.376l4.243-4.243-4.243 4.243zm8.316 0l-4.243-4.243 4.243 4.243zm2.688-5.376l-5.779-1.613-.034.126 5.813 1.487zm0-18.228l-5.813 1.487c.014.054.028.108.044.161l5.769-1.648zm-2.688-5.292l-4.243 4.243.105.102 4.138-4.345zM163.061 6V0a6 6 0 00-6 6h6zm13.524 0h6a6 6 0 00-6-6v6zm0 79.128v6a6 6 0 006-6h-6zm-13.524 0h-6a6 6 0 006 6v-6zm-18.228-63.756v6h20.16v-12h-20.16v6zm20.16 0h-6v10.836h12V21.372h-6zm0 10.836v-6h-20.16v12h20.16v-6zm-20.16 0h6V21.372h-12v10.836h6zm0 13.356v6h20.16v-12h-20.16v6zm20.16 0h-6V56.4h12V45.564h-6zm0 10.836v-6h-20.16v12h20.16v-6zm-20.16 0h6V45.564h-12V56.4h6zm-13.188-45.192v6c2.698 0 4.986.767 7.068 2.328l3.6-4.8 3.6-4.8c-4.191-3.143-9.014-4.728-14.268-4.728v6zm10.668 3.528l-3.545 4.841c2.107 1.542 3.957 3.871 5.407 7.315l5.53-2.328 5.53-2.328c-2.134-5.068-5.212-9.291-9.378-12.341l-3.544 4.841zm7.392 9.828l-5.53 2.328c1.412 3.354 2.218 7.566 2.218 12.792h12c0-6.422-.986-12.29-3.158-17.448l-5.53 2.328zm2.688 15.12h-6c0 5.287-.808 9.566-2.229 12.985l5.541 2.303 5.54 2.303c2.163-5.205 3.148-11.118 3.148-17.591h-6zm-2.688 15.288l-5.53-2.328c-1.453 3.451-3.318 5.832-5.462 7.44l3.6 4.8 3.6 4.8c4.128-3.096 7.191-7.323 9.322-12.384l-5.53-2.328zm-7.392 9.912l-3.545-4.841c-2.082 1.525-4.39 2.285-7.123 2.285v12c5.219 0 10.023-1.535 14.212-4.603l-3.544-4.841zm-10.668 3.444v-6c-2.733 0-5.041-.76-7.124-2.285l-3.544 4.841-3.545 4.841c4.19 3.068 8.994 4.603 14.213 4.603v-6zm-10.668-3.444l3.6-4.8c-2.144-1.608-4.009-3.989-5.462-7.44l-5.53 2.328-5.53 2.328c2.131 5.06 5.194 9.288 9.322 12.384l3.6-4.8zm-7.392-9.912l5.54-2.303c-1.421-3.42-2.228-7.698-2.228-12.985h-12c0 6.473.984 12.386 3.147 17.59l5.541-2.302zm-2.688-15.288h6c0-5.226.806-9.438 2.218-12.792l-5.53-2.328-5.53-2.328c-2.172 5.158-3.158 11.026-3.158 17.448h6zm2.688-15.12l5.53 2.328c1.45-3.444 3.3-5.773 5.406-7.315l-3.544-4.841-3.545-4.841c-4.165 3.05-7.243 7.273-9.377 12.34l5.53 2.329zm7.392-9.828l3.6 4.8c2.081-1.561 4.37-2.328 7.068-2.328v-12c-5.254 0-10.078 1.585-14.268 4.728l3.6 4.8zm10.668 8.82v-6c-3.263 0-6.133 1.296-8.359 3.521l4.243 4.243 4.243 4.243a.678.678 0 01.091-.082.62.62 0 01-.181.068c-.037.008-.052.007-.037.007v-6zm-4.116 1.764l-4.138-4.345c-2.273 2.165-3.595 5.09-4.413 8.024l5.779 1.613 5.779 1.613c.525-1.883 1.052-2.485 1.131-2.56l-4.138-4.345zm-2.772 5.292l-5.769-1.648c-.882 3.087-1.239 6.72-1.239 10.72h12c0-3.392.315-5.806.777-7.424l-5.769-1.648zm-1.008 9.072h-6c0 4.007.358 7.65 1.229 10.769l5.779-1.613 5.779-1.613c-.474-1.697-.787-4.158-.787-7.543h-6zm1.008 9.156l-5.779 1.613c.82 2.94 2.125 5.823 4.308 8.006l4.243-4.243 4.243-4.243c-.169-.169-.712-.87-1.236-2.746l-5.779 1.613zm2.772 5.376l-4.243 4.243c2.226 2.225 5.096 3.521 8.359 3.521v-12c-.015 0 0-.001.037.006a.62.62 0 01.121.038c.04.017.061.031.06.03a.678.678 0 01-.091-.08l-4.243 4.242zm4.116 1.764v6c3.258 0 6.172-1.25 8.443-3.521l-4.243-4.243-4.243-4.243c-.049.05-.074.066-.071.064l.018-.01a.463.463 0 01.127-.047l.007-.001a.397.397 0 01-.038.001v6zm4.2-1.764l4.243 4.243c2.223-2.224 3.498-5.16 4.258-8.132l-5.813-1.487-5.813-1.487c-.472 1.844-.989 2.492-1.118 2.62l4.243 4.243zm2.688-5.376l5.779 1.613c.87-3.119 1.229-6.762 1.229-10.769h-12c0 3.385-.314 5.846-.787 7.543l5.779 1.613zm1.008-9.156h6c0-4-.357-7.633-1.239-10.72l-5.769 1.648-5.769 1.648c.462 1.617.777 4.032.777 7.424h6zm-1.008-9.072l5.813-1.487c-.758-2.963-2.047-5.944-4.363-8.15l-4.138 4.345-4.138 4.345c-.001 0 .034.032.095.117s.147.22.247.418c.206.406.446 1.018.671 1.899l5.813-1.487zm-2.688-5.292l4.243-4.243c-2.271-2.27-5.185-3.521-8.443-3.521v12l.038.001-.007-.001a.42.42 0 01-.127-.047l-.018-.01c-.003-.002.022.015.071.064l4.243-4.243zM163.061 6v6h13.524V0h-13.524v6zm13.524 0h-6v79.128h12V6h-6zm0 79.128v-6h-13.524v12h13.524v-6zm-13.524 0h6V6h-12v79.128h6zm80.381-78.96v-6a6 6 0 00-6 6h6zm12.852 0h6a6 6 0 00-6-6v6zm0 49.056v6a6 6 0 006-6h-6zm-12.852 0h-6a6 6 0 006 6v-6zM235.63 24.48v-6a6 6 0 00-6 6h6zm11.256 0h6a6 6 0 00-6-6v6zm0 10.92v6a6 6 0 006-6h-6zm-11.256 0h-6a6 6 0 006 6v-6zm-8.232-27.804v-6a6 6 0 00-6 6h6zm12.6 0h6a6 6 0 00-6-6v6zm0 45.192v6a6 6 0 006-6h-6zm-12.6 0h-6a6 6 0 006 6v-6zm-39.06-39.312v-6a6 6 0 00-6 6h6zm37.38 0h6a6 6 0 00-6-6v6zm0 10.332v6a6 6 0 006-6h-6zm-37.38 0h-6a6 6 0 006 6v-6zm27.636 3.528l-2.588 5.413.097.045 2.491-5.458zm6.048 4.872l-4.909 3.45.063.087 4.846-3.537zm0 14.448l-4.891-3.475-.018.025 4.909 3.45zm-23.688 4.872l-2.491 5.458.044.02 2.447-5.478zm-6.132-4.872l-4.952 3.388.106.149 4.846-3.537zm0-14.448l-4.846-3.537-.063.087 4.909 3.45zm6.132-4.872l2.492 5.458.052-.024-2.544-5.434zm5.124 8.82l3.46 4.902c.063-.044.124-.09.185-.136l-3.645-4.766zm7.392 6.552l3.645 4.766-3.645-4.766zm0-6.552l-3.644 4.766c.06.047.122.092.184.136l3.46-4.902zm-10.5-29.148v-6a6 6 0 00-6 6h6zm13.356 0h6a6 6 0 00-6-6v6zm0 13.944v6a6 6 0 006-6h-6zm-13.356 0h-6a6 6 0 006 6v-6zm48.972 38.64l-2.804 5.304.073.038 2.731-5.342zm0 21.588l-2.731-5.342a2.764 2.764 0 00-.073.038l2.804 5.304zm-40.404 0l2.78-5.317-.023-.012-2.757 5.329zm0-21.588l2.757 5.33.023-.013-2.78-5.317zm9.576 7.224l1.724 5.747.09-.028-1.814-5.719zm0 7.224l-1.854 5.706c.056.019.112.036.169.052l1.685-5.758zm21.252 0l1.724 5.747.131-.04-1.855-5.707zm0-7.224l-1.854 5.706.13.041 1.724-5.747zm3.696-60.648v6h12.852v-12h-12.852v6zm12.852 0h-6v49.056h12V6.168h-6zm0 49.056v-6h-12.852v12h12.852v-6zm-12.852 0h6V6.168h-12v49.056h6zM235.63 24.48v6h11.256v-12H235.63v6zm11.256 0h-6V35.4h12V24.48h-6zm0 10.92v-6H235.63v12h11.256v-6zm-11.256 0h6V24.48h-12V35.4h6zm-8.232-27.804v6h12.6v-12h-12.6v6zm12.6 0h-6v45.192h12V7.596h-6zm0 45.192v-6h-12.6v12h12.6v-6zm-12.6 0h6V7.596h-12v45.192h6zm-39.06-39.312v6h37.38v-12h-37.38v6zm37.38 0h-6v10.332h12V13.476h-6zm0 10.332v-6h-37.38v12h37.38v-6zm-37.38 0h6V13.476h-12v10.332h6zm18.816 1.68v6c2.549 0 4.582.472 6.232 1.26l2.588-5.412 2.589-5.413c-3.502-1.675-7.349-2.435-11.409-2.435v6zm8.82 1.848l-2.491 5.458c1.723.787 2.857 1.764 3.63 2.864l4.909-3.45 4.909-3.45c-2.139-3.044-5.036-5.315-8.465-6.88l-2.492 5.458zm6.048 4.872l-4.846 3.537c.725.994 1.114 2.121 1.114 3.603h12c0-3.894-1.122-7.526-3.421-10.677l-4.847 3.537zm2.268 7.14h-6c0 1.566-.406 2.774-1.159 3.833l4.891 3.475 4.891 3.475c2.272-3.197 3.377-6.861 3.377-10.783h-6zm-2.268 7.308l-4.909-3.45c-.773 1.1-1.907 2.077-3.63 2.864l2.491 5.458 2.492 5.458c3.429-1.565 6.326-3.836 8.465-6.88l-4.909-3.45zm-6.048 4.872l-2.491-5.458c-1.674.764-3.742 1.222-6.329 1.222v12c4.022 0 7.834-.718 11.312-2.306l-2.492-5.458zm-8.82 1.764v-6c-2.511 0-4.602-.451-6.372-1.242l-2.448 5.478-2.447 5.478c3.494 1.561 7.283 2.286 11.267 2.286v-6zm-8.82-1.764l2.492-5.458c-1.739-.794-2.934-1.795-3.777-2.95l-4.847 3.536-4.846 3.537c2.18 2.988 5.073 5.235 8.487 6.793l2.491-5.458zm-6.132-4.872l4.952-3.388c-.728-1.065-1.136-2.303-1.136-3.92h-12c0 3.871 1.049 7.505 3.232 10.696l4.952-3.388zm-2.184-7.308h6c0-1.533.392-2.692 1.093-3.69l-4.909-3.45-4.909-3.45c-2.211 3.146-3.275 6.747-3.275 10.59h6zm2.184-7.14l4.847 3.537c.843-1.156 2.038-2.157 3.777-2.95l-2.492-5.459-2.491-5.458c-3.414 1.558-6.307 3.805-8.487 6.793l4.846 3.537zm6.132-4.872l2.544 5.434c1.747-.817 3.803-1.282 6.276-1.282v-12c-4.023 0-7.846.767-11.363 2.414l2.543 5.434zm8.82 7.728v-6c-2.479 0-5.095.608-7.34 2.326l3.644 4.766 3.645 4.766a1.224 1.224 0 01-.195.123.722.722 0 01-.112.046c-.023.007.079-.027.358-.027v-6zm-3.696 1.092l-3.46-4.902c-3.005 2.122-3.968 5.359-3.968 8.178h12c0-.145.025.06-.142.444-.191.437-.529.87-.97 1.182l-3.46-4.902zm-1.428 3.276h-6c0 2.877 1.024 5.932 3.784 8.042l3.644-4.766 3.645-4.766c.329.251.613.61.785 1.004.156.358.142.568.142.486h-6zm1.428 3.276l-3.644 4.766c2.245 1.718 4.861 2.326 7.34 2.326v-12c-.279 0-.381-.034-.358-.027a.733.733 0 01.112.046c.059.03.127.07.195.123l-3.645 4.766zm3.696 1.092v6c2.48 0 5.095-.608 7.341-2.326l-3.645-4.766-3.644-4.766a1.188 1.188 0 01.306-.17c.024-.006-.078.028-.358.028v6zm3.696-1.092l3.645 4.766c2.76-2.11 3.783-5.165 3.783-8.042h-12c0 .082-.013-.128.143-.486.172-.395.456-.753.785-1.004l3.644 4.766zm1.428-3.276h6c0-2.82-.962-6.056-3.968-8.178l-3.46 4.902-3.46 4.902a2.897 2.897 0 01-.969-1.181c-.167-.385-.143-.59-.143-.445h6zm-1.428-3.276l3.645-4.766c-2.246-1.718-4.861-2.326-7.341-2.326v12c.28 0 .382.034.358.027a1.18 1.18 0 01-.306-.169l3.644-4.766zm-10.5-29.148v6h13.356v-12H200.35v6zm13.356 0h-6v13.944h12V7.008h-6zm0 13.944v-6H200.35v12h13.356v-6zm-13.356 0h6V7.008h-12v13.944h6zm28.812 34.776v6c8.082 0 13.697 1.234 17.356 3.168l2.804-5.304 2.805-5.304c-6.086-3.218-13.911-4.56-22.965-4.56v6zm20.16 3.864l-2.731 5.342c1.802.922 2.784 1.854 3.319 2.638.5.733.804 1.614.804 2.856h12c0-3.462-.927-6.74-2.891-9.618-1.929-2.828-4.644-4.962-7.769-6.56l-2.732 5.342zm7.392 10.836h-6c0 1.198-.296 2.053-.792 2.775-.534.776-1.518 1.708-3.331 2.635l2.731 5.342 2.732 5.342c3.115-1.593 5.827-3.714 7.757-6.52 1.967-2.863 2.903-6.124 2.903-9.574h-6zm-7.392 10.752l-2.804-5.304c-3.659 1.934-9.274 3.168-17.356 3.168v12c9.054 0 16.879-1.342 22.965-4.56l-2.805-5.304zm-20.16 3.864v-6c-8.075 0-13.735-1.232-17.464-3.181l-2.78 5.317-2.779 5.317c6.126 3.203 13.963 4.547 23.023 4.547v-6zm-20.244-3.864l2.757-5.33c-1.78-.92-2.748-1.845-3.275-2.62-.492-.725-.79-1.59-.79-2.802h-12c0 3.435.921 6.687 2.865 9.547 1.909 2.808 4.595 4.935 7.687 6.534l2.756-5.329zm-7.308-10.752h6c0-1.256.306-2.147.802-2.882.528-.784 1.493-1.71 3.263-2.625l-2.757-5.329-2.756-5.33c-3.102 1.605-5.792 3.746-7.699 6.574-1.94 2.877-2.853 6.144-2.853 9.592h6zm7.308-10.836l2.78 5.317c3.729-1.95 9.389-3.181 17.464-3.181v-12c-9.06 0-16.897 1.344-23.023 4.547l2.779 5.317zm20.244 6.132v-6c-4.945 0-9.267.354-12.481 1.373l1.813 5.719 1.814 5.72c1.378-.438 4.167-.812 8.854-.812v-6zm-10.668 1.092l-1.724-5.747c-1.733.52-3.659 1.423-5.189 3.067-1.654 1.779-2.447 4-2.447 6.292h12a2.914 2.914 0 01-.767 1.882c-.409.44-.655.405-.149.253l-1.724-5.747zm-3.36 3.612h-6c0 2.32.83 4.511 2.447 6.25 1.491 1.602 3.363 2.517 5.059 3.068l1.854-5.706 1.855-5.706c-.544-.177-.352-.228.018.17.205.22.418.531.57.923.152.39.197.742.197 1.001h-6zm3.36 3.612l-1.685 5.758c3.154.924 7.421 1.25 12.353 1.25v-12c-4.7 0-7.544-.346-8.982-.766l-1.686 5.758zm10.668 1.008v6c4.919 0 9.184-.324 12.308-1.261l-1.724-5.747-1.724-5.747c-1.355.407-4.146.755-8.86.755v6zm10.584-1.008l1.855 5.706c1.696-.551 3.568-1.466 5.058-3.068 1.618-1.739 2.447-3.93 2.447-6.25h-12c0-.259.046-.612.197-1.001a2.92 2.92 0 01.57-.923c.371-.398.563-.347.019-.17l1.854 5.706zm3.36-3.612h6c0-2.291-.792-4.513-2.447-6.292-1.529-1.644-3.455-2.547-5.189-3.067l-1.724 5.747-1.724 5.747c.507.152.261.187-.149-.253a2.948 2.948 0 01-.584-.948 2.675 2.675 0 01-.183-.934h6zm-3.36-3.612l1.855-5.706c-3.186-1.035-7.508-1.386-12.439-1.386v12c4.702 0 7.435.377 8.73.798l1.854-5.706zm84.918-56.28l-2.488 5.46.023.01 2.465-5.47zm0 19.824l-2.465-5.47-.023.01 2.488 5.46zm-42.672 0l2.464-5.47-2.464 5.47zm0-19.824l2.464 5.47-2.464-5.47zm7.98 7.812l2.683 5.367-2.683-5.367zm0 4.284l-2.914 5.245c.076.042.153.083.23.122l2.684-5.367zm4.788 1.092l-.612 5.969c.05.005.101.01.152.013l.46-5.982zm17.136 0l.46 5.982.152-.013-.612-5.969zm4.788-1.092l2.683 5.367c.078-.04.155-.08.231-.122l-2.914-5.245zm-4.788-5.376l.612-5.969-.612 5.969zm-44.268 19.32v-6a6 6 0 00-6 6h6zm71.316 0h6a6 6 0 00-6-6v6zm0 10.584v6a6 6 0 006-6h-6zm-71.316 0h-6a6 6 0 006 6v-6zm7.896 3.192v-6a6 6 0 00-6 6h6zm55.02 0h6a6 6 0 00-6-6v6zm0 21.588v6a6 6 0 006-6h-6zm-41.58 0v-6a6 6 0 00-6 6h6zm0 5.544v6a6 6 0 006-6h-6zm-13.356 0h-6a6 6 0 006 6v-6zm0-14.784v-6a6 6 0 00-6 6h6zm41.58 0v6a6 6 0 006-6h-6zm0-2.436h6a6 6 0 00-6-6v6zm-41.664 0h-6a6 6 0 006 6v-6zm.084 14.28v-6a6 6 0 00-6 6h6zm56.868 0h6a6 6 0 00-6-6v6zm0 10.08v6a6 6 0 006-6h-6zm-56.868 0h-6a6 6 0 006 6v-6zm27.804-77.532v6c8.757 0 14.852 1.122 18.764 2.904l2.488-5.46 2.487-5.46c-6.168-2.81-14.24-3.984-23.739-3.984v6zm21.252 3.444l-2.465 5.47c1.942.875 2.944 1.743 3.447 2.394.435.565.662 1.17.662 2.048h12c0-3.434-1.048-6.637-3.16-9.376-2.046-2.653-4.865-4.585-8.02-6.006l-2.464 5.47zm7.644 9.912h-6c0 .878-.227 1.483-.662 2.048-.503.651-1.505 1.519-3.447 2.394l2.465 5.47 2.464 5.47c3.155-1.42 5.974-3.353 8.02-6.006 2.112-2.739 3.16-5.942 3.16-9.376h-6zm-7.644 9.912l-2.488-5.46c-3.912 1.782-10.007 2.904-18.764 2.904v12c9.499 0 17.571-1.174 23.739-3.984l-2.487-5.46zm-21.252 3.444v-6c-8.814 0-14.976-1.122-18.956-2.914l-2.464 5.47-2.465 5.47c6.213 2.8 14.33 3.974 23.885 3.974v-6zm-21.42-3.444l2.464-5.47c-1.941-.875-2.944-1.743-3.446-2.394-.436-.565-.662-1.17-.662-2.048h-12c0 3.434 1.047 6.637 3.16 9.376 2.045 2.653 4.865 4.585 8.019 6.006l2.465-5.47zm-7.644-9.912h6c0-.878.226-1.483.662-2.048.502-.651 1.505-1.519 3.446-2.394l-2.464-5.47-2.465-5.47c-3.154 1.42-5.974 3.353-8.019 6.006-2.113 2.739-3.16 5.942-3.16 9.376h6zm7.644-9.912l2.464 5.47c3.98-1.792 10.142-2.914 18.956-2.914v-12c-9.555 0-17.672 1.174-23.885 3.974l2.465 5.47zm21.336 6.384v-6c-3.626 0-6.709.114-9.18.367l.612 5.969.612 5.969c1.897-.195 4.526-.305 7.956-.305v-6zm-8.568.336l-.612-5.969c-2.355.242-4.845.687-6.86 1.694l2.684 5.367 2.683 5.367c-.07.035.083-.05.604-.168a18.027 18.027 0 012.113-.322l-.612-5.969zm-4.788 1.092l-2.684-5.367c-2.414 1.208-4.828 3.674-4.828 7.467h12c0 .758-.24 1.596-.753 2.309-.462.642-.945.904-1.052.958l-2.683-5.367zm-1.512 2.1h-6c0 3.716 2.32 6.163 4.598 7.429l2.914-5.245 2.914-5.245c.066.037.479.278.885.864.451.652.689 1.44.689 2.197h-6zm1.512 2.184l-2.684 5.367c2.015 1.007 4.505 1.452 6.86 1.694l.612-5.969.612-5.969a18.027 18.027 0 01-2.113-.322c-.521-.119-.674-.203-.604-.168l-2.683 5.367zm4.788 1.092l-.46 5.982c2.4.185 5.427.27 9.028.27v-12c-3.455 0-6.14-.083-8.108-.234l-.46 5.982zm8.568.252v6c3.601 0 6.628-.085 9.028-.27l-.46-5.982-.46-5.982c-1.968.151-4.653.234-8.108.234v6zm8.568-.252l.612 5.969c2.354-.242 4.845-.687 6.859-1.694l-2.683-5.367L314 17.265c.07-.035-.082.05-.603.168-.496.113-1.188.227-2.113.322l.612 5.969zm4.788-1.092l2.914 5.245c2.278-1.266 4.598-3.713 4.598-7.429h-12c0-.757.237-1.545.689-2.197.405-.586.819-.827.885-.864l2.914 5.245zm1.512-2.184h6c0-3.793-2.414-6.26-4.829-7.467l-2.683 5.367L314 23.715c-.107-.054-.589-.316-1.051-.958a4.006 4.006 0 01-.753-2.309h6zm-1.512-2.1l2.683-5.367c-2.014-1.007-4.505-1.452-6.859-1.694l-.612 5.969-.612 5.969c.925.095 1.617.209 2.113.322.521.119.673.203.603.168l2.684-5.367zm-4.788-1.092l.612-5.969c-2.471-.253-5.554-.367-9.18-.367v12c3.43 0 6.059.11 7.956.305l.612-5.969zm-44.268 19.32v6h71.316v-12h-71.316v6zm71.316 0h-6V47.16h12V36.576h-6zm0 10.584v-6h-71.316v12h71.316v-6zm-71.316 0h6V36.576h-12V47.16h6zm7.896 3.192v6h55.02v-12h-55.02v6zm55.02 0h-6V71.94h12V50.352h-6zm0 21.588v-6h-41.58v12h41.58v-6zm-41.58 0h-6v5.544h12V71.94h-6zm0 5.544v-6h-13.356v12h13.356v-6zm-13.356 0h6V62.7h-12v14.784h6zm0-14.784v6h41.58v-12h-41.58v6zm41.58 0h6v-2.436h-12V62.7h6zm0-2.436v-6h-41.664v12h41.664v-6zm-41.664 0h6v-9.912h-12v9.912h6zm.084 14.28v6h56.868v-12h-56.868v6zm56.868 0h-6v10.08h12v-10.08h-6zm0 10.08v-6h-56.868v12h56.868v-6zm-56.868 0h6v-10.08h-12v10.08h6zM7.764 156.392v-6a6 6 0 00-6 6h6zm18.816-.168l-.185-5.997.185 5.997zm10.332-.588l.515 5.978.102-.01-.617-5.968zm9.744-1.344l5.96-.688a6 6 0 00-6.98-5.225l1.02 5.913zm1.26 10.92l1.065 5.905a6 6 0 004.895-6.593l-5.96.688zm-10.164 1.428l.498 5.979.099-.009-.597-5.97zM27 167.228l-.177-5.997h-.002l.179 5.997zm-19.236.168h-6a6 6 0 006 6v-6zm0-53.592v-6a6 6 0 00-6 6h6zm35.532 0h6a6 6 0 00-6-6v6zm0 10.668v6a6 6 0 006-6h-6zm-22.008 0v-6a6 6 0 00-6 6h6zm0 36.12v6a6 6 0 006-6h-6zm-13.524 0h-6a6 6 0 006 6v-6zm49.644-53.508v-6a6 6 0 00-6 6h6zm13.524 0h6a6 6 0 00-6-6v6zm0 79.128v6a6 6 0 006-6h-6zm-13.524 0h-6a6 6 0 006 6v-6zm-17.472-52.668v-6a6 6 0 00-6 6h6zm23.268 0h6a6 6 0 00-6-6v6zm0 10.92v6a6 6 0 006-6h-6zm-23.268 0h-6a6 6 0 006 6v-6zM7.764 156.392v6h6.552v-12H7.764v6zm6.552 0v6c4.583 0 8.734-.057 12.449-.171l-.185-5.997-.185-5.997c-3.565.11-7.59.165-12.08.165v6zm12.264-.168l.185 5.997a194.27 194.27 0 0010.662-.607l-.515-5.978-.515-5.978c-3.127.27-6.46.46-10.002.569l.185 5.997zm10.332-.588l.617 5.968c3.384-.35 6.766-.816 10.146-1.399l-1.02-5.913-1.019-5.913c-3.115.537-6.23.967-9.342 1.289l.618 5.968zm9.744-1.344l-5.96.688 1.26 10.92 5.96-.688 5.96-.688-1.26-10.92-5.96.688zm1.26 10.92l-1.065-5.905a124.317 124.317 0 01-9.696 1.363l.597 5.97.597 5.97a136.38 136.38 0 0010.632-1.493l-1.065-5.905zm-10.164 1.428l-.498-5.979c-3.24.27-6.716.46-10.43.57l.176 5.997.176 5.997a206.12 206.12 0 0011.074-.606l-.498-5.979zM27 167.228l-.18-5.997c-3.679.11-7.846.165-12.504.165v12c4.75 0 9.039-.057 12.863-.171l-.18-5.997zm-12.684.168v-6H7.764v12h6.552v-6zm-6.552 0h6v-11.004h-12v11.004h6zm0-53.592v6h35.532v-12H7.764v6zm35.532 0h-6v10.668h12v-10.668h-6zm0 10.668v-6H21.288v12h22.008v-6zm-22.008 0h-6v36.12h12v-36.12h-6zm0 36.12v-6H7.764v12h13.524v-6zm-13.524 0h6v-46.788h-12v46.788h6zm49.644-53.508v6h13.524v-12H57.408v6zm13.524 0h-6v79.128h12v-79.128h-6zm0 79.128v-6H57.408v12h13.524v-6zm-13.524 0h6v-79.128h-12v79.128h6zm-17.472-52.668v6h23.268v-12H39.936v6zm23.268 0h-6v10.92h12v-10.92h-6zm0 10.92v-6H39.936v12h23.268v-6zm-23.268 0h6v-10.92h-12v10.92h6zm69.785-6.216v-6a6 6 0 00-6 6h6zm71.316 0h6a6 6 0 00-6-6v6zm0 10.5v6a6 6 0 006-6h-6zm-71.316 0h-6a6 6 0 006 6v-6zm7.896 2.688v-6a6 6 0 00-6 6h6zm55.02 0h6a6 6 0 00-6-6v6zm0 21.504v6a6 6 0 006-6h-6zm-41.58 0v-6a6 6 0 00-6 6h6zm0 5.628v6a6 6 0 006-6h-6zm-13.356 0h-6a6 6 0 006 6v-6zm0-14.784v-6a6 6 0 00-6 6h6zm41.58 0v6a6 6 0 006-6h-6zm0-2.52h6a6 6 0 00-6-6v6zm-41.664 0h-6a6 6 0 006 6v-6zm.084 14.364v-6a6 6 0 00-6 6h6zm56.868 0h6a6 6 0 00-6-6v6zm0 9.996v6a6 6 0 006-6h-6zm-56.868 0h-6a6 6 0 006 6v-6zm19.488-71.988v-6a6 6 0 00-6 6h6zm11.844 0h6a6 6 0 00-6-6v6zm-1.176 7.98l-5.592-2.175a3.8 3.8 0 00-.051.137l5.643 2.038zm-3.528 5.628l4.382 4.099-4.382-4.099zm-6.3 4.704l2.823 5.294.042-.022-2.865-5.272zm-9.156 3.36l1.39 5.837.065-.016-1.455-5.821zm-12.264 1.68l-5.555 2.268a6 6 0 005.916 3.721l-.361-5.989zm-4.116-10.08l-.338-5.99a6 6 0 00-5.217 8.258l5.555-2.268zm10.164-1.176l1.177 5.883.088-.018-1.265-5.865zm7.056-2.184l-2.422-5.489-.061.027 2.483 5.462zm4.452-2.688l-3.886-4.572-.115.101 4.001 4.471zm2.352-2.772l5.366 2.683c.022-.042.043-.085.063-.128l-5.429-2.555zm5.208-4.452v-6a6 6 0 00-6 6h6zm11.844 0h6a6 6 0 00-6-6v6zm.672 4.452l-5.429 2.555 5.429-2.555zm2.268 2.856l-4.001 4.471.115.101 3.886-4.572zm4.452 2.688l-2.483 5.462c.066.03.132.059.198.086l2.285-5.548zm7.056 2.1l-1.289 5.86.134.028 1.155-5.888zm10.248 1.176l5.555 2.268a5.997 5.997 0 00-.483-5.472 5.996 5.996 0 00-4.735-2.786l-.337 5.99zm-4.116 10.08l-.361 5.989a6 6 0 005.916-3.721l-5.555-2.268zm-12.348-1.68l-1.477 5.815.108.027 1.369-5.842zm-9.156-3.36l-2.824 5.294.049.026 2.775-5.32zm-6.216-4.62l4.382-4.099-4.382 4.099zm-3.612-5.628l-5.643 2.038a3.8 3.8 0 00.051.137l5.592-2.175zm-26.628-12.432v-6a6 6 0 00-6 6h6zm58.464 0h6a6 6 0 00-6-6v6zm0 10.416v6a6 6 0 006-6h-6zm-58.464 0h-6a6 6 0 006 6v-6zm-6.468 18.564v6h71.316v-12h-71.316v6zm71.316 0h-6v10.5h12v-10.5h-6zm0 10.5v-6h-71.316v12h71.316v-6zm-71.316 0h6v-10.5h-12v10.5h6zm7.896 2.688v6h55.02v-12h-55.02v6zm55.02 0h-6v21.504h12v-21.504h-6zm0 21.504v-6h-41.58v12h41.58v-6zm-41.58 0h-6v5.628h12v-5.628h-6zm0 5.628v-6h-13.356v12h13.356v-6zm-13.356 0h6v-14.784h-12v14.784h6zm0-14.784v6h41.58v-12h-41.58v6zm41.58 0h6v-2.52h-12v2.52h6zm0-2.52v-6h-41.664v12h41.664v-6zm-41.664 0h6v-9.828h-12v9.828h6zm.084 14.364v6h56.868v-12h-56.868v6zm56.868 0h-6v9.996h12v-9.996h-6zm0 9.996v-6h-56.868v12h56.868v-6zm-56.868 0h6v-9.996h-12v9.996h6zm19.488-71.988v6h11.844v-12h-11.844v6zm11.844 0h-6v1.764h12v-1.764h-6zm0 1.764h-6c0 1.372-.249 2.707-.768 4.041l5.592 2.175 5.592 2.175a23.016 23.016 0 001.584-8.391h-6zm-1.176 6.216l-5.643-2.038c-.423 1.171-1.138 2.36-2.267 3.567l4.382 4.099 4.382 4.099c2.119-2.265 3.756-4.828 4.789-7.689l-5.643-2.038zm-3.528 5.628l-4.382-4.099c-1.096 1.172-2.646 2.37-4.783 3.531l2.865 5.272 2.865 5.272c3.014-1.639 5.664-3.577 7.817-5.877l-4.382-4.099zm-6.3 4.704l-2.824-5.294c-1.982 1.057-4.548 2.023-7.787 2.833l1.455 5.821 1.455 5.821c3.929-.982 7.467-2.256 10.524-3.887l-2.823-5.294zm-9.156 3.36l-1.39-5.837c-3.111.741-6.842 1.263-11.235 1.528l.361 5.989.361 5.989c4.902-.295 9.347-.893 13.293-1.832l-1.39-5.837zm-12.264 1.68l5.555-2.268-4.116-10.08-5.555 2.268-5.555 2.268 4.116 10.08 5.555-2.268zm-4.116-10.08l.337 5.991c4.157-.235 7.843-.651 11.004-1.284l-1.177-5.883-1.177-5.883c-2.439.487-5.53.855-9.325 1.069l.338 5.99zm10.164-1.176l1.265 5.865c3.109-.67 5.906-1.511 8.274-2.587l-2.483-5.462-2.483-5.462c-1.329.604-3.235 1.219-5.838 1.781l1.265 5.865zm7.056-2.184l2.422 5.49c2.241-.989 4.336-2.19 6.031-3.707l-4.001-4.471-4.001-4.471c-.433.387-1.306.978-2.873 1.67l2.422 5.489zm4.452-2.688l3.886 4.572c1.472-1.252 2.895-2.787 3.832-4.661l-5.366-2.683-5.367-2.683c.03-.061.011-.003-.132.166a6.57 6.57 0 01-.739.717l3.886 4.572zm2.352-2.772l5.429 2.555c.732-1.555 1.243-3.326 1.243-5.243h-12c0-.116.016-.172.011-.153a1.736 1.736 0 01-.112.286l5.429 2.555zm.672-2.688h6v-1.764h-12v1.764h6zm4.536-1.764v6h11.844v-12h-11.844v6zm11.844 0h-6v1.764h12v-1.764h-6zm0 1.764h-6c0 1.917.511 3.688 1.243 5.243l5.429-2.555 5.429-2.555a1.634 1.634 0 01-.112-.286c-.005-.019.011.037.011.153h-6zm.672 2.688l-5.429 2.555c.89 1.89 2.234 3.464 3.696 4.772l4.001-4.471 4.001-4.471a5.787 5.787 0 01-.667-.688c-.134-.168-.174-.254-.173-.252l-5.429 2.555zm2.268 2.856l-3.886 4.572c1.671 1.42 3.678 2.589 5.855 3.578l2.483-5.462 2.483-5.462c-1.519-.691-2.48-1.314-3.049-1.798l-3.886 4.572zm4.452 2.688l-2.285 5.548c2.324.957 5.033 1.748 8.052 2.412l1.289-5.86 1.289-5.86c-2.581-.568-4.576-1.177-6.061-1.788l-2.284 5.548zm7.056 2.1l-1.155 5.888c3.204.628 6.907 1.044 11.065 1.279l.338-5.991.337-5.99c-3.794-.214-6.922-.582-9.431-1.074l-1.154 5.888zm10.248 1.176l-5.555-2.268-4.116 10.08 5.555 2.268 5.555 2.268 4.116-10.08-5.555-2.268zm-4.116 10.08l.361-5.989c-4.393-.265-8.161-.788-11.34-1.533l-1.369 5.842-1.369 5.842c3.988.935 8.453 1.532 13.356 1.827l.361-5.989zm-12.348-1.68l1.477-5.815c-3.185-.809-5.782-1.782-7.858-2.865l-2.775 5.32-2.775 5.32c3.076 1.605 6.583 2.872 10.454 3.855l1.477-5.815zm-9.156-3.36l2.823-5.294c-2.052-1.095-3.564-2.256-4.657-3.425l-4.382 4.099-4.382 4.099c2.155 2.303 4.786 4.222 7.774 5.815l2.824-5.294zm-6.216-4.62l4.382-4.099c-1.154-1.233-1.921-2.468-2.402-3.704l-5.592 2.175-5.592 2.175c1.087 2.796 2.728 5.313 4.822 7.552l4.382-4.099zm-3.612-5.628l5.643-2.038a12.417 12.417 0 01-.735-4.262h-12c0 2.865.48 5.656 1.449 8.338l5.643-2.038zm-1.092-6.3h6v-1.764h-12v1.764h6zm-25.536-6.132v6h58.464v-12h-58.464v6zm58.464 0h-6v10.416h12v-10.416h-6zm0 10.416v-6h-58.464v12h58.464v-6zm-58.464 0h6v-10.416h-12v10.416h6zm125.489-12.6v-6a6 6 0 00-6 6h6zm13.608 0h6a6 6 0 00-6-6v6zm0 42.756v6a6 6 0 006-6h-6zm-13.608 0h-6a6 6 0 006 6v-6zm-11.844-25.62v-6a6 6 0 00-6 6h6zm13.44 0h6a6 6 0 00-6-6v6zm0 10.836v6a6 6 0 006-6h-6zm-13.44 0h-6a6 6 0 006 6v-6zm-14.448-23.772v-6a6 6 0 00-6 6h6zm14.364 0h6a6 6 0 00-6-6v6zm-3.864 18.9l-5.411-2.593a2.052 2.052 0 01-.021.046l5.432 2.547zm-11.676 13.524l3.402 4.943.011-.008-3.413-4.935zm-19.908 8.4l-5.392 2.631a6 6 0 006.848 3.19l-1.456-5.821zm-5.124-10.5l-1.349-5.846a5.997 5.997 0 00-4.043 8.477l5.392-2.631zm15.54-5.796l-3.153-5.105 3.153 5.105zm8.148-7.98l-5.245-2.914-.018.034 5.263 2.88zm-19.404-16.548v-6a6 6 0 00-6 6h6zm31.5 0h6a6 6 0 00-6-6v6zm0 10.668v6a6 6 0 006-6h-6zm-31.5 0h-6a6 6 0 006 6v-6zm8.736 31.08v-6a6 6 0 00-6 6h6zm13.44 0h6a6 6 0 00-6-6v6zm0 6.132h-6a6 6 0 006 6v-6zm26.208 0v6a6 6 0 006-6h-6zm0-6.132v-6a6 6 0 00-6 6h6zm13.44 0h6a6 6 0 00-6-6v6zm0 32.256v6a6 6 0 006-6h-6zm-53.088 0h-6a6 6 0 006 6v-6zm13.44-15.792v-6a6 6 0 00-6 6h6zm0 5.04h-6a6 6 0 006 6v-6zm26.208 0v6a6 6 0 006-6h-6zm0-5.04h6a6 6 0 00-6-6v6zm-.168-62.412v6h13.608v-12h-13.608v6zm13.608 0h-6v42.756h12v-42.756h-6zm0 42.756v-6h-13.608v12h13.608v-6zm-13.608 0h6v-42.756h-12v42.756h6zm-11.844-25.62v6h13.44v-12h-13.44v6zm13.44 0h-6v10.836h12V124.22h-6zm0 10.836v-6h-13.44v12h13.44v-6zm-13.44 0h6V124.22h-12v10.836h6zm-14.448-23.772v6h14.364v-12h-14.364v6zm14.364 0h-6c0 6.514-1.16 11.894-3.275 16.307l5.411 2.593 5.411 2.593c3.037-6.339 4.453-13.559 4.453-21.493h-6zm-3.864 18.9l-5.432-2.547c-2.035 4.341-5.195 8.051-9.656 11.136l3.412 4.935 3.413 4.935c6.066-4.195 10.691-9.501 13.696-15.912l-5.433-2.547zm-11.676 13.524l-3.401-4.943c-4.464 3.072-10.387 5.628-17.962 7.522l1.455 5.821 1.456 5.821c8.553-2.138 15.901-5.182 21.854-9.278l-3.402-4.943zm-19.908 8.4l5.393-2.631-5.124-10.5-5.393 2.631-5.392 2.631 5.124 10.5 5.392-2.631zm-5.124-10.5l1.349 5.846c6.903-1.593 12.774-3.715 17.344-6.537l-3.153-5.105-3.153-5.105c-3.046 1.882-7.534 3.624-13.736 5.055l1.349 5.846zm15.54-5.796l3.153 5.105c4.416-2.728 8-6.077 10.259-10.205l-5.264-2.88-5.263-2.88c-.99 1.808-2.838 3.779-6.038 5.755l3.153 5.105zm8.148-7.98l5.245 2.914c2.16-3.888 3.275-8.079 3.275-12.49h-12c0 2.309-.565 4.502-1.765 6.662l5.245 2.914zm2.52-9.576h6v-6.972h-12v6.972h6zm-21.924-6.972v6h31.5v-12h-31.5v6zm31.5 0h-6v10.668h12v-10.668h-6zm0 10.668v-6h-31.5v12h31.5v-6zm-31.5 0h6v-10.668h-12v10.668h6zm8.736 31.08v6h13.44v-12h-13.44v6zm13.44 0h-6v6.132h12v-6.132h-6zm0 6.132v6h26.208v-12h-26.208v6zm26.208 0h6v-6.132h-12v6.132h6zm0-6.132v6h13.44v-12h-13.44v6zm13.44 0h-6v32.256h12v-32.256h-6zm0 32.256v-6h-53.088v12h53.088v-6zm-53.088 0h6v-32.256h-12v32.256h6zm13.44-15.792h-6v5.04h12v-5.04h-6zm0 5.04v6h26.208v-12h-26.208v6zm26.208 0h6v-5.04h-12v5.04h6zm0-5.04v-6h-26.208v12h26.208v-6zm81.306-62.412v-6a6 6 0 00-6 6h6zm12.852 0h6a6 6 0 00-6-6v6zm0 78.792v6a6 6 0 006-6h-6zm-12.852 0h-6a6 6 0 006 6v-6zm-29.568-49.644v-6a6 6 0 00-6 6h6zm15.12 0h6a6 6 0 00-6-6v6zm0 10.668v6a6 6 0 006-6h-6zm-15.12 0h-6a6 6 0 006 6v-6zm12.852-38.304v-6a6 6 0 00-6 6h6zm12.6 0h6a6 6 0 00-6-6v6zm0 74.088v6a6 6 0 006-6h-6zm-12.6 0h-6a6 6 0 006 6v-6zm-17.304-66.696v-6a6 6 0 00-6 6h6zm13.02 0h6a6 6 0 00-6-6v6zm-2.436 21.504l5.824 1.444-5.824-1.444zm-8.652 17.892l-4.752-3.663-.024.031 4.776 3.632zm-17.388 14.532l-4.677 3.758a5.998 5.998 0 007.666 1.444l-2.989-5.202zm-7.56-9.408l-3.087-5.145a6 6 0 00-1.59 8.903l4.677-3.758zm13.776-11.256l-4.583-3.873-.032.038 4.615 3.835zm7.14-13.356l-5.772-1.64 5.772 1.64zm-16.044-19.908v-6a6 6 0 00-6 6h6zm22.092 0h6a6 6 0 00-6-6v6zm0 10.752v6a6 6 0 006-6h-6zm-22.092 0h-6a6 6 0 006 6v-6zm52.164-19.656v6h12.852v-12h-12.852v6zm12.852 0h-6v78.792h12v-78.792h-6zm0 78.792v-6h-12.852v12h12.852v-6zm-12.852 0h6v-78.792h-12v78.792h6zm-29.568-49.644v6h15.12v-12h-15.12v6zm15.12 0h-6V146.9h12v-10.668h-6zm0 10.668v-6h-15.12v12h15.12v-6zm-15.12 0h6v-10.668h-12V146.9h6zm12.852-38.304v6h12.6v-12h-12.6v6zm12.6 0h-6v74.088h12v-74.088h-6zm0 74.088v-6h-12.6v12h12.6v-6zm-12.6 0h6v-74.088h-12v74.088h6zm-17.304-66.696v6h13.02v-12h-13.02v6zm13.02 0h-6c0 7.37-.769 14.046-2.26 20.061l5.824 1.443 5.824 1.444c1.757-7.09 2.612-14.75 2.612-22.948h-6zm-2.436 21.504l-5.824-1.443c-1.423 5.741-3.94 10.95-7.58 15.672l4.752 3.663 4.752 3.663c4.648-6.03 7.899-12.749 9.724-20.111l-5.824-1.444zm-8.652 17.892l-4.776-3.632c-3.488 4.587-8.605 8.941-15.602 12.962l2.99 5.202 2.989 5.202c8.011-4.603 14.486-9.937 19.175-16.102l-4.776-3.632zm-17.388 14.532l4.677-3.758-7.56-9.408-4.677 3.758-4.677 3.758 7.56 9.408 4.677-3.758zm-7.56-9.408l3.087 5.145c6.281-3.769 11.453-7.932 15.303-12.566l-4.614-3.835-4.615-3.835c-2.757 3.318-6.77 6.659-12.248 9.946l3.087 5.145zm13.776-11.256l4.583 3.873c3.901-4.617 6.691-9.827 8.328-15.589l-5.771-1.64-5.772-1.64c-1.163 4.094-3.132 7.788-5.951 11.123l4.583 3.873zm7.14-13.356l5.771 1.64c1.585-5.578 2.329-11.833 2.329-18.692h-12c0 6.021-.656 11.134-1.872 15.412l5.772 1.64zm2.1-17.052h6v-2.856h-12v2.856h6zm-18.144-2.856v6h22.092v-12h-22.092v6zm22.092 0h-6v10.752h12v-10.752h-6zm0 10.752v-6h-22.092v12h22.092v-6zm-22.092 0h6v-10.752h-12v10.752h6zm96.677 35.028l-4.242 4.243 4.242-4.243zm-15.624 14.784l-4.242 4.243 4.242-4.243zm0-14.784l4.243 4.243-4.243-4.243zm12.264-1.428v6c-.114 0-.316-.025-.541-.121a1.168 1.168 0 01-.341-.208l4.242-4.243 4.243-4.243c-2.021-2.02-4.645-3.185-7.603-3.185v6zm3.36 1.428l-4.242 4.243a1.172 1.172 0 01-.209-.342 1.46 1.46 0 01-.121-.541h12c0-2.958-1.165-5.582-3.185-7.603l-4.243 4.243zm1.428 3.36h-6v8.064h12v-8.064h-6zm0 8.064h-6c0-.115.026-.316.121-.541.094-.22.198-.331.209-.342l4.242 4.243 4.243 4.243c2.02-2.021 3.185-4.645 3.185-7.603h-6zm-1.428 3.36l-4.242-4.243c.01-.01.122-.115.341-.208.225-.096.427-.121.541-.121v12c2.958 0 5.582-1.165 7.603-3.185l-4.243-4.243zm-3.36 1.428v-6h-8.904v12h8.904v-6zm-8.904 0v-6c.115 0 .316.025.541.121.22.093.332.198.342.208l-4.243 4.243-4.242 4.243c2.02 2.02 4.644 3.185 7.602 3.185v-6zm-3.36-1.428l4.243-4.243c.01.011.115.122.208.342.096.225.121.426.121.541h-12c0 2.958 1.165 5.582 3.186 7.603l4.242-4.243zm-1.428-3.36h6v-8.064h-12v8.064h6zm0-8.064h6c0 .115-.025.316-.121.541-.093.22-.198.331-.208.342l-4.243-4.243-4.242-4.243c-2.021 2.021-3.186 4.645-3.186 7.603h6zm1.428-3.36l4.243 4.243c-.01.01-.122.115-.342.208a1.44 1.44 0 01-.541.121v-12c-2.958 0-5.582 1.165-7.602 3.185l4.242 4.243zm3.36-1.428v6h8.904v-12h-8.904v6z" fill="#FFFFC7" mask="url(#path-1-outside-1_2540_853)"/></svg>