<svg width="664" height="177" viewBox="0 0 664 177" fill="none" xmlns="http://www.w3.org/2000/svg"><mask id="path-1-outside-1_2540_845" maskUnits="userSpaceOnUse" x="-.292" y="0" width="665" height="177" fill="#000"><path fill="#fff" d="M-.292 0h665v177h-665z"/><path d="M62.532 7.68c1.288 0 2.408.476 3.36 1.428s1.428 2.072 1.428 3.36v51.744c0 1.288-.476 2.408-1.428 3.36S63.82 69 62.532 69H56.4c-1.288 0-2.408-.476-3.36-1.428s-1.428-2.072-1.428-3.36V35.484c0-.056-.028-.084-.084-.084-.056 0-.084.028-.084.084l-6.132 16.464a6.937 6.937 0 01-2.52 3.276c-1.176.784-2.492 1.176-3.948 1.176H34.98c-1.456 0-2.772-.392-3.948-1.176a6.937 6.937 0 01-2.52-3.276L22.38 35.484c0-.056-.028-.084-.084-.084-.056 0-.084.028-.084.084v28.728c0 1.288-.476 2.408-1.428 3.36S18.712 69 17.424 69h-5.796c-1.288 0-2.408-.476-3.36-1.428S6.84 65.5 6.84 64.212V12.468c0-1.288.476-2.408 1.428-3.36s2.072-1.428 3.36-1.428h7.476c1.456 0 2.772.42 3.948 1.26a6.024 6.024 0 012.436 3.192l11.34 31.584c0 .056.028.084.084.084.056 0 .084-.028.084-.084l11.34-31.584a6.024 6.024 0 012.436-3.192 6.632 6.632 0 013.948-1.26h7.812zm41.85 43.68v-.504c0-.504-.252-.756-.756-.756h-2.604c-5.6 0-8.4 1.68-8.4 5.04 0 2.52 1.4 3.78 4.2 3.78 2.184 0 3.976-.672 5.376-2.016 1.456-1.4 2.184-3.248 2.184-5.544zm-5.04-26.88c7.392 0 12.74 1.344 16.044 4.032 3.304 2.688 4.956 6.944 4.956 12.768v22.932c0 1.288-.476 2.408-1.428 3.36S116.842 69 115.554 69h-5.292c-1.344 0-2.492-.448-3.444-1.344-.952-.952-1.456-2.1-1.512-3.444v-.672c0-.056-.028-.084-.084-.084-.056 0-.112.028-.168.084-3.584 4.2-8.008 6.3-13.272 6.3-3.92 0-7.14-1.232-9.66-3.696-2.52-2.52-3.78-5.768-3.78-9.744 0-10.08 7.56-15.12 22.68-15.12h2.604c.504 0 .756-.252.756-.756v-.084c0-3.36-1.96-5.04-5.88-5.04-3.36 0-7.7.504-13.02 1.512-1.176.224-2.24-.028-3.192-.756-.952-.784-1.428-1.792-1.428-3.024v-1.344c0-1.4.42-2.66 1.26-3.78.896-1.12 2.016-1.792 3.36-2.016 5.544-1.008 10.164-1.512 13.86-1.512zm62.219 22.428l13.524 18.228c.56.784.616 1.624.168 2.52-.448.896-1.148 1.344-2.1 1.344h-8.484c-3.248 0-5.768-1.288-7.56-3.864l-8.316-12.012c0-.056-.056-.084-.168-.084-.056 0-.084.028-.084.084v11.088c0 1.288-.476 2.408-1.428 3.36S145.041 69 143.753 69h-6.384c-1.288 0-2.408-.476-3.36-1.428s-1.428-2.072-1.428-3.36V10.788c0-1.288.476-2.408 1.428-3.36S136.081 6 137.369 6h6.384c1.288 0 2.408.476 3.36 1.428s1.428 2.072 1.428 3.36v29.568c0 .056.028.084.084.084l.168-.084 8.232-11.172c1.848-2.576 4.396-3.864 7.644-3.864h8.484c.952 0 1.652.42 2.1 1.26.448.84.364 1.652-.252 2.436l-13.44 16.716c-.28.392-.28.784 0 1.176zm45.716-3.948c.504 0 .756-.252.756-.756-.056-2.576-.616-4.424-1.68-5.544-1.008-1.12-2.548-1.68-4.62-1.68-2.184 0-3.836.56-4.956 1.68-1.064 1.064-1.736 2.94-2.016 5.628 0 .448.224.672.672.672h11.844zm-5.964-18.48c14.224 0 21.364 7.504 21.42 22.512 0 1.344-.504 2.492-1.512 3.444-1.008.896-2.212 1.344-3.612 1.344h-22.008c-.504 0-.7.252-.588.756.504 2.352 1.596 4.004 3.276 4.956 1.736.952 4.424 1.428 8.064 1.428 2.296 0 5.096-.336 8.4-1.008 1.176-.28 2.24-.028 3.192.756.952.728 1.428 1.708 1.428 2.94v1.344c0 1.4-.448 2.688-1.344 3.864-.84 1.12-1.932 1.792-3.276 2.016-3.416.672-7.056 1.008-10.92 1.008-7.952 0-14.084-1.932-18.396-5.796-4.256-3.92-6.384-9.548-6.384-16.884 0-7.28 1.904-12.88 5.712-16.8s9.324-5.88 16.548-5.88zm96.76.84c1.176 0 2.072.476 2.688 1.428.672.896.84 1.904.504 3.024l-19.068 53.256c-.504 1.344-1.344 2.408-2.52 3.192-1.176.84-2.464 1.26-3.864 1.26h-7.224c-1.176 0-2.1-.476-2.772-1.428-.616-.896-.7-1.876-.252-2.94l5.544-13.44a2.762 2.762 0 000-1.344l-14.448-38.556c-.448-1.064-.336-2.072.336-3.024s1.596-1.428 2.772-1.428h8.064c1.344 0 2.548.448 3.612 1.344 1.12.896 1.82 2.016 2.1 3.36l4.872 24.612c0 .056.028.084.084.084.056 0 .084-.028.084-.084l6.3-24.696c.336-1.344 1.064-2.436 2.184-3.276 1.12-.896 2.38-1.344 3.78-1.344h7.224zm24.162 30.996c1.064 1.736 2.772 2.604 5.124 2.604s4.06-.868 5.124-2.604c1.064-1.792 1.596-4.844 1.596-9.156s-.532-7.336-1.596-9.072c-1.064-1.792-2.772-2.688-5.124-2.688s-4.06.896-5.124 2.688c-1.064 1.736-1.596 4.76-1.596 9.072 0 4.312.532 7.364 1.596 9.156zm-11.592-25.788c3.976-4.032 9.548-6.048 16.716-6.048 7.168 0 12.74 2.016 16.716 6.048 3.976 3.976 5.964 9.52 5.964 16.632 0 7.112-1.988 12.684-5.964 16.716-3.976 3.976-9.548 5.964-16.716 5.964-7.168 0-12.74-1.988-16.716-5.964-3.976-4.032-5.964-9.604-5.964-16.716 0-7.112 1.988-12.656 5.964-16.632zm85.907-5.208c1.288 0 2.408.476 3.36 1.428s1.428 2.072 1.428 3.36v34.104c0 1.288-.476 2.408-1.428 3.36S397.838 69 396.55 69h-5.712c-1.344 0-2.492-.448-3.444-1.344-.952-.952-1.456-2.1-1.512-3.444v-.672c0-.056-.028-.084-.084-.084-.112 0-.168.028-.168.084-3.472 4.2-7.756 6.3-12.852 6.3-4.928 0-8.484-1.372-10.668-4.116-2.128-2.744-3.192-7.532-3.192-14.364V30.108c0-1.288.476-2.408 1.428-3.36s2.072-1.428 3.36-1.428h5.964c1.288 0 2.408.476 3.36 1.428s1.428 2.072 1.428 3.36V50.52c0 2.576.336 4.34 1.008 5.292.728.952 1.932 1.428 3.612 1.428 1.568 0 2.996-.616 4.284-1.848 1.344-1.232 2.016-2.576 2.016-4.032V30.108c0-1.288.476-2.408 1.428-3.36s2.072-1.428 3.36-1.428h6.384zm47.542.168c1.288-.168 2.408.224 3.36 1.176s1.428 2.1 1.428 3.444v2.184c0 1.288-.448 2.408-1.344 3.36-.896.896-2.016 1.428-3.36 1.596-4.312.56-7.756 2.184-10.332 4.872-2.576 2.632-3.864 5.852-3.864 9.66v12.432c0 1.288-.476 2.408-1.428 3.36S426.48 69 425.192 69h-6.804c-1.288 0-2.408-.476-3.36-1.428s-1.428-2.072-1.428-3.36V30.108c0-1.288.476-2.408 1.428-3.36s2.072-1.428 3.36-1.428h6.384c1.288 0 2.408.476 3.36 1.428s1.428 2.072 1.428 3.36v3.528c0 .056.028.084.084.084.056 0 .112-.028.168-.084 3.528-4.648 8.288-7.364 14.28-8.148zM517.107 27c1.288 0 2.408.476 3.36 1.428s1.428 2.072 1.428 3.36v1.344c0 1.288-.476 2.408-1.428 3.36s-2.072 1.428-3.36 1.428h-7.476c-.504 0-.756.252-.756.756V50.52c0 3.36.28 5.46.84 6.3.56.84 1.82 1.26 3.78 1.26.784 0 1.736-.084 2.856-.252 1.176-.168 2.24.14 3.192.924 1.008.728 1.512 1.68 1.512 2.856v2.184c0 1.4-.448 2.66-1.344 3.78-.84 1.064-1.932 1.68-3.276 1.848-1.96.28-4.34.42-7.14.42-5.992 0-10.22-1.288-12.684-3.864-2.464-2.576-3.696-7.168-3.696-13.776V38.676c0-.504-.252-.756-.756-.756h-3.276c-1.288 0-2.408-.476-3.36-1.428s-1.428-2.072-1.428-3.36v-1.344c0-1.288.476-2.408 1.428-3.36S487.595 27 488.883 27h3.276c.504 0 .756-.252.756-.756V15.828c0-1.288.476-2.408 1.428-3.36s2.072-1.428 3.36-1.428h6.384c1.288 0 2.408.476 3.36 1.428s1.428 2.072 1.428 3.36v10.416c0 .504.252.756.756.756h7.476zm47.525-1.512c1.288-.168 2.408.224 3.36 1.176s1.428 2.1 1.428 3.444v2.184c0 1.288-.448 2.408-1.344 3.36-.896.896-2.016 1.428-3.36 1.596-4.312.56-7.756 2.184-10.332 4.872-2.576 2.632-3.864 5.852-3.864 9.66v12.432c0 1.288-.476 2.408-1.428 3.36S547.02 69 545.732 69h-6.804c-1.288 0-2.408-.476-3.36-1.428s-1.428-2.072-1.428-3.36V30.108c0-1.288.476-2.408 1.428-3.36s2.072-1.428 3.36-1.428h6.384c1.288 0 2.408.476 3.36 1.428s1.428 2.072 1.428 3.36v3.528c0 .056.028.084.084.084.056 0 .112-.028.168-.084 3.528-4.648 8.288-7.364 14.28-8.148zm29.095-.168c1.288 0 2.408.476 3.36 1.428s1.428 2.072 1.428 3.36v34.104c0 1.288-.476 2.408-1.428 3.36S595.015 69 593.727 69h-7.224c-1.288 0-2.408-.476-3.36-1.428s-1.428-2.072-1.428-3.36V30.108c0-1.288.476-2.408 1.428-3.36s2.072-1.428 3.36-1.428h7.224zm0-19.32c1.288 0 2.408.476 3.36 1.428s1.428 2.072 1.428 3.36v2.184c0 1.288-.476 2.408-1.428 3.36s-2.072 1.428-3.36 1.428h-7.224c-1.288 0-2.408-.476-3.36-1.428s-1.428-2.072-1.428-3.36v-2.184c0-1.288.476-2.408 1.428-3.36S585.215 6 586.503 6h7.224zm41.43 52.08c2.184 0 3.92-.896 5.208-2.688 1.288-1.848 1.932-4.592 1.932-8.232 0-7.28-2.38-10.92-7.14-10.92-1.792 0-3.444.672-4.956 2.016-1.456 1.344-2.184 2.772-2.184 4.284v9.24c0 1.512.728 2.94 2.184 4.284 1.512 1.344 3.164 2.016 4.956 2.016zm5.88-33.6c5.152 0 9.24 1.96 12.264 5.88 3.024 3.864 4.536 9.464 4.536 16.8 0 7.168-1.596 12.74-4.788 16.716-3.136 3.976-7.14 5.964-12.012 5.964-4.424 0-8.54-1.68-12.348-5.04-.056-.056-.112-.084-.168-.084-.056 0-.084.028-.084.084v17.892c0 1.288-.476 2.408-1.428 3.36s-2.072 1.428-3.36 1.428h-6.384c-1.288 0-2.408-.476-3.36-1.428s-1.428-2.072-1.428-3.36V30.108c0-1.288.476-2.408 1.428-3.36s2.072-1.428 3.36-1.428h5.712c1.344 0 2.492.476 3.444 1.428.952.896 1.456 2.016 1.512 3.36v.672c0 .056.028.084.084.084.056 0 .112-.028.168-.084 3.472-4.2 7.756-6.3 12.852-6.3zm-585.057 101c4.816 0 8.316 1.316 10.5 3.948 2.24 2.576 3.36 6.86 3.36 12.852v22.932c0 1.288-.476 2.408-1.428 3.36S66.34 170 65.052 170h-5.964c-1.288 0-2.408-.476-3.36-1.428-.896-.952-1.344-2.072-1.344-3.36V142.28c0-1.904-.28-3.192-.84-3.864-.56-.672-1.568-1.008-3.024-1.008-1.12 0-2.184.364-3.192 1.092-.952.728-1.428 1.428-1.428 2.1v24.612c0 1.288-.476 2.408-1.428 3.36S42.4 170 41.112 170h-5.964c-1.288 0-2.408-.476-3.36-1.428-.896-.952-1.344-2.072-1.344-3.36V142.28c0-1.904-.28-3.192-.84-3.864-.56-.672-1.568-1.008-3.024-1.008-1.12 0-2.184.364-3.192 1.092-.952.728-1.428 1.428-1.428 2.1v24.612c0 1.288-.476 2.408-1.428 3.36S18.46 170 17.172 170h-6.384c-1.288 0-2.408-.476-3.36-1.428S6 166.5 6 165.212v-34.104c0-1.288.476-2.408 1.428-3.36s2.072-1.428 3.36-1.428h5.124c1.344 0 2.492.476 3.444 1.428.952.896 1.484 2.016 1.596 3.36l.084 1.008c0 .056.028.084.084.084.112 0 .168-.028.168-.084 1.512-2.072 3.304-3.696 5.376-4.872 2.128-1.176 4.2-1.764 6.216-1.764 2.576 0 4.62.448 6.132 1.344 1.568.896 3.052 2.52 4.452 4.872 0 .056.028.084.084.084.112 0 .196-.028.252-.084 4.144-4.144 8.204-6.216 12.18-6.216zm40.308 31.836c1.064 1.736 2.772 2.604 5.124 2.604s4.06-.868 5.124-2.604c1.064-1.792 1.596-4.844 1.596-9.156s-.532-7.336-1.596-9.072c-1.064-1.792-2.772-2.688-5.124-2.688s-4.06.896-5.124 2.688c-1.064 1.736-1.596 4.76-1.596 9.072 0 4.312.532 7.364 1.596 9.156zm-11.592-25.788c3.976-4.032 9.548-6.048 16.716-6.048 7.168 0 12.74 2.016 16.716 6.048 3.976 3.976 5.964 9.52 5.964 16.632 0 7.112-1.988 12.684-5.964 16.716-3.976 3.976-9.548 5.964-16.716 5.964-7.168 0-12.74-1.988-16.716-5.964-3.976-4.032-5.964-9.604-5.964-16.716 0-7.112 1.988-12.656 5.964-16.632zm79.187-5.04c1.288-.168 2.408.224 3.36 1.176s1.428 2.1 1.428 3.444v2.184c0 1.288-.448 2.408-1.344 3.36-.896.896-2.016 1.428-3.36 1.596-4.312.56-7.756 2.184-10.332 4.872-2.576 2.632-3.864 5.852-3.864 9.66v12.432c0 1.288-.476 2.408-1.428 3.36s-2.072 1.428-3.36 1.428h-6.804c-1.288 0-2.408-.476-3.36-1.428s-1.428-2.072-1.428-3.36v-34.104c0-1.288.476-2.408 1.428-3.36s2.072-1.428 3.36-1.428h6.384c1.288 0 2.408.476 3.36 1.428s1.428 2.072 1.428 3.36v3.528c0 .056.028.084.084.084.056 0 .112-.028.168-.084 3.528-4.648 8.288-7.364 14.28-8.148zm39.046 17.472c.504 0 .756-.252.756-.756-.056-2.576-.616-4.424-1.68-5.544-1.008-1.12-2.548-1.68-4.62-1.68-2.184 0-3.836.56-4.956 1.68-1.064 1.064-1.736 2.94-2.016 5.628 0 .448.224.672.672.672h11.844zm-5.964-18.48c14.224 0 21.364 7.504 21.42 22.512 0 1.344-.504 2.492-1.512 3.444-1.008.896-2.212 1.344-3.612 1.344h-22.008c-.504 0-.7.252-.588.756.504 2.352 1.596 4.004 3.276 4.956 1.736.952 4.424 1.428 8.064 1.428 2.296 0 5.096-.336 8.4-1.008 1.176-.28 2.24-.028 3.192.756.952.728 1.428 1.708 1.428 2.94v1.344c0 1.4-.448 2.688-1.344 3.864-.84 1.12-1.932 1.792-3.276 2.016-3.416.672-7.056 1.008-10.92 1.008-7.952 0-14.084-1.932-18.396-5.796-4.256-3.92-6.384-9.548-6.384-16.884 0-7.28 1.904-12.88 5.712-16.8s9.324-5.88 16.548-5.88zm90.209-17.22c1.344.168 2.436.812 3.276 1.932.896 1.064 1.344 2.296 1.344 3.696v1.764c0 1.176-.476 2.128-1.428 2.856-.896.728-1.932 1.008-3.108.84-1.008-.112-1.736-.168-2.184-.168-2.632 0-4.34.448-5.124 1.344-.784.84-1.176 2.772-1.176 5.796v.924c0 .504.252.756.756.756h6.636c1.288 0 2.408.476 3.36 1.428s1.428 2.072 1.428 3.36v1.344c0 1.288-.476 2.408-1.428 3.36s-2.072 1.428-3.36 1.428h-6.636c-.504 0-.756.252-.756.756v25.536c0 1.288-.476 2.408-1.428 3.36s-2.072 1.428-3.36 1.428h-6.804c-1.288 0-2.408-.476-3.36-1.428s-1.428-2.072-1.428-3.36v-25.536c0-.504-.252-.756-.756-.756h-3.696c-1.288 0-2.408-.476-3.36-1.428s-1.428-2.072-1.428-3.36v-1.344c0-1.288.476-2.408 1.428-3.36s2.072-1.428 3.36-1.428h3.696c.504 0 .756-.252.756-.756v-.924c0-6.384 1.484-11.06 4.452-14.028s7.644-4.452 14.028-4.452c1.96 0 4.06.14 6.3.42zm51.095 18.06c1.288 0 2.408.476 3.36 1.428s1.428 2.072 1.428 3.36v34.104c0 1.288-.476 2.408-1.428 3.36s-2.072 1.428-3.36 1.428h-5.712c-1.344 0-2.492-.448-3.444-1.344-.952-.952-1.456-2.1-1.512-3.444v-.672c0-.056-.028-.084-.084-.084-.112 0-.168.028-.168.084-3.472 4.2-7.756 6.3-12.852 6.3-4.928 0-8.484-1.372-10.668-4.116-2.128-2.744-3.192-7.532-3.192-14.364v-21.252c0-1.288.476-2.408 1.428-3.36s2.072-1.428 3.36-1.428h5.964c1.288 0 2.408.476 3.36 1.428s1.428 2.072 1.428 3.36v20.412c0 2.576.336 4.34 1.008 5.292.728.952 1.932 1.428 3.612 1.428 1.568 0 2.996-.616 4.284-1.848 1.344-1.232 2.016-2.576 2.016-4.032v-21.252c0-1.288.476-2.408 1.428-3.36s2.072-1.428 3.36-1.428h6.384zm32.758 5.46c3.472-4.2 7.756-6.3 12.852-6.3s8.736 1.456 10.92 4.368c2.24 2.912 3.36 7.896 3.36 14.952v20.412c0 1.288-.476 2.408-1.428 3.36s-2.072 1.428-3.36 1.428h-5.964c-1.288 0-2.408-.476-3.36-1.428s-1.428-2.072-1.428-3.36V144.8c0-2.576-.364-4.34-1.092-5.292-.728-.952-2.044-1.428-3.948-1.428-1.568 0-3.024.616-4.368 1.848-1.288 1.232-1.932 2.576-1.932 4.032v21.252c0 1.288-.476 2.408-1.428 3.36s-2.072 1.428-3.36 1.428h-6.384c-1.288 0-2.408-.476-3.36-1.428s-1.428-2.072-1.428-3.36v-34.104c0-1.288.476-2.408 1.428-3.36s2.072-1.428 3.36-1.428h5.712c1.344 0 2.492.476 3.444 1.428.952.896 1.456 2.016 1.512 3.36v.672c0 .056.028.084.084.084.112 0 .168-.028.168-.084zm54.336 20.58c1.288 0 2.408.476 3.36 1.428s1.428 2.072 1.428 3.36v8.064c0 1.288-.476 2.408-1.428 3.36s-2.072 1.428-3.36 1.428h-8.904c-1.288 0-2.408-.476-3.36-1.428s-1.428-2.072-1.428-3.36v-8.064c0-1.288.476-2.408 1.428-3.36s2.072-1.428 3.36-1.428h8.904z"/></mask><path d="M62.532 7.68c1.288 0 2.408.476 3.36 1.428s1.428 2.072 1.428 3.36v51.744c0 1.288-.476 2.408-1.428 3.36S63.82 69 62.532 69H56.4c-1.288 0-2.408-.476-3.36-1.428s-1.428-2.072-1.428-3.36V35.484c0-.056-.028-.084-.084-.084-.056 0-.084.028-.084.084l-6.132 16.464a6.937 6.937 0 01-2.52 3.276c-1.176.784-2.492 1.176-3.948 1.176H34.98c-1.456 0-2.772-.392-3.948-1.176a6.937 6.937 0 01-2.52-3.276L22.38 35.484c0-.056-.028-.084-.084-.084-.056 0-.084.028-.084.084v28.728c0 1.288-.476 2.408-1.428 3.36S18.712 69 17.424 69h-5.796c-1.288 0-2.408-.476-3.36-1.428S6.84 65.5 6.84 64.212V12.468c0-1.288.476-2.408 1.428-3.36s2.072-1.428 3.36-1.428h7.476c1.456 0 2.772.42 3.948 1.26a6.024 6.024 0 012.436 3.192l11.34 31.584c0 .056.028.084.084.084.056 0 .084-.028.084-.084l11.34-31.584a6.024 6.024 0 012.436-3.192 6.632 6.632 0 013.948-1.26h7.812zm41.85 43.68v-.504c0-.504-.252-.756-.756-.756h-2.604c-5.6 0-8.4 1.68-8.4 5.04 0 2.52 1.4 3.78 4.2 3.78 2.184 0 3.976-.672 5.376-2.016 1.456-1.4 2.184-3.248 2.184-5.544zm-5.04-26.88c7.392 0 12.74 1.344 16.044 4.032 3.304 2.688 4.956 6.944 4.956 12.768v22.932c0 1.288-.476 2.408-1.428 3.36S116.842 69 115.554 69h-5.292c-1.344 0-2.492-.448-3.444-1.344-.952-.952-1.456-2.1-1.512-3.444v-.672c0-.056-.028-.084-.084-.084-.056 0-.112.028-.168.084-3.584 4.2-8.008 6.3-13.272 6.3-3.92 0-7.14-1.232-9.66-3.696-2.52-2.52-3.78-5.768-3.78-9.744 0-10.08 7.56-15.12 22.68-15.12h2.604c.504 0 .756-.252.756-.756v-.084c0-3.36-1.96-5.04-5.88-5.04-3.36 0-7.7.504-13.02 1.512-1.176.224-2.24-.028-3.192-.756-.952-.784-1.428-1.792-1.428-3.024v-1.344c0-1.4.42-2.66 1.26-3.78.896-1.12 2.016-1.792 3.36-2.016 5.544-1.008 10.164-1.512 13.86-1.512zm62.219 22.428l13.524 18.228c.56.784.616 1.624.168 2.52-.448.896-1.148 1.344-2.1 1.344h-8.484c-3.248 0-5.768-1.288-7.56-3.864l-8.316-12.012c0-.056-.056-.084-.168-.084-.056 0-.084.028-.084.084v11.088c0 1.288-.476 2.408-1.428 3.36S145.041 69 143.753 69h-6.384c-1.288 0-2.408-.476-3.36-1.428s-1.428-2.072-1.428-3.36V10.788c0-1.288.476-2.408 1.428-3.36S136.081 6 137.369 6h6.384c1.288 0 2.408.476 3.36 1.428s1.428 2.072 1.428 3.36v29.568c0 .056.028.084.084.084l.168-.084 8.232-11.172c1.848-2.576 4.396-3.864 7.644-3.864h8.484c.952 0 1.652.42 2.1 1.26.448.84.364 1.652-.252 2.436l-13.44 16.716c-.28.392-.28.784 0 1.176zm45.716-3.948c.504 0 .756-.252.756-.756-.056-2.576-.616-4.424-1.68-5.544-1.008-1.12-2.548-1.68-4.62-1.68-2.184 0-3.836.56-4.956 1.68-1.064 1.064-1.736 2.94-2.016 5.628 0 .448.224.672.672.672h11.844zm-5.964-18.48c14.224 0 21.364 7.504 21.42 22.512 0 1.344-.504 2.492-1.512 3.444-1.008.896-2.212 1.344-3.612 1.344h-22.008c-.504 0-.7.252-.588.756.504 2.352 1.596 4.004 3.276 4.956 1.736.952 4.424 1.428 8.064 1.428 2.296 0 5.096-.336 8.4-1.008 1.176-.28 2.24-.028 3.192.756.952.728 1.428 1.708 1.428 2.94v1.344c0 1.4-.448 2.688-1.344 3.864-.84 1.12-1.932 1.792-3.276 2.016-3.416.672-7.056 1.008-10.92 1.008-7.952 0-14.084-1.932-18.396-5.796-4.256-3.92-6.384-9.548-6.384-16.884 0-7.28 1.904-12.88 5.712-16.8s9.324-5.88 16.548-5.88zm96.76.84c1.176 0 2.072.476 2.688 1.428.672.896.84 1.904.504 3.024l-19.068 53.256c-.504 1.344-1.344 2.408-2.52 3.192-1.176.84-2.464 1.26-3.864 1.26h-7.224c-1.176 0-2.1-.476-2.772-1.428-.616-.896-.7-1.876-.252-2.94l5.544-13.44a2.762 2.762 0 000-1.344l-14.448-38.556c-.448-1.064-.336-2.072.336-3.024s1.596-1.428 2.772-1.428h8.064c1.344 0 2.548.448 3.612 1.344 1.12.896 1.82 2.016 2.1 3.36l4.872 24.612c0 .056.028.084.084.084.056 0 .084-.028.084-.084l6.3-24.696c.336-1.344 1.064-2.436 2.184-3.276 1.12-.896 2.38-1.344 3.78-1.344h7.224zm24.162 30.996c1.064 1.736 2.772 2.604 5.124 2.604s4.06-.868 5.124-2.604c1.064-1.792 1.596-4.844 1.596-9.156s-.532-7.336-1.596-9.072c-1.064-1.792-2.772-2.688-5.124-2.688s-4.06.896-5.124 2.688c-1.064 1.736-1.596 4.76-1.596 9.072 0 4.312.532 7.364 1.596 9.156zm-11.592-25.788c3.976-4.032 9.548-6.048 16.716-6.048 7.168 0 12.74 2.016 16.716 6.048 3.976 3.976 5.964 9.52 5.964 16.632 0 7.112-1.988 12.684-5.964 16.716-3.976 3.976-9.548 5.964-16.716 5.964-7.168 0-12.74-1.988-16.716-5.964-3.976-4.032-5.964-9.604-5.964-16.716 0-7.112 1.988-12.656 5.964-16.632zm85.907-5.208c1.288 0 2.408.476 3.36 1.428s1.428 2.072 1.428 3.36v34.104c0 1.288-.476 2.408-1.428 3.36S397.838 69 396.55 69h-5.712c-1.344 0-2.492-.448-3.444-1.344-.952-.952-1.456-2.1-1.512-3.444v-.672c0-.056-.028-.084-.084-.084-.112 0-.168.028-.168.084-3.472 4.2-7.756 6.3-12.852 6.3-4.928 0-8.484-1.372-10.668-4.116-2.128-2.744-3.192-7.532-3.192-14.364V30.108c0-1.288.476-2.408 1.428-3.36s2.072-1.428 3.36-1.428h5.964c1.288 0 2.408.476 3.36 1.428s1.428 2.072 1.428 3.36V50.52c0 2.576.336 4.34 1.008 5.292.728.952 1.932 1.428 3.612 1.428 1.568 0 2.996-.616 4.284-1.848 1.344-1.232 2.016-2.576 2.016-4.032V30.108c0-1.288.476-2.408 1.428-3.36s2.072-1.428 3.36-1.428h6.384zm47.542.168c1.288-.168 2.408.224 3.36 1.176s1.428 2.1 1.428 3.444v2.184c0 1.288-.448 2.408-1.344 3.36-.896.896-2.016 1.428-3.36 1.596-4.312.56-7.756 2.184-10.332 4.872-2.576 2.632-3.864 5.852-3.864 9.66v12.432c0 1.288-.476 2.408-1.428 3.36S426.48 69 425.192 69h-6.804c-1.288 0-2.408-.476-3.36-1.428s-1.428-2.072-1.428-3.36V30.108c0-1.288.476-2.408 1.428-3.36s2.072-1.428 3.36-1.428h6.384c1.288 0 2.408.476 3.36 1.428s1.428 2.072 1.428 3.36v3.528c0 .056.028.084.084.084.056 0 .112-.028.168-.084 3.528-4.648 8.288-7.364 14.28-8.148zM517.107 27c1.288 0 2.408.476 3.36 1.428s1.428 2.072 1.428 3.36v1.344c0 1.288-.476 2.408-1.428 3.36s-2.072 1.428-3.36 1.428h-7.476c-.504 0-.756.252-.756.756V50.52c0 3.36.28 5.46.84 6.3.56.84 1.82 1.26 3.78 1.26.784 0 1.736-.084 2.856-.252 1.176-.168 2.24.14 3.192.924 1.008.728 1.512 1.68 1.512 2.856v2.184c0 1.4-.448 2.66-1.344 3.78-.84 1.064-1.932 1.68-3.276 1.848-1.96.28-4.34.42-7.14.42-5.992 0-10.22-1.288-12.684-3.864-2.464-2.576-3.696-7.168-3.696-13.776V38.676c0-.504-.252-.756-.756-.756h-3.276c-1.288 0-2.408-.476-3.36-1.428s-1.428-2.072-1.428-3.36v-1.344c0-1.288.476-2.408 1.428-3.36S487.595 27 488.883 27h3.276c.504 0 .756-.252.756-.756V15.828c0-1.288.476-2.408 1.428-3.36s2.072-1.428 3.36-1.428h6.384c1.288 0 2.408.476 3.36 1.428s1.428 2.072 1.428 3.36v10.416c0 .504.252.756.756.756h7.476zm47.525-1.512c1.288-.168 2.408.224 3.36 1.176s1.428 2.1 1.428 3.444v2.184c0 1.288-.448 2.408-1.344 3.36-.896.896-2.016 1.428-3.36 1.596-4.312.56-7.756 2.184-10.332 4.872-2.576 2.632-3.864 5.852-3.864 9.66v12.432c0 1.288-.476 2.408-1.428 3.36S547.02 69 545.732 69h-6.804c-1.288 0-2.408-.476-3.36-1.428s-1.428-2.072-1.428-3.36V30.108c0-1.288.476-2.408 1.428-3.36s2.072-1.428 3.36-1.428h6.384c1.288 0 2.408.476 3.36 1.428s1.428 2.072 1.428 3.36v3.528c0 .056.028.084.084.084.056 0 .112-.028.168-.084 3.528-4.648 8.288-7.364 14.28-8.148zm29.095-.168c1.288 0 2.408.476 3.36 1.428s1.428 2.072 1.428 3.36v34.104c0 1.288-.476 2.408-1.428 3.36S595.015 69 593.727 69h-7.224c-1.288 0-2.408-.476-3.36-1.428s-1.428-2.072-1.428-3.36V30.108c0-1.288.476-2.408 1.428-3.36s2.072-1.428 3.36-1.428h7.224zm0-19.32c1.288 0 2.408.476 3.36 1.428s1.428 2.072 1.428 3.36v2.184c0 1.288-.476 2.408-1.428 3.36s-2.072 1.428-3.36 1.428h-7.224c-1.288 0-2.408-.476-3.36-1.428s-1.428-2.072-1.428-3.36v-2.184c0-1.288.476-2.408 1.428-3.36S585.215 6 586.503 6h7.224zm41.43 52.08c2.184 0 3.92-.896 5.208-2.688 1.288-1.848 1.932-4.592 1.932-8.232 0-7.28-2.38-10.92-7.14-10.92-1.792 0-3.444.672-4.956 2.016-1.456 1.344-2.184 2.772-2.184 4.284v9.24c0 1.512.728 2.94 2.184 4.284 1.512 1.344 3.164 2.016 4.956 2.016zm5.88-33.6c5.152 0 9.24 1.96 12.264 5.88 3.024 3.864 4.536 9.464 4.536 16.8 0 7.168-1.596 12.74-4.788 16.716-3.136 3.976-7.14 5.964-12.012 5.964-4.424 0-8.54-1.68-12.348-5.04-.056-.056-.112-.084-.168-.084-.056 0-.084.028-.084.084v17.892c0 1.288-.476 2.408-1.428 3.36s-2.072 1.428-3.36 1.428h-6.384c-1.288 0-2.408-.476-3.36-1.428s-1.428-2.072-1.428-3.36V30.108c0-1.288.476-2.408 1.428-3.36s2.072-1.428 3.36-1.428h5.712c1.344 0 2.492.476 3.444 1.428.952.896 1.456 2.016 1.512 3.36v.672c0 .056.028.084.084.084.056 0 .112-.028.168-.084 3.472-4.2 7.756-6.3 12.852-6.3zm-585.057 101c4.816 0 8.316 1.316 10.5 3.948 2.24 2.576 3.36 6.86 3.36 12.852v22.932c0 1.288-.476 2.408-1.428 3.36S66.34 170 65.052 170h-5.964c-1.288 0-2.408-.476-3.36-1.428-.896-.952-1.344-2.072-1.344-3.36V142.28c0-1.904-.28-3.192-.84-3.864-.56-.672-1.568-1.008-3.024-1.008-1.12 0-2.184.364-3.192 1.092-.952.728-1.428 1.428-1.428 2.1v24.612c0 1.288-.476 2.408-1.428 3.36S42.4 170 41.112 170h-5.964c-1.288 0-2.408-.476-3.36-1.428-.896-.952-1.344-2.072-1.344-3.36V142.28c0-1.904-.28-3.192-.84-3.864-.56-.672-1.568-1.008-3.024-1.008-1.12 0-2.184.364-3.192 1.092-.952.728-1.428 1.428-1.428 2.1v24.612c0 1.288-.476 2.408-1.428 3.36S18.46 170 17.172 170h-6.384c-1.288 0-2.408-.476-3.36-1.428S6 166.5 6 165.212v-34.104c0-1.288.476-2.408 1.428-3.36s2.072-1.428 3.36-1.428h5.124c1.344 0 2.492.476 3.444 1.428.952.896 1.484 2.016 1.596 3.36l.084 1.008c0 .056.028.084.084.084.112 0 .168-.028.168-.084 1.512-2.072 3.304-3.696 5.376-4.872 2.128-1.176 4.2-1.764 6.216-1.764 2.576 0 4.62.448 6.132 1.344 1.568.896 3.052 2.52 4.452 4.872 0 .056.028.084.084.084.112 0 .196-.028.252-.084 4.144-4.144 8.204-6.216 12.18-6.216zm40.308 31.836c1.064 1.736 2.772 2.604 5.124 2.604s4.06-.868 5.124-2.604c1.064-1.792 1.596-4.844 1.596-9.156s-.532-7.336-1.596-9.072c-1.064-1.792-2.772-2.688-5.124-2.688s-4.06.896-5.124 2.688c-1.064 1.736-1.596 4.76-1.596 9.072 0 4.312.532 7.364 1.596 9.156zm-11.592-25.788c3.976-4.032 9.548-6.048 16.716-6.048 7.168 0 12.74 2.016 16.716 6.048 3.976 3.976 5.964 9.52 5.964 16.632 0 7.112-1.988 12.684-5.964 16.716-3.976 3.976-9.548 5.964-16.716 5.964-7.168 0-12.74-1.988-16.716-5.964-3.976-4.032-5.964-9.604-5.964-16.716 0-7.112 1.988-12.656 5.964-16.632zm79.187-5.04c1.288-.168 2.408.224 3.36 1.176s1.428 2.1 1.428 3.444v2.184c0 1.288-.448 2.408-1.344 3.36-.896.896-2.016 1.428-3.36 1.596-4.312.56-7.756 2.184-10.332 4.872-2.576 2.632-3.864 5.852-3.864 9.66v12.432c0 1.288-.476 2.408-1.428 3.36s-2.072 1.428-3.36 1.428h-6.804c-1.288 0-2.408-.476-3.36-1.428s-1.428-2.072-1.428-3.36v-34.104c0-1.288.476-2.408 1.428-3.36s2.072-1.428 3.36-1.428h6.384c1.288 0 2.408.476 3.36 1.428s1.428 2.072 1.428 3.36v3.528c0 .056.028.084.084.084.056 0 .112-.028.168-.084 3.528-4.648 8.288-7.364 14.28-8.148zm39.046 17.472c.504 0 .756-.252.756-.756-.056-2.576-.616-4.424-1.68-5.544-1.008-1.12-2.548-1.68-4.62-1.68-2.184 0-3.836.56-4.956 1.68-1.064 1.064-1.736 2.94-2.016 5.628 0 .448.224.672.672.672h11.844zm-5.964-18.48c14.224 0 21.364 7.504 21.42 22.512 0 1.344-.504 2.492-1.512 3.444-1.008.896-2.212 1.344-3.612 1.344h-22.008c-.504 0-.7.252-.588.756.504 2.352 1.596 4.004 3.276 4.956 1.736.952 4.424 1.428 8.064 1.428 2.296 0 5.096-.336 8.4-1.008 1.176-.28 2.24-.028 3.192.756.952.728 1.428 1.708 1.428 2.94v1.344c0 1.4-.448 2.688-1.344 3.864-.84 1.12-1.932 1.792-3.276 2.016-3.416.672-7.056 1.008-10.92 1.008-7.952 0-14.084-1.932-18.396-5.796-4.256-3.92-6.384-9.548-6.384-16.884 0-7.28 1.904-12.88 5.712-16.8s9.324-5.88 16.548-5.88zm90.209-17.22c1.344.168 2.436.812 3.276 1.932.896 1.064 1.344 2.296 1.344 3.696v1.764c0 1.176-.476 2.128-1.428 2.856-.896.728-1.932 1.008-3.108.84-1.008-.112-1.736-.168-2.184-.168-2.632 0-4.34.448-5.124 1.344-.784.84-1.176 2.772-1.176 5.796v.924c0 .504.252.756.756.756h6.636c1.288 0 2.408.476 3.36 1.428s1.428 2.072 1.428 3.36v1.344c0 1.288-.476 2.408-1.428 3.36s-2.072 1.428-3.36 1.428h-6.636c-.504 0-.756.252-.756.756v25.536c0 1.288-.476 2.408-1.428 3.36s-2.072 1.428-3.36 1.428h-6.804c-1.288 0-2.408-.476-3.36-1.428s-1.428-2.072-1.428-3.36v-25.536c0-.504-.252-.756-.756-.756h-3.696c-1.288 0-2.408-.476-3.36-1.428s-1.428-2.072-1.428-3.36v-1.344c0-1.288.476-2.408 1.428-3.36s2.072-1.428 3.36-1.428h3.696c.504 0 .756-.252.756-.756v-.924c0-6.384 1.484-11.06 4.452-14.028s7.644-4.452 14.028-4.452c1.96 0 4.06.14 6.3.42zm51.095 18.06c1.288 0 2.408.476 3.36 1.428s1.428 2.072 1.428 3.36v34.104c0 1.288-.476 2.408-1.428 3.36s-2.072 1.428-3.36 1.428h-5.712c-1.344 0-2.492-.448-3.444-1.344-.952-.952-1.456-2.1-1.512-3.444v-.672c0-.056-.028-.084-.084-.084-.112 0-.168.028-.168.084-3.472 4.2-7.756 6.3-12.852 6.3-4.928 0-8.484-1.372-10.668-4.116-2.128-2.744-3.192-7.532-3.192-14.364v-21.252c0-1.288.476-2.408 1.428-3.36s2.072-1.428 3.36-1.428h5.964c1.288 0 2.408.476 3.36 1.428s1.428 2.072 1.428 3.36v20.412c0 2.576.336 4.34 1.008 5.292.728.952 1.932 1.428 3.612 1.428 1.568 0 2.996-.616 4.284-1.848 1.344-1.232 2.016-2.576 2.016-4.032v-21.252c0-1.288.476-2.408 1.428-3.36s2.072-1.428 3.36-1.428h6.384zm32.758 5.46c3.472-4.2 7.756-6.3 12.852-6.3s8.736 1.456 10.92 4.368c2.24 2.912 3.36 7.896 3.36 14.952v20.412c0 1.288-.476 2.408-1.428 3.36s-2.072 1.428-3.36 1.428h-5.964c-1.288 0-2.408-.476-3.36-1.428s-1.428-2.072-1.428-3.36V144.8c0-2.576-.364-4.34-1.092-5.292-.728-.952-2.044-1.428-3.948-1.428-1.568 0-3.024.616-4.368 1.848-1.288 1.232-1.932 2.576-1.932 4.032v21.252c0 1.288-.476 2.408-1.428 3.36s-2.072 1.428-3.36 1.428h-6.384c-1.288 0-2.408-.476-3.36-1.428s-1.428-2.072-1.428-3.36v-34.104c0-1.288.476-2.408 1.428-3.36s2.072-1.428 3.36-1.428h5.712c1.344 0 2.492.476 3.444 1.428.952.896 1.456 2.016 1.512 3.36v.672c0 .056.028.084.084.084.112 0 .168-.028.168-.084zm54.336 20.58c1.288 0 2.408.476 3.36 1.428s1.428 2.072 1.428 3.36v8.064c0 1.288-.476 2.408-1.428 3.36s-2.072 1.428-3.36 1.428h-8.904c-1.288 0-2.408-.476-3.36-1.428s-1.428-2.072-1.428-3.36v-8.064c0-1.288.476-2.408 1.428-3.36s2.072-1.428 3.36-1.428h8.904z" fill="#209D8C"/><path d="M65.892 67.572l-4.243-4.243 4.243 4.243zM51.444 35.484l5.623 2.094a6 6 0 00.377-2.094h-6zm-6.132 16.464l5.618 2.107.005-.013-5.623-2.094zm-2.52 3.276l3.328 4.992c.054-.035.107-.072.16-.11l-3.488-4.882zm-11.76 0l-3.487 4.882c.052.038.105.075.159.11l3.328-4.992zm-2.52-3.276l-5.623 2.094.005.013 5.618-2.107zM22.38 35.484h-6a6 6 0 00.377 2.094l5.623-2.094zm-1.596 32.088l-4.243-4.243 4.243 4.243zm-12.516 0l-4.243 4.243 4.243-4.243zm0-58.464L4.025 4.865l4.243 4.243zm14.784-.168l-3.487 4.882c.052.038.105.075.159.11l3.328-4.992zm2.436 3.192l-5.692 1.897c.014.044.03.087.045.13l5.647-2.027zm11.34 31.584h6a6 6 0 00-.353-2.028l-5.647 2.028zm.168 0l-5.647-2.028a5.998 5.998 0 00-.353 2.028h6zm11.34-31.584l5.647 2.027c.016-.043.03-.086.045-.13l-5.692-1.897zm2.436-3.192l3.328 4.992c.054-.036.107-.072.16-.11L50.771 8.94zm11.76-1.26v6c-.115 0-.316-.025-.54-.121a1.168 1.168 0 01-.343-.208l4.243-4.243 4.243-4.243c-2.02-2.02-4.645-3.185-7.603-3.185v6zm3.36 1.428l-4.243 4.243a1.168 1.168 0 01-.208-.342 1.449 1.449 0 01-.121-.541h12c0-2.958-1.165-5.582-3.185-7.603l-4.243 4.243zm1.428 3.36h-6v51.744h12V12.468h-6zm0 51.744h-6c0-.115.025-.316.121-.54.093-.22.198-.332.208-.343l4.243 4.243 4.243 4.243c2.02-2.02 3.185-4.645 3.185-7.603h-6zm-1.428 3.36l-4.243-4.243c.01-.01.122-.115.342-.208a1.44 1.44 0 01.541-.121v12c2.958 0 5.582-1.165 7.603-3.185l-4.243-4.243zM62.532 69v-6H56.4v12h6.132v-6zM56.4 69v-6c.115 0 .316.025.54.121.22.093.333.198.343.208l-4.243 4.243-4.243 4.243C50.817 73.835 53.442 75 56.4 75v-6zm-3.36-1.428l4.243-4.243c.01.01.115.122.208.342.096.225.121.426.121.541h-12c0 2.958 1.165 5.582 3.185 7.603l4.243-4.243zm-1.428-3.36h6V35.484h-12v28.728h6zm0-28.728h6c0-.953-.242-2.77-1.778-4.306S52.48 29.4 51.528 29.4v12a5.916 5.916 0 01-4.18-1.736 5.916 5.916 0 01-1.736-4.18h6zm-.084-.084v-6c-.953 0-2.77.242-4.306 1.778s-1.778 3.353-1.778 4.306h12c0 .897-.228 2.672-1.736 4.18a5.916 5.916 0 01-4.18 1.736v-6zm-.084.084l-5.623-2.094-6.132 16.464 5.623 2.094 5.623 2.094 6.132-16.464-5.623-2.094zm-6.132 16.464l-5.618-2.107a.954.954 0 01-.39.5l3.488 4.883 3.487 4.882a12.935 12.935 0 004.651-6.051l-5.618-2.107zm-2.52 3.276l-3.328-4.992c-.16.106-.31.168-.62.168v12c2.603 0 5.084-.722 7.276-2.184l-3.328-4.992zM38.844 56.4v-6H34.98v12h3.864v-6zm-3.864 0v-6c-.31 0-.46-.062-.62-.168l-3.328 4.992-3.328 4.992c2.192 1.462 4.673 2.184 7.276 2.184v-6zm-3.948-1.176l3.487-4.882a.954.954 0 01-.389-.5l-5.618 2.106-5.618 2.107a12.935 12.935 0 004.65 6.051l3.488-4.882zm-2.52-3.276l5.623-2.094-6.132-16.464-5.623 2.094-5.623 2.094 6.132 16.464 5.623-2.094zM22.38 35.484h6c0-.953-.242-2.77-1.778-4.306-1.537-1.536-3.353-1.778-4.306-1.778v12a5.917 5.917 0 01-4.18-1.736 5.917 5.917 0 01-1.736-4.18h6zm-.084-.084v-6c-.953 0-2.77.242-4.306 1.778s-1.778 3.353-1.778 4.306h12c0 .897-.228 2.672-1.736 4.18a5.916 5.916 0 01-4.18 1.736v-6zm-.084.084h-6v28.728h12V35.484h-6zm0 28.728h-6c0-.115.025-.316.121-.54.093-.22.198-.332.208-.343l4.243 4.243 4.243 4.243c2.02-2.02 3.185-4.645 3.185-7.603h-6zm-1.428 3.36l-4.243-4.243c.01-.01.122-.115.342-.208a1.44 1.44 0 01.541-.121v12c2.958 0 5.582-1.165 7.603-3.185l-4.243-4.243zM17.424 69v-6h-5.796v12h5.796v-6zm-5.796 0v-6c.115 0 .316.025.54.121.22.093.333.198.343.208l-4.243 4.243-4.243 4.243C6.045 73.835 8.67 75 11.628 75v-6zm-3.36-1.428l4.243-4.243c.01.01.115.122.208.342.096.225.121.426.121.541h-12c0 2.958 1.165 5.582 3.185 7.603l4.243-4.243zm-1.428-3.36h6V12.468h-12v51.744h6zm0-51.744h6c0 .115-.025.316-.121.54a1.18 1.18 0 01-.208.343L8.268 9.108 4.025 4.865C2.005 6.885.84 9.51.84 12.468h6zm1.428-3.36l4.243 4.243c-.01.01-.122.115-.342.208a1.448 1.448 0 01-.541.121v-12c-2.958 0-5.582 1.165-7.603 3.185l4.243 4.243zm3.36-1.428v6h7.476v-12h-7.476v6zm7.476 0v6c.216 0 .31.035.46.142l3.488-4.882 3.487-4.882a12.63 12.63 0 00-7.435-2.378v6zm3.948 1.26l-3.328 4.992c.037.025.053.04.057.043l-.008-.009-.005-.008a.505.505 0 01.028.071l5.692-1.897 5.692-1.897a12.021 12.021 0 00-4.8-6.287L23.052 8.94zm2.436 3.192l-5.647 2.027 11.34 31.584 5.647-2.027 5.647-2.028-11.34-31.584-5.647 2.028zm11.34 31.584h-6c0 .953.242 2.77 1.778 4.306S35.96 49.8 36.912 49.8v-12c.897 0 2.672.228 4.18 1.736a5.916 5.916 0 011.736 4.18h-6zm.084.084v6c.953 0 2.77-.242 4.306-1.778s1.778-3.353 1.778-4.306h-12c0-.897.228-2.672 1.736-4.18a5.917 5.917 0 014.18-1.736v6zm.084-.084l5.647 2.027 11.34-31.584-5.647-2.027-5.647-2.027-11.34 31.583 5.647 2.028zm11.34-31.584l5.692 1.897a.498.498 0 01.029-.07c.002-.005 0-.001-.006.007l-.008.01a.458.458 0 01.057-.044L50.772 8.94l-3.328-4.992a12.022 12.022 0 00-4.8 6.287l5.692 1.897zm2.436-3.192l3.487 4.882c.15-.107.245-.142.461-.142v-12a12.63 12.63 0 00-7.435 2.378l3.487 4.882zm3.948-1.26v6h7.812v-12H54.72v6zm47.478 49.224l4.155 4.328.003-.003-4.158-4.325zm4.62 10.752l-4.243 4.243c.043.043.086.085.131.126l4.112-4.369zm-1.512-3.444h-6c0 .083.002.167.005.25l5.995-.25zm-.252-.672l-4.243-4.243a5.7 5.7 0 00-.321.348l4.564 3.895zm-22.932 2.604l-4.243 4.243.048.047 4.195-4.29zm3.36-29.232l-1.117-5.895-.006.001 1.123 5.894zm-3.192-.756l-3.815 4.632c.056.046.113.09.17.134l3.645-4.766zm-.168-8.148l-4.686-3.748a6.1 6.1 0 00-.114.148l4.8 3.6zm3.36-2.016l.986 5.918.087-.015-1.073-5.903zm18.9 25.368h6v-.504h-12v.504h6zm0-.504h6c0-1.177-.299-3.162-1.947-4.81-1.648-1.648-3.632-1.946-4.809-1.946v12c-.673 0-2.28-.172-3.676-1.568a5.253 5.253 0 01-1.568-3.676h6zm-.756-.756v-6h-2.604v12h2.604v-6zm-2.604 0v-6c-3.204 0-6.605.446-9.387 2.115-3.27 1.962-5.013 5.212-5.013 8.925h12c0-.003 0 .073-.032.209a2.008 2.008 0 01-.198.5c-.226.407-.503.608-.583.656-.042.025.14-.092.714-.207.566-.113 1.38-.198 2.499-.198v-6zm-8.4 5.04h-6c0 2.358.684 5.178 3.036 7.295 2.232 2.009 4.986 2.485 7.164 2.485v-12c-.622 0 .031-.154.864.595.422.38.687.822.825 1.195.125.338.11.52.11.43h-6zm4.2 3.78v6c3.522 0 6.87-1.134 9.531-3.688l-4.155-4.328-4.155-4.328c-.14.133-.376.344-1.221.344v6zm5.376-2.016l4.158 4.325c2.798-2.69 4.026-6.185 4.026-9.869h-12c0 .908-.229 1.11-.343 1.219l4.159 4.325zM99.342 24.48v6c6.928 0 10.566 1.31 12.257 2.686l3.787-4.654 3.786-4.654c-4.916-4-11.975-5.378-19.83-5.378v6zm16.044 4.032l-3.787 4.654c1.437 1.17 2.743 3.393 2.743 8.114h12c0-6.927-1.999-13.215-7.17-17.422l-3.786 4.654zm4.956 12.768h-6v22.932h12V41.28h-6zm0 22.932h-6c0-.115.025-.316.121-.54.093-.22.198-.332.208-.343l4.243 4.243 4.242 4.243c2.021-2.02 3.186-4.645 3.186-7.603h-6zm-1.428 3.36l-4.243-4.243c.01-.01.122-.115.342-.208a1.44 1.44 0 01.541-.121v12c2.958 0 5.582-1.165 7.602-3.185l-4.242-4.243zM115.554 69v-6h-5.292v12h5.292v-6zm-5.292 0v-6c-.002 0 .03 0 .09.01.061.012.137.031.222.065.185.072.307.166.356.212l-4.112 4.369-4.112 4.37C104.805 74 107.437 75 110.262 75v-6zm-3.444-1.344l4.242-4.243c.012.012.09.098.16.256.069.158.08.274.081.293l-5.995.25-5.995.25c.119 2.849 1.249 5.421 3.264 7.437l4.243-4.243zm-1.512-3.444h6v-.672h-12v.672h6zm0-.672h6c0-.953-.243-2.77-1.779-4.306s-3.352-1.778-4.305-1.778v12a5.917 5.917 0 01-4.18-1.736 5.917 5.917 0 01-1.736-4.18h6zm-.084-.084v-6c-2.209 0-3.701 1.131-4.411 1.841l4.243 4.243 4.242 4.243a5.764 5.764 0 01-4.074 1.673v-6zm-.168.084l-4.564-3.895c-2.508 2.939-5.296 4.195-8.708 4.195v12c7.116 0 13.176-2.944 17.836-8.405l-4.564-3.895zm-13.272 6.3v-6c-2.544 0-4.197-.746-5.466-1.986l-4.194 4.29-4.195 4.29c3.771 3.688 8.559 5.406 13.855 5.406v-6zm-9.66-3.696l4.242-4.243c-1.26-1.26-2.022-2.915-2.022-5.501h-12c0 5.366 1.757 10.207 5.537 13.987l4.243-4.243zm-3.78-9.744h6c0-3.292 1.091-5.076 2.998-6.348 2.336-1.557 6.599-2.772 13.682-2.772v-12c-8.037 0-15.115 1.305-20.339 4.788-5.653 3.769-8.341 9.544-8.341 16.332h6zm22.68-15.12v6h2.604v-12h-2.604v6zm2.604 0v6c1.177 0 3.161-.298 4.809-1.946 1.648-1.648 1.947-3.633 1.947-4.81h-12c0-.673.172-2.28 1.568-3.676a5.254 5.254 0 013.676-1.568v6zm.756-.756h6v-.084h-12v.084h6zm0-.084h6c0-2.867-.88-6.033-3.566-8.335-2.508-2.15-5.636-2.705-8.314-2.705v12c.57 0 .851.063.924.084.056.016-.143-.032-.419-.269a2.193 2.193 0 01-.368-.406 1.92 1.92 0 01-.217-.4c-.081-.208-.04-.24-.04.031h6zm-5.88-5.04v-6c-3.891 0-8.643.576-14.137 1.617l1.117 5.895 1.117 5.895c5.145-.975 9.073-1.407 11.903-1.407v-6zm-13.02 1.512l-1.123-5.894c.162-.03.46-.052.826.034.364.087.62.239.75.338l-3.645 4.766-3.645 4.766c2.307 1.764 5.104 2.428 7.96 1.884l-1.123-5.894zm-3.192-.756l3.814-4.632c.134.11.362.348.54.726.179.378.218.706.218.882h-12c0 3.027 1.28 5.733 3.614 7.656l3.814-4.632zm-1.428-3.024h6v-1.344h-12v1.344h6zm0-1.344h6a.56.56 0 01.005-.088l.002-.01.004-.008a.577.577 0 01.049-.074l-4.8-3.6-4.8-3.6a12.14 12.14 0 00-2.46 7.38h6zm1.26-3.78l4.685 3.748c.046-.058.022-.012-.086.053a.914.914 0 01-.253.101l-.986-5.918-.987-5.918c-2.884.48-5.292 1.978-7.059 4.186l4.686 3.748zm3.36-2.016l1.073 5.903c5.353-.973 9.585-1.415 12.787-1.415v-12c-4.191 0-9.199.566-14.934 1.609l1.074 5.903zm76.079 20.916l-4.883 3.487.064.088 4.819-3.575zm13.524 18.228l4.882-3.487a3.765 3.765 0 00-.064-.088l-4.818 3.575zm-17.976 0l-4.933 3.415.007.011 4.926-3.426zm-8.316-12.012h-6c0 1.22.372 2.412 1.067 3.415l4.933-3.415zm-14.784 14.448l-4.243 4.243 4.243-4.243zm0-60.144l-4.243-4.243 4.243 4.243zm14.616 33.012v6a6 6 0 002.683-.633l-2.683-5.367zm.168-.084l2.683 5.366a5.997 5.997 0 002.147-1.807l-4.83-3.559zm8.232-11.172l4.83 3.56.045-.063-4.875-3.497zm18.228-2.604l-5.294 2.824 5.294-2.824zm-.252 2.436l4.676 3.76.042-.053-4.718-3.707zm-13.44 16.716l-4.676-3.76a6.09 6.09 0 00-.207.273l4.883 3.487zm0 1.176l-4.819 3.575 13.524 18.228 4.819-3.575 4.818-3.575-13.524-18.228-4.818 3.575zm13.524 18.228l-4.883 3.487a3.668 3.668 0 01-.642-1.87c-.055-.83.164-1.456.326-1.78l5.367 2.683 5.366 2.683c.61-1.22 1.026-2.713.915-4.384-.113-1.686-.735-3.141-1.567-4.306l-4.882 3.487zm.168 2.52l-5.367-2.683c.161-.321.539-.894 1.271-1.363a3.77 3.77 0 011.996-.61v12c1.451 0 3.023-.354 4.473-1.282 1.433-.917 2.385-2.162 2.993-3.379l-5.366-2.683zm-2.1 1.344v-6h-8.484v12h8.484v-6zm-8.484 0v-6c-1.366 0-2.01-.393-2.635-1.29l-4.925 3.426-4.926 3.426c2.96 4.255 7.356 6.438 12.486 6.438v-6zm-7.56-3.864l4.933-3.415-8.316-12.012-4.933 3.415-4.933 3.415 8.316 12.012 4.933-3.415zm-8.316-12.012h6a6.064 6.064 0 00-3.359-5.43 6.277 6.277 0 00-2.809-.654v12c-.251 0-1.332 0-2.557-.612a5.935 5.935 0 01-3.275-5.304h6zm-.168-.084v-6c-.953 0-2.77.242-4.306 1.778-1.536 1.537-1.778 3.353-1.778 4.306h12c0 .897-.228 2.671-1.737 4.18a5.915 5.915 0 01-4.179 1.736v-6zm-.084.084h-6v11.088h12V53.124h-6zm0 11.088h-6c0-.115.025-.316.121-.54.093-.22.198-.332.208-.343l4.243 4.243 4.242 4.243c2.021-2.02 3.186-4.645 3.186-7.603h-6zm-1.428 3.36l-4.243-4.243c.01-.01.122-.115.342-.208a1.44 1.44 0 01.541-.121v12c2.958 0 5.582-1.165 7.602-3.185l-4.242-4.243zM143.753 69v-6h-6.384v12h6.384v-6zm-6.384 0v-6c.114 0 .316.025.541.121.219.093.331.198.341.208l-4.242 4.243-4.243 4.243c2.021 2.02 4.645 3.185 7.603 3.185v-6zm-3.36-1.428l4.242-4.243c.011.01.115.122.209.342.095.225.121.426.121.541h-12c0 2.958 1.165 5.582 3.185 7.603l4.243-4.243zm-1.428-3.36h6V10.788h-12v53.424h6zm0-53.424h6c0 .115-.026.316-.121.54-.094.22-.198.333-.209.343l-4.242-4.243-4.243-4.243c-2.02 2.02-3.185 4.645-3.185 7.603h6zm1.428-3.36l4.242 4.243c-.01.01-.122.115-.341.208a1.452 1.452 0 01-.541.121V0c-2.958 0-5.582 1.165-7.603 3.185l4.243 4.243zM137.369 6v6h6.384V0h-6.384v6zm6.384 0v6a1.44 1.44 0 01-.541-.121 1.166 1.166 0 01-.342-.208l4.243-4.243 4.242-4.243C149.335 1.165 146.711 0 143.753 0v6zm3.36 1.428l-4.243 4.243a1.167 1.167 0 01-.208-.342 1.44 1.44 0 01-.121-.541h12c0-2.958-1.165-5.582-3.186-7.603l-4.242 4.243zm1.428 3.36h-6v29.568h12V10.788h-6zm0 29.568h-6c0 .953.242 2.77 1.778 4.306s3.353 1.778 4.306 1.778v-12c.897 0 2.671.228 4.179 1.736a5.914 5.914 0 011.737 4.18h-6zm.084.084l2.683 5.367.168-.085-2.683-5.366-2.684-5.367-.168.085 2.684 5.366zm.168-.084l4.83 3.56 8.232-11.173-4.83-3.559-4.831-3.56-8.232 11.173 4.831 3.559zm8.232-11.172l4.875 3.497c.689-.96 1.398-1.361 2.769-1.361v-12c-5.125 0-9.512 2.174-12.519 6.367l4.875 3.497zm7.644-3.864v6h8.484v-12h-8.484v6zm8.484 0v6c-.429 0-1.12-.103-1.848-.54a3.653 3.653 0 01-1.346-1.377l5.294-2.823 5.294-2.823c-.65-1.219-1.64-2.41-3.068-3.267-1.428-.857-2.946-1.17-4.326-1.17v6zm2.1 1.26l-5.294 2.824a3.874 3.874 0 01-.401-2.202c.098-.948.488-1.592.725-1.893l4.718 3.707 4.718 3.707c.852-1.085 1.593-2.527 1.775-4.287.184-1.782-.257-3.385-.947-4.68l-5.294 2.824zm-.252 2.436l-4.676-3.76-13.44 16.716 4.676 3.76 4.676 3.76 13.44-16.716-4.676-3.76zm-13.44 16.716l-4.883-3.487a7 7 0 00-1.327 4.075 7 7 0 001.327 4.075l4.883-3.487 4.882-3.487c.418.585.908 1.582.908 2.899s-.49 2.314-.908 2.9l-4.882-3.488zm46.472-3.528h6l-.001-.13-5.999.13zm-1.68-5.544l-4.46 4.014c.036.04.073.08.11.118l4.35-4.132zm-9.576 0l4.243 4.243-4.243-4.243zm-2.016 5.628l-5.968-.622a6.145 6.145 0 00-.032.622h6zm27.972 4.704h6v-.022l-6 .022zm-1.512 3.444l3.986 4.484c.045-.04.09-.08.134-.122l-4.12-4.362zm-26.208 2.1l5.867-1.257a.708.708 0 00-.01-.045l-5.857 1.302zm3.276 4.956l-2.958 5.22.073.04 2.885-5.26zm16.464.42l1.196 5.88.194-.043-1.39-5.837zm3.192.756l-3.814 4.632c.056.046.112.09.169.134l3.645-4.766zm.084 8.148l-4.772-3.636a.885.885 0 00-.028.036l4.8 3.6zm-3.276 2.016l-.986-5.918-.172.03 1.158 5.888zm-29.316-4.788l-4.065 4.413.061.055 4.004-4.468zm-.672-33.684l4.304 4.18-4.304-4.18zm22.512 12.6v6c1.177 0 3.162-.298 4.81-1.946 1.648-1.648 1.946-3.633 1.946-4.81h-12c0-.673.172-2.28 1.568-3.676a5.255 5.255 0 013.676-1.568v6zm.756-.756l5.999-.13c-.069-3.14-.738-6.82-3.329-9.546l-4.35 4.132-4.35 4.133c-.253-.267-.249-.414-.174-.167.079.26.186.796.206 1.708l5.998-.13zm-1.68-5.544l4.46-4.014c-2.525-2.805-5.97-3.666-9.08-3.666v12c.25 0 .425.017.535.034.11.017.145.032.124.025a.972.972 0 01-.197-.105 1.572 1.572 0 01-.302-.26l4.46-4.014zm-4.62-1.68v-6c-3.16 0-6.582.821-9.199 3.437l4.243 4.243 4.243 4.243c-.069.068-.138.12-.193.153-.054.033-.075.037-.045.026.072-.024.356-.102.951-.102v-6zm-4.956 1.68l-4.243-4.243c-2.554 2.555-3.419 6.16-3.741 9.25l5.968.621 5.968.622c.106-1.023.267-1.664.395-2.022.129-.361.159-.249-.104.015l-4.243-4.243zm-2.016 5.628h-6c0 1.149.291 3.113 1.925 4.747 1.635 1.634 3.598 1.925 4.747 1.925v-12c.701 0 2.329.18 3.739 1.59a5.335 5.335 0 011.589 3.738h-6zm.672.672v6h11.844v-12h-11.844v6zm5.88-18.48v6c6.101 0 9.611 1.593 11.676 3.764 2.122 2.23 3.719 6.115 3.744 12.77l6-.022 6-.022c-.031-8.353-2.032-15.724-7.05-20.998-5.075-5.333-12.247-7.492-20.37-7.492v6zm21.42 22.512h-6c0-.098.023-.303.128-.543.104-.236.222-.358.24-.375l4.12 4.362 4.12 4.362c2.165-2.045 3.392-4.753 3.392-7.806h-6zm-1.512 3.444l-3.986-4.484a.923.923 0 01.235-.13c.125-.048.189-.042.139-.042v12c2.808 0 5.447-.947 7.598-2.86l-3.986-4.484zm-3.612 1.344v-6h-22.008v12h22.008v-6zm-22.008 0v-6c-1.023 0-3.496.237-5.261 2.505-1.724 2.217-1.392 4.619-1.184 5.553l5.857-1.302 5.857-1.302c.096.43.471 2.454-1.058 4.419a5.403 5.403 0 01-4.211 2.127v-6zm-.588.756l-5.867 1.257c.768 3.584 2.66 6.922 6.185 8.92l2.958-5.221 2.958-5.22c-.011-.006-.007-.005 0 .002.007.006-.005-.003-.032-.044-.055-.083-.207-.354-.335-.951l-5.867 1.257zm3.276 4.956l-2.885 5.26c3.086 1.693 7.016 2.168 10.949 2.168v-12c-3.346 0-4.793-.477-5.179-.689l-2.885 5.261zm8.064 1.428v6c2.837 0 6.063-.41 9.596-1.128l-1.196-5.88-1.196-5.88c-3.075.626-5.449.888-7.204.888v6zm8.4-1.008l1.39 5.837c-.226.054-.62.092-1.093-.02a2.31 2.31 0 01-.919-.43l3.814-4.631 3.814-4.632c-2.367-1.95-5.349-2.686-8.396-1.96l1.39 5.836zm3.192.756l-3.645 4.766a2.459 2.459 0 01-.681-.864 2.286 2.286 0 01-.246-.962h12c0-3.04-1.299-5.806-3.783-7.706l-3.645 4.766zm1.428 2.94h-6v1.344h12v-1.344h-6zm0 1.344h-6c0 .029-.002.041-.002.043l-.001.002c-.001.002-.005.016-.02.043a1.194 1.194 0 01-.093.14l4.772 3.636 4.773 3.636c1.644-2.158 2.571-4.71 2.571-7.5h-6zm-1.344 3.864l-4.8-3.6c-.009.013.054-.072.207-.166a1 1 0 01.331-.136l.986 5.918.987 5.918c2.911-.485 5.352-2.017 7.089-4.334l-4.8-3.6zm-3.276 2.016l-1.158-5.887c-2.996.59-6.245.895-9.762.895v12c4.211 0 8.242-.366 12.078-1.12l-1.158-5.888zm-10.92 1.008v-6c-7.029 0-11.533-1.703-14.392-4.264l-4.004 4.468-4.004 4.468c5.766 5.167 13.525 7.328 22.4 7.328v-6zm-18.396-5.796l4.065-4.413c-2.71-2.496-4.449-6.333-4.449-12.471h-12c0 8.534 2.517 15.953 8.319 21.297l4.065-4.413zm-6.384-16.884h6c0-6.252 1.618-10.15 4.016-12.62l-4.304-4.18-4.304-4.18c-5.218 5.37-7.408 12.672-7.408 20.98h6zm5.712-16.8l4.304 4.18c2.348-2.417 6.098-4.06 12.244-4.06v-12c-8.302 0-15.584 2.277-20.852 7.7l4.304 4.18zm115.996-3.612l-5.037 3.26c.075.116.154.23.237.34l4.8-3.6zm.504 3.024l5.649 2.023c.035-.1.068-.199.098-.299l-5.747-1.724zm-19.068 53.256l5.618 2.107.031-.085-5.649-2.022zm-2.52 3.192l-3.328-4.992a4.912 4.912 0 00-.159.11l3.487 4.882zm-13.86-.168l-4.944 3.4.042.06 4.902-3.46zm-.252-2.94l5.53 2.328.017-.04-5.547-2.288zm5.544-13.44l5.547 2.288c.111-.27.203-.549.274-.833l-5.821-1.455zm0-1.344l5.821-1.455a6.136 6.136 0 00-.202-.65l-5.619 2.105zm-14.448-38.556l5.619-2.105a5.943 5.943 0 00-.089-.223l-5.53 2.328zm.336-3.024l4.902 3.46-4.902-3.46zm14.448-.084l-3.865 4.59.117.095 3.748-4.685zm2.1 3.36l5.886-1.165-.012-.059-5.874 1.224zm4.872 24.612h6c0-.391-.038-.781-.114-1.165l-5.886 1.165zm.168 0l-5.814-1.483a6.03 6.03 0 00-.186 1.483h6zm6.3-24.696l5.814 1.483.007-.028-5.821-1.455zm2.184-3.276l3.6 4.8c.05-.037.1-.076.148-.115l-3.748-4.685zm11.004-1.344v6c-.236 0-.713-.053-1.261-.344a2.957 2.957 0 01-1.088-.968l5.037-3.26 5.038-3.26c-1.771-2.735-4.606-4.168-7.726-4.168v6zm2.688 1.428l-4.8 3.6a2.768 2.768 0 01-.488-1.186 2.543 2.543 0 01.045-1.114l5.747 1.724 5.747 1.724c.855-2.85.422-5.851-1.451-8.348l-4.8 3.6zm.504 3.024l-5.649-2.022-19.068 53.255 5.649 2.023 5.649 2.022 19.068-53.255-5.649-2.023zm-19.068 53.256l-5.618-2.107a.696.696 0 01-.099.195.535.535 0 01-.131.112l3.328 4.992 3.328 4.992c2.241-1.493 3.872-3.575 4.81-6.077l-5.618-2.107zm-2.52 3.192l-3.487-4.882c-.194.138-.27.142-.377.142v12c2.693 0 5.193-.836 7.352-2.378l-3.488-4.882zm-3.864 1.26v-6h-7.224v12h7.224v-6zm-7.224 0v-6c.241 0 .679.055 1.173.31.496.255.805.586.957.802l-4.902 3.46-4.902 3.46c1.809 2.562 4.57 3.968 7.674 3.968v-6zm-2.772-1.428l4.945-3.4c.217.317.452.829.508 1.48.055.635-.087 1.1-.175 1.308l-5.53-2.328-5.53-2.328c-1.182 2.808-1.02 5.965.838 8.667l4.944-3.399zm-.252-2.94l5.547 2.288 5.544-13.44-5.547-2.288-5.546-2.288-5.544 13.44 5.546 2.288zm5.544-13.44l5.821 1.455a8.776 8.776 0 00.263-2.127h-12c0-.281.036-.546.095-.783l5.821 1.455zm.084-.672h6a8.77 8.77 0 00-.263-2.127l-5.821 1.455-5.821 1.455a3.255 3.255 0 01-.095-.783h6zm-.084-.672l5.619-2.105-14.448-38.556-5.619 2.105-5.618 2.105 14.448 38.556 5.618-2.105zm-14.448-38.556l5.53-2.328c.118.279.253.79.182 1.437a2.89 2.89 0 01-.474 1.327l-4.902-3.46-4.902-3.46c-1.852 2.624-2.224 5.818-.964 8.812l5.53-2.328zm.336-3.024l4.902 3.46a2.68 2.68 0 01-.957.803 2.64 2.64 0 01-1.173.309v-12c-3.104 0-5.865 1.406-7.674 3.968l4.902 3.46zm2.772-1.428v6h8.064v-12h-8.064v6zm8.064 0v6c.001 0-.019 0-.057-.007a.713.713 0 01-.214-.075c-.015-.01-.009-.008.018.015l3.865-4.589 3.865-4.59c-2.104-1.772-4.666-2.754-7.477-2.754v6zm3.612 1.344l-3.748 4.685c.041.033.057.05.056.05a.568.568 0 01-.072-.123c-.01-.026-.011-.037-.01-.028l5.874-1.224 5.874-1.224c-.578-2.774-2.069-5.096-4.226-6.821l-3.748 4.685zm2.1 3.36l-5.886 1.165 4.872 24.612 5.886-1.165 5.886-1.165-4.872-24.612-5.886 1.165zm4.872 24.612h-6c0 .953.243 2.77 1.779 4.306s3.352 1.778 4.305 1.778v-12c.897 0 2.672.228 4.18 1.736a5.916 5.916 0 011.736 4.18h-6zm.084.084v6c.953 0 2.77-.242 4.306-1.778s1.778-3.353 1.778-4.306h-12c0-.897.229-2.672 1.737-4.18a5.915 5.915 0 014.179-1.736v6zm.084-.084l5.814 1.483 6.3-24.696-5.814-1.483-5.814-1.483-6.3 24.696 5.814 1.483zm6.3-24.696l5.821 1.455c.007-.026.009-.028.003-.014a.367.367 0 01-.033.06c-.016.024-.031.04-.037.048-.007.006.001-.003.03-.025l-3.6-4.8-3.6-4.8c-2.209 1.657-3.731 3.925-4.405 6.62l5.821 1.456zm2.184-3.276l3.748 4.685a.61.61 0 01.069-.049c.002 0 .001 0-.003.002a.314.314 0 01-.061.019c-.009.001-.001-.001.027-.001v-12c-2.798 0-5.372.934-7.528 2.659l3.748 4.685zm3.78-1.344v6h7.224v-12h-7.224v6zm31.386 30.996l-5.159 3.063.043.072 5.116-3.135zm10.248 0l5.116 3.135.043-.072-5.159-3.063zm0-18.228l-5.159 3.063.043.072 5.116-3.135zm-10.248 0l5.116 3.135.043-.072-5.159-3.063zm-11.592-7.56l4.243 4.243.029-.03-4.272-4.213zm33.432 0l-4.272 4.213.029.03 4.243-4.243zm0 33.348l4.243 4.243.029-.03-4.272-4.213zm-33.432 0l-4.272 4.213.029.03 4.243-4.243zm11.592-7.56l-5.116 3.135c2.341 3.82 6.183 5.469 10.24 5.469v-12a1.92 1.92 0 01-.389-.03c-.041-.009-.011-.007.062.03a1 1 0 01.23.162c.069.065.095.11.089.099l-5.116 3.135zm5.124 2.604v6c4.057 0 7.899-1.65 10.24-5.469l-5.116-3.135-5.116-3.135c-.006.01.02-.034.089-.099.072-.067.153-.123.23-.162.073-.037.103-.039.062-.03a1.92 1.92 0 01-.389.03v6zm5.124-2.604l5.159 3.063c1.948-3.28 2.437-7.756 2.437-12.219h-12c0 1.934-.121 3.41-.31 4.493a8.72 8.72 0 01-.286 1.205 3.521 3.521 0 01-.114.302.824.824 0 01-.045.093l5.159 3.063zm1.596-9.156h6c0-4.433-.479-8.942-2.48-12.207l-5.116 3.135-5.116 3.135c-.009-.014.209.365.404 1.475.187 1.062.308 2.527.308 4.462h6zm-1.596-9.072l5.159-3.063c-2.301-3.877-6.139-5.625-10.283-5.625v12c.209 0 .319.02.35.027.028.006-.012 0-.092-.042a1.017 1.017 0 01-.23-.166c-.063-.061-.08-.095-.063-.068l5.159-3.063zm-5.124-2.688v-6c-4.144 0-7.981 1.748-10.283 5.625l5.159 3.063 5.159 3.063c.017-.027 0 .007-.063.068a1.017 1.017 0 01-.23.166c-.079.042-.12.048-.092.042.032-.007.141-.027.35-.027v-6zm-5.124 2.688l-5.116-3.135c-2.001 3.265-2.48 7.774-2.48 12.207h12c0-1.935.121-3.4.308-4.462.196-1.11.413-1.49.404-1.475l-5.116-3.135zm-1.596 9.072h-6c0 4.463.489 8.94 2.437 12.22l5.159-3.064 5.159-3.063a1.167 1.167 0 01-.045-.093 3.521 3.521 0 01-.114-.302 8.72 8.72 0 01-.286-1.205c-.189-1.083-.31-2.56-.31-4.493h-6zm-9.996-16.632l4.272 4.213c2.568-2.604 6.432-4.261 12.444-4.261v-12c-8.324 0-15.604 2.375-20.988 7.835l4.272 4.213zm16.716-6.048v6c6.012 0 9.876 1.657 12.444 4.26l4.272-4.212 4.272-4.213c-5.384-5.46-12.664-7.835-20.988-7.835v6zm16.716 6.048l-4.243 4.243c2.572 2.572 4.207 6.425 4.207 12.389h12c0-8.26-2.341-15.494-7.721-20.875l-4.243 4.243zm5.964 16.632h-6c0 5.96-1.633 9.864-4.236 12.503l4.272 4.213 4.272 4.213c5.35-5.425 7.692-12.665 7.692-20.929h-6zm-5.964 16.716l-4.243-4.243c-2.563 2.564-6.437 4.207-12.473 4.207v12c8.301 0 15.57-2.333 20.959-7.721l-4.243-4.243zm-16.716 5.964v-6c-6.035 0-9.91-1.643-12.473-4.207l-4.243 4.243-4.243 4.243c5.389 5.388 12.659 7.721 20.959 7.721v-6zm-16.716-5.964l4.272-4.213c-2.602-2.64-4.236-6.543-4.236-12.503h-12c0 8.264 2.343 15.504 7.692 20.929l4.272-4.213zm-5.964-16.716h6c0-5.964 1.635-9.817 4.207-12.39l-4.243-4.242-4.243-4.243c-5.38 5.38-7.721 12.615-7.721 20.875h6zm95.231-20.412l-4.243 4.243h.001l4.242-4.243zm0 40.824l-4.242-4.243h-.001l4.243 4.243zm-12.516.084l-4.243 4.243c.043.043.087.085.131.126l4.112-4.369zm-1.512-3.444h-6c0 .083.002.167.005.25l5.995-.25zm-.252-.672l4.625 3.823a6 6 0 001.375-3.823h-6zm-23.52 2.184l-4.741 3.677.047.06 4.694-3.737zm-1.764-38.976l4.243 4.243-4.243-4.243zm12.684 0l-4.242 4.243 4.242-4.243zm2.436 29.064l-4.902 3.46c.044.063.09.124.136.185l4.766-3.645zm7.896-.42l-4.054-4.423a2.882 2.882 0 00-.093.087l4.147 4.336zm3.444-28.644l4.243 4.243-4.243-4.243zm9.744-1.428v6c-.114 0-.316-.025-.541-.121-.219-.093-.331-.198-.342-.208l4.243-4.243 4.243-4.243c-2.021-2.02-4.645-3.185-7.603-3.185v6zm3.36 1.428l-4.242 4.243a1.157 1.157 0 01-.209-.342 1.46 1.46 0 01-.121-.541h12c0-2.958-1.165-5.582-3.185-7.603l-4.243 4.243zm1.428 3.36h-6v34.104h12V30.108h-6zm0 34.104h-6c0-.115.026-.316.121-.54.094-.22.198-.332.209-.343l4.242 4.243 4.243 4.243c2.02-2.02 3.185-4.645 3.185-7.603h-6zm-1.428 3.36l-4.243-4.243c.011-.01.123-.115.342-.208.225-.096.427-.121.541-.121v12c2.958 0 5.582-1.165 7.603-3.185l-4.243-4.243zM396.55 69v-6h-5.712v12h5.712v-6zm-5.712 0v-6c-.002 0 .031 0 .091.01.06.012.137.031.221.065.185.072.307.166.356.212l-4.112 4.369-4.112 4.37C385.381 74 388.013 75 390.838 75v-6zm-3.444-1.344l4.243-4.243c.012.012.09.098.159.256s.08.274.081.293l-5.995.25-5.995.25a11.003 11.003 0 003.264 7.437l4.243-4.243zm-1.512-3.444h6v-.672h-12v.672h6zm0-.672h6c0-.953-.242-2.77-1.778-4.306s-3.353-1.778-4.306-1.778v12a5.919 5.919 0 01-4.18-1.736 5.916 5.916 0 01-1.736-4.18h6zm-.084-.084v-6c-.362 0-1.527.014-2.809.654a6.064 6.064 0 00-3.359 5.43h12a5.935 5.935 0 01-3.275 5.304c-1.225.613-2.306.612-2.557.612v-6zm-.168.084l-4.624-3.823c-2.423 2.93-5.058 4.123-8.228 4.123v12c7.022 0 12.955-3.008 17.477-8.477l-4.625-3.823zm-12.852 6.3v-6c-3.879 0-5.338-1.054-5.973-1.853l-4.695 3.737-4.694 3.736c3.732 4.69 9.386 6.38 15.362 6.38v-6zm-10.668-4.116l4.741-3.677c-.83-1.071-1.933-4.096-1.933-10.687h-12c0 7.073 1.026 13.624 4.451 18.04l4.741-3.676zm-3.192-14.364h6V30.108h-12V51.36h6zm0-21.252h6c0 .115-.025.316-.121.54-.093.22-.198.332-.208.343l-4.243-4.243-4.242-4.243c-2.021 2.02-3.186 4.645-3.186 7.603h6zm1.428-3.36l4.243 4.243c-.01.01-.122.115-.342.208a1.448 1.448 0 01-.541.121v-12c-2.958 0-5.582 1.165-7.602 3.185l4.242 4.243zm3.36-1.428v6h5.964v-12h-5.964v6zm5.964 0v6c-.114 0-.316-.025-.541-.121a1.169 1.169 0 01-.341-.208l4.242-4.243 4.243-4.243c-2.021-2.02-4.645-3.185-7.603-3.185v6zm3.36 1.428l-4.242 4.243a1.157 1.157 0 01-.209-.342 1.46 1.46 0 01-.121-.541h12c0-2.958-1.165-5.582-3.185-7.603l-4.243 4.243zm1.428 3.36h-6V50.52h12V30.108h-6zm0 20.412h-6c0 1.517.097 3.005.358 4.378.25 1.313.724 2.923 1.748 4.374l4.902-3.46 4.902-3.46c.194.274.269.471.282.506.014.038-.01-.019-.046-.206-.074-.39-.146-1.073-.146-2.132h-6zm1.008 5.292l-4.766 3.645c2.273 2.971 5.626 3.783 8.378 3.783v-12c-.299 0-.232-.046.043.063.327.13.76.406 1.111.864l-4.766 3.645zm3.612 1.428v6c3.327 0 6.192-1.37 8.431-3.512l-4.147-4.336-4.147-4.336c-.203.194-.296.226-.266.213a.365.365 0 01.129-.029v6zm4.284-1.848l4.055 4.423c2.249-2.062 3.961-4.911 3.961-8.455h-12c0-.102.013-.215.04-.33.027-.112.062-.199.09-.253.053-.107.044-.032-.2.192l4.054 4.423zm2.016-4.032h6V30.108h-12V51.36h6zm0-21.252h6c0 .115-.025.316-.121.54-.093.22-.198.332-.208.343l-4.243-4.243-4.242-4.243c-2.021 2.02-3.186 4.645-3.186 7.603h6zm1.428-3.36l4.243 4.243c-.01.01-.122.115-.342.208a1.448 1.448 0 01-.541.121v-12c-2.958 0-5.582 1.165-7.602 3.185l4.242 4.243zm3.36-1.428v6h6.384v-12h-6.384v6zm53.926.168l-.776-5.95h-.002l.778 5.95zm3.36 1.176l-4.242 4.243 4.242-4.243zm.084 8.988l4.243 4.243.126-.13-4.369-4.113zm-3.36 1.596l-.744-5.954-.029.004.773 5.95zm-10.332 4.872l4.288 4.197.044-.046-4.332-4.151zm-18.816 25.452l4.243-4.243-4.243 4.243zm0-40.824l4.243 4.243-4.243-4.243zm13.104 0l-4.242 4.243 4.242-4.243zm1.68 6.888l4.243 4.243a5.99 5.99 0 00.536-.615l-4.779-3.628zm14.28-8.148l.776 5.95a2.145 2.145 0 01-.952-.119 1.928 1.928 0 01-.706-.412l4.242-4.243 4.243-4.243c-2.213-2.213-5.166-3.302-8.379-2.883l.776 5.95zm3.36 1.176l-4.242 4.243a1.199 1.199 0 01-.229-.37 1.215 1.215 0 01-.101-.429h12c0-2.938-1.11-5.612-3.185-7.687l-4.243 4.243zm1.428 3.444h-6v2.184h12v-2.184h-6zm0 2.184h-6c0-.067.015-.227.093-.422.078-.194.17-.305.194-.33l4.369 4.112 4.369 4.112c1.926-2.046 2.975-4.63 2.975-7.472h-6zm-1.344 3.36l-4.242-4.243a.656.656 0 01.209-.127c.001 0-.02.006-.071.012l.744 5.954.744 5.954c2.571-.322 4.952-1.4 6.859-3.307l-4.243-4.243zm-3.36 1.596l-.773-5.95c-5.43.705-10.214 2.834-13.891 6.67l4.332 4.152 4.332 4.151c1.476-1.54 3.579-2.658 6.773-3.073l-.773-5.95zm-10.332 4.872l-4.288-4.197c-3.714 3.795-5.576 8.54-5.576 13.857h12c0-2.298.714-3.994 2.152-5.463l-4.288-4.197zm-3.864 9.66h-6v12.432h12V51.78h-6zm0 12.432h-6c0-.115.026-.316.121-.54.094-.22.198-.332.209-.343l4.242 4.243 4.243 4.243c2.02-2.02 3.185-4.645 3.185-7.603h-6zm-1.428 3.36l-4.242-4.243c.01-.01.122-.115.341-.208.225-.096.427-.121.541-.121v12c2.958 0 5.582-1.165 7.603-3.185l-4.243-4.243zM425.192 69v-6h-6.804v12h6.804v-6zm-6.804 0v-6c.115 0 .316.025.541.121.22.093.332.198.342.208l-4.243 4.243-4.242 4.243c2.02 2.02 4.644 3.185 7.602 3.185v-6zm-3.36-1.428l4.243-4.243c.01.01.115.122.208.342.096.225.121.426.121.541h-12c0 2.958 1.165 5.582 3.186 7.603l4.242-4.243zm-1.428-3.36h6V30.108h-12v34.104h6zm0-34.104h6c0 .115-.025.316-.121.54-.093.22-.198.332-.208.343l-4.243-4.243-4.242-4.243c-2.021 2.02-3.186 4.645-3.186 7.603h6zm1.428-3.36l4.243 4.243c-.01.01-.122.115-.342.208a1.448 1.448 0 01-.541.121v-12c-2.958 0-5.582 1.165-7.602 3.185l4.242 4.243zm3.36-1.428v6h6.384v-12h-6.384v6zm6.384 0v6c-.114 0-.316-.025-.541-.121a1.169 1.169 0 01-.341-.208l4.242-4.243 4.243-4.243c-2.021-2.02-4.645-3.185-7.603-3.185v6zm3.36 1.428l-4.242 4.243a1.157 1.157 0 01-.209-.342 1.46 1.46 0 01-.121-.541h12c0-2.958-1.165-5.582-3.185-7.603l-4.243 4.243zm1.428 3.36h-6v3.528h12v-3.528h-6zm0 3.528h-6c0 .953.242 2.77 1.778 4.306 1.537 1.536 3.353 1.778 4.306 1.778v-12c.897 0 2.672.228 4.18 1.736a5.916 5.916 0 011.736 4.18h-6zm.084.084v6c2.209 0 3.701-1.131 4.411-1.841l-4.243-4.243-4.243-4.243a5.767 5.767 0 014.075-1.673v6zm.168-.084l4.779 3.628c2.521-3.32 5.815-5.242 10.28-5.827l-.779-5.949-.778-5.95c-7.519.985-13.745 4.495-18.281 10.47l4.779 3.628zm90.655-5.208l-4.243 4.243 4.243-4.243zm0 8.064l-4.243-4.243 4.243 4.243zM509.715 56.82l4.992-3.328-4.992 3.328zm6.636 1.008l-.849-5.94-.041.006.89 5.934zm3.192.924l-3.815 4.632c.098.08.199.158.302.232l3.513-4.864zm.168 8.82l-4.686-3.748-.024.03 4.71 3.718zm-3.276 1.848l-.745-5.954a7.958 7.958 0 00-.104.014l.849 5.94zm-19.824-3.444l4.335-4.147-4.335 4.147zm-11.088-29.484l4.242-4.243-4.242 4.243zm8.82-24.024l4.242 4.243-4.242-4.243zM517.107 27v6a1.44 1.44 0 01-.541-.121 1.166 1.166 0 01-.342-.208l4.243-4.243 4.242-4.243c-2.02-2.02-4.645-3.185-7.602-3.185v6zm3.36 1.428l-4.243 4.243a1.167 1.167 0 01-.208-.342 1.44 1.44 0 01-.121-.541h12c0-2.958-1.165-5.582-3.186-7.603l-4.242 4.243zm1.428 3.36h-6v1.344h12v-1.344h-6zm0 1.344h-6c0-.115.025-.316.121-.54.093-.22.198-.332.208-.343l4.243 4.243 4.242 4.243c2.021-2.02 3.186-4.645 3.186-7.603h-6zm-1.428 3.36l-4.243-4.243c.01-.01.122-.115.342-.208a1.44 1.44 0 01.541-.121v12c2.957 0 5.582-1.165 7.602-3.185l-4.242-4.243zm-3.36 1.428v-6h-7.476v12h7.476v-6zm-7.476 0v-6c-1.177 0-3.162.298-4.81 1.946-1.648 1.648-1.946 3.633-1.946 4.81h12c0 .673-.173 2.28-1.569 3.676a5.253 5.253 0 01-3.675 1.568v-6zm-.756.756h-6V50.52h12V38.676h-6zm0 11.844h-6c0 1.811.073 3.47.262 4.888.156 1.172.491 3.099 1.585 4.74l4.993-3.328 4.992-3.328c.18.27.283.49.334.61.053.125.074.2.075.203.002.007-.008-.029-.025-.116a5.666 5.666 0 01-.059-.367c-.091-.681-.157-1.753-.157-3.302h-6zm.84 6.3l-4.993 3.328c2.388 3.581 6.582 3.932 8.773 3.932v-12c-.612 0-.716-.073-.518-.007.235.078 1.065.422 1.73 1.419l-4.992 3.328zm3.78 1.26v6c1.18 0 2.448-.124 3.746-.318l-.89-5.934-.89-5.934c-.943.142-1.579.186-1.966.186v6zm2.856-.252l.848 5.94a2.053 2.053 0 01-.837-.072 1.827 1.827 0 01-.634-.312l3.815-4.632 3.814-4.632c-2.197-1.809-4.939-2.648-7.855-2.232l.849 5.94zm3.192.924l-3.513 4.864c-.128-.092-.415-.342-.656-.797a2.656 2.656 0 01-.319-1.211h12c0-3.229-1.535-5.94-4-7.72l-3.512 4.864zm1.512 2.856h-6v2.184h12v-2.184h-6zm0 2.184h-6c0 .029-.003.036-.001.027l.004-.018.007-.024.008-.019.001-.003a.536.536 0 01-.049.069l4.686 3.748 4.685 3.748c1.724-2.155 2.659-4.73 2.659-7.528h-6zm-1.344 3.78l-4.71-3.718a1.13 1.13 0 01.313-.248c.187-.105.336-.135.376-.14l.745 5.954.744 5.954c2.909-.364 5.425-1.784 7.241-4.084l-4.709-3.718zm-3.276 1.848l-.849-5.94c-1.59.228-3.669.36-6.291.36v12c2.977 0 5.658-.148 7.988-.48l-.848-5.94zm-7.14.42v-6c-5.412 0-7.583-1.211-8.349-2.011l-4.335 4.147-4.336 4.147c4.162 4.352 10.447 5.717 17.02 5.717v-6zm-12.684-3.864l4.335-4.147c-.791-.828-2.031-3.386-2.031-9.629h-12c0 6.973 1.223 13.599 5.36 17.923l4.336-4.147zM492.915 52.2h6V38.676h-12V52.2h6zm0-13.524h6c0-1.177-.299-3.162-1.947-4.81-1.648-1.648-3.633-1.946-4.809-1.946v12c-.673 0-2.28-.172-3.676-1.568a5.253 5.253 0 01-1.568-3.676h6zm-.756-.756v-6h-3.276v12h3.276v-6zm-3.276 0v-6c.114 0 .315.025.54.121.22.093.332.198.342.208l-4.242 4.243-4.243 4.243c2.02 2.02 4.645 3.185 7.603 3.185v-6zm-3.36-1.428l4.242-4.243c.01.01.115.122.209.342.095.225.121.426.121.541h-12c0 2.958 1.164 5.582 3.185 7.603l4.243-4.243zm-1.428-3.36h6v-1.344h-12v1.344h6zm0-1.344h6c0 .115-.026.316-.121.54-.094.22-.199.332-.209.343l-4.242-4.243-4.243-4.243c-2.021 2.02-3.185 4.645-3.185 7.603h6zm1.428-3.36l4.242 4.243c-.01.01-.122.115-.342.208a1.447 1.447 0 01-.54.121V21c-2.958 0-5.583 1.165-7.603 3.185l4.243 4.243zm3.36-1.428v6h3.276V21h-3.276v6zm3.276 0v6c1.176 0 3.161-.298 4.809-1.946 1.648-1.648 1.947-3.633 1.947-4.81h-12c0-.673.172-2.28 1.568-3.676A5.254 5.254 0 01492.159 21v6zm.756-.756h6V15.828h-12v10.416h6zm0-10.416h6c0 .115-.026.316-.121.54-.094.22-.199.333-.209.343l-4.242-4.243-4.243-4.243c-2.021 2.02-3.185 4.645-3.185 7.603h6zm1.428-3.36l4.242 4.243c-.01.01-.122.115-.342.208a1.447 1.447 0 01-.54.121v-12c-2.958 0-5.583 1.165-7.603 3.185l4.243 4.243zm3.36-1.428v6h6.384v-12h-6.384v6zm6.384 0v6a1.44 1.44 0 01-.541-.121 1.166 1.166 0 01-.342-.208l4.243-4.243 4.242-4.243c-2.02-2.02-4.645-3.185-7.602-3.185v6zm3.36 1.428l-4.243 4.243a1.167 1.167 0 01-.208-.342 1.44 1.44 0 01-.121-.541h12c0-2.958-1.165-5.582-3.186-7.603l-4.242 4.243zm1.428 3.36h-6v10.416h12V15.828h-6zm0 10.416h-6c0 1.177.298 3.162 1.946 4.81 1.648 1.648 3.633 1.946 4.81 1.946V21c.672 0 2.279.172 3.675 1.568a5.255 5.255 0 011.569 3.676h-6zm.756.756v6h7.476V21h-7.476v6zm55.001-1.512l-.776-5.95h-.002l.778 5.95zm3.36 1.176l-4.242 4.243 4.242-4.243zm.084 8.988l4.243 4.243.126-.13-4.369-4.113zm-3.36 1.596l-.744-5.954-.029.004.773 5.95zm-10.332 4.872l4.288 4.197.044-.046-4.332-4.151zm-18.816 25.452l4.243-4.243-4.243 4.243zm0-40.824l4.243 4.243-4.243-4.243zm13.104 0l-4.242 4.243 4.242-4.243zm1.68 6.888l4.243 4.243a5.99 5.99 0 00.536-.615l-4.779-3.628zm14.28-8.148l.776 5.95a2.145 2.145 0 01-.952-.119 1.918 1.918 0 01-.706-.412l4.242-4.243 4.243-4.243c-2.213-2.213-5.166-3.302-8.379-2.883l.776 5.95zm3.36 1.176l-4.242 4.243a1.199 1.199 0 01-.229-.37 1.215 1.215 0 01-.101-.429h12c0-2.938-1.11-5.612-3.185-7.687l-4.243 4.243zm1.428 3.444h-6v2.184h12v-2.184h-6zm0 2.184h-6c0-.067.015-.227.093-.422.078-.194.17-.305.194-.33l4.369 4.112 4.369 4.112c1.926-2.046 2.975-4.63 2.975-7.472h-6zm-1.344 3.36l-4.243-4.243c.01-.009.03-.027.061-.05a.656.656 0 01.096-.056.318.318 0 01.052-.02c.002-.001-.019.005-.07.011l.744 5.954.744 5.954c2.571-.322 4.952-1.4 6.859-3.307l-4.243-4.243zm-3.36 1.596l-.773-5.95c-5.43.705-10.214 2.834-13.891 6.67l4.332 4.152 4.332 4.151c1.476-1.54 3.579-2.658 6.773-3.073l-.773-5.95zm-10.332 4.872l-4.288-4.197c-3.714 3.795-5.576 8.54-5.576 13.857h12c0-2.298.714-3.994 2.152-5.463l-4.288-4.197zm-3.864 9.66h-6v12.432h12V51.78h-6zm0 12.432h-6c0-.115.026-.316.121-.54.094-.22.198-.332.208-.343l4.243 4.243 4.243 4.243c2.02-2.02 3.185-4.645 3.185-7.603h-6zm-1.428 3.36l-4.243-4.243c.011-.01.123-.115.342-.208a1.44 1.44 0 01.541-.121v12c2.958 0 5.582-1.165 7.603-3.185l-4.243-4.243zM545.732 69v-6h-6.804v12h6.804v-6zm-6.804 0v-6c.115 0 .316.025.541.121.22.093.332.198.342.208l-4.243 4.243-4.242 4.243c2.02 2.02 4.644 3.185 7.602 3.185v-6zm-3.36-1.428l4.243-4.243c.01.01.115.122.208.342.096.225.121.426.121.541h-12c0 2.958 1.165 5.582 3.186 7.603l4.242-4.243zm-1.428-3.36h6V30.108h-12v34.104h6zm0-34.104h6c0 .115-.025.316-.121.54-.093.22-.198.332-.208.343l-4.243-4.243-4.242-4.243c-2.021 2.02-3.186 4.645-3.186 7.603h6zm1.428-3.36l4.243 4.243c-.01.01-.122.115-.342.208a1.448 1.448 0 01-.541.121v-12c-2.958 0-5.582 1.165-7.602 3.185l4.242 4.243zm3.36-1.428v6h6.384v-12h-6.384v6zm6.384 0v6c-.114 0-.316-.025-.541-.121a1.169 1.169 0 01-.341-.208l4.242-4.243 4.243-4.243c-2.021-2.02-4.645-3.185-7.603-3.185v6zm3.36 1.428l-4.242 4.243a1.157 1.157 0 01-.209-.342 1.46 1.46 0 01-.121-.541h12c0-2.958-1.165-5.582-3.185-7.603l-4.243 4.243zm1.428 3.36h-6v3.528h12v-3.528h-6zm0 3.528h-6c0 .953.242 2.77 1.778 4.306s3.353 1.778 4.306 1.778v-12c.897 0 2.672.228 4.18 1.736a5.916 5.916 0 011.736 4.18h-6zm.084.084v6c2.209 0 3.701-1.131 4.411-1.841l-4.243-4.243-4.243-4.243a5.767 5.767 0 014.075-1.673v6zm.168-.084l4.779 3.628c2.521-3.32 5.814-5.242 10.28-5.827l-.779-5.949-.778-5.95c-7.519.985-13.745 4.495-18.281 10.47l4.779 3.628zm46.735-6.888l-4.243 4.243 4.243-4.243zm0 40.824l-4.243-4.243 4.243 4.243zm-13.944 0l-4.243 4.243 4.243-4.243zm0-40.824l4.243 4.243-4.243-4.243zm13.944-19.32l-4.243 4.243 4.243-4.243zm0 8.904l-4.243-4.243 4.243 4.243zm-13.944 0l-4.243 4.243 4.243-4.243zm0-8.904L578.9 3.185l4.243 4.243zm10.584 17.892v6a1.44 1.44 0 01-.541-.121 1.166 1.166 0 01-.342-.208l4.243-4.243 4.243-4.243c-2.021-2.02-4.645-3.185-7.603-3.185v6zm3.36 1.428l-4.243 4.243a1.167 1.167 0 01-.208-.342 1.44 1.44 0 01-.121-.541h12c0-2.958-1.165-5.582-3.185-7.603l-4.243 4.243zm1.428 3.36h-6v34.104h12V30.108h-6zm0 34.104h-6c0-.115.025-.316.121-.54.093-.22.198-.332.208-.343l4.243 4.243 4.243 4.243c2.02-2.02 3.185-4.645 3.185-7.603h-6zm-1.428 3.36l-4.243-4.243c.01-.01.122-.115.342-.208a1.44 1.44 0 01.541-.121v12c2.958 0 5.582-1.165 7.603-3.185l-4.243-4.243zM593.727 69v-6h-7.224v12h7.224v-6zm-7.224 0v-6c.115 0 .316.025.541.121.22.093.331.198.342.208l-4.243 4.243-4.243 4.243c2.021 2.02 4.645 3.185 7.603 3.185v-6zm-3.36-1.428l4.243-4.243c.01.01.115.122.208.342.096.225.121.426.121.541h-12c0 2.958 1.165 5.582 3.185 7.603l4.243-4.243zm-1.428-3.36h6V30.108h-12v34.104h6zm0-34.104h6c0 .115-.025.316-.121.54-.093.22-.198.332-.208.343l-4.243-4.243-4.243-4.243c-2.02 2.02-3.185 4.645-3.185 7.603h6zm1.428-3.36l4.243 4.243c-.011.01-.122.115-.342.208a1.448 1.448 0 01-.541.121v-12c-2.958 0-5.582 1.165-7.603 3.185l4.243 4.243zm3.36-1.428v6h7.224v-12h-7.224v6zM593.727 6v6a1.44 1.44 0 01-.541-.121 1.166 1.166 0 01-.342-.208l4.243-4.243 4.243-4.243C599.309 1.165 596.685 0 593.727 0v6zm3.36 1.428l-4.243 4.243a1.167 1.167 0 01-.208-.342 1.44 1.44 0 01-.121-.541h12c0-2.958-1.165-5.582-3.185-7.603l-4.243 4.243zm1.428 3.36h-6v2.184h12v-2.184h-6zm0 2.184h-6c0-.115.025-.316.121-.54.093-.22.198-.332.208-.343l4.243 4.243 4.243 4.243c2.02-2.02 3.185-4.645 3.185-7.603h-6zm-1.428 3.36l-4.243-4.243c.01-.01.122-.115.342-.208a1.44 1.44 0 01.541-.121v12c2.958 0 5.582-1.165 7.603-3.185l-4.243-4.243zm-3.36 1.428v-6h-7.224v12h7.224v-6zm-7.224 0v-6c.115 0 .316.025.541.121.22.093.331.198.342.208l-4.243 4.243-4.243 4.243c2.021 2.02 4.645 3.185 7.603 3.185v-6zm-3.36-1.428l4.243-4.243c.01.01.115.122.208.342.096.225.121.426.121.541h-12c0 2.958 1.165 5.582 3.185 7.603l4.243-4.243zm-1.428-3.36h6v-2.184h-12v2.184h6zm0-2.184h6c0 .115-.025.316-.121.54a1.18 1.18 0 01-.208.343l-4.243-4.243-4.243-4.243c-2.02 2.02-3.185 4.645-3.185 7.603h6zm1.428-3.36l4.243 4.243c-.011.01-.122.115-.342.208a1.448 1.448 0 01-.541.121V0c-2.958 0-5.582 1.165-7.603 3.185l4.243 4.243zM586.503 6v6h7.224V0h-7.224v6zm53.862 49.392l4.872 3.502.05-.071-4.922-3.431zm-10.164-17.136l-3.986-4.484-.084.075 4.07 4.409zm0 17.808l-4.07 4.409.084.075 3.986-4.484zm23.1-25.704l-4.751 3.665.026.033 4.725-3.698zm-.252 33.516l-4.679-3.756a.978.978 0 00-.032.04l4.711 3.716zm-24.36.924l-4.243 4.243c.088.088.179.173.273.256l3.97-4.499zm-14.784 21.252l4.242-4.243-4.242 4.243zm0-59.304l4.242 4.243-4.242-4.243zm12.516 0l-4.243 4.243c.043.043.086.085.131.126l4.112-4.369zm1.512 3.36h6a6.95 6.95 0 00-.005-.25l-5.995.25zm.252.672l4.242 4.243c.134-.134.262-.274.382-.42l-4.624-3.823zm6.972 27.3v6c4.139 0 7.679-1.845 10.08-5.186l-4.872-3.502-4.872-3.502a1.197 1.197 0 01-.164.194c-.017.015-.011.006.016-.008s.042-.016.029-.013a1.039 1.039 0 01-.217.017v6zm5.208-2.688l4.922 3.43c2.302-3.302 3.01-7.486 3.01-11.662h-12c0 3.104-.58 4.408-.855 4.801l4.923 3.431zm1.932-8.232h6c0-4.103-.636-8.22-2.763-11.473-2.417-3.697-6.199-5.447-10.377-5.447v12c.419 0 .494.077.398.028-.118-.06-.138-.126-.065-.014.253.386.807 1.729.807 4.906h6zm-7.14-10.92v-6c-3.453 0-6.484 1.346-8.942 3.532l3.986 4.484 3.986 4.484c.565-.502.838-.5.97-.5v-6zm-4.956 2.016l-4.07-4.409c-2.284 2.109-4.114 5.028-4.114 8.693h12c0 .109-.014.22-.04.324a.928.928 0 01-.069.196c-.024.048.037-.095.362-.395l-4.069-4.409zm-2.184 4.284h-6v9.24h12v-9.24h-6zm0 9.24h-6c0 3.665 1.83 6.584 4.114 8.693l4.07-4.409 4.069-4.409c-.325-.3-.386-.443-.362-.395a.928.928 0 01.069.196c.026.104.04.215.04.324h-6zm2.184 4.284l-3.986 4.484c2.458 2.186 5.489 3.532 8.942 3.532v-12c-.132 0-.405.002-.97-.5l-3.986 4.484zm10.836-31.584v6c3.38 0 5.678 1.166 7.513 3.545l4.751-3.665 4.75-3.665c-4.212-5.46-10.09-8.215-17.014-8.215v6zm12.264 5.88l-4.725 3.698c1.877 2.398 3.261 6.472 3.261 13.102h12c0-8.042-1.64-15.168-5.811-20.498l-4.725 3.698zm4.536 16.8h-6c0 6.347-1.418 10.408-3.467 12.96l4.679 3.756 4.679 3.756c4.335-5.4 6.109-12.483 6.109-20.472h-6zm-4.788 16.716l-4.711-3.716c-2.051 2.6-4.349 3.68-7.301 3.68v12c6.791 0 12.501-2.896 16.723-8.248l-4.711-3.716zm-12.012 5.964v-6c-2.747 0-5.494-.994-8.378-3.539l-3.97 4.499-3.97 4.499c4.732 4.175 10.217 6.541 16.318 6.541v-6zm-12.348-5.04l4.242-4.243c-.71-.71-2.202-1.841-4.41-1.841v12a5.765 5.765 0 01-4.075-1.673l4.243-4.243zm-.168-.084v-6c-.953 0-2.77.242-4.306 1.778-1.536 1.537-1.778 3.353-1.778 4.306h12c0 .897-.229 2.672-1.737 4.18a5.915 5.915 0 01-4.179 1.736v-6zm-.084.084h-6v17.892h12V64.8h-6zm0 17.892h-6c0-.115.025-.316.121-.54.093-.22.198-.332.208-.343l4.243 4.243 4.242 4.243c2.021-2.02 3.186-4.645 3.186-7.603h-6zm-1.428 3.36l-4.243-4.243c.01-.01.122-.115.342-.208a1.44 1.44 0 01.541-.121v12c2.958 0 5.582-1.165 7.602-3.185l-4.242-4.243zm-3.36 1.428v-6h-6.384v12h6.384v-6zm-6.384 0v-6c.114 0 .316.025.541.121.219.093.331.198.341.208l-4.242 4.243-4.243 4.243c2.021 2.02 4.645 3.185 7.603 3.185v-6zm-3.36-1.428l4.242-4.243c.011.01.115.122.209.342.095.225.121.426.121.541h-12c0 2.958 1.165 5.582 3.185 7.603l4.243-4.243zm-1.428-3.36h6V30.108h-12v52.584h6zm0-52.584h6c0 .115-.026.316-.121.54-.094.22-.198.332-.209.343l-4.242-4.243-4.243-4.243c-2.02 2.02-3.185 4.645-3.185 7.603h6zm1.428-3.36l4.242 4.243c-.01.01-.122.115-.341.208a1.452 1.452 0 01-.541.121v-12c-2.958 0-5.582 1.165-7.603 3.185l4.243 4.243zm3.36-1.428v6h5.712v-12h-5.712v6zm5.712 0v6a1.21 1.21 0 01-.429-.1 1.204 1.204 0 01-.37-.23l4.243-4.242 4.242-4.243c-2.075-2.075-4.748-3.185-7.686-3.185v6zm3.444 1.428l-4.112 4.37a1.278 1.278 0 01-.268-.396 1.126 1.126 0 01-.103-.364l5.995-.25 5.995-.25c-.12-2.86-1.265-5.475-3.395-7.48l-4.112 4.37zm1.512 3.36h-6v.672h12v-.672h-6zm0 .672h-6c0 .953.242 2.77 1.778 4.306s3.353 1.778 4.306 1.778v-12c.897 0 2.671.228 4.179 1.736a5.918 5.918 0 011.737 4.18h-6zm.084.084v6c2.208 0 3.7-1.131 4.41-1.841l-4.242-4.243-4.243-4.243a5.765 5.765 0 014.075-1.673v6zm.168-.084l4.624 3.823c2.423-2.93 5.058-4.123 8.228-4.123v-12c-7.022 0-12.955 3.008-17.477 8.477l4.625 3.823zM66.48 129.428l-4.617 3.831.09.106 4.527-3.937zm1.932 39.144l4.243 4.243-4.243-4.243zm-12.684 0l-4.37 4.112.127.131 4.243-4.243zm-2.184-30.156l-4.61 3.841 4.61-3.841zm-6.216.084l-3.513-4.864a6.713 6.713 0 00-.132.098l3.645 4.766zm-15.54 30.072l-4.37 4.112.127.131 4.243-4.243zm-8.4-30.072l-3.513-4.864a6.713 6.713 0 00-.132.098l3.645 4.766zm-15.96 30.072l4.243-4.243-4.243 4.243zm0-40.824l4.243 4.243-4.243-4.243zm11.928 0l-4.243 4.243.13.126 4.113-4.369zm1.68 4.368h6a5.99 5.99 0 00-.02-.498l-5.98.498zm.252 0l-4.847-3.537a6 6 0 00-1.153 3.537h6zm5.376-4.872l-2.902-5.251-.06.033 2.962 5.218zm12.348-.42l-3.059 5.162.082.047 2.977-5.209zm4.452 4.872h6c0-1.08-.292-2.141-.844-3.069l-5.156 3.069zm.336 0l-4.243-4.243 4.243 4.243zm12.18-6.216v6c3.792 0 5.248 1.015 5.883 1.779l4.617-3.831 4.617-3.831c-3.733-4.5-9.276-6.117-15.117-6.117v6zm10.5 3.948l-4.528 3.937c.797.917 1.888 3.38 1.888 8.915h12c0-6.449-1.15-12.554-4.832-16.789l-4.528 3.937zm3.36 12.852h-6v22.932h12V142.28h-6zm0 22.932h-6c0-.115.025-.316.121-.541.093-.22.198-.331.208-.342l4.243 4.243 4.243 4.243c2.02-2.021 3.185-4.645 3.185-7.603h-6zm-1.428 3.36l-4.243-4.243c.01-.01.122-.115.342-.208a1.44 1.44 0 01.541-.121v12c2.958 0 5.582-1.165 7.603-3.185l-4.243-4.243zM65.052 170v-6h-5.964v12h5.964v-6zm-5.964 0v-6c.115 0 .316.025.54.121.22.093.333.198.343.208l-4.243 4.243-4.243 4.243c2.02 2.02 4.645 3.185 7.603 3.185v-6zm-3.36-1.428l4.37-4.112c.023.025.115.136.193.33.078.195.093.355.093.422h-12c0 2.842 1.049 5.426 2.975 7.472l4.369-4.112zm-1.344-3.36h6V142.28h-12v22.932h6zm0-22.932h6c0-1.209-.086-2.466-.347-3.669-.25-1.149-.75-2.677-1.884-4.036l-4.609 3.841-4.61 3.841a3.524 3.524 0 01-.537-.858c-.076-.177-.093-.271-.086-.238.006.028.026.132.044.331.017.196.029.456.029.788h6zm-.84-3.864l4.61-3.841c-2.275-2.73-5.55-3.167-7.634-3.167v12c.305 0 .238.04-.05-.056-.326-.109-.961-.406-1.535-1.095l4.609-3.841zm-3.024-1.008v-6c-2.52 0-4.793.847-6.705 2.228l3.513 4.864 3.513 4.864c.074-.053.068-.035-.017-.006a.974.974 0 01-.304.05v-6zm-3.192 1.092l-3.645-4.766c-1.323 1.012-3.783 3.268-3.783 6.866h12c0 1.146-.419 1.959-.681 2.345-.24.352-.406.443-.246.321l-3.645-4.766zm-1.428 2.1h-6v24.612h12V140.6h-6zm0 24.612h-6c0-.115.025-.316.121-.541.093-.22.198-.331.208-.342l4.243 4.243 4.243 4.243c2.02-2.021 3.185-4.645 3.185-7.603h-6zm-1.428 3.36l-4.243-4.243c.01-.01.122-.115.342-.208a1.44 1.44 0 01.541-.121v12c2.958 0 5.582-1.165 7.603-3.185l-4.243-4.243zM41.112 170v-6h-5.964v12h5.964v-6zm-5.964 0v-6c.115 0 .316.025.54.121.22.093.332.198.343.208l-4.243 4.243-4.243 4.243c2.02 2.02 4.645 3.185 7.603 3.185v-6zm-3.36-1.428l4.37-4.112c.023.025.115.136.193.33.078.195.093.355.093.422h-12c0 2.842 1.049 5.426 2.975 7.472l4.369-4.112zm-1.344-3.36h6V142.28h-12v22.932h6zm0-22.932h6c0-1.209-.086-2.466-.347-3.669-.25-1.149-.75-2.676-1.884-4.036l-4.609 3.841-4.61 3.841a3.524 3.524 0 01-.537-.858c-.076-.177-.093-.271-.086-.238a2.8 2.8 0 01.044.331c.017.196.029.456.029.788h6zm-.84-3.864l4.61-3.841c-2.275-2.73-5.55-3.167-7.634-3.167v12c.305 0 .238.04-.05-.056-.326-.109-.961-.406-1.535-1.095l4.609-3.841zm-3.024-1.008v-6c-2.52 0-4.792.847-6.705 2.228l3.513 4.864 3.513 4.864c.074-.053.068-.035-.017-.006a.974.974 0 01-.304.05v-6zm-3.192 1.092l-3.645-4.766c-1.323 1.012-3.783 3.268-3.783 6.866h12c0 1.146-.419 1.959-.681 2.345-.24.352-.406.443-.246.321l-3.645-4.766zm-1.428 2.1h-6v24.612h12V140.6h-6zm0 24.612h-6c0-.115.025-.316.121-.541.093-.22.198-.331.208-.342l4.243 4.243 4.243 4.243c2.02-2.021 3.185-4.645 3.185-7.603h-6zm-1.428 3.36l-4.243-4.243c.01-.01.122-.115.342-.208a1.44 1.44 0 01.541-.121v12c2.958 0 5.582-1.165 7.603-3.185l-4.243-4.243zM17.172 170v-6h-6.384v12h6.384v-6zm-6.384 0v-6c.115 0 .316.025.54.121.22.093.333.198.343.208l-4.243 4.243-4.243 4.243c2.02 2.02 4.645 3.185 7.603 3.185v-6zm-3.36-1.428l4.243-4.243c.01.011.115.122.208.342.096.225.121.426.121.541H0c0 2.958 1.165 5.582 3.185 7.603l4.243-4.243zM6 165.212h6v-34.104H0v34.104h6zm0-34.104h6c0 .115-.025.316-.121.541-.093.22-.198.331-.208.342l-4.243-4.243-4.243-4.243C1.165 125.526 0 128.15 0 131.108h6zm1.428-3.36l4.243 4.243a1.17 1.17 0 01-.342.208 1.44 1.44 0 01-.541.121v-12c-2.958 0-5.582 1.165-7.603 3.185l4.243 4.243zm3.36-1.428v6h5.124v-12h-5.124v6zm5.124 0v6c-.052 0-.217-.013-.43-.101a1.186 1.186 0 01-.369-.228l4.243-4.243 4.243-4.243c-2.075-2.075-4.749-3.185-7.687-3.185v6zm3.444 1.428l-4.112 4.369a.981.981 0 01-.195-.283c-.07-.147-.077-.243-.076-.228l5.979-.498 5.98-.498c-.231-2.77-1.396-5.285-3.464-7.231l-4.112 4.369zm1.596 3.36l-5.98.498.085 1.008 5.979-.498 5.98-.498-.085-1.008-5.979.498zm.084 1.008h-6c0 .953.242 2.77 1.778 4.306s3.353 1.778 4.306 1.778v-12c.897 0 2.672.228 4.18 1.736a5.917 5.917 0 011.736 4.18h-6zm.084.084v6c.363 0 1.528-.014 2.81-.654a6.066 6.066 0 003.359-5.43H15.287a5.933 5.933 0 013.275-5.304c1.226-.612 2.307-.612 2.557-.612v6zm.168-.084l4.847 3.537c1.049-1.438 2.215-2.467 3.49-3.191l-2.961-5.218-2.962-5.218c-2.868 1.628-5.286 3.847-7.26 6.553l4.846 3.537zm5.376-4.872l2.902 5.251c1.422-.785 2.503-1.015 3.314-1.015v-12c-3.22 0-6.284.946-9.118 2.513l2.902 5.251zm6.216-1.764v6c1.969 0 2.821.356 3.073.506l3.059-5.162 3.059-5.162c-2.772-1.642-6.008-2.182-9.191-2.182v6zm6.132 1.344l-2.977 5.209c.322.184 1.152.847 2.273 2.732l5.156-3.069 5.156-3.069c-1.678-2.819-3.817-5.404-6.631-7.012l-2.977 5.209zm4.452 4.872h-6c0 .953.242 2.77 1.778 4.306 1.537 1.536 3.353 1.778 4.306 1.778v-12c.897 0 2.671.228 4.18 1.736a5.917 5.917 0 011.736 4.18h-6zm.084.084v6c1.037 0 2.917-.263 4.495-1.841l-4.243-4.243-4.243-4.243a5.667 5.667 0 013.991-1.673v6zm.252-.084l4.243 4.243c3.55-3.55 6.172-4.459 7.937-4.459v-12c-6.187 0-11.684 3.235-16.423 7.973l4.243 4.243zm52.488 25.62l-5.159 3.063.044.072 5.115-3.135zm10.248 0l5.116 3.135.043-.072-5.159-3.063zm0-18.228l-5.159 3.063.044.072 5.115-3.135zm-10.248 0l5.116 3.135.043-.072-5.159-3.063zm-11.592-7.56l4.243 4.243.03-.03-4.273-4.213zm33.432 0l-4.272 4.213.03.03 4.242-4.243zm0 33.348l4.243 4.243.029-.03-4.272-4.213zm-33.432 0l-4.272 4.213.03.03 4.242-4.243zm11.592-7.56l-5.115 3.135c2.34 3.82 6.182 5.469 10.239 5.469v-12c-.221 0-.344-.021-.389-.03-.041-.009-.011-.007.062.03.077.039.159.095.23.162.069.065.095.109.089.099l-5.116 3.135zm5.124 2.604v6c4.057 0 7.899-1.649 10.24-5.469l-5.116-3.135-5.115-3.135c-.007.01.019-.034.088-.099a1.05 1.05 0 01.23-.162c.073-.037.103-.039.062-.03-.045.009-.168.03-.389.03v6zm5.124-2.604l5.159 3.063c1.948-3.28 2.437-7.756 2.437-12.219h-12c0 1.934-.121 3.41-.31 4.493a8.713 8.713 0 01-.286 1.205 3.164 3.164 0 01-.114.302c-.029.067-.046.095-.045.093l5.159 3.063zm1.596-9.156h6c0-4.433-.479-8.942-2.48-12.207l-5.116 3.135-5.115 3.135c-.009-.014.208.365.403 1.475.187 1.062.308 2.527.308 4.462h6zm-1.596-9.072l5.159-3.063c-2.301-3.877-6.139-5.625-10.283-5.625v12c.209 0 .319.02.35.027.028.006-.012 0-.092-.042a.972.972 0 01-.229-.166c-.064-.061-.08-.095-.064-.068l5.159-3.063zm-5.124-2.688v-6c-4.143 0-7.981 1.748-10.283 5.625l5.16 3.063 5.158 3.063c.017-.027 0 .007-.063.068a1 1 0 01-.23.166c-.079.042-.12.048-.092.042.032-.007.141-.027.35-.027v-6zm-5.124 2.688l-5.115-3.135c-2.002 3.265-2.48 7.774-2.48 12.207h11.998c0-1.935.122-3.4.308-4.462.196-1.11.413-1.489.404-1.475l-5.116-3.135zm-1.596 9.072h-6c0 4.463.49 8.939 2.437 12.219l5.16-3.063 5.158-3.063c.002.002-.015-.026-.045-.093a3.533 3.533 0 01-.113-.302 8.543 8.543 0 01-.287-1.205c-.189-1.083-.31-2.559-.31-4.493h-6zm-9.996-16.632l4.272 4.213c2.568-2.604 6.432-4.261 12.444-4.261v-12c-8.324 0-15.604 2.375-20.988 7.835l4.272 4.213zm16.716-6.048v6c6.012 0 9.876 1.657 12.444 4.261l4.272-4.213 4.272-4.213c-5.384-5.46-12.664-7.835-20.988-7.835v6zm16.716 6.048l-4.242 4.243c2.571 2.572 4.206 6.425 4.206 12.389h12c0-8.26-2.341-15.495-7.721-20.875l-4.243 4.243zm5.964 16.632h-6c0 5.96-1.633 9.864-4.236 12.503l4.272 4.213 4.272 4.213c5.35-5.425 7.692-12.665 7.692-20.929h-6zm-5.964 16.716l-4.242-4.243c-2.564 2.564-6.438 4.207-12.474 4.207v12c8.301 0 15.57-2.333 20.959-7.721l-4.243-4.243zm-16.716 5.964v-6c-6.035 0-9.91-1.643-12.473-4.207l-4.243 4.243-4.242 4.243c5.388 5.388 12.658 7.721 20.958 7.721v-6zm-16.716-5.964l4.272-4.213c-2.602-2.639-4.236-6.543-4.236-12.503h-12c0 8.264 2.343 15.504 7.692 20.929l4.272-4.213zm-5.964-16.716h6c0-5.964 1.635-9.817 4.207-12.389l-4.243-4.243-4.242-4.243c-5.38 5.38-7.722 12.615-7.722 20.875h6zm85.151-21.672l-.776-5.95-.002.001.778 5.949zm3.36 1.176l-4.242 4.243 4.242-4.243zm.084 8.988l4.243 4.243a5.16 5.16 0 00.126-.131l-4.369-4.112zm-3.36 1.596l-.744-5.954-.028.004.772 5.95zm-10.332 4.872l4.288 4.197.044-.046-4.332-4.151zm-18.816 25.452l4.243-4.243-4.243 4.243zm0-40.824l4.243 4.243-4.243-4.243zm13.104 0l-4.242 4.243 4.242-4.243zm1.68 6.888l4.243 4.243c.193-.193.372-.398.536-.615l-4.779-3.628zm14.28-8.148l.776 5.95a2.156 2.156 0 01-.952-.119 1.926 1.926 0 01-.706-.412l4.242-4.243 4.243-4.243c-2.213-2.213-5.166-3.302-8.379-2.883l.776 5.95zm3.36 1.176l-4.242 4.243a1.205 1.205 0 01-.229-.37 1.214 1.214 0 01-.101-.429h12c0-2.938-1.11-5.612-3.185-7.687l-4.243 4.243zm1.428 3.444h-6v2.184h12v-2.184h-6zm0 2.184h-6c0-.067.015-.227.093-.422.078-.194.17-.305.194-.33l4.369 4.112 4.369 4.112c1.926-2.046 2.975-4.63 2.975-7.472h-6zm-1.344 3.36l-4.242-4.243a.605.605 0 01.156-.106c.031-.014.05-.02.053-.021.001 0-.02.006-.071.012l.744 5.954.744 5.954c2.571-.322 4.952-1.401 6.859-3.307l-4.243-4.243zm-3.36 1.596l-.772-5.95c-5.431.705-10.215 2.834-13.892 6.671l4.332 4.151 4.332 4.151c1.476-1.539 3.579-2.658 6.773-3.073l-.773-5.95zm-10.332 4.872l-4.288-4.197c-3.714 3.795-5.576 8.539-5.576 13.857h12c0-2.298.715-3.994 2.152-5.463l-4.288-4.197zm-3.864 9.66h-6v12.432h12V152.78h-6zm0 12.432h-6c0-.115.026-.316.121-.541.094-.22.198-.331.209-.342l4.242 4.243 4.243 4.243c2.02-2.021 3.185-4.645 3.185-7.603h-6zm-1.428 3.36l-4.242-4.243c.01-.01.122-.115.341-.208.225-.096.427-.121.541-.121v12c2.958 0 5.582-1.165 7.603-3.185l-4.243-4.243zm-3.36 1.428v-6h-6.804v12h6.804v-6zm-6.804 0v-6c.115 0 .316.025.541.121.22.093.332.198.342.208l-4.243 4.243-4.242 4.243c2.02 2.02 4.644 3.185 7.602 3.185v-6zm-3.36-1.428l4.243-4.243c.01.011.115.122.208.342.096.225.121.426.121.541h-12c0 2.958 1.165 5.582 3.186 7.603l4.242-4.243zm-1.428-3.36h6v-34.104h-12v34.104h6zm0-34.104h6c0 .115-.025.316-.121.541-.093.22-.198.331-.208.342l-4.243-4.243-4.242-4.243c-2.021 2.021-3.186 4.645-3.186 7.603h6zm1.428-3.36l4.243 4.243c-.01.01-.122.115-.342.208a1.44 1.44 0 01-.541.121v-12c-2.958 0-5.582 1.165-7.602 3.185l4.242 4.243zm3.36-1.428v6h6.384v-12h-6.384v6zm6.384 0v6c-.114 0-.316-.025-.541-.121a1.168 1.168 0 01-.341-.208l4.242-4.243 4.243-4.243c-2.021-2.02-4.645-3.185-7.603-3.185v6zm3.36 1.428l-4.242 4.243a1.172 1.172 0 01-.209-.342 1.46 1.46 0 01-.121-.541h12c0-2.958-1.165-5.582-3.185-7.603l-4.243 4.243zm1.428 3.36h-6v3.528h12v-3.528h-6zm0 3.528h-6c0 .953.243 2.769 1.779 4.306 1.536 1.536 3.352 1.778 4.305 1.778v-12c.897 0 2.672.228 4.18 1.736a5.918 5.918 0 011.736 4.18h-6zm.084.084v6c2.209 0 3.701-1.131 4.411-1.841l-4.243-4.243-4.242-4.243a5.764 5.764 0 014.074-1.673v6zm.168-.084l4.779 3.628c2.521-3.321 5.815-5.242 10.28-5.827l-.779-5.949-.778-5.949c-7.519.983-13.745 4.494-18.281 10.469l4.779 3.628zm54.082 8.568h6l-.001-.13-5.999.13zm-1.68-5.544l-4.459 4.014.109.118 4.35-4.132zm-9.576 0l4.243 4.243-4.243-4.243zm-2.016 5.628l-5.967-.622a5.877 5.877 0 00-.033.622h6zm27.972 4.704h6v-.022l-6 .022zm-1.512 3.444l3.987 4.484c.045-.04.089-.08.133-.122l-4.12-4.362zm-26.208 2.1l5.867-1.257-.009-.045-5.858 1.302zm3.276 4.956l-2.958 5.22.073.041 2.885-5.261zm16.464.42l1.196 5.88.194-.043-1.39-5.837zm3.192.756l-3.814 4.632c.056.045.112.09.17.134l3.644-4.766zm.084 8.148l-4.772-3.636a.878.878 0 01-.028.036l4.8 3.6zm-3.276 2.016l-.986-5.918c-.057.009-.115.02-.172.031l1.158 5.887zm-29.316-4.788l-4.064 4.413.06.055 4.004-4.468zm-.672-33.684l4.304 4.181-4.304-4.181zm22.512 12.6v6c1.177 0 3.162-.298 4.81-1.946 1.648-1.648 1.946-3.633 1.946-4.81h-12c0-.673.173-2.28 1.569-3.676a5.253 5.253 0 013.675-1.568v6zm.756-.756l5.999-.13c-.068-3.14-.738-6.82-3.329-9.547l-4.35 4.133-4.35 4.132c-.253-.266-.249-.414-.174-.166.079.261.186.796.206 1.708l5.998-.13zm-1.68-5.544l4.46-4.014c-2.524-2.805-5.97-3.666-9.08-3.666v12c.251 0 .425.017.535.034.11.017.145.032.124.025a1.097 1.097 0 01-.197-.105 1.561 1.561 0 01-.301-.26l4.459-4.014zm-4.62-1.68v-6c-3.16 0-6.582.821-9.198 3.437l4.242 4.243 4.243 4.243a1.048 1.048 0 01-.193.153c-.054.033-.075.037-.044.026.072-.024.356-.102.95-.102v-6zm-4.956 1.68l-4.242-4.243c-2.555 2.555-3.42 6.161-3.741 9.249l5.967.622 5.968.622c.107-1.023.267-1.664.395-2.022.13-.361.16-.249-.104.015l-4.243-4.243zm-2.016 5.628h-6c0 1.149.292 3.113 1.926 4.747s3.598 1.925 4.746 1.925v-12c.701 0 2.329.179 3.739 1.589a5.336 5.336 0 011.589 3.739h-6zm.672.672v6h11.844v-12h-11.844v6zm5.88-18.48v6c6.101 0 9.611 1.593 11.677 3.764 2.122 2.23 3.719 6.115 3.744 12.77l5.999-.022 6-.022c-.031-8.353-2.032-15.724-7.05-20.998-5.074-5.333-12.246-7.492-20.37-7.492v6zm21.42 22.512h-6c0-.098.023-.303.129-.543a1.22 1.22 0 01.24-.375l4.119 4.362 4.12 4.362c2.166-2.045 3.392-4.753 3.392-7.806h-6zm-1.512 3.444l-3.986-4.484a.535.535 0 01.078-.056.954.954 0 01.157-.075c.125-.047.189-.041.139-.041v12c2.809 0 5.447-.947 7.599-2.86l-3.987-4.484zm-3.612 1.344v-6h-22.008v12h22.008v-6zm-22.008 0v-6c-1.023 0-3.496.237-5.261 2.505-1.724 2.217-1.391 4.619-1.184 5.553l5.857-1.302 5.858-1.302c.095.43.47 2.454-1.058 4.419a5.406 5.406 0 01-4.212 2.127v-6zm-.588.756l-5.866 1.257c.768 3.584 2.659 6.922 6.184 8.919l2.958-5.22 2.959-5.22c-.011-.006-.007-.005 0 .002.006.006-.005-.003-.032-.044-.056-.083-.208-.354-.336-.951l-5.867 1.257zm3.276 4.956l-2.885 5.261c3.087 1.692 7.016 2.167 10.949 2.167v-12c-3.346 0-4.793-.477-5.179-.689l-2.885 5.261zm8.064 1.428v6c2.837 0 6.064-.41 9.596-1.128l-1.196-5.88-1.195-5.88c-3.076.626-5.449.888-7.205.888v6zm8.4-1.008l1.39 5.837c-.226.054-.62.092-1.092-.02a2.315 2.315 0 01-.92-.429l3.814-4.632 3.815-4.632c-2.368-1.95-5.35-2.686-8.396-1.961l1.389 5.837zm3.192.756l-3.644 4.766a2.447 2.447 0 01-.682-.864 2.3 2.3 0 01-.246-.962h12c0-3.04-1.298-5.806-3.783-7.706l-3.645 4.766zm1.428 2.94h-6v1.344h12v-1.344h-6zm0 1.344h-6c0 .029-.002.041-.002.043l-.001.002a.195.195 0 01-.02.043 1.1 1.1 0 01-.093.14l4.772 3.636 4.773 3.636c1.645-2.158 2.571-4.71 2.571-7.5h-6zm-1.344 3.864l-4.8-3.6c-.009.013.055-.072.207-.166.155-.095.287-.129.331-.136l.986 5.918.987 5.918c2.912-.485 5.352-2.017 7.089-4.334l-4.8-3.6zm-3.276 2.016l-1.158-5.887c-2.995.589-6.244.895-9.762.895v12c4.211 0 8.242-.366 12.079-1.121l-1.159-5.887zm-10.92 1.008v-6c-7.029 0-11.533-1.703-14.391-4.264l-4.005 4.468-4.004 4.468c5.766 5.167 13.526 7.328 22.4 7.328v-6zm-18.396-5.796l4.065-4.413c-2.71-2.496-4.449-6.333-4.449-12.471h-12c0 8.534 2.518 15.953 8.32 21.297l4.064-4.413zm-6.384-16.884h6c0-6.252 1.618-10.151 4.016-12.619l-4.304-4.181-4.303-4.181c-5.218 5.372-7.409 12.673-7.409 20.981h6zm5.712-16.8l4.304 4.181c2.349-2.418 6.099-4.061 12.244-4.061v-12c-8.302 0-15.584 2.277-20.851 7.699l4.303 4.181zm106.757-23.1l-.745 5.954.745-5.954zm3.276 1.932l-4.8 3.6c.067.09.137.179.21.265l4.59-3.865zm-.084 8.316l-3.645-4.766a7.408 7.408 0 00-.139.109l3.784 4.657zm-3.108.84l.848-5.94a5.9 5.9 0 00-.186-.023l-.662 5.963zm-7.308 1.176l4.386 4.094c.044-.047.087-.095.129-.143l-4.515-3.951zm9.576 8.904l-4.243 4.243 4.243-4.243zm0 8.064l-4.243-4.243 4.243 4.243zm-12.18 31.08l4.242 4.243-4.242-4.243zm-13.524 0l-4.243 4.243 4.243-4.243zm-9.24-31.08l4.242-4.243-4.242 4.243zm0-8.064l-4.243-4.243 4.243 4.243zm12.264-17.136l-4.243-4.243 4.243 4.243zm20.328-4.032l-.745 5.954a1.319 1.319 0 01-.476-.177 1.34 1.34 0 01-.226-.165.623.623 0 01-.077-.08l4.8-3.6 4.8-3.6c-1.78-2.373-4.313-3.908-7.332-4.286l-.744 5.954zm3.276 1.932l-4.59 3.865c.015.017.011.016-.001-.004a.517.517 0 01-.064-.177c-.004-.019-.001-.017-.001.012h12a11.57 11.57 0 00-2.755-7.561l-4.589 3.865zm1.344 3.696h-6v1.764h12v-1.764h-6zm0 1.764h-6c0-.244.055-.646.276-1.087.219-.438.494-.703.651-.823l3.645 4.766 3.644 4.766c2.404-1.838 3.784-4.536 3.784-7.622h-6zm-1.428 2.856l-3.784-4.657a2.11 2.11 0 01.769-.379c.349-.094.623-.083.755-.064l-.848 5.94-.849 5.94c2.777.396 5.504-.307 7.74-2.123l-3.783-4.657zm-3.108.84l.662-5.963c-1.024-.114-2.038-.205-2.846-.205v12l.103.004c.077.003.181.01.318.02.277.022.64.056 1.1.107l.663-5.963zm-2.184-.168v-6c-1.605 0-3.248.131-4.778.532-1.485.39-3.383 1.171-4.862 2.861l4.516 3.951 4.515 3.951a3.316 3.316 0 01-.906.742c-.196.106-.292.122-.218.103.07-.019.243-.056.548-.088.301-.031.692-.052 1.185-.052v-6zm-5.124 1.344l-4.387-4.094c-1.514 1.622-2.098 3.612-2.376 4.98-.306 1.508-.413 3.185-.413 4.91h12c0-1.299.088-2.1.174-2.524.041-.202.06-.211.011-.094-.047.11-.218.482-.623.916l-4.386-4.094zm-1.176 5.796h-6v.924h12v-.924h-6zm0 .924h-6c0 1.177.298 3.162 1.946 4.81 1.648 1.648 3.633 1.946 4.81 1.946v-12c.672 0 2.279.172 3.675 1.568a5.256 5.256 0 011.569 3.676h-6zm.756.756v6h6.636v-12h-6.636v6zm6.636 0v6a1.44 1.44 0 01-.541-.121 1.165 1.165 0 01-.342-.208l4.243-4.243 4.242-4.243c-2.02-2.02-4.645-3.185-7.602-3.185v6zm3.36 1.428l-4.243 4.243c-.01-.011-.115-.122-.208-.342a1.44 1.44 0 01-.121-.541h12c0-2.958-1.165-5.582-3.186-7.603l-4.242 4.243zm1.428 3.36h-6v1.344h12v-1.344h-6zm0 1.344h-6c0-.115.025-.316.121-.541.093-.22.198-.331.208-.342l4.243 4.243 4.242 4.243c2.021-2.021 3.186-4.645 3.186-7.603h-6zm-1.428 3.36l-4.243-4.243c.01-.01.122-.115.342-.208a1.44 1.44 0 01.541-.121v12c2.957 0 5.582-1.165 7.602-3.185l-4.242-4.243zm-3.36 1.428v-6h-6.636v12h6.636v-6zm-6.636 0v-6c-1.177 0-3.162.298-4.81 1.946-1.648 1.648-1.946 3.633-1.946 4.81h12c0 .673-.173 2.28-1.569 3.676a5.253 5.253 0 01-3.675 1.568v-6zm-.756.756h-6v25.536h12v-25.536h-6zm0 25.536h-6c0-.115.025-.316.121-.541.093-.22.198-.331.208-.342l4.243 4.243 4.242 4.243c2.021-2.021 3.186-4.645 3.186-7.603h-6zm-1.428 3.36l-4.243-4.243c.01-.01.122-.115.342-.208a1.44 1.44 0 01.541-.121v12c2.957 0 5.582-1.165 7.602-3.185l-4.242-4.243zm-3.36 1.428v-6h-6.804v12h6.804v-6zm-6.804 0v-6c.114 0 .315.025.54.121.22.093.332.198.342.208l-4.242 4.243-4.243 4.243c2.02 2.02 4.645 3.185 7.603 3.185v-6zm-3.36-1.428l4.242-4.243c.01.011.115.122.209.342.095.225.121.426.121.541h-12c0 2.958 1.165 5.582 3.185 7.603l4.243-4.243zm-1.428-3.36h6v-25.536h-12v25.536h6zm0-25.536h6c0-1.177-.299-3.162-1.947-4.81-1.648-1.648-3.633-1.946-4.809-1.946v12c-.673 0-2.28-.172-3.676-1.568a5.253 5.253 0 01-1.568-3.676h6zm-.756-.756v-6h-3.696v12h3.696v-6zm-3.696 0v-6c.114 0 .315.025.54.121.22.093.332.198.342.208l-4.242 4.243-4.243 4.243c2.02 2.02 4.645 3.185 7.603 3.185v-6zm-3.36-1.428l4.242-4.243c.01.011.115.122.209.342.095.225.121.426.121.541h-12c0 2.958 1.165 5.582 3.185 7.603l4.243-4.243zm-1.428-3.36h6v-1.344h-12v1.344h6zm0-1.344h6c0 .115-.026.316-.121.541-.094.22-.199.331-.209.342l-4.242-4.243-4.243-4.243c-2.02 2.021-3.185 4.645-3.185 7.603h6zm1.428-3.36l4.242 4.243c-.01.01-.122.115-.342.208a1.44 1.44 0 01-.54.121v-12c-2.958 0-5.583 1.165-7.603 3.185l4.243 4.243zm3.36-1.428v6h3.696v-12h-3.696v6zm3.696 0v6c1.176 0 3.161-.298 4.809-1.946 1.648-1.648 1.947-3.633 1.947-4.81h-12c0-.673.172-2.28 1.568-3.676a5.253 5.253 0 013.676-1.568v6zm.756-.756h6v-.924h-12v.924h6zm0-.924h6c0-5.607 1.32-8.411 2.694-9.785l-4.242-4.243-4.243-4.243c-4.562 4.562-6.209 11.11-6.209 18.271h6zm4.452-14.028l4.242 4.243c1.375-1.375 4.178-2.695 9.786-2.695v-12c-7.161 0-13.709 1.648-18.271 6.209l4.243 4.243zm14.028-4.452v6c1.677 0 3.526.12 5.555.374l.745-5.954.744-5.954c-2.451-.306-4.802-.466-7.044-.466v6zm60.755 19.908l-4.243 4.243 4.243-4.243zm0 40.824l-4.243-4.243 4.243 4.243zm-12.516.084l-4.243 4.243c.043.042.086.085.13.126l4.113-4.369zm-1.512-3.444h-6c0 .083.001.167.005.25l5.995-.25zm-.252-.672l4.624 3.823a6.003 6.003 0 001.376-3.823h-6zm-23.52 2.184l-4.742 3.677.047.059 4.695-3.736zm-1.764-38.976l4.242 4.243-4.242-4.243zm12.684 0l-4.243 4.243 4.243-4.243zm2.436 29.064l-4.902 3.46c.044.062.089.124.135.185l4.767-3.645zm7.896-.42l-4.055-4.423-.093.087 4.148 4.336zm3.444-28.644l4.242 4.243-4.242-4.243zm9.744-1.428v6a1.44 1.44 0 01-.541-.121 1.165 1.165 0 01-.342-.208l4.243-4.243 4.242-4.243c-2.02-2.02-4.645-3.185-7.602-3.185v6zm3.36 1.428l-4.243 4.243c-.01-.011-.115-.122-.208-.342a1.44 1.44 0 01-.121-.541h12c0-2.958-1.165-5.582-3.186-7.603l-4.242 4.243zm1.428 3.36h-6v34.104h12v-34.104h-6zm0 34.104h-6c0-.115.025-.316.121-.541.093-.22.198-.331.208-.342l4.243 4.243 4.242 4.243c2.021-2.021 3.186-4.645 3.186-7.603h-6zm-1.428 3.36l-4.243-4.243c.01-.01.122-.115.342-.208a1.44 1.44 0 01.541-.121v12c2.957 0 5.582-1.165 7.602-3.185l-4.242-4.243zm-3.36 1.428v-6h-5.712v12h5.712v-6zm-5.712 0v-6c-.002 0 .03 0 .09.011.061.011.137.03.222.064.184.072.307.166.356.212l-4.112 4.369-4.113 4.369c2.099 1.976 4.732 2.975 7.557 2.975v-6zm-3.444-1.344l4.242-4.243a.91.91 0 01.159.256c.07.158.081.274.081.293l-5.994.25-5.995.25c.118 2.849 1.249 5.422 3.264 7.437l4.243-4.243zm-1.512-3.444h6v-.672h-12v.672h6zm0-.672h6c0-.953-.243-2.77-1.779-4.306s-3.353-1.778-4.305-1.778v12a5.917 5.917 0 01-4.18-1.736 5.917 5.917 0 01-1.736-4.18h6zm-.084-.084v-6c-.363 0-1.528.014-2.81.654a6.065 6.065 0 00-3.358 5.43h12a5.934 5.934 0 01-3.275 5.304c-1.226.612-2.307.612-2.557.612v-6zm-.168.084l-4.625-3.823c-2.422 2.931-5.058 4.123-8.227 4.123v12c7.022 0 12.955-3.008 17.476-8.477l-4.624-3.823zm-12.852 6.3v-6c-3.88 0-5.338-1.054-5.974-1.852l-4.694 3.736-4.695 3.736c3.732 4.69 9.386 6.38 15.363 6.38v-6zm-10.668-4.116l4.741-3.677c-.831-1.071-1.933-4.096-1.933-10.687h-12c0 7.073 1.025 13.624 4.45 18.041l4.742-3.677zm-3.192-14.364h6v-21.252h-12v21.252h6zm0-21.252h6c0 .115-.026.316-.121.541-.094.22-.199.331-.209.342l-4.242-4.243-4.243-4.243c-2.021 2.021-3.185 4.645-3.185 7.603h6zm1.428-3.36l4.242 4.243c-.01.01-.122.115-.342.208a1.44 1.44 0 01-.54.121v-12c-2.958 0-5.583 1.165-7.603 3.185l4.243 4.243zm3.36-1.428v6h5.964v-12h-5.964v6zm5.964 0v6a1.44 1.44 0 01-.541-.121 1.165 1.165 0 01-.342-.208l4.243-4.243 4.242-4.243c-2.02-2.02-4.645-3.185-7.602-3.185v6zm3.36 1.428l-4.243 4.243c-.01-.011-.115-.122-.208-.342a1.44 1.44 0 01-.121-.541h12c0-2.958-1.165-5.582-3.186-7.603l-4.242 4.243zm1.428 3.36h-6v20.412h12v-20.412h-6zm0 20.412h-6c0 1.517.096 3.005.358 4.378.25 1.313.724 2.924 1.748 4.374l4.902-3.46 4.901-3.46c.194.274.27.471.283.506.014.038-.011-.019-.046-.206-.075-.391-.146-1.073-.146-2.132h-6zm1.008 5.292l-4.767 3.645c2.273 2.971 5.626 3.783 8.379 3.783v-12c-.299 0-.233-.046.043.063.326.129.76.405 1.111.864l-4.766 3.645zm3.612 1.428v6c3.327 0 6.191-1.37 8.431-3.512l-4.147-4.336-4.148-4.336c-.202.194-.296.226-.266.213a.336.336 0 01.13-.029v6zm4.284-1.848l4.054 4.423c2.249-2.062 3.962-4.911 3.962-8.455h-12c0-.102.012-.215.039-.329.027-.113.063-.2.09-.254.053-.107.044-.032-.2.192l4.055 4.423zm2.016-4.032h6v-21.252h-12v21.252h6zm0-21.252h6c0 .115-.026.316-.121.541-.094.22-.199.331-.209.342l-4.242-4.243-4.243-4.243c-2.021 2.021-3.185 4.645-3.185 7.603h6zm1.428-3.36l4.242 4.243c-.01.01-.122.115-.342.208a1.44 1.44 0 01-.54.121v-12c-2.958 0-5.583 1.165-7.603 3.185l4.243 4.243zm3.36-1.428v6h6.384v-12h-6.384v6zm39.142 5.46l-4.625-3.823a6.002 6.002 0 00-1.375 3.823h6zm23.772-1.932l-4.8 3.6.044.058 4.756-3.658zm1.932 38.724l4.242 4.243-4.242-4.243zm-12.684 0l4.242-4.243-4.242 4.243zm-2.52-29.064l4.766-3.645-4.766 3.645zm-8.316.42l-4.055-4.423-.093.087 4.148 4.336zm-16.464 28.644l4.242-4.243-4.242 4.243zm0-40.824l4.242 4.243-4.242-4.243zm12.516 0l-4.243 4.243c.043.042.086.085.13.126l4.113-4.369zm1.512 3.36h6c0-.083-.002-.167-.006-.25l-5.994.25zm.252.672l4.624 3.823c2.423-2.931 5.058-4.123 8.228-4.123v-12c-7.022 0-12.955 3.008-17.477 8.477l4.625 3.823zm12.852-6.3v6c4.012 0 5.477 1.112 6.12 1.968l4.8-3.6 4.8-3.6c-3.726-4.968-9.54-6.768-15.72-6.768v6zm10.92 4.368l-4.756 3.658c.97 1.262 2.116 4.519 2.116 11.294h12c0-7.337-1.095-14.048-4.605-18.61l-4.755 3.658zm3.36 14.952h-6v20.412h12V144.8h-6zm0 20.412h-6c0-.115.025-.316.121-.541.093-.22.198-.331.208-.342l4.243 4.243 4.242 4.243c2.021-2.021 3.186-4.645 3.186-7.603h-6zm-1.428 3.36l-4.243-4.243c.01-.01.122-.115.342-.208a1.44 1.44 0 01.541-.121v12c2.957 0 5.582-1.165 7.602-3.185l-4.242-4.243zm-3.36 1.428v-6h-5.964v12h5.964v-6zm-5.964 0v-6c.114 0 .315.025.54.121.22.093.332.198.342.208l-4.242 4.243-4.243 4.243c2.02 2.02 4.645 3.185 7.603 3.185v-6zm-3.36-1.428l4.242-4.243c.01.011.115.122.209.342.095.225.121.426.121.541h-12c0 2.958 1.165 5.582 3.185 7.603l4.243-4.243zm-1.428-3.36h6V144.8h-12v20.412h6zm0-20.412h6c0-1.537-.106-3.057-.397-4.468-.281-1.36-.811-3.007-1.929-4.469l-4.766 3.645-4.767 3.645c-.21-.275-.3-.484-.323-.541-.023-.057-.002-.022.032.146.073.353.15 1.003.15 2.042h6zm-1.092-5.292l4.766-3.645c-2.4-3.138-6.051-3.783-8.714-3.783v12c.49 0 .559.066.374-.001a2.247 2.247 0 01-.519-.277 3.098 3.098 0 01-.674-.649l4.767-3.645zm-3.948-1.428v-6c-3.311 0-6.164 1.355-8.423 3.425l4.055 4.423 4.054 4.423c.243-.223.375-.28.383-.283.006-.003-.004.002-.027.007a.305.305 0 01-.042.005v-6zm-4.368 1.848l-4.148-4.336c-2.187 2.092-3.784 4.919-3.784 8.368h12a1.262 1.262 0 01-.106.493c-.046.094-.036.022.185-.189l-4.147-4.336zm-1.932 4.032h-6v21.252h12V143.96h-6zm0 21.252h-6c0-.115.025-.316.121-.541.093-.22.198-.331.208-.342l4.243 4.243 4.242 4.243c2.021-2.021 3.186-4.645 3.186-7.603h-6zm-1.428 3.36l-4.243-4.243c.01-.01.122-.115.342-.208a1.44 1.44 0 01.541-.121v12c2.957 0 5.582-1.165 7.602-3.185l-4.242-4.243zm-3.36 1.428v-6h-6.384v12h6.384v-6zm-6.384 0v-6c.114 0 .315.025.54.121.22.093.332.198.342.208l-4.242 4.243-4.243 4.243c2.02 2.02 4.645 3.185 7.603 3.185v-6zm-3.36-1.428l4.242-4.243c.01.011.115.122.209.342.095.225.121.426.121.541h-12c0 2.958 1.165 5.582 3.185 7.603l4.243-4.243zm-1.428-3.36h6v-34.104h-12v34.104h6zm0-34.104h6c0 .115-.026.316-.121.541-.094.22-.199.331-.209.342l-4.242-4.243-4.243-4.243c-2.02 2.021-3.185 4.645-3.185 7.603h6zm1.428-3.36l4.242 4.243c-.01.01-.122.115-.342.208a1.44 1.44 0 01-.54.121v-12c-2.958 0-5.583 1.165-7.603 3.185l4.243 4.243zm3.36-1.428v6h5.712v-12h-5.712v6zm5.712 0v6c-.052 0-.217-.013-.429-.101a1.19 1.19 0 01-.37-.228l4.243-4.243 4.242-4.243c-2.075-2.075-4.748-3.185-7.686-3.185v6zm3.444 1.428l-4.113 4.369a1.304 1.304 0 01-.267-.395 1.125 1.125 0 01-.103-.364l5.995-.25 5.994-.25c-.119-2.86-1.264-5.475-3.394-7.479l-4.112 4.369zm1.512 3.36h-6v.672h12v-.672h-6zm0 .672h-6c0 .953.242 2.77 1.778 4.306s3.353 1.778 4.306 1.778v-12c.896 0 2.671.228 4.179 1.736a5.919 5.919 0 011.737 4.18h-6zm.084.084v6c.362 0 1.527-.014 2.809-.654a6.078 6.078 0 003.359-5.43h-12a5.932 5.932 0 013.274-5.304c1.226-.612 2.307-.612 2.558-.612v6zm57.864 21.924l-4.243 4.243 4.243-4.243zm-15.624 14.784l-4.243 4.243 4.243-4.243zm0-14.784l4.242 4.243-4.242-4.243zm12.264-1.428v6a1.44 1.44 0 01-.541-.121 1.165 1.165 0 01-.342-.208l4.243-4.243 4.242-4.243c-2.02-2.02-4.644-3.185-7.602-3.185v6zm3.36 1.428l-4.243 4.243c-.01-.011-.115-.122-.208-.342a1.44 1.44 0 01-.121-.541h12c0-2.958-1.165-5.582-3.186-7.603l-4.242 4.243zm1.428 3.36h-6v8.064h12v-8.064h-6zm0 8.064h-6c0-.115.025-.316.121-.541.093-.22.198-.331.208-.342l4.243 4.243 4.242 4.243c2.021-2.021 3.186-4.645 3.186-7.603h-6zm-1.428 3.36l-4.243-4.243c.01-.01.122-.115.342-.208a1.44 1.44 0 01.541-.121v12c2.958 0 5.582-1.165 7.602-3.185l-4.242-4.243zm-3.36 1.428v-6h-8.904v12h8.904v-6zm-8.904 0v-6c.114 0 .316.025.541.121.219.093.331.198.341.208l-4.242 4.243-4.243 4.243c2.021 2.02 4.645 3.185 7.603 3.185v-6zm-3.36-1.428l4.242-4.243c.011.011.115.122.209.342.095.225.121.426.121.541h-12c0 2.958 1.165 5.582 3.185 7.603l4.243-4.243zm-1.428-3.36h6v-8.064h-12v8.064h6zm0-8.064h6c0 .115-.026.316-.121.541-.094.22-.198.331-.209.342l-4.242-4.243-4.243-4.243c-2.02 2.021-3.185 4.645-3.185 7.603h6zm1.428-3.36l4.242 4.243c-.01.01-.122.115-.341.208a1.444 1.444 0 01-.541.121v-12c-2.958 0-5.582 1.165-7.603 3.185l4.243 4.243zm3.36-1.428v6h8.904v-12h-8.904v6z" fill="#FFFFC7" mask="url(#path-1-outside-1_2540_845)"/></svg>