<svg width="387" height="108" viewBox="0 0 387 108" fill="none" xmlns="http://www.w3.org/2000/svg"><g clip-path="url(#clip0_1_920)"><path d="M88.339 77.924c.192-.248.397-.485.611-.712a50.678 50.678 0 00-17.203-11.513c-.111 1.005-.026 2.029.464 2.899.332.589.83 1.07 1.171 1.654.342.584.503 1.358.124 1.918-.494-.337-1.004-.68-1.588-.81-.584-.13-1.267.004-1.628.48-.292.386-.322.909-.544 1.338-.222.43-.853.736-1.17.371-.141-.162-.157-.396-.167-.612-.119-2.796-.228-5.653.045-8.434a50.081 50.081 0 00-6.856-1.7C57.001 70.876 50.54 77.889 42.842 83.1c-1.577 1.068-2.277 1.468-4.16 1.754-1.882.286-3.834-.34-5.546-1.174-1.384-.674-6.595 2.69-6.842 4.914-.232 2.08-3.068 5.017-5.012 5.616-1.443.445-3.308.46-3.983 1.81-.437.871 1.491 1.595 2.113 2.346.622.751 1.455.44 1.936 1.288 1.462 2.577 3.056 5.658 3.3 8.346H48.12c.648-.843 1.4-1.757 1.738-2.63.226-.583-.554-1.132-.156-1.783.438-.716 1.617-1.244 2.123-1.154.442.078.801.824.656 1.157-.16.364-.66.587-.912.826-.098.094-.096.293-.106.428-.017.244.001.624.183.585 2.011-.426 4.022-1.664 5.295-3.443.446-.624 1.835-.734 2.26-1.29.555-.723-.093-.876.15-1.686.242-.81 1.682-1.972 1.856-2.868.518-1.023-.047-1.868-.353-2.973l1.666-.318.036-1.586c1.068-.667 1.82.051 1.82.051l-.01-1.324c.626-.45 2.08-.791 2.737-.388l-.536 2.787c.682.663 1.263 1.266 1.65 1.993.388.728.563 1.61.28 2.384-.252.692-.826 1.207-1.262 1.8-.374.508-.646 1.18-.49 1.765.059.082.1.179.113.288a1.227 1.227 0 01-.114-.288c-.25-.345-.843-.448-1.224-.194-.471.315-.625.952-.569 1.516.057.565.281 1.098.405 1.651.124.554.134 1.179-.197 1.64-.918.76-1.166 1.889-1.377 3.054H103.2c-1.023-11.474-5.905-21.854-13.337-29.834-.528.083-1.054.03-1.523-.242zM72.184 88.135c-4.413-4.41-6.424-1.727-6.682-2.025-1.85-2.135-1.88.017-1.055.829.528.14.765.833 1.228 1.18-1.602-.158-2.132.557-3.77 1.306.641-2.973-2.29-3.254-1.032-4.383.343-.288.94-.372 1.01-.814.064-.41-.419-.697-.532-1.097-.104-1.427 1.733-1.066 2.555-.575.982.538 1.7-.968 1.439-1.274 1.429-1.449 2.517-3.699 1.374-5.382.535-.156.89-.662 1.425-.818 4.411 4.847 7.84 4.635 12.262 3.42-.456.826-1.288 2.177-2.028 2.808.004.4 2.248 1.179 3.19 1.128-3.775 2.236-9.011 1.197-9.384 5.697zm10.356-8.347c-.083-.864.434-2.335 1.262-2.833.828-.498 2.558.24 2.847 1.162-1.477.71-2.954 1.419-4.11 1.671zM13.226 105.3c.153-.59 1.862-.838 1.895-.23.506-1.689-.606-3.362-2.365-3.501-1.32-.104-1.623.674-2.936.499-.9-.12-1.77-.804-1.553-1.713.114-.479.885-1.037 1.292-1.736.434-.745.45-1.346.601-1.96-1.249-.62-2.43-2.186-3.79-1.889-.258.057-.53.112-.807.166A50.055 50.055 0 002.604 108h11.692c-.283-.711-1.262-1.962-1.07-2.7z" fill="#29ABE2"/><path d="M19.412 98.366c-.621-.751-2.55-1.475-2.113-2.346.675-1.35 2.54-1.365 3.983-1.81 1.944-.6 4.78-3.535 5.012-5.615.248-2.225 5.459-5.588 6.842-4.914 1.712.833 3.664 1.46 5.547 1.173 1.882-.286 2.582-.686 4.159-1.753C50.539 77.89 57 70.876 61.599 62.803a50.657 50.657 0 00-8.697-.75c-21.662 0-40.18 13.7-47.338 32.883.277-.054.548-.109.807-.166 1.36-.296 2.54 1.269 3.79 1.89-.152.613-.168 1.215-.601 1.96-.408.698-1.179 1.257-1.293 1.735-.216.909.653 1.593 1.554 1.713 1.312.176 1.616-.603 2.936-.498 1.758.138 2.87 1.811 2.365 3.5-.034-.608-1.742-.359-1.895.23-.193.738.786 1.989 1.07 2.7h10.351c-.244-2.687-1.837-5.768-3.3-8.346-.48-.848-1.314-.537-1.936-1.288zM78.378 81.31c.74-.63 1.572-1.982 2.028-2.808-4.422 1.215-7.85 1.426-12.262-3.42-.535.156-.89.663-1.425.818 1.143 1.683.054 3.933-1.374 5.382.26.306-.457 1.812-1.44 1.274-.822-.491-2.658-.852-2.554.575.114.4.596.686.532 1.097-.07.442-.667.526-1.01.814-1.257 1.13 1.673 1.41 1.032 4.383 1.638-.75 2.168-1.464 3.77-1.305-.463-.347-.7-1.042-1.228-1.181-.824-.812-.795-2.964 1.055-.829.258.298 2.269-2.385 6.682 2.025.373-4.5 5.61-3.461 9.385-5.697-.943.051-3.187-.728-3.191-1.128zm-9.968-8.373c.008.216.025.45.166.612.317.365.948.058 1.17-.37.223-.43.252-.953.544-1.338.36-.477 1.044-.61 1.628-.481.584.13 1.094.474 1.588.81.379-.56.218-1.334-.124-1.918-.341-.584-.839-1.065-1.17-1.654-.491-.87-.576-1.894-.465-2.9a50.01 50.01 0 00-3.293-1.195c-.272 2.78-.164 5.638-.045 8.434zm15.392 4.018c-.828.498-1.344 1.97-1.262 2.833 1.156-.252 2.632-.962 4.11-1.671-.29-.922-2.02-1.66-2.848-1.162zm6.061 1.211c-.3-.322-.605-.64-.913-.954-.215.227-.42.464-.611.712.47.272.995.325 1.524.242zm-23.118 22.167c.026.099.061.195.113.288a.603.603 0 00-.113-.288z" fill="#8CC63F"/><path d="M65.16 104.946c.33-.462.32-1.086.197-1.64-.124-.553-.349-1.086-.405-1.651-.057-.564.097-1.2.57-1.516.38-.254.973-.151 1.223.194-.156-.585.117-1.257.49-1.765.436-.593 1.01-1.108 1.263-1.8.283-.774.107-1.656-.28-2.384-.387-.727-.968-1.33-1.65-1.993l.535-2.787c-.657-.403-2.11-.063-2.737.388l.011 1.324s-.752-.718-1.82-.051l-.036 1.586-1.667.318c.306 1.105.871 1.95.353 2.973-.174.896-1.614 2.058-1.856 2.868s.406.963-.149 1.686c-.426.556-1.814.666-2.26 1.29-1.273 1.779-3.284 3.017-5.295 3.443-.182.038-.2-.341-.183-.585.01-.135.007-.334.106-.428.25-.239.752-.462.911-.826.146-.333-.213-1.079-.656-1.157-.506-.09-1.685.438-2.122 1.154-.398.651.382 1.2.155 1.783-.338.873-1.09 1.787-1.737 2.63h15.662c.21-1.166.459-2.293 1.377-3.054z" fill="#8CC63F"/><path d="M52.902 59.46C25.147 59.46 2.302 80.85 0 108h2.604a50.055 50.055 0 012.96-13.064c7.158-19.184 25.676-32.884 47.338-32.884 2.965 0 5.87.259 8.696.75a50.11 50.11 0 0110.15 2.897 50.677 50.677 0 0118.115 12.467c7.432 7.98 12.314 18.36 13.337 29.834h2.604c-2.301-27.15-25.147-48.54-52.902-48.54z" fill="#693E29"/><path d="M44.386 61.122l.22-.766.068-.778-.316-.71-.427-.659-.682-.393-.713-.363-.806-.032-.763-.266-.8.008-.787-.118-.739-.278-.773-.142-.717-.319-.688-.368-.762-.239-.677-.413-.574-.547-.484-.622-.491-.606-.397-.672-.442-.648-.267-.738-.426-.672-.1-.796-.285-.729-.287-.728-.145-.776-.274-.736-.322-.69-.237-.729-.465-.607-.518-.56-.697-.296-.692-.344-.774.078-.728.265-.622.46-.451.619-.429.63-.325.696-.176.749.047.769-.043.76.123.756.253.725.082.767.208.738.373.674.24.734.385.664.413.646.572.532.328.706.552.535.558.521.417.658.592.487.62.45.555.522.55.538.618.454.723.29.62.446.696.315.596.51.76.178.672.367.746.174.726.222.719.253.748.132.747.177.766.031.76-.1.758-.094.738-.218.625-.448.608-.46.519-.576z" fill="#fff"/><path d="M25.565 51.712l.718.237.74.167.759.007.744-.116.729-.156.706-.233.681-.3.603-.438.613-.434.037-.037-.054-.424-.293-.725-.256-.739-.234-.748-.32-.724-.18-.734-.324-.685-.442-.612-.545-.51-.646-.347-.681-.352-.74.196-.708.223-.558.492-.61.462-.366.67-.313.696-.144.749-.087.757.143.751-.052.777.192.743.226.73.125.312.537.345z" fill="#5C5C5C"/><path d="M26.563 54.522l.845-.33.87-.14.876-.075.774.145.763.14.764.173.681.385.65.428.566.53.615.52.341.724.084.792.176.763-.07.865-.255.834-.476.78-.64-.48-.646-.376-.607-.436-.578-.473-.622-.415-.583-.467-.621-.429-.572-.49-.43-.627-.52-.538-.47-.583-.452-.595-.463-.625z" fill="#EDC987"/><path d="M40.378 63.713h-.017l-.77-.02a.655.655 0 01-.182-.03l-.664-.21-.687-.042a.679.679 0 01-.148-.027l-.733-.22a.664.664 0 01-.099-.038l-.664-.322-.643-.24-.711-.168a.636.636 0 01-.11-.037l-.702-.305a.65.65 0 01-.131-.076l-.543-.404-.637-.234a.659.659 0 01-.206-.123l-.513-.449-.614-.29a.644.644 0 01-.108-.065l-.604-.443-.626-.416a.66.66 0 01-.16-.15l-.397-.522-.556-.335a.666.666 0 01-.112-.085l-.556-.525a.649.649 0 01-.102-.123l-.378-.586-1.053-.996a.659.659 0 01-.141-.193l-.31-.641-.88-1.164a.657.657 0 01-.087-.155l-.271-.684-.33-.648a.686.686 0 01-.02-.042l-.296-.699-.56-1.438a.664.664 0 01-.044-.194l-.051-.716-.162-.695a.659.659 0 01-.016-.188l.042-.729-.02-.734a.66.66 0 01.014-.156l.16-.747a.659.659 0 01.08-.202l.376-.623.298-.653a.652.652 0 01.094-.15l.488-.584a.642.642 0 01.11-.105l.612-.46a.653.653 0 01.168-.09l.719-.266a.66.66 0 01.291-.038l.752.071.762.1a.656.656 0 01.183.053l.707.316c.12.053.22.141.29.252l.395.63.444.564c.047.06.083.127.107.2l.212.635.381.578a.66.66 0 01.103.27l.102.706.264.658a.24.24 0 01.011.032l.253.739a.65.65 0 01.03.126l.09.676.671 1.302a.593.593 0 01.03.07l.257.693.675 1.296.408.474.587.403a.65.65 0 01.127.114l.423.493.587.278a.64.64 0 01.127.08l.52.41.634.186c.05.015.1.036.145.062l.606.35.628.153.739.073c.034.004.067.01.1.018l.708.183.73.045.816.076a.684.684 0 01.152.032l.758.26c.015.005.03.01.045.017l.726.31.027.012.72.346a.66.66 0 01.242.2l.48.643a.65.65 0 01.081.143l.31.746a.668.668 0 01.048.3l-.058.81a.669.669 0 01-.044.195l-.295.751a.655.655 0 01-.11.184l-.502.596a.617.617 0 01-.067.07l-.58.512a.67.67 0 01-.12.085l-.68.371a.658.658 0 01-.177.066l-.733.159-.718.203a.677.677 0 01-.117.022l-.767.073a.389.389 0 01-.063.004zm-.66-1.336l.637.016.668-.063.68-.193a.515.515 0 01.04-.01l.66-.142.53-.29.489-.432.4-.476.22-.557.039-.555-.219-.526-.334-.448-.56-.27-.69-.294-.66-.226-.716-.066-.773-.048a.69.69 0 01-.125-.02l-.72-.186-.733-.072a.658.658 0 01-.091-.016l-.765-.185a.671.671 0 01-.175-.07l-.62-.359-.681-.2a.66.66 0 01-.225-.115l-.562-.445-.646-.306a.657.657 0 01-.218-.167l-.458-.535-.585-.402a.656.656 0 01-.126-.112l-.516-.598a.663.663 0 01-.09-.132l-.72-1.386a.667.667 0 01-.036-.081l-.258-.699-.701-1.356a.66.66 0 01-.07-.22l-.096-.727-.226-.661-.287-.715a.68.68 0 01-.04-.15l-.093-.64-.348-.527a.671.671 0 01-.076-.155l-.203-.61-.394-.501a.702.702 0 01-.04-.057l-.307-.49-.437-.195-.643-.085-.578-.054-.487.18-.473.355-.382.457-.276.606a.705.705 0 01-.036.067l-.338.562-.12.561.018.683v.056l-.04.663.153.654a.684.684 0 01.015.101l.048.666.519 1.336.278.656.334.655a.49.49 0 01.025.057l.25.629.865 1.145a.654.654 0 01.067.11l.286.59 1.025.971a.665.665 0 01.1.121l.378.585.446.421.603.364c.071.043.134.1.185.165l.407.535.546.363a.875.875 0 01.025.017l.565.415.639.302a.66.66 0 01.153.1l.49.43.61.224c.06.022.116.052.167.09l.559.415.578.252.694.164a.635.635 0 01.077.024l.711.265c.02.007.04.015.058.024l.644.313.61.183.691.043a.68.68 0 01.158.03l.654.204z" fill="#693E29"/><path d="M40.093 55.602l.124.685-.396.687-.238.75-.419.663-.338.708-.5.61-.417.66-.423.665-.623.564-.739-.308-.724-.214-.72-.218-.726-.218-.678-.34-.652-.396-.488-.588-.522-.546-.278-.702-.37-.676-.124-.761.056-.766.18-.741.09-.759.35-.682.255-.71.335-.677.217-.742.383-.656.48-.596.495-.579.415-.632.474-.59.471-.59.42-.633.499-.57.489-.578.53-.54.512-.558.543-.527.412-.66.58-.493.625-.442.462-.616.617-.444.542-.556.794.19.755.255.614.519.363.716.126.784.202.793-.288.774.004.824-.43.69-.508.175-.15.835-.224.769.071.813-.195.775-.05.796-.127.786-.257.76-.13.783-.232.758-.307.725-.49.582-.71.15" fill="#FF9100"/><path d="M37.033 62.585l-1.194-.497-2.266-.693-.74-.374-.772-.47-.56-.674-.616-.644-.32-.807-.415-.758-.163-1.003.085-1.004.168-.692.102-.86.395-.769.274-.748.302-.61.225-.77.508-.85.48-.596.476-.557.433-.654.92-1.148.468-.693 1.02-1.182.531-.541.527-.573.469-.454.426-.685.741-.624.516-.365.46-.614.662-.477.827-.848 1.34.324.906.306.87.735.5.988.141.877.259 1.013-.328.877.006.914-.719 1.155-.323.111-.082.43-.18.617.07.798-.21.837-.055.801-.16.922-.236.695-.144.823-.262.84-.356.845-.763.903-.21.044.043.235-.506.877-.243.767-.45.712-.361.756-.532.649-.875 1.38-1.109 1.003zm-2.764-2.742l2.182.659.241.1.138-.124.839-1.312.434-.53.343-.703.36-.57.233-.733.287-.498-.069-.379a.844.844 0 01.01-.348.85.85 0 01.662-.694l.424-.09.22-.26.24-.566.201-.663.154-.86.235-.693.11-.675.051-.833.18-.713-.072-.829.255-.878.23-1.282.696-.239.14-.225-.005-.735.25-.671-.151-.61-.106-.654-.224-.444-.36-.304-.565-.19-.286-.07-.317.308-.512.368-.463.619-.704.498-.451.382-.396.636-.6.582-.495.54-.528.538-.94 1.092-.433.646-.921 1.15-.457.685-.495.579-.424.526-.3.513-.24.78-.314.632-.282.765-.28.547-.09.706-.164.673-.043.597.084.518.346.644.217.547.447.47.397.479.5.304.581.292z" fill="#693E29"/><path d="M78.702 53.727l.172-.736.163-.72.318-.7-.165-.741-.216-.698-.42-.61-.6-.434-.6-.449-.718-.22-.672-.314-.708-.223-.65-.372-.76-.108-.591-.494-.682-.29-.62-.4-.675-.403-.686-.387-.658-.427-.674-.4-.691-.371-.596-.532-.745-.27-.716-.303-.698-.358-.773-.089-.758.027-.715.23-.623.427-.54.548-.484.627-.49.62-.407.68-.099.779.146.767.362.707.597.533.478.63.623.493.558.56.467.661.67.439.63.482.583.539.552.532.659.4.516.594.64.429.691.344.724.27.686.334.703.296.726.238.759.099.746.14.759.09.764-.041.759-.126.733-.24.658-.399.668-.403.466-.624.454-.633z" fill="url(#paint0_linear_1_920)"/><path d="M74.2 57.042a.859.859 0 01-.101-.006l-.76-.09a1.216 1.216 0 01-.053-.009l-.724-.135-.736-.096a.824.824 0 01-.155-.035l-.726-.238a.825.825 0 01-.065-.024l-.704-.297a.658.658 0 01-.041-.019l-.65-.315-.685-.256a.783.783 0 01-.083-.035l-.69-.345a.902.902 0 01-.094-.054l-.64-.428a.853.853 0 01-.17-.15l-.429-.494-.544-.33a.855.855 0 01-.15-.115l-.552-.532-.54-.5-.573-.44-.644-.42a.854.854 0 01-.23-.222l-.425-.602-.472-.473-.584-.462a.839.839 0 01-.15-.153l-.427-.565-.537-.478a.854.854 0 01-.19-.247l-.362-.707a.83.83 0 01-.078-.229l-.146-.766a.845.845 0 01-.008-.265l.098-.779a.845.845 0 01.115-.33l.408-.68a.805.805 0 01.06-.088l.968-1.242a.841.841 0 01.068-.077l.54-.548a.866.866 0 01.124-.104l.623-.428a.852.852 0 01.221-.108l.715-.23a.854.854 0 01.23-.04l.758-.027a.889.889 0 01.128.005l.773.09a.8.8 0 01.29.088l.67.343.667.283.724.26a.856.856 0 01.277.166l.52.465.604.324.03.018.675.4.029.018.635.413.663.373.694.415.583.375.616.262a.847.847 0 01.211.13l.406.338.52.074c.107.016.209.05.302.104l.571.326.62.195a.889.889 0 01.106.041l.618.29.66.202a.853.853 0 01.26.132l1.19.875a.85.85 0 01.203.207l.42.61a.85.85 0 01.11.23l.217.698a.844.844 0 01.017.066l.165.741c.04.18.02.368-.056.536l-.281.62-.317 1.377a.847.847 0 01-.136.302l-.454.633-.477.638a.85.85 0 01-.241.218l-1.326.801a.838.838 0 01-.176.081l-.733.24a.834.834 0 01-.125.03l-.758.127a.862.862 0 01-.094.01l-.764.041a.409.409 0 01-.046.002zm-.63-1.78l.658.079.644-.035.648-.108.579-.189 1.102-.666.712-.973.295-1.287a.829.829 0 01.055-.164l.2-.44-.095-.432-.168-.541-.263-.382-.974-.717-.575-.176a.868.868 0 01-.112-.043l-.62-.29-.655-.206a.856.856 0 01-.167-.073l-.51-.291-.598-.086a.852.852 0 01-.424-.189l-.495-.412-.566-.241a.82.82 0 01-.128-.068l-.62-.4-.651-.389-.667-.375a.665.665 0 01-.045-.028l-.644-.418-.644-.382-.676-.363a.84.84 0 01-.163-.115l-.473-.422-.59-.213a1.089 1.089 0 01-.044-.017l-.716-.304a.748.748 0 01-.056-.026l-.56-.288-.556-.064-.577.021-.484.155-.454.311-.446.453-.914 1.172-.288.48-.06.469.098.514.235.458.479.428a.832.832 0 01.111.12l.413.545.537.426a.77.77 0 01.075.066l.558.559a.87.87 0 01.093.11l.373.529.535.35a.923.923 0 01.051.036l.63.482a.865.865 0 01.062.052l1.079 1.017.577.35a.843.843 0 01.202.17l.44.51.502.334.602.3.681.254c.026.01.05.02.075.032l.666.324.65.274.618.203.679.088.045.007.719.135z" fill="#693E29"/><path d="M70.443 64.06l.341.199.69-.334.67-.406.775-.073.77.02.722.254.767.176.637.459.458.635.377.665.287.703.31.728-.034.785-.137.767-.227.747-.382.678-.528.567-.51.589-.717.323-.571.539-.751.223-.69.337-.704.302-.728.245-.67.409-.757.166-.727.254-.045-.06-.764.16-.772.141-.78-.068-.776-.063-.781-.158-.694-.395-.632-.486-.52-.598-.521-.592-.46-.64-.332-.724-.554-.572.057-.096-.54-.516-.628-.4-.638-.376-.664-.33-.54-.53-.697-.297-.523-.55-.426-.625-.538-.528-.37-.657-.224-.72-.184-.737.027-.762.153-.747.256-.718.508-.58.4-.626.534-.52.454-.607.62-.447.68-.354.751-.152.748-.143.76.04.754.06.734.182.775.03.687.345.678.337.737.22.695.326.524.583.686.352.557.521.504.57.512.563.349.679.446.62.346.687z" fill="url(#paint1_linear_1_920)"/><path d="M67.533 75.108a.814.814 0 01-.075-.004l-1.549-.13a.831.831 0 01-.102-.014l-.78-.16a.849.849 0 01-.251-.093l-.694-.395a.962.962 0 01-.098-.065l-.632-.485a.873.873 0 01-.124-.117l-1.037-1.185a.895.895 0 01-.053-.067l-.459-.64a.852.852 0 01-.082-.14l-.272-.593-.453-.467a.846.846 0 01-.202-.342l-.198-.189-.545-.348-.599-.353-.637-.316a.859.859 0 01-.218-.155l-.424-.418-.55-.234a.849.849 0 01-.282-.196l-.523-.55a.86.86 0 01-.088-.107l-.378-.555-.478-.47a.855.855 0 01-.145-.19l-.37-.656a.85.85 0 01-.072-.165l-.223-.719a.347.347 0 01-.013-.046l-.185-.738a.859.859 0 01-.024-.236l.027-.763a.831.831 0 01.017-.14l.153-.746a.832.832 0 01.032-.115l.256-.717a.85.85 0 01.16-.275l.466-.531.367-.573a.848.848 0 01.122-.15l.486-.475.414-.553a.853.853 0 01.184-.18l.62-.447a.854.854 0 01.105-.065l.68-.354a.843.843 0 01.224-.079l1.507-.297a.848.848 0 01.204-.014l.76.04.78.063c.045.004.09.01.134.022l.65.16.69.028a.86.86 0 01.347.089l1.297.648.666.198a.855.855 0 01.12.045l.694.326a.853.853 0 01.27.201l.42.466.547.28c.07.037.136.083.194.137l.556.521a.949.949 0 01.055.057l1.01 1.126c.05.055.092.116.126.182l.32.622.409.569a.83.83 0 01.07.114l.116.233.093-.045.636-.386a.856.856 0 01.361-.119l.776-.073a.774.774 0 01.102-.004l.77.02a.845.845 0 01.26.048l.677.239.719.164a.853.853 0 01.307.14l.638.459a.858.858 0 01.193.192l.457.635a.973.973 0 01.05.078l.377.665a.889.889 0 01.047.098l.593 1.417c.05.118.073.245.068.372l-.036.786a.892.892 0 01-.012.11l-.137.767a.873.873 0 01-.023.099l-.228.747a.844.844 0 01-.072.168l-.38.679a.858.858 0 01-.12.164l-.518.554-.5.577a.845.845 0 01-.294.22l-.586.263-.467.441a.849.849 0 01-.34.197l-.684.203-.627.306a1.328 1.328 0 01-.038.017l-.704.302a.715.715 0 01-.064.025l-.638.215-.588.359a.85.85 0 01-.26.104l-.708.156-.68.237a.843.843 0 01-.444.03l-.47.1-.794.145a.878.878 0 01-.152.014zm-1.437-1.823l1.397.117.66-.12.74-.157a.87.87 0 01.242-.016l.426-.148a.86.86 0 01.097-.027l.619-.136.548-.335a.86.86 0 01.171-.08l.696-.234.654-.28.67-.328a.857.857 0 01.131-.05l.558-.167.424-.4a.85.85 0 01.234-.157l.546-.245.387-.448.021-.024.46-.491.285-.51.186-.61.118-.662.024-.536-.507-1.215-.326-.578-.35-.485-.386-.278-.598-.136a.804.804 0 01-.094-.028l-.596-.21-.584-.015-.531.05-.504.305a.853.853 0 01-.07.038l-.688.334a.85.85 0 01-.8-.03l-.341-.2a.85.85 0 01-.33-.351l-.317-.629-.407-.565a.828.828 0 01-.065-.108l-.299-.579-.92-1.028-.442-.413-.58-.297a.854.854 0 01-.243-.188l-.41-.455-.48-.226-.677-.2a.86.86 0 01-.136-.055l-1.203-.6-.592-.024a.857.857 0 01-.17-.024l-.668-.165-.685-.055-.633-.033-1.271.25-.52.27-.463.335-.376.503a.85.85 0 01-.088.099l-.463.452-.349.545a.83.83 0 01-.076.102l-.401.457-.182.51-.126.619-.02.572.148.597.19.61.267.474.453.444c.04.04.075.082.106.128l.386.567.355.373.537.229a.853.853 0 01.263.176l.442.435.543.27a.545.545 0 01.053.029l.638.375.026.016.628.4c.046.03.09.064.13.102l.54.515a.846.846 0 01.234.396l.286.296a.834.834 0 01.162.236l.3.65.386.54.96 1.097.518.398.526.299.596.121z" fill="#693E29"/><path d="M65.257 49.926l-.262-.72-.272-.715-.263-.717-.241-.726-.322-.694-.261-.719-.302-.703-.387-.66-.323-.693-.408-.646-.443-.62-.416-.64-.4-.656-.526-.558-.519-.564-.658-.406-.498-.61-.71-.311-.618-.473-.721-.277-.733-.238-.775-.04-.756-.072-.753-.1-.773.025h-.774l-.767.105-.782.02-.746.227-.769.146-.704.341-.691.353-.635.446-.649.414-.648.425-.526.568-.656.442-.406.673-.516.58-.437.64-.473.623-.383.68-.302.72-.231.745-.33.707-.082.788-.362.704-.185.756-.162.762-.05.78-.15.743-.04.759-.167.741-.102.75-.098.752-.067.754-.083.754-.014.758.068.757.038.755.125.748.044.751.118.743-.012.77.32.7.275.696.194.735.462.603.403.627.44.61.466.61.67.375.617.436.66.37.74.187.71.24.695.303.728.203.75.103.754.06.746.104.75.07.75.09.753.083.773.03.775.084.776-.018.762-.18.755-.172.788.025.716-.33.78-.078.7-.339.724-.266.72-.29.633-.446.616-.462.634-.437.549-.54.587-.504.52-.575.442-.639.349-.693.247-.734.414-.661.294-.72.057-.783.213-.743.11-.763.148-.764-.138-.777-.018-.768.052-.775-.042-.772-.112-.765-.296-.73-.117-.762-.18-.75-.168-.755z" fill="url(#paint2_linear_1_920)"/><path d="M53.742 68.742a.847.847 0 01-.093-.005l-.745-.082-.742-.029a.815.815 0 01-.06-.004l-2.24-.242a1.015 1.015 0 01-.038-.004l-.722-.1-.728-.059a.753.753 0 01-.047-.005l-.75-.102a.912.912 0 01-.114-.024l-.728-.203a.824.824 0 01-.111-.04l-.662-.288-.645-.219-.708-.179a.845.845 0 01-.206-.082l-.66-.37a.844.844 0 01-.076-.047l-.581-.41-.63-.355a.854.854 0 01-.26-.224l-.466-.61-.454-.629a.879.879 0 01-.026-.037l-.384-.598-.441-.576a.847.847 0 01-.147-.299l-.181-.685-.25-.63-.31-.68a.848.848 0 01-.076-.365l.01-.698-.106-.67a.826.826 0 01-.009-.083l-.041-.706-.117-.703a.849.849 0 01-.011-.096l-.038-.739-.066-.74a.897.897 0 01-.003-.092l.014-.758a.68.68 0 01.005-.078l.084-.754.065-.736c0-.011.002-.023.004-.034l.2-1.507a.722.722 0 01.013-.07l.15-.672.036-.688a.888.888 0 01.016-.125l.14-.685.046-.722a.808.808 0 01.017-.123l.162-.762.19-.78a.853.853 0 01.07-.187l.289-.563.065-.63a.853.853 0 01.075-.27l.306-.655.214-.69a.797.797 0 01.028-.078l.303-.719a.858.858 0 01.042-.087l.383-.68a.82.82 0 01.064-.098l.46-.605.425-.622a.897.897 0 01.067-.087l.464-.52.366-.607a.851.851 0 01.252-.265l.574-.387.46-.496a.837.837 0 01.157-.134l1.29-.834.619-.435a.867.867 0 01.102-.062l.692-.352.719-.35a.843.843 0 01.212-.07l.725-.137.701-.213a.85.85 0 01.225-.036l.736-.02.721-.098a.84.84 0 01.114-.007l.773-.001.748-.024a.807.807 0 01.138.006l.738.098.722.069.757.04a.854.854 0 01.218.04l.733.238.042.014.72.277a.85.85 0 01.214.119l.535.41.617.272a.85.85 0 01.317.24l.407.498.537.331a.857.857 0 01.18.149l1.037 1.113c.04.044.077.09.107.141l.4.657.393.602.433.606.026.04.408.646c.019.03.036.061.052.094l.307.657.367.627c.017.03.033.062.047.094l.302.703.017.044.25.685.306.662c.013.03.025.059.035.089l.241.726.79 2.128c.012.035.022.07.03.106l.346 1.492a.86.86 0 01.013.07l.101.663.26.637a.853.853 0 01.052.196l.113.765a.835.835 0 01.008.078l.041.773a.88.88 0 010 .101l-.05.738.016.664.127.713a.846.846 0 01-.003.311l-.145.743-.106.742a.835.835 0 01-.024.115l-.19.657-.05.695a.85.85 0 01-.06.26l-.295.72a.878.878 0 01-.066.128l-.36.577-.217.641a.9.9 0 01-.045.11l-.348.692a.824.824 0 01-.061.103l-.443.638a.865.865 0 01-.067.085l-.52.576a.876.876 0 01-.077.075l-.566.486-.529.52a.862.862 0 01-.114.093l-.62.427-.6.452-.656.462a.84.84 0 01-.171.093l-.719.29-.709.26-.661.322a.853.853 0 01-.288.08l-.637.064-.587.27a.797.797 0 01-.383.078l-.68-.021-1.4.325a.84.84 0 01-.178.023l-.776.018h-.02zm-1.485-1.812l.742.028.06.005.72.079.63-.015 1.439-.333a.849.849 0 01.214-.02l.587.018.534-.246a.845.845 0 01.273-.075l.629-.062.563-.273a.984.984 0 01.078-.034l.724-.265.603-.243.554-.39.594-.447a.49.49 0 01.029-.02l.573-.396.496-.487a1 1 0 01.042-.038l.547-.47.447-.495.377-.544.294-.587.23-.678a.84.84 0 01.084-.178l.375-.6.215-.527.047-.648a.869.869 0 01.031-.174l.197-.686.101-.705a.928.928 0 01.007-.042l.119-.609-.111-.62a.832.832 0 01-.013-.13l-.018-.768c0-.025 0-.05.002-.076l.048-.724-.036-.682-.093-.626-.257-.635a.855.855 0 01-.053-.19l-.11-.727-.332-1.43-.777-2.097-.235-.706-.301-.651a1.03 1.03 0 01-.027-.066l-.255-.696-.27-.633-.36-.615a.82.82 0 01-.038-.07l-.3-.644-.367-.58-.43-.6a1.726 1.726 0 01-.02-.03l-.415-.64-.367-.601-.912-.98-.558-.343a.857.857 0 01-.213-.186l-.368-.45-.523-.23a.84.84 0 01-.176-.104l-.52-.399-.585-.224-.605-.197-.664-.034a.593.593 0 01-.037-.003l-.755-.072a.5.5 0 01-.03-.004l-.684-.09-.704.023H52.2l-.71.097a.824.824 0 01-.092.007l-.668.018-.635.193a.852.852 0 01-.089.022l-.658.125-.603.292-.622.318-.586.411a.8.8 0 01-.032.02l-1.2.777-.456.493a.863.863 0 01-.149.127l-.5.337-.31.513a.863.863 0 01-.092.126l-.48.538-.405.595a1.504 1.504 0 01-.025.035l-.438.577-.33.587-.269.637-.218.706a.847.847 0 01-.042.108l-.27.577-.067.645a.857.857 0 01-.089.3l-.316.616-.161.658-.144.676-.045.72a.882.882 0 01-.016.115l-.138.68-.037.696a.863.863 0 01-.019.14l-.158.707-.192 1.444-.066.737-.081.733-.013.674.064.712.002.032.037.706.116.7a.97.97 0 01.01.09l.042.71.111.7a.849.849 0 01.01.147l-.008.58.24.523a.85.85 0 01.017.041l.276.698a.85.85 0 01.032.096l.15.57.359.468a.8.8 0 01.04.056l.39.608.427.592.346.45.516.29c.026.015.05.03.075.047l.58.41.525.294.631.16a.775.775 0 01.064.019l.71.24a.784.784 0 01.067.026l.64.28.616.17.67.092.729.058a.978.978 0 01.049.006l.727.1.73.068 1.488.171z" fill="#693E29"/><path d="M40.834 70.27l-.133.281.3.725.1.778.122.778-.232.754-.234.739-.485.604-.538.537-.629.424-.67.365-.747.162-.762.162-.773-.106-.76-.185-.609-.506-.733-.3-.536-.571-.303-.727-.42-.64-.307-.703-.165-.753-.268-.718-.317-.709-.022-.784-.19-.744-.313-.72-.133-.759.051-.041-.13-.782.184-.782.065-.776.284-.722.345-.682.337-.721.597-.52.649-.443.682-.385.711-.33.657-.438.745-.267.005-.087.57-.475.465-.578.479-.56.553-.504.43-.602.462-.583.656-.39.531-.546.725-.235.661-.358.745-.091.747-.087.762.063.646.424.688.288.626.415.575.49.505.562.415.63.392.661.194.743.095.756.061.763-.125.754-.135.75-.19.741-.312.699-.416.642-.357.67-.448.613-.361.683-.641.448-.453.62-.658.396-.59.47-.641.396-.62.461-.706.307-.755.156z" fill="#fff"/><path d="M37.71 77.403a.859.859 0 01-.12-.009l-.689-.099-.688.053a.85.85 0 01-.473-.1l-.671-.367-.663-.32-.697-.317a.851.851 0 01-.318-.251l-.957-1.206a.854.854 0 01-.105-.167l-.333-.697a.859.859 0 01-.052-.14l-.182-.658-.315-.606a.858.858 0 01-.071-.188l-.184-.747-.201-.712a.855.855 0 01-.026-.127l-.075-.617-.293-.572a.849.849 0 01-.09-.323l-.052-.676-.202-.646a.848.848 0 01.018-.562l-.05-.419a.856.856 0 010-.201l.084-.708-.042-.726a.85.85 0 01.122-.49l.363-.597.189-.65a.854.854 0 01.098-.219l.427-.674a.85.85 0 01.307-.289l.58-.32.428-.49a.848.848 0 01.328-.232l.697-.275.614-.325.627-.41a.84.84 0 01.067-.04l.693-.368a.837.837 0 01.065-.031l.383-.261.34-.488a.845.845 0 01.183-.19l.468-.356.29-.5a.84.84 0 01.095-.134l.487-.556a.846.846 0 01.07-.072l.536-.483.515-.502a.85.85 0 011.187 1.217l-.526.513-.024.022-.51.46-.4.457-.334.576a.842.842 0 01-.221.25l-.497.379-.353.505a.847.847 0 01-.218.216l-.616.42a.854.854 0 01-.21.105l-.57.303-.627.41a.772.772 0 01-.068.04l-.69.366a.859.859 0 01-.087.04l-.55.216-.39.447a.845.845 0 01-.229.185l-.52.287-.246.39-.187.642a.86.86 0 01-.09.205l-.283.466.03.538a.84.84 0 01-.004.15l-.08.681.08.68c.011.09.007.18-.01.266l.115.366a.85.85 0 01.037.19l.045.604.284.555a.85.85 0 01.087.283l.085.702.19.675.167.676.31.596a.871.871 0 01.065.165l.186.672.258.54.782.985.525.239.7.337.037.02.468.255.53-.041a.834.834 0 01.187.006l.571.082.519-.186.556-.23.454-.424a.853.853 0 01.074-.062l.431-.32.197-.502a.829.829 0 01.092-.174l.3-.434-.002-.521c0-.022 0-.044.002-.065l.044-.622-.166-.553-.283-.668a.85.85 0 01.085-.817l.214-.307a.85.85 0 01.39-.307l1.401-.542.606-.364a.885.885 0 01.1-.052l.606-.263.495-.43a.886.886 0 01.054-.042l.558-.41.412-.475.387-.613a.856.856 0 01.066-.09l.899-1.092.23-.61a.85.85 0 011.59.597l-.277.739a.844.844 0 01-.135.235l-.966 1.176-.392.62a.834.834 0 01-.075.1l-.515.596a.852.852 0 01-.14.13l-.608.445-.568.493a.845.845 0 01-.219.137l-.674.292-.62.374a.886.886 0 01-.133.065l-.946.365.042.098a.846.846 0 01.031.087l.224.747a.85.85 0 01.034.305l-.053.745.004.756a.85.85 0 01-.151.487l-.396.572-.249.637a.85.85 0 01-.285.373l-.589.437-.531.496a.855.855 0 01-.256.165l-.717.296a.907.907 0 01-.037.014l-.737.266a.83.83 0 01-.288.05z" fill="#693E29"/><path d="M53.121 43.38l-.792.033-.775-.119-.777-.066-.786.123-.8-.181-.345.784-.423.662-.373.689-.421.66-.472.629-.417.664-.348.715-.512.6-.481.623-.519.592-.502.606-.505.607-.585.531-.674.423-.55.576-.675.416-.718.34-.82.081-.467.66-.32.72-.385.684-.23.754.107.747.65.408.764-.05.74-.11.705-.25.748-.118.717-.236.678-.33.609-.453.702-.281.632-.406.608-.442.657-.375.508-.569.571-.484.53-.53.556-.505.51-.554.497-.578.312-.704.483-.593.268-.718.31-.689.355-.667.419-.648.227-.725.202-.733.223-.722.268-.71.116-.782z" fill="#FF9100"/><path d="M38.987 58.207l-1.217-.764-.19-1.324.313-1.023.411-.73.337-.76.74-1.044 1.06-.107.542-.256.542-.334.548-.573.7-.439.484-.44.968-1.166.517-.591.491-.633.442-.518.345-.697.457-.724.453-.602.387-.608.39-.716.388-.605.6-1.366 1.325.3.727-.113.936.08.693.107 1.736-.074-.28 1.89-.29.77-.216.697-.203.737-.262.836-.462.714-.325.61-.287.638-.306.823-.5.613-.317.715-.58.673-.582.629-.541.49-.567.564-.526.445-.56.628-.738.42-.61.443-.7.45-.675.27-.585.435-.855.407-.85.268-.67.106-.71.251-.89.13-1.038.068zm.355-1.784l.083.053.454-.03.624-.093.702-.248.758-.12.597-.197.554-.269.634-.471.73-.293.543-.349.666-.478.537-.306.5-.548.545-.461.534-.534.528-.48.483-.525.398-.462.307-.694.467-.572.24-.638.334-.74.392-.73.357-.55.188-.6.197-.719.248-.797.128-.339-.616-.094-.647-.055-.845.132-.274-.062-.125.26-.406.634-.39.714-.458.715-.45.6-.374.595-.375.771-.569.667-.502.646-.518.592-1.075 1.282-.705.623-.584.366-.553.578-.85.519-.851.401-.581.058-.195.275-.321.715-.34.604-.148.484.024.17z" fill="#693E29"/><path d="M73.857 19.207l.088-.763-.027-.772.043-.764-.01-.767.209-.757-.069-.768.026-.766.036-.766-.133-.766.115-.768-.093-.765.014-.768-.025-.768-.103-.762.028-.773-.213-.75-.105-.759-.005-.774-.152-.753-.295-.713-.257-.713-.308-.685-.474-.57-.766-.104-.777.001-.765.155-.78-.007-.751.2-.775.088-.76.175-.687.388-.78.132-.67.405-.714.305-.666.398-.669.39-.678.381-.612.479-.52.584-.61.475-.542.55-.526.566-.446.63-.37.676-.373.67-.397.676-.075.78-.105.758.126.723.23.74.442.639.591.505.54.55.62.457.632.436.582.512.7.332.666.38.705.31.62.465.67.383.705.31.753.19.675.38.726.253.738.215.717.294.778.048.753.133.76.033.733-.02.732-.118.73-.173.6-.518z" fill="#EDC987"/><path d="M71.055 20.886l-.902-.047-.704-.125-.87-.053-.806-.33-.738-.217-.862-.315-.576-.324-.777-.209-.786-.35-.756-.44-.543-.407-.695-.31-.637-.365-.779-.369-.633-.557-.592-.408-.743-.561-.514-.524-.646-.552-.58-.837-.293-.97-.15-.854.121-.872.091-.949.492-.838.783-1.406.517-.717.525-.567.643-.642.549-.427.58-.631.719-.55 1.336-.765.76-.444.658-.282.758-.459.793-.134.666-.374.975-.22.712-.08.8-.214.808.007.76-.154.92-.001 1.151.157.76.912.38.852.25.693.32.771.184.915.005.8.09.645.233.822-.03.835.1.776.026.789-.013.73.1.82-.112.747.125.723-.064 1.562.077.869-.217.789.008.676-.043.754.03.797-.135 1.155-1.007.871-.993.232-.845.129-.764.021zm-.66-1.73l.674.03.646-.018.646-.104.498-.117.191-.166.043-.37-.027-.747.044-.774-.01-.858.199-.725-.06-.668.06-1.502-.14-.81.118-.789-.086-.71.014-.804-.023-.703-.107-.792.027-.712-.201-.737-.113-.869-.004-.692-.12-.592-.279-.675-.245-.681-.247-.549-.189-.227-.38-.052h-.634l-.77.156-.753-.006-.765.194-.726.082-.591.137-.712.4-.766.13-.638.376-.66.282-1.294.763-.633.356-.5.392-.583.632-.566.441-.503.51-.469.506-.386.545-.722 1.308-.312.53-.06.63-.088.626.094.538.174.564.306.441.561.484.493.502.566.417.689.482.492.433.65.31.627.359.753.33.657.493.584.335.599.262.796.202.707.397.634.222.8.238.588.24.734.052.697.123z" fill="#693E29"/><path d="M69.688 4.97l-.748.32-.692.398-.741.3-.734.329-.627.503-.597.533-.694.407-.516.619-.645.476-.564.566-.447.641.649.396.645.45.5.616.572.535.668.44.542.57.46.646.545.567.577.536.59.521.48.63.526.59.606.377.122-.699.196-.746.223-.743.173-.754.076-.77-.048-.781.194-.758-.11-.778.217-.768-.171-.767-.02-.77-.124-.76-.247-.728-.04-.795-.437-.651-.36-.698z" fill="url(#paint3_linear_1_920)"/><path d="M33.676 18.982l-.354-.7-.112-.78-.32-.724.034-.8-.169-.758-.2-.759-.059-.777.03-.783-.006-.778-.142-.776.142-.779-.1-.78.06-.778.13-.772-.096-.79.24-.76-.006-.787.044-.784.331-.728.143-.764.187-.755.254-.737.418-.655.502-.619.791.02.77.08.775-.037.774.06.773.09.73.28.786.075.71.327.698.342.733.254.698.336.667.393.723.304.59.515.602.485.619.462.567.525.503.586.618.487.5.6.404.67.327.708.205.75.207.742.193.757-.16.77-.306.713-.37.692-.51.592-.621.48-.563.527-.521.576-.538.567-.665.41-.644.43-.664.4-.64.433-.635.446-.643.438-.754.233-.66.408-.715.298-.735.243-.72.277-.704.362-.787.021-.765.159-.684-.271-.71-.141-.651-.31-.55-.441z" fill="#5C5C5C"/><path d="M36.193 21.028l-.849-.336-.736-.147-.838-.397-.77-.62-.5-.987-.114-.802-.354-.799.038-.886-.141-.633-.221-.895-.063-.826.03-.811-.005-.685-.157-.856.146-.802-.094-.737.077-.939.109-.651-.104-.851.255-.807-.005-.68.055-.97.354-.778.134-.713.209-.825.287-.833.528-.818L34.23 0l1.277.034.706.074.763-.036.86.066.88.103.721.277.813.077.842.388.67.328.773.274.762.37.617.364.796.334.68.594.578.465.675.51.636.596.448.523.623.49.632.774.448.752.374.84.658 2.453-.218 1.046-.37.858-.414.773-.627.73-.659.507-.507.475-.498.55-.628.663-.745.46-.666.443-.644.388-2.003 1.375-.772.238-.688.413-.775.32-.715.236-.658.254-.836.43-.905.024-.94.195zm-1.048-2.108l.755.164.447.178.665-.125.593-.016.616-.31.758-.291.704-.233.623-.26.695-.43.735-.226 1.854-1.272.646-.389.654-.436.57-.351.462-.487.556-.612.625-.58.554-.426.391-.456.309-.576.258-.602.102-.495-.144-.566-.39-1.41-.277-.603-.346-.573-.402-.482-.613-.483-.525-.612-.498-.46-.609-.456-.628-.507-.486-.424-.699-.302-.636-.375-.621-.3-.783-.277-.698-.342-.56-.258-.757-.071-.74-.285-.65-.075-.703-.054-.787.038-.801-.085-.339-.008-.208.257-.338.53-.21.606-.172.694-.157.84-.307.678-.035.599.007.893-.225.712.089.73-.143.856-.052.653.106.825-.138.756.128.77.006.797-.028.753.05.652.188.717.193.867-.031.712.288.65.108.759.209.411.327.264.465.22z" fill="#693E29"/><path d="M36.456 4.299l.742.338.737.305.656.463.687.395.704.376.642.471.69.414.569.564.584.545.594.542.486.692-.684.455-.62.468-.684.412-.454.66-.543.563-.603.508-.616.498-.409.696-.569.544-.64.475-.48.63-.64.466-.535.542-.143-.741-.275-.732-.123-.763.046-.788-.175-.752-.056-.77-.148-.761.085-.776-.036-.767-.093-.772.143-.76-.023-.783.22-.745.305-.71.324-.69.335-.712z" fill="url(#paint4_linear_1_920)"/><path d="M75.324 27.823l-.038-.762.057-.766.012-.769-.192-.749-.162-.747.026-.78-.176-.745-.224-.734-.11-.764-.38-.682-.151-.758-.3-.705-.258-.724-.38-.669-.413-.647-.443-.624-.31-.711-.58-.524-.378-.674-.487-.592-.626-.46-.462-.62-.651-.416-.504-.592-.621-.45-.668-.379-.6-.486-.735-.254-.612-.486-.764-.17-.661-.398-.755-.165-.714-.267-.712-.292-.75-.154-.743-.19-.738-.221-.779.016-.746-.184-.76-.115-.771.032-.766.005-.761-.169-.768-.012-.766.179-.765.033-.766.023-.768.015-.779-.037-.748.202-.752.156-.745.19-.78.037-.745.198-.682.392-.791.06-.659.428-.709.29-.674.363-.73.252-.632.44-.652.401-.694.343-.56.534-.642.424-.494.599-.672.405-.417.663-.657.442-.43.642-.465.611-.349.69-.471.607-.433.637-.347.686-.213.747-.32.694-.388.672-.21.74-.214.736-.283.72-.149.755-.012.778-.233.74-.108.762-.019.77.057.77-.161.764.185.76-.113.775.275.734.011.774.175.746.31.704.32.692.181.756.353.682.412.648.5.584.52.56.513.557.38.693.67.402.557.52.533.558.723.3.629.425.637.416.658.384.647.414.682.35.708.293.716.271.742.196.712.283.754.145.72.266.78.02.712.322.76.104.758.101.77-.003.755.115.754.138.771-.083.754.224.767-.096.764.14.76-.15.763.068.764.012.748-.194.764-.002.748-.15.753-.107.769-.012.723-.269.743-.154.76-.096.701-.313.722-.231.742-.178.72-.247.661-.388.754-.183.637-.425.69-.324.61-.462.615-.443.592-.471.692-.355.47-.613.522-.548.617-.468.455-.613.328-.697.514-.572.33-.686.39-.659.31-.698.247-.723.118-.758.214-.731-.023-.773.293-.73-.081-.769-.009-.758z" fill="#fff"/><path d="M32.134 23.822l.639.41.727.235.727.229.769.022.734.227.76.045.76-.029.766.023.738-.228.763-.045.726-.231.726-.222.728-.218.668-.37.734-.219.645-.406.608-.46.705-.3.607-.456.558-.516.665-.384.499-.58.563-.507.52-.58.598-.515.517-.59.341-.718.508-.597.415-.661.34-.704.313-.712.5-.632.115-.794.324-.713.248-.743.125-.773.132-.769.045-.779.07-.777-.111-.775.015-.788-.767.126-.765.026-.769.016-.748.19-.781-.046-.736.245-.779.023-.728.256-.745.182-.747.182-.719.27-.74.217-.657.416-.7.309-.698.317-.657.396-.658.392-.62.45-.684.362-.56.527-.637.437-.503.586-.512.568-.599.491-.396.667-.51.572-.384.664-.487.596-.304.709-.462.621-.355.682-.272.719-.244.727-.304.708-.193.744-.057.774-.322.714-.03.765z" fill="#5C5C5C"/><path d="M74.866 22.054l-.286-.717-.101-.768-.346-.691-.125-.77-.442-.647-.307-.698-.292-.709-.329-.693-.474-.607-.338-.695-.501-.583-.37-.687-.556-.537-.511-.574-.563-.524-.647-.425-.597-.476-.55-.543-.65-.408-.624-.449-.657-.4-.693-.333-.691-.336-.718-.275-.746-.193-.742-.19-.684-.393-.746-.19-.761-.123-.746-.196-.761-.117h-.774l-.77-.015-.757-.189-.772.03-.77-.003-.812.006-.754.118-.014.73.234.746.341.701.311.704.191.773.41.664.543.57.348.705.544.56.554.543.414.675.662.433.542.553.587.505.594.498.57.532.646.43.63.455.723.31.649.424.702.332.68.371.64.45.755.201.703.316.714.292.701.332.745.207.762.143.73.257.757.15.753.167.775.038.75.226.77.073.775.047.772-.113z" fill="#EDC987"/><path d="M52.653 44.517l-.803-.071-.843-.03-.777-.214-.722-.076-.795-.115-.66-.129-.85.02-.787-.29-.777-.102-.706-.29-.8-.092-.727-.362-.732-.152-.783-.339-.688-.276-.847-.31-.553-.49-.765-.184-.675-.59-.668-.377-.687-.487-.561-.58-.48-.41-.832-.459-.441-.814-.446-.465-.591-.664-.441-.622-.513-.69-.327-.816-.28-.65-.401-.764-.153-.794-.316-.763-.064-.968v-.725l-.068-.713-.19-1.659.169-.818.006-.781.17-.787.072-.85.169-.72.127-.857.332-.706.106-.797.395-.747.187-.66.236-.9.546-.747.34-.53.233-.785.617-.848.477-.49.347-.584a.85.85 0 011.461.868l-.45.756-.57.588-.334.466-.22.744-.513.796-.371.508-.16.605-.24.848-.336.637-.1.758-.338.717-.109.716-.162.688-.068.826-.146.675-.005.772-.148.72.239 2.21-.001.78.041.601.276.667.138.717.327.63.302.7.253.63.393.53.423.596.478.53.587.612.313.577.548.302.7.604.48.496.52.37.706.391.495.433.773.185.629.558.57.21.734.294.643.278.776.161.657.327.738.086.718.295.745.097.663.244.71-.016.818.159.718.104.88.102.653.18.71.027.7.061.706-.04 1.622-.133.712.142.696-.147.725.045.769-.24.795.1.673-.182.703-.025.694-.303.808-.07.622-.198.787-.28.724-.096.665-.31.776-.16.545-.222.663-.456.678-.34.62-.336.623-.388.591-.392.628-.473.597-.394.527-.442.5-.478.917-1.087.4-.641.374-.527.25-.708.388-.607.182-.722.263-.669.215-.736.218-.617.074-.791.163-.646.003-.6-.12-.84.138-.732-.118-.587-.15-.878.064-.728-.177-.684-.026-.7-.293-.71-.03-.755-.268-.605-.283-.787-.107-.7-.334-.637-.163-.662-.432-.537-.335-.71-.388-.564-.472-.743-.309-.637-.387-.588a.849.849 0 111.42-.934l.473.731.31.641.38.588.482.72.278.59.54.67.204.828.371.708.125.817.216.6.366.818.03.78.293.71.031.821.203.788-.069.8.109.64.179.885-.147.781.097.685-.005.93-.195.776-.064.802-.283.804-.23.78-.256.65-.198.828-.437.684-.264.747-.496.7-.463.727-1.049 1.235-.594.565-.662.549-.615.406-.628.474-.633.418-.708.44-.667.361-.646.324-.66.466-.87.355-.734.151-.721.337-.805.106-.66.235-.815.258-.718.063-.736.32-.832.03-.809.218-.759-.095-.715.223-.808-.05-.812.172-.82-.163-1.406.114-.848.048zM46.713 8.99a.85.85 0 01-.306-1.642l.859-.318.652-.13.767-.367.925-.043.709-.081.726-.131.872-.125.712-.032.846-.148.814.122.739-.05.941.082.651.14.825-.025.842.268.793.183 1.46.471a.85.85 0 11-.514 1.619l-1.437-.463-.783-.18-.6-.19-.742.023-.798-.173-.648-.05-.8.053-.722-.108-.735.121-.724.033-.717.106-.782.14-.82.091-.609.029-.648.31-.79.158-.652.251a.874.874 0 01-.306.056z" fill="#693E29"/><path d="M66.755 26.94l.033-.824-.23-.805-.475-.698-.735-.397-.775-.235-.748.29-.734.368-.331.757-.383.724-.01.82.14.792.13.814.422.726.756.357.758.203.787-.145.599-.533.422-.67.318-.738.056-.805z" fill="url(#paint5_linear_1_920)"/><path d="M48.947 26.94l-.079-.813-.232-.79-.475-.675-.625-.56-.831-.06-.813.098-.665.503-.416.713-.234.78-.218.805.117.827.375.738.463.652.597.543.794.129.765-.185.713-.406.498-.674.118-.826.148-.799z" fill="url(#paint6_linear_1_920)"/><path d="M57.958 28.447l-.465-.61-.837-.353-.88.267-.461.695.252.569.472.435.617.273.658-.198.51-.448.134-.63z" fill="#FFB5E0"/><path d="M59.957 32.781l-.12.718-.253.714-.185.747-.373.673-.592.497-.575.473-.598.495-.775.044-.74-.009-.735-.127-.636-.39-.575-.465-.528-.543-.383-.66-.265-.722-.145-.757.09-.7.617.197.718.088.72-.068.67-.27.727-.142.573-.462.416-.553.352.57.581.412.655.27.703.016.656-.046z" fill="url(#paint7_linear_1_920)"/><path d="M56.486 37.62h-.005l-.74-.009a.444.444 0 01-.076-.007l-.735-.127a.478.478 0 01-.169-.063l-.636-.39a.536.536 0 01-.05-.036l-.576-.466a.403.403 0 01-.042-.038l-.527-.543a.474.474 0 01-.071-.093l-.383-.661a.483.483 0 01-.035-.075l-.266-.721a.457.457 0 01-.02-.075l-.145-.757a.472.472 0 01-.005-.151l.09-.7a.477.477 0 01.62-.394l.574.183.622.076.6-.055.605-.245a.48.48 0 01.088-.026l.61-.12.434-.35.38-.505a.478.478 0 01.789.036l.301.488.458.324.523.216.591.014.634-.045a.477.477 0 01.505.555l-.12.718a.494.494 0 01-.02.082l-.247.692-.18.723a.48.48 0 01-.045.117l-.373.673a.48.48 0 01-.11.134l-1.768 1.468a.478.478 0 01-.278.11l-.774.043h-.028zm-.696-.964l.686.008.601-.034 1.574-1.306.3-.54.169-.686a.418.418 0 01.014-.045l.252-.753-.051.004h-.045l-.702-.016a.482.482 0 01-.172-.035l-.655-.27a.464.464 0 01-.094-.052l-.58-.412a.483.483 0 01-.115-.114.489.489 0 01-.077.079l-.573.462a.48.48 0 01-.209.097l-.68.133-.628.253a.47.47 0 01-.136.033l-.72.067a.493.493 0 01-.103 0l-.718-.089a.476.476 0 01-.086-.019l-.072-.023-.007.056.123.643.238.646.333.575.466.48.53.427.53.326.607.105z" fill="#693E29"/><path d="M53.64 33.651a.57.57 0 01-.082-.006l-.8-.114a.585.585 0 01-.28-.12l-.605-.48-.654-.394a.583.583 0 01-.23-.258l-.333-.73a.584.584 0 111.064-.485l.258.566.53.32a.624.624 0 01.062.042l.51.405.56.08.7-.1.695-.074.531-.255.442-.424.408-.654a.585.585 0 01.943-.067l.516.614.462.444.535.242.613.058.583-.099.432-.296.286-.535.287-.684a.584.584 0 011.078.452l-.298.709a.506.506 0 01-.023.049l-.366.685a.582.582 0 01-.186.206l-.656.45a.585.585 0 01-.232.093l-.785.133a.597.597 0 01-.152.006l-.787-.074a.587.587 0 01-.187-.05l-.716-.324a.59.59 0 01-.163-.11l-.556-.535A.479.479 0 0157 32.29l-.018-.022-.02.034a.582.582 0 01-.092.112l-.56.54a.586.586 0 01-.153.105l-.706.339a.584.584 0 01-.192.054l-.774.082-.761.11a.54.54 0 01-.085.006zm-12.43-3.135a.658.658 0 01-.094-.006l-.793-.118a.646.646 0 01-.19-.059l-.654-.324-.697-.204-.736-.187-.679-.19-.703.015a.657.657 0 01-.192-.026l-.672-.197-.697-.007a.637.637 0 01-.083-.007l-.775-.11-.737-.076-.765-.034-.744-.01-.693.04-.695.198a.498.498 0 01-.05.012l-.75.15-.717.184-.725.243a.638.638 0 01-.406-1.208l.747-.25a.645.645 0 01.044-.014l.757-.194a.429.429 0 01.034-.007l.74-.148.74-.21a.652.652 0 01.138-.024l.785-.045h.046l.786.01.803.035.038.003.78.081.756.107.744.008a.63.63 0 01.173.025l.663.195.698-.014a.625.625 0 01.184.024l.755.21.744.19.772.225c.036.01.07.024.104.04l.614.305.693.102a.637.637 0 01-.091 1.267zm-13.924 5.731a.637.637 0 01-.423-1.114l.591-.524a.643.643 0 01.119-.083l.693-.376a.646.646 0 01.15-.058l.73-.183 1.422-.556a.626.626 0 01.071-.023l.76-.195a.588.588 0 01.046-.01l.771-.137a.645.645 0 01.063-.008l.73-.057.714-.174a.645.645 0 01.191-.017l.721.046.706-.108a.81.81 0 01.038-.005l.779-.07a.633.633 0 01.098 0l.781.05 2.324.089a.63.63 0 01.09.01l.766.144a.637.637 0 11-.236 1.252l-.721-.135-2.284-.088-.753-.049-.71.064-.754.115a.664.664 0 01-.136.006l-.693-.044-.67.163a.625.625 0 01-.101.016l-.75.058-.717.128-.7.18-1.416.554a.614.614 0 01-.08.026l-.693.173-.558.303-.537.476a.629.629 0 01-.422.16zm52.834-2.553a.476.476 0 01-.216-.051l-.694-.35-.613-.281-.704-.034a.475.475 0 01-.186-.047l-.626-.303-.68.002a.391.391 0 01-.107-.012l-.731-.165-.72-.048-.736.023-.757.096a.458.458 0 01-.165-.007l-.659-.148-.646.198a.488.488 0 01-.127.02l-.777.022-.722.062-.74.139a.48.48 0 01-.177-.94l.763-.144a.569.569 0 01.048-.007l.774-.066.74-.02.705-.216a.487.487 0 01.245-.01l.7.158.696-.089a.466.466 0 01.046-.003l.783-.025.047.001.78.053c.025.002.05.005.073.01l.715.161.737-.002a.4.4 0 01.21.048l.638.308.698.034a.475.475 0 01.177.043l.713.327.71.357a.479.479 0 01-.215.906zm-10.744-4.168a.58.58 0 01-.141-1.14l.737-.186.668-.285.702-.348a.58.58 0 01.198-.057l.76-.079.731-.171a.575.575 0 01.08-.013l.786-.073.724-.09.739-.195a.558.558 0 01.177-.018l1.554.077.775-.035a.596.596 0 01.17.017l.774.198a.59.59 0 01.134.052l.647.352.706.198a.578.578 0 11-.315 1.114l-.768-.216a.591.591 0 01-.12-.049l-.64-.348-.621-.158-.717.033a.47.47 0 01-.054 0l-1.494-.075-.69.182a.577.577 0 01-.076.014l-.78.098-.766.07-.728.172a.582.582 0 01-.074.012l-.692.07-.623.31a.581.581 0 01-.03.014l-.724.309a.578.578 0 01-.085.029l-.781.197a.59.59 0 01-.143.018z" fill="#693E29"/><path d="M64.573 26.3a.829.829 0 100-1.658.829.829 0 000 1.658zm-17.868 0a.829.829 0 100-1.658.829.829 0 000 1.658z" fill="#fff"/><path d="M78.424 43.035l-.827.19-.756-.02-.751.084-.76-.111-.752.102-.76-.088-.748.192-.76-.069-.75-.008-.784-.078-.789-.09-.747-.292-.77-.183-.788-.097-.78-.13-.765-.21-.773-.171-.78-.14-.76-.237-.787-.104-.781.174-.807-.032-.797.057-.793.09-.792.095-.782.18-.796.07-.793.095-.801.028-.746.206-.09.732-.274.737-.175.753-.028.782-.108.766-.277.735-.178.754-.114.766-.167.756.044.795-.315.73-.157.758.024.792-.3.732-.087.772-.016.784-.177.754-.269.739v.788l-.125.766-.158.76-.23.767.754-.065.698-.28.753.052.722-.139.703-.245.724-.125.744-.005.713-.193.73-.088.74-.043.71-.157.75.062.717.222.736.152.698.294.71.244.75.096.737.15.69.327.76.063.707.269.723.21.028-.086-.031.168.06-.102.02.066.736-.169.755-.067.731-.22.738-.165.766.014.743-.144.756-.065.726-.252.757-.064.827.006.153-.809.037-.768.118-.756.215-.737.161-.747.069-.764.201-.74.127-.754.14-.752.14-.752.03-.772.186-.743.21-.74.12-.756.11-.757.126-.754.202-.741-.012-.78.182-.746.088-.766.268-.808z" fill="#B3E2A8"/><path d="M70.228 58.285a1.062 1.062 0 01-.167-2.11l.507-.081.903-.59.347-.442a1.04 1.04 0 01.123-.131l.465-.422.229-.341.105-.541c.021-.109.06-.213.112-.31l.223-.404-.012-.203-.167-.03-.707-.103a1.065 1.065 0 01-.422-.158l-.6-.385a1.06 1.06 0 01-.38-.426l-.312-.636a1.06 1.06 0 01-.108-.478l.007-.74a.98.98 0 01.023-.21l.153-.722c.018-.086.047-.169.086-.248l.272-.555.137-.597a1.062 1.062 0 012.071.472l-.163.718c-.019.08-.047.158-.083.231l-.269.548-.103.49-.004.383.07.144.157.1.5.073a2.1 2.1 0 01.043.007l.682.127c.31.058.577.25.731.523l.358.635c.078.14.124.297.134.458l.045.762c.012.2-.033.399-.13.574l-.29.528-.114.589c-.027.138-.082.27-.16.388l-.421.627a1.039 1.039 0 01-.17.196l-.494.448-.401.511a1.058 1.058 0 01-.262.239l-1.218.796c-.127.084-.27.14-.42.165l-.736.117a.983.983 0 01-.17.014zM59.766 56.74a1.062 1.062 0 01-.116-2.118l1.398-.155 1.27-.567.6-.288.465-.357.378-.418.308-.582a.918.918 0 01.026-.046l.318-.535.325-1.29.083-.688a1.061 1.061 0 112.11.254l-.092.757a1.102 1.102 0 01-.025.136l-.377 1.494c-.025.1-.064.197-.117.287l-.385.646-.357.676a1.07 1.07 0 01-.152.217l-.532.588c-.043.047-.09.09-.14.129l-.63.482c-.057.045-.12.083-.186.115l-.712.342-.027.012-1.435.642c-.1.045-.207.074-.316.086l-1.563.173a.942.942 0 01-.12.007z" fill="#F8F0BF"/><path d="M65.96 50.927c-.078 0-.155-.009-.231-.026l-.747-.166a1.071 1.071 0 01-.208-.07l-1.386-.64a1.11 1.11 0 01-.111-.062l-.64-.401a.942.942 0 01-.06-.041l-.623-.453a1.054 1.054 0 01-.229-.226l-.46-.619a1.075 1.075 0 01-.091-.147l-.352-.684a1.07 1.07 0 01-.106-.332l-.096-.651-.226-.617a1.065 1.065 0 01-.06-.477l.08-.76a1.063 1.063 0 012.114.22l-.054.517.18.488c.025.069.042.14.053.212l.086.586.23.45.312.418.463.336.555.349 1.199.554.477.106.72-.065c.033-.003.07-.003.1-.005l.733.003c.023 0 .045 0 .067.002l.62.041.463-.081.528-.254.622-.323.574-.317.444-.32.32-.376.29-.548a.93.93 0 01.032-.059l.315-.518.183-.58a1.062 1.062 0 012.026.64l-.221.702c-.026.081-.061.16-.105.232l-.365.599-.328.624c-.037.07-.08.136-.132.196l-.48.563a1.078 1.078 0 01-.189.173l-.6.432c-.034.024-.07.047-.106.067l-.641.354-.025.014-.65.337a.995.995 0 01-.029.014l-.674.324a1.08 1.08 0 01-.277.089l-.735.129c-.084.015-.17.02-.254.014l-.714-.047-.65-.003-.834.077a.782.782 0 01-.097.006z" fill="#F8F0BF"/><path d="M68.285 57.716a.424.424 0 01-.41-.537l.198-.722.102-.74a.437.437 0 01.02-.084l.236-.665-.012-.712a.428.428 0 01.026-.155l.255-.685.079-.717a.437.437 0 01.012-.065l.396-1.49.14-.732.125-.751.107-.755.156-.749.034-.744c0-.015.002-.03.005-.043l.114-.763.154-.777a.424.424 0 11.834.166l-.151.757-.107.72-.035.758a.424.424 0 01-.009.067l-.159.755-.103.738-.129.771-.147.769-.396 1.494-.08.736a.434.434 0 01-.025.102l-.245.66.012.708a.424.424 0 01-.025.149l-.247.696-.1.725a.404.404 0 01-.01.054l-.206.75a.423.423 0 01-.41.311zm-7.435-1.148a.426.426 0 01-.422-.48l.1-.768.067-.76a.432.432 0 01.032-.125l.29-.69.135-.665-.032-.741a.433.433 0 01.02-.148l.239-.74.184-.696.085-.739a.472.472 0 01.008-.048l.173-.734.108-.746.165-1.52a.306.306 0 01.006-.037l.143-.758a.421.421 0 01.029-.093l.279-.633-.031-.692a.425.425 0 01.405-.444.414.414 0 01.444.405l.036.792a.424.424 0 01-.036.191l-.3.68-.13.692-.167 1.527-.112.776-.007.036-.171.728-.086.745a.431.431 0 01-.012.06l-.198.747-.222.689.031.716a.439.439 0 01-.008.103l-.153.757a.466.466 0 01-.025.08l-.281.668-.064.71-.1.784a.425.425 0 01-.421.37z" fill="#693E29"/><path d="M67.937 60.989a.848.848 0 01-.56-.212l-.397-.115a1.124 1.124 0 01-.065-.021l-.593-.227-.64-.052a.849.849 0 01-.295-.08L64.79 60l-.605-.124-.718-.091a.834.834 0 01-.17-.04l-.71-.244a.89.89 0 01-.053-.02l-.621-.262-.654-.135a.905.905 0 01-.08-.02l-.629-.195-.528-.044-.585.129a.84.84 0 01-.133.018l-.714.042-.644.077-.654.178a.854.854 0 01-.217.029l-.674.004-.585.101-.636.222a.866.866 0 01-.12.032l-.722.14a.855.855 0 01-.218.013l-.56-.039-.518.207a.858.858 0 01-.242.058l-.755.065a.849.849 0 01-.887-1.09l.22-.732.146-.706.11-.68.001-.72c0-.099.017-.196.051-.29l.251-.69.146-.62.014-.693c0-.027.002-.053.005-.078l.088-.773a.857.857 0 01.058-.226l.23-.565-.018-.611a.84.84 0 01.018-.198l.157-.759a.854.854 0 01.052-.165l.236-.545-.034-.595a.857.857 0 01.019-.231l.16-.727.11-.737a.817.817 0 01.014-.069l.178-.754a.786.786 0 01.031-.104l.244-.647.089-.63.027-.738a.827.827 0 01.021-.161l.175-.754a.786.786 0 01.032-.104l.239-.642.078-.634a.848.848 0 01.617-.715l.745-.206a.852.852 0 01.196-.03l.767-.027.757-.09.763-.069.726-.166a.85.85 0 01.088-.015l1.59-.186.036-.003.797-.058a.846.846 0 01.095-.001l.696.028.672-.15a.858.858 0 01.297-.013l.788.104a.864.864 0 01.142.032l.709.22.726.13a.705.705 0 01.034.007l.773.171a.679.679 0 01.043.01l.722.2.718.12.77.094c.031.004.063.01.094.017l.77.183a.85.85 0 01.112.035l.644.252 1.414.15.711.008c.023 0 .046.002.068.003l.614.056.607-.155a.864.864 0 01.31-.021l.653.076.645-.088a.846.846 0 01.238.001l.65.095.642-.072a.955.955 0 01.12-.005l.647.018.72-.166a.85.85 0 01.999 1.094l-.24.726-.079.678a.89.89 0 01-.018.104l-.156.64.01.672a.857.857 0 01-.03.237l-.191.7-.12.712-.226 1.505a.97.97 0 01-.023.101l-.207.726-.16.645-.027.685a.828.828 0 01-.014.121l-.405 2.243a.94.94 0 01-.017.081l-.182.67-.062.689a.835.835 0 01-.016.103l-.161.746a.843.843 0 01-.015.059l-.2.685-.102.656-.035.723a.853.853 0 01-.014.117l-.152.81a.85.85 0 01-.836.69h-.006l-.788-.005-.612.052-.625.217a.852.852 0 01-.206.044l-.71.061-.7.136a.917.917 0 01-.178.015l-.664-.012-.608.136-.703.21a.832.832 0 01-.168.033l-.697.063-.597.136a.85.85 0 01-.354.078zm.032-1.868a.843.843 0 01.297.054l.3-.069a.862.862 0 01.113-.017l.668-.06.649-.195a.854.854 0 01.058-.015l.738-.166a.862.862 0 01.202-.02l.677.012.655-.126a.94.94 0 01.088-.013l.65-.056.627-.218a.84.84 0 01.207-.043l.757-.064a.88.88 0 01.078-.004l.117.001.01-.053.034-.71a.971.971 0 01.01-.09l.118-.756a.89.89 0 01.023-.106l.207-.709.144-.666.064-.712a.86.86 0 01.026-.146l.19-.701.392-2.17.028-.71a.853.853 0 01.025-.172l.184-.743.008-.029.197-.69.348-2.224a.894.894 0 01.018-.083l.17-.625-.01-.66a.838.838 0 01.025-.214l.17-.694.044-.393-.398-.012-.691.078a.855.855 0 01-.219-.003l-.64-.094-.633.086a.825.825 0 01-.213.002l-.603-.07-.596.153a.845.845 0 01-.288.023l-.727-.066-.715-.007a.84.84 0 01-.077-.004l-1.584-.17a.844.844 0 01-.213-.053l-.692-.27-.666-.159-.74-.09a.736.736 0 01-.038-.005l-.78-.13a.859.859 0 01-.087-.02l-.742-.205-.735-.162-.762-.136a.853.853 0 01-.104-.026l-.691-.215-.566-.075-.633.142a.856.856 0 01-.22.02l-.76-.032-.731.053-1.517.177-.739.17a.87.87 0 01-.114.018l-.796.07-.767.092a.897.897 0 01-.071.006l-.702.024-.1.028-.021.17a.834.834 0 01-.048.192l-.254.685-.145.62-.025.7a.911.911 0 01-.008.088l-.108.767a.833.833 0 01-.046.181l-.258.683-.157.666-.109.732a.787.787 0 01-.01.058l-.142.641.038.68a.849.849 0 01-.07.384l-.28.649-.119.575.021.692a.85.85 0 01-.063.348l-.254.623-.07.616-.016.744a.846.846 0 01-.022.177l-.177.755a.852.852 0 01-.029.095l-.217.599-.001.64c0 .045-.004.09-.011.135l-.124.766-.007.035-.043.207a.842.842 0 01.333-.043l.643.043.552-.106.644-.225a.82.82 0 01.136-.035l.724-.125a.86.86 0 01.14-.012l.633-.004.606-.165c.04-.01.08-.018.121-.023l.731-.088a.727.727 0 01.052-.005l.672-.04.645-.142a.875.875 0 01.254-.017l.75.063a.858.858 0 01.18.035l.677.21.695.143a.875.875 0 01.16.049l.671.283.6.207.664.084a.755.755 0 01.063.01l.737.15a.86.86 0 01.194.066l.55.26.606.05c.08.007.158.024.233.053l.674.257.326.095a.845.845 0 01.153-.014z" fill="#693E29"/><path d="M58.984 55.201l.25-.71.396-.645.005-.764.16-.727-.19-.724-.46-.578-.459-.592-.663-.347-.588-.468-.738-.186-.589-.482-.755-.143-.57-.518-.674-.31-.617-.408-.694-.31-.476-.614-.686-.336-.6-.45-.602-.452-.627-.417-.717-.255-.647-.381-.65-.386-.728-.204-.744-.12-.705-.294-.757.04-.69.249-.658.323-.538.577-.423.666-.458.649-.216.775.072.804.363.71.489.617.394.687.524.585.642.478.527.577.41.693.614.499.473.636.62.465.605.471.542.543.591.487.583.504.724.29.668.366.62.47.743.207.708.297.743.202.763.131.774-.02.775-.052.734-.252.692-.333.618-.447.623-.456.474-.617z" fill="url(#paint8_linear_1_920)"/><path d="M54.322 58.01l-.069-.003-.76-.062a.932.932 0 01-.074-.01l-.756-.129a.86.86 0 01-.28-.1l-.647-.371-.574-.279-.667-.166a.855.855 0 01-.302-.143l-.557-.414-.614-.312a.855.855 0 01-.195-.136l-.508-.472-.574-.373a.85.85 0 01-.038-.026l-.614-.448a.91.91 0 01-.057-.045l-.538-.468-.592-.41a.855.855 0 01-.222-.227l-.377-.563-.517-.41a.83.83 0 01-.054-.047L43.585 51.3a.86.86 0 01-.062-.065l-.509-.605a.913.913 0 01-.04-.053l-.45-.628-.473-.609-.484-.658a.854.854 0 01-.14-.299l-.173-.702-.293-.658a.849.849 0 01-.072-.297l-.045-.807a.852.852 0 01.03-.278l.218-.777a.85.85 0 011.637.46l-.18.64.028.511.26.585a.82.82 0 01.049.141l.151.611.37.505.47.603a.918.918 0 01.02.027l.44.615.458.545 1.08 1.027.593.471a.8.8 0 01.178.194l.361.54.498.346a.66.66 0 01.072.056l.547.474.566.413.617.401c.041.027.08.057.116.09l.474.442.572.29a.859.859 0 01.124.077l.478.356.587.147a.832.832 0 01.165.06l.68.329a.758.758 0 01.052.027l.543.311.57.098.684.056.67-.006.67-.08.605-.113.569-.261.59-.297.395-.295.57-1.135.262-.65a.855.855 0 01.035-.077l.217-.413-.09-.457a.91.91 0 01-.013-.1l-.04-.548-.215-.37-.36-.325-.564-.247a.856.856 0 01-.134-.074l-.54-.365-.607-.248a.818.818 0 01-.142-.074l-.53-.346-.606-.195a.845.845 0 01-.2-.094l-.615-.397-.626-.372a.861.861 0 01-.088-.06l-.587-.457-.574-.418a.82.82 0 01-.069-.056l-.55-.498-.636-.42a.856.856 0 01-.21-.196l-.425-.564-.56-.43a.833.833 0 01-.107-.096l-.49-.53-.589-.407a.848.848 0 11.968-1.396l.665.46a.86.86 0 01.14.121l.504.545.595.455c.06.047.114.101.16.162l.409.54.567.375c.036.023.07.05.101.078l.565.51.56.408.566.44.593.354.027.016.534.345.608.195c.072.023.14.056.204.097l.557.364.612.25c.054.023.105.05.154.082l.55.371.62.272a.85.85 0 01.228.148l.56.505a.852.852 0 01.166.203l.38.655a.85.85 0 01.113.366l.05.691.137.7a.849.849 0 01-.082.555l-.335.64-.259.643a.82.82 0 01-.028.063l-.677 1.349a.85.85 0 01-.25.299l-.616.459a.905.905 0 01-.126.078l-.671.337a.865.865 0 01-.028.013l-.678.311a.84.84 0 01-.198.063l-.735.138a.965.965 0 01-.056.009l-.744.088a.844.844 0 01-.093.006l-.756.007-.007-.001zM116.4 46.544c-4.403-.899-8.001-1.59-10.796-2.071a2.521 2.521 0 01-1.735-1.132c-.419-.626-.547-1.292-.386-1.999l.53-2.408a2.677 2.677 0 011.205-1.734 2.805 2.805 0 012.073-.433c2.795.481 6.393 1.172 10.796 2.07a2.6 2.6 0 011.711 1.205c.401.643.522 1.316.361 2.023l-.53 2.408a2.61 2.61 0 01-1.181 1.709 2.62 2.62 0 01-2.048.362zm24.435-12.426a2.553 2.553 0 011.735 1.108c.418.61.546 1.269.386 1.974-2.089 8.766-5.752 15.284-10.989 19.554-5.238 4.27-12.885 6.983-22.942 8.139a2.734 2.734 0 01-2.072-.554 2.831 2.831 0 01-1.109-1.854l-.578-3.275c-.129-.706.032-1.364.482-1.975.45-.61 1.044-.947 1.783-1.011 8.226-.93 14.322-2.897 18.291-5.9 3.968-3.002 6.787-7.857 8.458-14.569a2.997 2.997 0 011.23-1.758 2.671 2.671 0 012.048-.457l3.277.578zm-31.183-8.958a732.62 732.62 0 0111.037 2.12c.739.16 1.317.553 1.735 1.18.418.625.546 1.308.386 2.046l-.53 2.649a2.595 2.595 0 01-1.205 1.71 2.693 2.693 0 01-2.073.36c-2.41-.48-6.073-1.17-10.989-2.07-.707-.128-1.277-.498-1.711-1.108a2.446 2.446 0 01-.409-2.022l.53-2.65a2.785 2.785 0 011.181-1.757 2.67 2.67 0 012.048-.458zm23.761-1.493c.643-.32 1.293-.369 1.952-.144.658.225 1.164.658 1.518 1.3.161.29.386.715.675 1.276.289.563.514.988.675 1.277.321.642.369 1.292.144 1.95a2.322 2.322 0 01-1.301 1.42c-.611.29-1.246.322-1.904.097a2.523 2.523 0 01-1.47-1.252 49.678 49.678 0 01-.675-1.276 51.955 51.955 0 00-.674-1.277 2.38 2.38 0 01-.169-1.902 2.43 2.43 0 011.229-1.469zm10.844.433a2655.413 2655.413 0 011.35 2.697c.321.643.369 1.285.145 1.927-.226.643-.659 1.124-1.302 1.445-.643.321-1.293.37-1.952.144-.659-.224-1.165-.658-1.518-1.3a73.848 73.848 0 00-1.398-2.6c-.321-.643-.378-1.293-.168-1.951.208-.658.634-1.148 1.277-1.47.642-.32 1.317-.368 2.024-.144.706.225 1.221.643 1.542 1.252zm45.546 16.038c.739 0 1.381.273 1.928.819.546.546.82 1.188.82 1.926v2.697c0 .74-.274 1.381-.82 1.927-.547.546-1.189.819-1.928.819h-16.579c-.29 0-.434.144-.434.433v3.179c0 1.895.257 3.09.771 3.588.514.498 1.703.746 3.567.746 2.859 0 5.735-.096 8.627-.289a2.597 2.597 0 011.928.699c.546.498.835 1.116.868 1.854l.048 2.938c.031.739-.21 1.404-.723 1.999-.514.594-1.141.907-1.88.939a202 202 0 01-10.796.289c-4.788 0-8.073-.875-9.856-2.625-1.783-1.75-2.675-5.049-2.675-9.898V48.76c0-.289-.145-.433-.434-.433h-9.35c-.739 0-1.382-.273-1.928-.819-.547-.546-.819-1.187-.819-1.927v-2.697c0-.738.272-1.38.819-1.926.546-.546 1.188-.819 1.928-.819h9.35c.289 0 .434-.144.434-.433V34.55c0-.289-.145-.433-.434-.433h-5.012c-.74 0-1.382-.272-1.928-.819-.547-.545-.82-1.187-.82-1.926v-2.938c0-.738.273-1.38.82-1.926.546-.546 1.188-.82 1.928-.82h28.243c.738 0 1.381.274 1.928.82.546.546.819 1.188.819 1.926v2.938c0 .739-.273 1.38-.819 1.926-.547.546-1.189.819-1.928.819h-12.242c-.29 0-.434.144-.434.433v5.154c0 .289.145.433.434.433h16.579zm47.908 4.383c.706.225 1.229.682 1.566 1.373.337.69.377 1.404.12 2.143l-1.156 3.467c-.225.707-.675 1.228-1.35 1.565-.675.337-1.382.378-2.12.12a254.326 254.326 0 00-19.713-5.971.204.204 0 00-.241.072.411.411 0 00-.096.265v14.882c0 .738-.274 1.38-.82 1.926-.547.546-1.189.82-1.928.82h-4.144c-.74 0-1.383-.274-1.929-.82-.546-.546-.819-1.187-.819-1.926V27.472c0-.738.273-1.38.819-1.927.546-.545 1.189-.819 1.929-.819h4.144c.739 0 1.381.274 1.928.82.546.546.82 1.187.82 1.926v9.825c0 .289.128.465.385.53 8.001 1.99 15.536 4.222 22.605 6.694zm46.317-6.069c.771 0 1.429.265 1.976.795.546.53.803 1.164.771 1.903-.257 7.385-2.659 13.036-7.205 16.952-4.547 3.918-11.527 6.229-20.942 6.936a2.959 2.959 0 01-2.048-.675 3.176 3.176 0 01-1.133-1.878l-.482-2.794a2.268 2.268 0 01.482-1.902c.45-.561 1.044-.874 1.784-.939 5.429-.417 9.663-1.42 12.7-3.01 3.036-1.59 5.132-3.86 6.289-6.815.064-.256-.017-.385-.241-.385h-25.255c-.739 0-1.382-.272-1.928-.819-.547-.545-.819-1.187-.819-1.926v-2.697c0-.739.272-1.38.819-1.927.546-.546 1.188-.819 1.928-.819h33.304zM254.097 25.69h27.28c.739 0 1.381.273 1.928.819.546.546.819 1.188.819 1.926v2.697c0 .74-.273 1.381-.819 1.926-.547.547-1.189.82-1.928.82h-27.28c-.739 0-1.381-.273-1.927-.82-.547-.545-.82-1.187-.82-1.926v-2.697c0-.738.273-1.38.82-1.926.546-.546 1.188-.82 1.927-.82zm70.175 13.677a660.896 660.896 0 0013.399 14.256c.546.547.819 1.197.819 1.95 0 .755-.273 1.406-.819 1.951l-2.988 3.034c-.547.547-1.181.82-1.904.82-.723 0-1.358-.257-1.904-.771-3.631-3.757-8.114-8.605-13.447-14.545-1.864-2.12-3.149-3.516-3.856-4.19-.707-.674-1.285-1.011-1.735-1.011-.385 0-.876.393-1.47 1.18-.595.787-1.615 2.287-3.06 4.503-3.374 5.073-5.271 7.898-5.688 8.476-.418.61-1.012.987-1.783 1.132-.771.144-1.463.008-2.073-.41l-3.181-2.07c-.643-.418-1.029-.988-1.156-1.71-.129-.723.015-1.404.433-2.047l5.254-7.562c3.566-5.169 5.863-8.283 6.892-9.343 1.156-1.187 2.458-1.846 3.904-1.974.45-.032 1.092-.049 1.928-.049 2.313 0 4.032.386 5.157 1.156 1.125.77 3.55 3.179 7.278 7.224zm-.771-12.907a2.658 2.658 0 012.096-.192 2.647 2.647 0 011.615 1.348c.61 1.06 1.253 2.28 1.928 3.66.353.675.41 1.365.169 2.071a2.555 2.555 0 01-1.374 1.541l-.482.241a2.585 2.585 0 01-2.097.169 2.733 2.733 0 01-1.614-1.373 29.144 29.144 0 00-.964-1.83 47.898 47.898 0 01-.964-1.782c-.354-.642-.426-1.324-.217-2.047a2.397 2.397 0 011.326-1.565l.578-.24zm8.434-1.926a2.66 2.66 0 012.097-.192c.723.224 1.26.674 1.614 1.348.899 1.67 1.574 2.938 2.025 3.805.353.674.409 1.365.168 2.07a2.554 2.554 0 01-1.373 1.542l-.627.337a2.711 2.711 0 01-2.096.12 2.732 2.732 0 01-1.615-1.372l-2.024-3.757a2.472 2.472 0 01-.193-2.023c.224-.706.675-1.235 1.349-1.589l.675-.289zm24.147.674c.738 0 1.381.273 1.928.819.546.546.819 1.188.819 1.926v7.369c0 6.133-.297 10.981-.892 14.545s-1.583 6.405-2.964 8.524c-1.381 2.12-3.39 3.95-6.024 5.491a2.74 2.74 0 01-2.121.29 3.062 3.062 0 01-1.783-1.253l-2.073-3.179c-.418-.61-.538-1.268-.361-1.975.176-.706.586-1.252 1.229-1.637 1.317-.834 2.337-1.678 3.06-2.529.724-.85 1.309-2.095 1.76-3.732.449-1.638.73-3.508.843-5.611.113-2.102.169-5.081.169-8.934v-7.369c0-.738.273-1.38.819-1.926.546-.546 1.189-.819 1.928-.819h3.663zm28.484 16.471c.739.097 1.35.442 1.832 1.036.482.595.674 1.26.578 1.999-.932 6.807-3.117 11.76-6.555 14.857-3.438 3.099-8.451 4.728-15.037 4.889-.74.031-1.374-.225-1.904-.771a2.732 2.732 0 01-.795-1.975v-33.76c0-.739.272-1.38.819-1.927.546-.546 1.188-.819 1.928-.819h3.904c.739 0 1.381.273 1.928.819.546.546.819 1.188.819 1.926v26.345c0 .288.129.369.386.24 1.639-.77 2.899-1.998 3.783-3.684.884-1.686 1.55-4.101 2.001-7.248a2.649 2.649 0 011.036-1.806 2.584 2.584 0 012-.554l3.277.433z" fill="#693E29"/></g><defs><linearGradient id="paint0_linear_1_920" x1="78.075" y1="54.748" x2="61.685" y2="44.738" gradientUnits="userSpaceOnUse"><stop stop-color="#fff"/><stop offset=".419" stop-color="#FAFAFA"/><stop offset=".946" stop-color="#EDEAEA"/><stop offset="1" stop-color="#EBE8E8"/></linearGradient><linearGradient id="paint1_linear_1_920" x1="72.148" y1="71.206" x2="59.45" y2="58.499" gradientUnits="userSpaceOnUse"><stop stop-color="#fff"/><stop offset="1" stop-color="#EBE8E8"/></linearGradient><linearGradient id="paint2_linear_1_920" x1="52.547" y1="67.896" x2="53.866" y2="40.084" gradientUnits="userSpaceOnUse"><stop stop-color="#fff"/><stop offset=".546" stop-color="#FDFDFD"/><stop offset=".743" stop-color="#F7F6F6"/><stop offset=".883" stop-color="#ECEBEB"/><stop offset=".995" stop-color="#DCDADA"/><stop offset="1" stop-color="#DBD9D9"/></linearGradient><linearGradient id="paint3_linear_1_920" x1="62.683" y1="10.953" x2="71.085" y2="10.953" gradientUnits="userSpaceOnUse"><stop stop-color="#E6AFCF"/><stop offset=".323" stop-color="#E6B0CC"/><stop offset=".531" stop-color="#E7B3C4"/><stop offset=".707" stop-color="#E9B8B5"/><stop offset=".864" stop-color="#EBC0A0"/><stop offset="1" stop-color="#EDC987"/></linearGradient><linearGradient id="paint4_linear_1_920" x1="43.547" y1="10.31" x2="35.152" y2="10.31" gradientUnits="userSpaceOnUse"><stop stop-color="#E6AFCF"/><stop offset=".259" stop-color="#E3ADCD"/><stop offset=".425" stop-color="#DBA8C6"/><stop offset=".566" stop-color="#CC9FB9"/><stop offset=".692" stop-color="#B793A8"/><stop offset=".809" stop-color="#9C8291"/><stop offset=".917" stop-color="#7B6F76"/><stop offset="1" stop-color="#5C5C5C"/></linearGradient><linearGradient id="paint5_linear_1_920" x1="64.578" y1="24.09" x2="64.578" y2="29.883" gradientUnits="userSpaceOnUse"><stop stop-color="#946F44"/><stop offset=".244" stop-color="#805B36"/><stop offset=".738" stop-color="#5B361D"/><stop offset="1" stop-color="#4D2814"/></linearGradient><linearGradient id="paint6_linear_1_920" x1="46.653" y1="24.042" x2="46.653" y2="29.83" gradientUnits="userSpaceOnUse"><stop stop-color="#946F44"/><stop offset=".244" stop-color="#805B36"/><stop offset=".738" stop-color="#5B361D"/><stop offset="1" stop-color="#4D2814"/></linearGradient><linearGradient id="paint7_linear_1_920" x1="56.028" y1="36.895" x2="56.275" y2="31.98" gradientUnits="userSpaceOnUse"><stop stop-color="#E38181"/><stop offset=".199" stop-color="#DF7C7C"/><stop offset=".441" stop-color="#D26F6D"/><stop offset=".705" stop-color="#BD5954"/><stop offset=".984" stop-color="#A03B32"/><stop offset="1" stop-color="#9E3930"/></linearGradient><linearGradient id="paint8_linear_1_920" x1="58.37" y1="56.122" x2="42.982" y2="44.711" gradientUnits="userSpaceOnUse"><stop stop-color="#fff"/><stop offset=".621" stop-color="#FDFEFD"/><stop offset=".845" stop-color="#F6F9F8"/><stop offset="1" stop-color="#EBF0EE"/></linearGradient><clipPath id="clip0_1_920"><path fill="#fff" d="M0 0h387v108H0z"/></clipPath></defs></svg>