<svg width="337" height="100" viewBox="0 0 337 100" fill="none" xmlns="http://www.w3.org/2000/svg"><g clip-path="url(#clip0_1_211)"><path d="M324.646 0H12.34C5.44 0-.155 5.597-.155 12.502v74.996C-.155 94.403 5.439 100 12.34 100h312.306c6.901 0 12.495-5.597 12.495-12.502V12.502C337.141 5.597 331.547 0 324.646 0z" fill="#000"/><path d="M324.66 2.004c5.782 0 10.492 4.713 10.492 10.498v74.996c0 5.785-4.71 10.498-10.492 10.498H12.34c-5.782 0-10.493-4.712-10.493-10.498V12.502c0-5.785 4.71-10.498 10.493-10.498h312.32zm0-2.004H12.34C5.472 0-.155 5.63-.155 12.502v74.996C-.155 94.37 5.472 100 12.34 100h312.32c6.868 0 12.495-5.63 12.495-12.502V12.502C337.155 5.63 331.528 0 324.66 0z" fill="#A6A6A6"/><path d="M170.094 26.88c-5.881 0-10.662 4.473-10.662 10.625s4.795 10.625 10.662 10.625c5.866 0 10.661-4.515 10.661-10.625S175.96 26.88 170.094 26.88zm0 17.074c-3.216 0-5.994-2.653-5.994-6.449 0-3.795 2.778-6.448 5.994-6.448 3.215 0 5.993 2.61 5.993 6.448 0 3.838-2.778 6.449-5.993 6.449zm-23.27-17.074c-5.881 0-10.662 4.473-10.662 10.625s4.795 10.625 10.662 10.625c5.867 0 10.662-4.515 10.662-10.625s-4.795-10.625-10.662-10.625zm0 17.074c-3.215 0-5.994-2.653-5.994-6.449 0-3.795 2.779-6.448 5.994-6.448s5.994 2.61 5.994 6.448c0 3.838-2.779 6.449-5.994 6.449zM119.14 30.14v4.515h10.789c-.324 2.54-1.171 4.388-2.454 5.687-1.565 1.566-4.019 3.301-8.335 3.301-6.642 0-11.832-5.361-11.832-12.008 0-6.646 5.19-12.007 11.832-12.007 3.582 0 6.205 1.41 8.123 3.217l3.188-3.19c-2.694-2.581-6.276-4.543-11.311-4.543-9.096 0-16.74 7.408-16.74 16.51 0 9.1 7.644 16.508 16.74 16.508 4.908 0 8.617-1.608 11.508-4.628 2.976-2.977 3.907-7.168 3.907-10.554 0-1.044-.085-2.018-.24-2.822H119.14v.014zm113.203 3.5c-.888-2.371-3.582-6.774-9.096-6.774S213.22 31.17 213.22 37.491c0 5.955 4.513 10.625 10.549 10.625 4.865 0 7.686-2.977 8.856-4.712l-3.624-2.413c-1.213 1.778-2.863 2.935-5.232 2.935s-4.062-1.087-5.148-3.218l14.216-5.883-.48-1.214-.014.028zm-14.497 3.555c-.127-4.106 3.187-6.209 5.556-6.209 1.848 0 3.427.932 3.949 2.258l-9.505 3.951zm-11.551 10.3h4.668V16.241h-4.668v31.255zm-7.643-18.244h-.155c-1.044-1.242-3.061-2.37-5.599-2.37-5.317 0-10.182 4.67-10.182 10.667s4.865 10.597 10.182 10.597c2.538 0 4.541-1.13 5.599-2.413h.155v1.524c0 4.063-2.172 6.236-5.684 6.236-2.863 0-4.625-2.06-5.359-3.781l-4.061 1.693c1.17 2.822 4.273 6.28 9.42 6.28 5.472 0 10.098-3.218 10.098-11.077V27.515h-4.428v1.736h.014zm-5.359 14.703c-3.216 0-5.923-2.695-5.923-6.406s2.693-6.491 5.923-6.491c3.229 0 5.683 2.737 5.683 6.49 0 3.754-2.496 6.407-5.683 6.407zm60.924-27.713h-11.17v31.255h4.668V35.657h6.516c5.161 0 10.252-3.74 10.252-9.708 0-5.969-5.076-9.708-10.252-9.708h-.014zm.112 15.07h-6.628v-10.71h6.628c3.484 0 5.458 2.893 5.458 5.362 0 2.47-1.974 5.362-5.458 5.362v-.014zm28.812-4.487c-3.37 0-6.868 1.481-8.32 4.783l4.146 1.736c.889-1.736 2.524-2.286 4.259-2.286 2.412 0 4.866 1.453 4.908 4.021v.325c-.846-.48-2.651-1.213-4.866-1.213-4.456 0-8.997 2.455-8.997 7.04 0 4.177 3.652 6.872 7.756 6.872 3.131 0 4.866-1.41 5.952-3.047h.155v2.412h4.499v-11.98c0-5.545-4.147-8.649-9.492-8.649v-.014zm-.564 17.13c-1.523 0-3.652-.762-3.652-2.653 0-2.413 2.651-3.344 4.936-3.344 2.045 0 3.018.437 4.259 1.044-.367 2.893-2.849 4.939-5.543 4.939v.014zM309.02 27.5l-5.345 13.546h-.155L297.978 27.5h-5.021l8.321 18.936-4.739 10.54h4.866L314.224 27.5h-5.204zm-41.984 19.994h4.668V16.241h-4.668v31.255z" fill="#fff"/><path d="M51.616 48.554L25.018 76.803v.014a7.18 7.18 0 006.939 5.32c1.325 0 2.58-.368 3.638-.989l.085-.056 29.94-17.285L51.602 48.54l.014.014z" fill="#EA4335"/><path d="M78.524 43.742h-.028l-12.932-7.52-14.568 12.967 14.61 14.618 12.862-7.422a7.182 7.182 0 003.78-6.336 7.154 7.154 0 00-3.738-6.307h.014z" fill="#FBBC04"/><path d="M25.004 23.197a7.296 7.296 0 00-.24 1.849v49.922c0 .635.085 1.256.24 1.849l27.515-27.53-27.515-26.09z" fill="#4285F4"/><path d="M51.814 49.993L65.578 36.22 35.666 18.866a7.214 7.214 0 00-3.71-1.03 7.177 7.177 0 00-6.938 5.333l26.796 26.81v.014z" fill="#34A853"/><path d="M104.403 69.112c.409-.014.747-.028 1.015-.056.268-.028.522-.042.734-.056.253-.029.691-.085 1.353-.156l2.342-.253c.902-.1 1.875-.184 2.919-.283 1.043-.099 2.059-.183 3.046-.268.846-.07 1.594-.14 2.256-.183.663-.057 1.27-.085 1.82-.127.55-.029 1.043-.057 1.495-.07v.677h-1.453a18.67 18.67 0 00-1.565.112 5.62 5.62 0 00-1.284.283 7.232 7.232 0 00-2.355 1.368 8.278 8.278 0 00-1.678 1.99c-.437.734-.79 1.481-1.016 2.23-.225.747-.338 1.453-.338 2.088 0 .987.169 1.834.494 2.554.338.72.775 1.326 1.339 1.806s1.185.874 1.876 1.17a10.12 10.12 0 002.144.65 12.86 12.86 0 002.129.226l-.24.606c-.691 0-1.424-.084-2.2-.24a10.436 10.436 0 01-2.242-.733 7.363 7.363 0 01-1.974-1.298 5.81 5.81 0 01-1.397-1.933c-.352-.748-.521-1.637-.521-2.64 0-1.213.225-2.355.691-3.4a9.784 9.784 0 011.819-2.765c.747-.79 1.537-1.397 2.383-1.82l-1.974.211c-.79.085-1.65.17-2.553.254l-2.707.296c-.903.1-1.721.198-2.454.297-.734.099-1.326.183-1.763.268l-.113-.833-.028.028zm13.806 2.428c.156.211.353.507.579.86.225.353.451.734.691 1.115.239.38.437.776.606 1.129l-.606.31a16.85 16.85 0 00-.846-1.594 14.59 14.59 0 00-1.002-1.538l.578-.282zm2.313-.819c.17.212.381.508.607.86.225.354.465.735.705 1.116.24.38.451.776.62 1.128l-.606.31a25.689 25.689 0 00-.874-1.594c-.353-.592-.691-1.1-1.016-1.538l.564-.282zm4.273 5.39h19.279v.65h-19.279v-.65zm1.411-5.136h16.697v.635h-16.697v-.635zm14.991-6.11l.522.494c-.846.296-1.862.55-3.061.776a60.847 60.847 0 01-3.864.593c-1.382.17-2.792.31-4.202.409-1.425.113-2.779.198-4.09.254-.014-.085-.042-.184-.071-.296a2.059 2.059 0 00-.084-.269c1.283-.07 2.623-.169 4.033-.268a78.22 78.22 0 004.16-.409 54.006 54.006 0 003.766-.564c1.156-.212 2.115-.466 2.877-.734l.014.014zm-7.108 1.566h.649v16.481c0 .395-.071.678-.226.833-.155.17-.366.282-.663.367-.31.056-.789.099-1.452.113a90.06 90.06 0 01-2.778 0c-.015-.057-.043-.127-.071-.212-.028-.085-.07-.155-.113-.24-.042-.085-.07-.155-.127-.212.677 0 1.298.029 1.876.029h2.256c.254-.014.424-.07.508-.156.099-.084.141-.254.141-.48V66.432zm15.908.353c-.028.085-.056.184-.084.283-.029.098-.057.211-.085.31a5.46 5.46 0 00-.085.367c-.098.522-.211 1.072-.31 1.637a32.053 32.053 0 00-.296 1.763 40.625 40.625 0 00-.423 3.613 23.294 23.294 0 00-.071 1.707c0 .847.028 1.609.071 2.314.042.706.127 1.482.225 2.343.141-.41.311-.861.494-1.37.183-.507.367-1.001.55-1.495l.465-1.256.48.353c-.155.423-.353.917-.564 1.496-.212.578-.423 1.129-.593 1.665-.183.536-.296.96-.366 1.256a4.084 4.084 0 00-.071.465 1.3 1.3 0 000 .466l.043.324c.014.113.028.212.042.283l-.606.07a22.651 22.651 0 01-.536-2.963c-.141-1.157-.212-2.47-.212-3.937 0-.776.042-1.594.127-2.413a44.69 44.69 0 01.296-2.44c.127-.805.24-1.539.367-2.216.113-.677.211-1.256.282-1.736.028-.197.056-.38.07-.536.014-.155.029-.296.029-.423l.818.085-.057-.015zm4.88 10.33a11.85 11.85 0 00-.268 1.156 5.053 5.053 0 00-.099.988c0 .254.056.536.155.804s.296.536.592.776c.297.24.734.424 1.298.579.564.141 1.311.212 2.242.212.987 0 1.918-.043 2.807-.142.888-.098 1.72-.24 2.524-.423l.028.72c-.648.14-1.438.254-2.341.352-.902.1-1.875.127-2.905.127-1.763 0-3.046-.254-3.822-.776-.775-.522-1.17-1.241-1.17-2.173 0-.296.028-.62.084-.987.057-.367.141-.805.24-1.299l.649.085h-.014zm.056-8.439c.522.099 1.157.184 1.918.226.748.056 1.537.07 2.369.07.832 0 1.608-.028 2.37-.084a20.218 20.218 0 001.875-.212v.72c-.493.056-1.114.099-1.875.14-.762.03-1.538.057-2.37.057a42.986 42.986 0 01-4.287-.197v-.72zm21.239 1.284l.691.127c-.536 2.258-1.227 4.29-2.059 6.067-.846 1.778-1.876 3.344-3.089 4.685-1.212 1.34-2.679 2.498-4.371 3.471a.537.537 0 00-.156-.155c-.07-.057-.141-.127-.211-.184-.071-.056-.141-.127-.212-.169 2.553-1.383 4.57-3.217 6.065-5.503 1.494-2.286 2.609-5.08 3.342-8.353v.014zM170.7 66.19h6.149v.65H170.7v-.65zm5.782 0h.635c0 .607.028 1.34.07 2.188.043.846.17 1.777.367 2.78.183 1.001.479 2.06.888 3.146.409 1.1.959 2.201 1.651 3.302.691 1.1 1.579 2.187 2.637 3.245 1.072 1.044 2.355 2.032 3.878 2.95a2.23 2.23 0 00-.169.126c-.071.056-.141.127-.212.184l-.169.169c-1.523-.931-2.821-1.933-3.878-3.006a18.26 18.26 0 01-2.652-3.316 19.462 19.462 0 01-1.678-3.4 21.525 21.525 0 01-.917-3.245 23.653 23.653 0 01-.38-2.865 35.242 35.242 0 01-.085-2.243l.014-.015zm17.079 4.023c-.099.014-.325.042-.691.099-.353.056-.776.112-1.256.169-.479.07-.973.127-1.495.212-.507.07-1.001.14-1.452.211l-.085-.776c.17 0 .339.014.494 0 .155 0 .31-.014.451-.028.254-.014.578-.042.973-.085.409-.042.846-.084 1.298-.14.465-.057.902-.114 1.325-.184.423-.07.762-.155 1.016-.24l.395.367c-.127.211-.268.423-.409.663-.141.24-.296.48-.438.734-.141.254-.267.48-.394.691l-.071 1.849c-.254.437-.578.93-.959 1.495-.381.565-.776 1.143-1.199 1.764a232.632 232.632 0 01-2.552 3.626l-.494-.592c.254-.339.578-.762.973-1.284s.804-1.087 1.241-1.68c.437-.606.861-1.199 1.27-1.777.409-.593.775-1.115 1.071-1.58.297-.466.508-.819.635-1.045l.127-1.679.169-.776.057-.014zm-.156-3.006v-.635c0-.24-.028-.451-.056-.649l.917.043c-.043.211-.099.635-.17 1.256a71.74 71.74 0 00-.211 2.215c-.071.86-.141 1.778-.212 2.737a103.4 103.4 0 00-.169 2.85c-.042.932-.07 1.778-.07 2.54v3.245c0 .452.014.989.028 1.61.014.183.028.366.028.507 0 .156.014.31.028.466h-.775a5.24 5.24 0 00.056-.466c.014-.155 0-.31 0-.494v-4.868c0-.324.014-.776.042-1.368.029-.593.057-1.256.113-1.99.042-.734.085-1.481.141-2.243.057-.762.099-1.482.141-2.16.043-.677.085-1.241.113-1.707.028-.465.042-.762.042-.889h.014zm14.343 13.448c-.649.69-1.312 1.199-1.989 1.523-.676.325-1.311.48-1.903.48-.621 0-1.129-.183-1.524-.536-.394-.353-.592-.917-.592-1.65 0-.622.042-1.313.127-2.075.085-.762.183-1.538.296-2.342.113-.805.212-1.567.296-2.3.085-.734.127-1.383.127-1.948 0-.72-.183-1.241-.536-1.538-.352-.31-.846-.451-1.494-.451-.508 0-1.072.127-1.693.38a10.61 10.61 0 00-1.932 1.059c-.663.452-1.326.974-1.974 1.566a21.878 21.878 0 00-1.876 1.92l.085-.96c.268-.31.62-.65 1.057-1.058a18.76 18.76 0 011.439-1.214c.536-.41 1.086-.79 1.65-1.143a9.961 9.961 0 011.706-.832c.564-.212 1.1-.31 1.594-.31.578 0 1.072.098 1.453.296.38.197.691.493.888.888.197.395.31.875.31 1.44 0 .522-.042 1.157-.141 1.905-.098.747-.197 1.523-.31 2.342-.113.818-.226 1.609-.31 2.356a15.106 15.106 0 00-.141 1.933c0 .452.113.847.338 1.186.226.338.592.508 1.1.508.635 0 1.269-.17 1.89-.522.62-.353 1.241-.861 1.876-1.524l.197.677-.014-.056zm11.592-14.548c-.014.099-.028.268-.056.494-.028.225-.042.451-.056.691-.014.24-.029.438-.029.593v4.43c0 .579.015 1.242.043 2.004l.084 2.314c.029.79.057 1.538.085 2.244.028.705.042 1.298.042 1.792 0 .409-.07.776-.211 1.115a2.496 2.496 0 01-.649.888 3.013 3.013 0 01-1.044.593c-.409.141-.888.212-1.424.212-.959 0-1.791-.1-2.51-.31-.719-.212-1.269-.523-1.664-.946-.395-.423-.579-.974-.579-1.637 0-.55.17-1.058.508-1.524.339-.466.889-.832 1.622-1.115.733-.282 1.692-.423 2.863-.423 1.015 0 2.002.113 2.947.353.945.226 1.848.55 2.708.931.86.395 1.65.833 2.369 1.313.72.48 1.368.973 1.918 1.467l-.409.677a13.132 13.132 0 00-1.875-1.566 14.874 14.874 0 00-2.327-1.312 13.92 13.92 0 00-2.609-.903 11.962 11.962 0 00-2.722-.325c-1.41 0-2.482.226-3.23.677-.747.452-1.114 1.045-1.114 1.764 0 .663.339 1.214 1.016 1.637.676.423 1.678.635 3.003.635.903 0 1.594-.212 2.088-.635.493-.423.733-1.016.733-1.806 0-.423-.014-.974-.042-1.637a290.83 290.83 0 01-.085-2.173l-.085-2.3a54.644 54.644 0 01-.042-2.018v-4.43c0-.17 0-.381-.028-.621s-.028-.466-.042-.692a2.011 2.011 0 00-.071-.465h.874v.014zm-.578 4.614c.423 0 .931 0 1.523-.028.593-.014 1.227-.043 1.89-.07a49.91 49.91 0 002.003-.142 46.78 46.78 0 001.847-.197l.028.677c-.564.056-1.17.113-1.833.17-.663.056-1.326.098-1.988.126a49.54 49.54 0 01-1.904.085c-.607.028-1.114.028-1.552.028v-.649h-.014zm24.892 4.755c0-.762-.184-1.411-.564-1.947a3.795 3.795 0 00-1.538-1.27c-.648-.31-1.368-.452-2.186-.452-.888 0-1.706.07-2.453.198-.748.127-1.439.282-2.059.451-.621.17-1.185.339-1.679.48a9.907 9.907 0 00-.888.282l-.677.254-.282-.889c.254-.028.508-.07.776-.127.267-.056.55-.098.86-.169a45.127 45.127 0 001.763-.437 32.19 32.19 0 012.228-.466 13.969 13.969 0 012.426-.212c.916 0 1.734.17 2.482.494.747.325 1.339.805 1.777 1.454.437.634.648 1.425.648 2.37 0 1.185-.239 2.244-.719 3.147a7.178 7.178 0 01-2.003 2.342c-.86.65-1.847 1.185-2.975 1.609-1.128.423-2.341.733-3.653.96l-.437-.594a17.646 17.646 0 003.596-.86c1.1-.395 2.073-.903 2.919-1.51a6.578 6.578 0 001.947-2.201c.465-.861.691-1.82.691-2.921v.014zm-9.717-9.158c.564.127 1.241.254 2.031.381.789.127 1.607.226 2.439.325.847.099 1.636.17 2.384.226.747.056 1.368.098 1.861.112l-.112.678c-.565-.043-1.227-.099-1.975-.17-.761-.07-1.537-.14-2.341-.24a88.292 88.292 0 01-2.355-.31c-.762-.113-1.439-.211-2.059-.31l.127-.692z" fill="#fff" stroke="#fff"/></g><defs><clipPath id="clip0_1_211"><path fill="#fff" d="M0 0h337v100H0z"/></clipPath></defs></svg>